<svg id="Layer_1" data-name="Layer 1" xmlns="http://www.w3.org/2000/svg" width="215" height="91" viewBox="0 0 215 91">
  <title>Aurora black Logo</title>
  <path d="M167.38,61.47c0,2.26-2.15,2.62-7.78,2.62h-4.1c-4.26,0-5-.85-5-2.86v-.56c0-2.26,1.12-2.82,5.13-2.82h4.76c4.76,0,7,.32,7,2.78v.85Zm0,4.8h3.1v-12c0-5.32-3.89-6.17-9.64-6.17H156c-5.55,0-7.7,1.33-7.7,4.6v.89h3.1v-.65c0-1.49.74-2.38,4.64-2.38h4.55c4.76,0,6.87.4,6.87,3.67V57.6h-.08c-1.08-1.73-2.52-2.14-6.58-2.14h-5c-5.42,0-8.36.48-8.36,4.56v1.21c0,3.39,1.24,5.36,5.92,5.36h7.41c4.76,0,5.75-.44,6.58-2.06h.08v1.73Zm-41.88,0h3.1V54.9c0-2.34,1.57-4.36,4.88-4.36h1.9c5.5,0,6.46.69,6.46,5.12v.77h2.9V54.29c0-4.4-1.9-6.21-7.7-6.21h-2.94c-2.11,0-4.47.56-5.63,2.86h-.08V48.36h-2.9V66.27Zm-8.57-7.18c0,4.19-2.52,5-6.13,5h-6.29c-3.6,0-6.13-.81-6.13-5V55.5c0-4.19,2.52-5,6.13-5h6.29c3.6,0,6.13.81,6.13,5Zm-21.69.2c0,5.89,4.3,7.26,10.18,7.26h4.43c5.88,0,10.18-1.37,10.18-7.26v-4c0-5.89-4.3-7.26-10.18-7.26h-4.43c-5.88,0-10.18,1.37-10.18,7.26v4ZM73,66.27h3.1V54.9c0-2.34,1.57-4.36,4.88-4.36h1.9c5.5,0,6.46.69,6.46,5.12v.77h2.9V54.29c0-4.4-1.9-6.21-7.7-6.21h-3c-2.11,0-4.47.56-5.63,2.86h-.08V48.36h-2.9V66.27Zm-9,0h2.9V48.36h-3.1v10.2c0,4.23-1.66,5.57-8.9,5.57H54.1c-6,0-6.79-1.73-6.79-4.36V48.36h-3.1V60.5c0,3.23,1.82,6.09,7.66,6.09h4.64c3.85,0,6.29-.6,7.41-3.39H64v3.06ZM31.8,58.08H14.29l8.77-14.44ZM5.35,66.27h4l3.23-5.36h20.9l3.23,5.36h4L25.26,40.82H20.83Z"/>
  <path d="M166.56,83.81h.74v-2.3l3.19-3.11h-1L167,80.91l-2.52-2.5h-1l3.19,3.11v2.3Zm-9.77-2.7h-3.6v.6H156v.56c0,.77-.46,1-1.2,1H151.9c-.7,0-1.28-.2-1.28-1.17v-2c0-.93.58-1.17,1.28-1.17h1.95c1.86,0,2.15.08,2.15,1.09h.7v-.2c0-1.25-1.08-1.49-2.07-1.49h-2.81c-1.49,0-2,.65-2,2v1.49c0,1.37.46,2,2,2h3.1c1.37,0,1.86-.52,1.86-2v-.77Zm-19.58,0V79h3.44c1.12,0,1.37.2,1.37.81v.48c0,.56-.37.77-1.2.77h-3.6Zm-.74,2.74h.74V81.67h3.64c.66,0,1.12.12,1.12,1v1.17h.7V82.4c0-.48-.17-.89-1-1h0c.58,0,1-.24,1-1v-.44c0-1-.25-1.53-1.86-1.53h-4.43Zm-12.46,0h5.46v-.6h-4.72v-1.9h4.51v-.6h-4.51V79h4.68v-.6H124v5.44Zm-14.28,0h.74V79.05l5.09,4.76h1.12v-5.4h-.74v4.76l-5.09-4.76h-1.12v5.4Zm-12.46,0h5.46v-.6H98v-1.9h4.51v-.6H98V79h4.68v-.6H97.27Z"/>
  <path d="M180.92,23.68s-3.93,3.75-5.63,3.75-5.63-3.75-5.63-3.75,3.85,3.83,3.85,5.48-3.85,5.48-3.85,5.48,3.93-3.75,5.63-3.75,5.63,3.75,5.63,3.75-3.85-3.83-3.85-5.48,3.85-5.48,3.85-5.48"/>
  <path d="M195.11,9.85s-3.93,3.75-5.63,3.75-5.63-3.75-5.63-3.75,3.85,3.83,3.85,5.48-3.85,5.48-3.85,5.48,3.93-3.75,5.63-3.75,5.63,3.75,5.63,3.75-3.85-3.83-3.85-5.48,3.85-5.48,3.85-5.48"/>
  <path d="M209.35,23.72s-3.93,3.75-5.63,3.75-5.63-3.75-5.63-3.75,3.85,3.83,3.85,5.48-3.85,5.48-3.85,5.48,3.93-3.75,5.63-3.75,5.63,3.75,5.63,3.75-3.85-3.83-3.85-5.48,3.85-5.48,3.85-5.48"/>
  <path d="M195.11,37.51s-3.93,3.75-5.63,3.75-5.63-3.75-5.63-3.75,3.85,3.83,3.85,5.48-3.85,5.48-3.85,5.48,3.93-3.75,5.63-3.75,5.63,3.75,5.63,3.75-3.85-3.83-3.85-5.48,3.85-5.48,3.85-5.48"/>
</svg>