<?xml version="1.0" standalone="no"?>
<!DOCTYPE svg PUBLIC "-//W3C//DTD SVG 1.1//EN" "http://www.w3.org/Graphics/SVG/1.1/DTD/svg11.dtd" >
<svg xmlns="http://www.w3.org/2000/svg">
<metadata></metadata>
<defs>
<font id="ZurichCnBTRegular" horiz-adv-x="981" >
<font-face units-per-em="2048" ascent="1638" descent="-410" />
<missing-glyph horiz-adv-x="492" />
<glyph horiz-adv-x="0" />
<glyph horiz-adv-x="2048" />
<glyph unicode="&#xd;" horiz-adv-x="492" />
<glyph unicode=" "  horiz-adv-x="492" />
<glyph unicode="&#x09;" horiz-adv-x="492" />
<glyph unicode="&#xa0;" horiz-adv-x="492" />
<glyph unicode="!" horiz-adv-x="616" d="M197 1475h223l-39 -1125h-143zM215 0v199h191v-199h-191z" />
<glyph unicode="&#x22;" horiz-adv-x="590" d="M94 881v553h117v-553h-117zM377 881v553h119v-553h-119z" />
<glyph unicode="#" horiz-adv-x="1575" d="M104 467l43 123h320l96 272h-342l43 123h344l168 471h146l-166 -471h260l168 471h143l-164 -471h307l-43 -123h-311l-94 -272h330l-43 -123h-332l-166 -469h-145l168 469h-265l-168 -469h-143l166 469h-320zM614 590h263l96 272h-264z" />
<glyph unicode="$" d="M76 416l2 49h178q-2 -22 -2 -59q0 -261 192 -261v539q-182 104 -257.5 198t-75.5 227t88 221.5t245 101.5v131h95v-131q331 -16 331 -349v-28h-178v8q0 223 -153 223v-442q200 -109 281 -208t81 -228q0 -175 -95.5 -282.5t-266.5 -125.5v-162h-95v162q-370 28 -370 416z M293 1102q0 -64 34.5 -113t118.5 -102v399q-153 -24 -153 -184zM541 146q89 9 135.5 71.5t46.5 155t-42.5 152t-139.5 118.5v-497z" />
<glyph unicode="%" horiz-adv-x="1315" d="M49 1081q0 369 272.5 369t272.5 -383q0 -175 -69.5 -265.5t-202.5 -90.5q-273 0 -273 370zM193 1080q0 -251 129 -251t129 258q0 117 -34 180.5t-95 63.5q-129 0 -129 -251zM293 -25l612 1475h119l-621 -1475h-110zM723 346q0 187 66.5 278t203.5 91q273 0 273 -383 q0 -175 -69.5 -266t-203.5 -91q-270 0 -270 371zM864 345q0 -251 129 -251t129 258q0 117 -33.5 180.5t-95.5 63.5q-129 0 -129 -251z" />
<glyph unicode="&#x26;" horiz-adv-x="1208" d="M80 387q0 155 74 250.5t208 114.5q-110 27 -171.5 114.5t-61.5 216.5q0 188 119.5 291t337.5 103h129v-168h-111q-143 0 -208.5 -56.5t-65.5 -178t70 -187.5t198 -66h195v234h190v-234h180v-155h-180v-666h-395q-175 0 -244.5 15t-129.5 59t-97 126t-37 187zM289 415 q0 -135 65 -191t238 -56h201v498h-191q-168 0 -240.5 -58t-72.5 -193z" />
<glyph unicode="'" horiz-adv-x="305" d="M94 881v553h117v-553h-117z" />
<glyph unicode="(" horiz-adv-x="592" d="M113 598q0 319 215 899h127q-138 -503 -138 -903.5t125 -900.5h-120q-209 586 -209 905z" />
<glyph unicode=")" horiz-adv-x="592" d="M137 1497h129q213 -575 213 -896.5t-209 -907.5h-120q124 496 124 900.5t-137 903.5z" />
<glyph unicode="*" d="M117 1081v127l309 -26l-176 252l108 63l134 -278l131 278l110 -63l-176 -252l307 24v-127l-307 27l176 -254l-110 -64l-131 281l-134 -281l-108 64l176 254z" />
<glyph unicode="+" horiz-adv-x="1706" d="M254 553v117h541v551h118v-551h539v-117h-539v-553h-118v553h-541z" />
<glyph unicode="," horiz-adv-x="492" d="M66 -240l104 467h195l-160 -467h-139z" />
<glyph unicode="-" horiz-adv-x="569" d="M68 442v150h434v-150h-434z" />
<glyph unicode="." horiz-adv-x="492" d="M147 0v227h195v-227h-195z" />
<glyph unicode="/" horiz-adv-x="569" d="M-94 -190l598 1687h125l-598 -1687h-125z" />
<glyph unicode="0" d="M90 712.5q0 311.5 19.5 420t66.5 174.5q108 145 316 145q210 0 313 -143q47 -65 66.5 -171t19.5 -388v-74q0 -281 -19.5 -387t-68.5 -173q-102 -141 -311 -141t-316 144q-47 65 -66.5 173.5t-19.5 420zM272 713.5q0 -388.5 46.5 -484.5t172 -96t172 99t46.5 481.5 t-47 481.5t-172 99t-171.5 -96t-46.5 -484.5z" />
<glyph unicode="1" d="M215 1057v196q76 37 256 174h141v-1427h-184v1208q-48 -44 -213 -151z" />
<glyph unicode="2" d="M109 0v182l438 627q133 193 133 313q0 80 -50.5 128t-137.5 48t-129.5 -54.5t-49.5 -178.5h-198l-2 39q0 167 100 256.5t281 89.5t277.5 -84t96.5 -233q0 -203 -204 -492l-338 -471h548v-170h-765z" />
<glyph unicode="3" d="M82 350v27h196q8 -242 189 -242q213 0 213 264q0 135 -65.5 200t-200.5 65h-31v170q143 0 211 57.5t68 179.5q0 219 -185 219q-87 0 -133.5 -52.5t-46.5 -152.5h-193v23q0 157 96 249.5t271 92.5t274 -92.5t99 -256t-64.5 -253.5t-183.5 -103q135 -6 197.5 -89t62.5 -257 q0 -424 -381 -424q-190 0 -291.5 97t-101.5 278z" />
<glyph unicode="4" d="M86 358v207l401 862h250v-913h158v-156h-158v-358h-184v358h-467zM223 512h332l18 766z" />
<glyph unicode="5" d="M117 332h188q8 -107 52.5 -157t138 -50t139 81t45.5 259t-43.5 248.5t-149.5 70.5q-146 0 -168 -153h-188l14 796h660v-161h-471l-19 -432q88 104 242 104t230.5 -112t76.5 -349q0 -504 -395 -504q-169 0 -260.5 93.5t-91.5 265.5z" />
<glyph unicode="6" d="M111 698q0 252 16 374.5t57 205.5q85 172 314 172q160 0 252 -84t92 -229v-13h-191q-12 172 -151 172q-109 0 -154 -91.5t-45 -323.5q0 -13 1 -42t1 -44q71 125 231 125t248 -116t88 -355t-89 -354t-294.5 -115t-290.5 146.5t-85 571.5zM307 483q0 -181 47 -263.5 t145.5 -82.5t143.5 81t45 240.5t-46 231.5t-142 72q-193 0 -193 -279z" />
<glyph unicode="7" d="M100 1270v157h736v-163l-367 -1264h-207l383 1270h-545z" />
<glyph unicode="8" d="M104 397q0 148 62 240.5t178 120.5q-221 63 -221 327q0 172 97.5 268.5t270.5 96.5t270 -95.5t97 -267.5q0 -269 -221 -329q240 -57 240 -365q0 -196 -102 -307t-284 -111t-284.5 112t-102.5 310zM287 401q0 -130 53 -201t149 -71t149.5 69t53.5 203q0 271 -202.5 271 t-202.5 -271zM301 1066q0 -112 52.5 -178.5t137.5 -66.5t138 68t53 177.5t-49.5 169.5t-141.5 60t-141 -59t-49 -171z" />
<glyph unicode="9" d="M111 976.5q0 239.5 89 354.5t294.5 115t290.5 -146.5t85 -572.5q0 -251 -16.5 -374t-57.5 -206q-83 -172 -313 -172q-160 0 -252 84t-92 230v12h191q12 -174 151 -174q109 0 154 92t45 326q0 13 -1 41.5t-1 44.5q-70 -125 -230.5 -125t-248.5 115.5t-88 355zM293 967 q0 -160 46 -231.5t142 -71.5q191 0 191 278q0 182 -46.5 264t-144.5 82t-143 -80.5t-45 -240.5z" />
<glyph unicode=":" horiz-adv-x="518" d="M162 0v227h194v-227h-194zM162 801v227h194v-227h-194z" />
<glyph unicode=";" horiz-adv-x="518" d="M66 -240l104 467h197l-162 -467h-139zM170 801v227h195v-227h-195z" />
<glyph unicode="&#x3c;" horiz-adv-x="1706" d="M264 559v103l1178 483v-127l-1000 -408l1000 -405v-129z" />
<glyph unicode="=" horiz-adv-x="1706" d="M254 360v117h1198v-117h-1198zM254 743v117h1198v-117h-1198z" />
<glyph unicode="&#x3e;" horiz-adv-x="1706" d="M264 76v129l1000 405l-1000 408v127l1178 -483v-103z" />
<glyph unicode="?" horiz-adv-x="807" d="M57 1161q0 162 94 251t259 89t250 -94t85 -270q0 -81 -24.5 -150t-70 -132.5t-91.5 -123t-63 -87.5q-27 -44 -27 -124v-145h-164v227q0 91 25.5 129t68 94t73.5 102q71 105 71 216q0 213 -148 213q-75 0 -110.5 -65.5t-38.5 -208.5l-182 -1q-7 39 -7 80zM291 0v205h194 v-205h-194z" />
<glyph unicode="@" horiz-adv-x="2048" d="M113 522q0 330 200 578q297 358 803 358q165 0 311 -43.5t248 -124.5q262 -201 262 -512q0 -347 -245 -545q-141 -112 -312 -112q-198 0 -198 155q0 3 1 11t1 12q-104 -178 -297 -178q-153 0 -233.5 85t-80.5 247q0 230 137 389t325.5 159t256.5 -157l58 121h110 l-141 -568q-12 -48 -12 -80q0 -90 110 -90q97 0 194.5 82t148 202.5t50.5 254.5q0 266 -195.5 428t-518.5 162q-339 0 -572 -205q-282 -246 -282 -637q0 -340 247 -534q209 -168 549 -168t617 188l45 -66q-298 -221 -660 -221q-385 0 -624 185q-303 232 -303 624zM713 446 q0 -110 51 -169.5t149 -59.5t179.5 70.5t109.5 185.5l60 242q-17 90 -72 140t-135 50q-146 0 -244 -131.5t-98 -327.5z" />
<glyph unicode="A" horiz-adv-x="1208" d="M31 0l463 1475h233l451 -1475h-213l-99 358h-522l-102 -358h-211zM393 532h422l-207 713z" />
<glyph unicode="B" horiz-adv-x="1139" d="M145 0v1475h420q222 0 329 -87.5t107 -250.5q0 -318 -247 -369q139 -20 214.5 -112t75.5 -242q0 -215 -108 -314.5t-344 -99.5h-447zM328 168h219q163 0 237 62.5t74 198.5t-73 200.5t-226 64.5h-231v-526zM328 860h198q151 0 218 58.5t67 182t-64.5 176t-209.5 52.5 h-209v-469z" />
<glyph unicode="C" horiz-adv-x="1098" d="M109 721q0 276 21.5 398t72 204t145 126t219.5 44q201 0 306.5 -112.5t105.5 -327.5h-207v22q0 262 -211 262q-136 0 -199 -102q-31 -50 -44 -151.5t-13 -411t56.5 -423.5t199.5 -114q114 0 168.5 74.5t54.5 228.5v17h205v-33q0 -210 -111 -327.5t-309 -117.5 q-94 0 -175.5 27t-131.5 74q-84 77 -118.5 222t-34.5 421z" />
<glyph unicode="D" horiz-adv-x="1155" d="M135 0v1475h354q200 0 283.5 -23.5t150.5 -86.5t97.5 -185t30.5 -413.5t-20.5 -409t-75.5 -199.5t-148.5 -120t-317.5 -38h-354zM332 168h207q107 0 168.5 24t93.5 78q59 103 59 478q0 330 -30.5 411t-96 118.5t-194.5 37.5h-207v-1147z" />
<glyph unicode="E" horiz-adv-x="950" d="M135 0v1475h737v-162h-542v-473h526v-166h-526v-512h542v-162h-737z" />
<glyph unicode="F" horiz-adv-x="934" d="M135 0v1475h709v-162h-514v-473h489v-166h-489v-674h-195z" />
<glyph unicode="G" horiz-adv-x="1163" d="M104 730.5q0 258.5 23 383.5t77 210q109 173 388 173q209 0 323.5 -110t114.5 -310v-4h-200q-2 130 -64.5 198t-179.5 68q-161 0 -221 -113t-60 -479.5t66.5 -486t236.5 -119.5q87 0 234 29v436h-205v170h397v-739q-262 -62 -410 -62t-238.5 31t-155 102t-95.5 217.5 t-31 405z" />
<glyph unicode="H" horiz-adv-x="1165" d="M135 0v1475h195v-631h506v631h194v-1475h-194v674h-506v-674h-195z" />
<glyph unicode="I" horiz-adv-x="465" d="M133 0v1475h199v-1475h-199z" />
<glyph unicode="J" horiz-adv-x="979" d="M66 403l2 60h204q-2 -24 -2 -64q0 -132 44 -194t149.5 -62t150.5 75t45 353v904h193v-1026q0 -142 -15 -210.5t-57 -130.5q-89 -133 -327 -133q-200 0 -293.5 103.5t-93.5 324.5z" />
<glyph unicode="K" horiz-adv-x="989" d="M137 0v1475h189v-621l438 621h213l-471 -662l506 -813h-221l-465 766v-766h-189z" />
<glyph unicode="L" horiz-adv-x="868" d="M135 0v1475h193v-1305h503v-170h-696z" />
<glyph unicode="M" horiz-adv-x="1630" d="M135 0v1475h314l317 -1014q26 -93 61 -234q32 155 56 236l309 1012h303v-1475h-180v1055q0 159 4 309l-416 -1364h-166l-426 1378q6 -158 6 -364v-1014h-182z" />
<glyph unicode="N" horiz-adv-x="1262" d="M135 0v1475h277l542 -1305q-8 142 -8 270v1035h180v-1475h-264l-567 1341q16 -190 16 -278v-1063h-176z" />
<glyph unicode="O" horiz-adv-x="1167" d="M115 714q0 280 17 399t58 190q110 194 394 194q229 0 348 -133q66 -76 93.5 -203.5t27.5 -401t-18 -395t-66 -205t-148.5 -134t-224.5 -50.5q-382 0 -454 333q-27 126 -27 406zM313 756q0 -240 9.5 -329t37.5 -151q59 -135 217 -135t217.5 111t59.5 485t-59.5 484 t-212.5 110q-138 0 -201 -96q-37 -56 -52.5 -147.5t-15.5 -331.5z" />
<glyph unicode="P" horiz-adv-x="1028" d="M135 0v1475h402q236 0 330 -91t94 -309t-92 -317t-289 -99h-250v-659h-195zM330 825h153q168 0 224.5 52.5t56.5 189t-51 189.5t-178 53h-205v-484z" />
<glyph unicode="Q" horiz-adv-x="1167" d="M113 715q0 287 16.5 402.5t56.5 185.5q110 194 394 194q227 0 348 -133q66 -75 93.5 -196t27.5 -400v-55q0 -277 -25.5 -386t-87.5 -177q102 20 184 20h68v-170h-340q-15 0 -100 -12.5t-180.5 -12.5t-186.5 34t-153 103.5t-88.5 192.5t-26.5 410zM311 737 q0 -234 9 -317.5t35.5 -144.5t83.5 -97.5t133 -36.5q148 0 212 97q36 54 51 142.5t15 317.5v39q0 223 -9.5 310.5t-36.5 150.5q-58 133 -224 133q-142 0 -203 -96q-36 -55 -51 -143t-15 -316v-39z" />
<glyph unicode="R" horiz-adv-x="1110" d="M131 0v1475h387q236 0 343.5 -85t107.5 -270q0 -289 -254 -360q119 -13 169 -82.5t50 -226.5l-2 -150q0 -168 39 -301h-201q-30 99 -32 329q-1 83 -3 128q-3 121 -42.5 169t-133.5 48h-233v-674h-195zM326 834h143q160 0 232.5 62t72.5 200q0 225 -229 225h-219v-487z " />
<glyph unicode="S" horiz-adv-x="1079" d="M76 381l2 45h213v-27q0 -141 52.5 -205.5t163.5 -64.5t181 64t70 161q0 127 -274 298q-39 25 -60 38q-214 137 -272 222.5t-58 209.5q0 168 120.5 272.5t318 104.5t303.5 -99.5t106 -287.5v-37h-203v31q0 240 -217 240q-99 0 -164 -57.5t-65 -143.5q0 -142 294 -330 q252 -159 310.5 -242t58.5 -190q0 -195 -117.5 -301.5t-332.5 -106.5q-430 0 -430 406z" />
<glyph unicode="T" horiz-adv-x="958" d="M25 1323v152h909v-152h-352v-1323h-195v1323h-362z" />
<glyph unicode="U" horiz-adv-x="1186" d="M135 541v934h184v-953q0 -119 10 -172.5t40 -103.5q66 -109 223 -109q160 0 231 121q22 37 31.5 90.5t9.5 171.5v955h187v-924q0 -309 -107.5 -442.5t-351.5 -133.5q-250 0 -371 166q-46 65 -66 147.5t-20 252.5z" />
<glyph unicode="V" horiz-adv-x="1069" d="M0 1475h221l264 -1100q25 -87 50 -225q8 37 24.5 115t24.5 108l280 1102h205l-418 -1475h-233z" />
<glyph unicode="W" horiz-adv-x="1821" d="M18 1475h197l252 -1115q15 -64 35 -231q36 198 45 225l266 1121h205l254 -1102q22 -100 37 -244q12 95 45 233l256 1113h190l-377 -1475h-231l-217 924q-33 130 -64 397q-19 -181 -73 -390l-226 -931h-235z" />
<glyph unicode="X" horiz-adv-x="1100" d="M12 0l414 772l-381 703h223l281 -560l297 560h209l-385 -699l417 -776h-227l-313 631l-314 -631h-221z" />
<glyph unicode="Y" horiz-adv-x="977" d="M-10 1475h223l281 -695l294 695h197l-410 -875v-600h-198v618z" />
<glyph unicode="Z" horiz-adv-x="930" d="M35 0v201l672 1112h-627v162h829v-185l-676 -1120h676v-170h-874z" />
<glyph unicode="[" horiz-adv-x="592" d="M188 -324v1799h324v-119h-166v-1561h166v-119h-324z" />
<glyph unicode="\" horiz-adv-x="569" d="M-70 1497h125l598 -1687h-125z" />
<glyph unicode="]" horiz-adv-x="592" d="M80 -205h166v1561h-166v119h323v-1799h-323v119z" />
<glyph unicode="^" horiz-adv-x="2048" d="M422 901l520 557h162l520 -557h-158l-442 438l-442 -438h-160z" />
<glyph unicode="_" horiz-adv-x="1024" d="M0 -365h1024v-118h-1024v118z" />
<glyph unicode="`" horiz-adv-x="1024" d="M250 1511h201l204 -348h-120z" />
<glyph unicode="a" horiz-adv-x="920" d="M76 305q0 357 456 357h99v51q0 121 -35.5 167t-122.5 46q-188 0 -188 -156v-10h-189v20q0 134 92.5 203.5t271.5 69.5t263 -72.5t84 -226.5v-480q0 -142 18 -274h-176l-12 129q-108 -139 -266 -139q-131 0 -213 87t-82 228zM252 322q0 -76 46 -126.5t116 -50.5 q104 0 161.5 81.5t57.5 232.5v80q-213 0 -297 -49.5t-84 -167.5z" />
<glyph unicode="b" horiz-adv-x="961" d="M101 0q10 72 10 184v1291h178v-560q88 140 252.5 140t246.5 -135t82 -412t-83.5 -406t-254 -129t-241.5 121l-23 -94h-167zM287 512q0 -210 47 -306.5t155 -96.5t153.5 87.5t45.5 303.5t-46 310.5t-150.5 94.5t-154.5 -91.5t-50 -301.5z" />
<glyph unicode="c" horiz-adv-x="924" d="M90 512q0 285 91 412t294 127q164 0 264.5 -87.5t100.5 -230.5v-22h-174q0 90 -47.5 140t-133.5 50q-117 0 -166 -86t-49 -300t47.5 -302t145.5 -88t150 60.5t55 162.5h177q-3 -177 -100.5 -275t-285 -98t-278.5 126t-91 411z" />
<glyph unicode="d" horiz-adv-x="961" d="M86 508q0 277 82 412t247 135t253 -140v560h178v-1291q0 -124 8 -182h-174l-10 100q-96 -125 -258 -125t-244 127t-82 404zM266 518q0 -230 46.5 -319.5t154 -89.5t154.5 95t47 306.5t-49 303t-158 91.5q-195 0 -195 -387z" />
<glyph unicode="e" horiz-adv-x="924" d="M90 513q0 286 92 412t288 126t285 -100.5t89 -317.5v-160h-572v-59q0 -152 48.5 -220.5t141.5 -68.5q179 0 206 197h176q-8 -163 -105.5 -255t-263.5 -92q-206 0 -295.5 126t-89.5 412zM273 606h397v88q0 236 -189 236q-104 0 -154.5 -78t-53.5 -246z" />
<glyph unicode="f" horiz-adv-x="526" d="M8 901v127h144v242q0 73 16.5 110t54.5 64q80 53 250 53h45v-139q-116 -3 -154 -36t-38 -171v-123h192v-127h-192v-901h-174v901h-144z" />
<glyph unicode="g" horiz-adv-x="967" d="M86 521q0 279 82.5 406.5t246.5 127.5t259 -125l10 98h178q-10 -70 -10 -182v-901q0 -96 -14 -147.5t-52 -99.5q-78 -99 -290 -99q-160 0 -250 74.5t-96 211.5h200q2 -70 42 -111.5t121.5 -41.5t121 50t39.5 187v148q-107 -142 -246 -142q-177 0 -259.5 133.5 t-82.5 412.5zM268 528q0 -219 47 -311t155 -92t160 94t52 305.5t-49 305.5t-160.5 94t-158 -88.5t-46.5 -307.5z" />
<glyph unicode="h" horiz-adv-x="948" d="M115 0v1475h176v-566q57 76 122 110t152 34q127 0 201 -74.5t74 -202.5v-776h-178v657q0 150 -38.5 205.5t-137.5 55.5t-147 -77.5t-48 -246.5v-594h-176z" />
<glyph unicode="i" horiz-adv-x="428" d="M129 0v1028h170v-1028h-170zM129 1286v189h170v-189h-170z" />
<glyph unicode="j" horiz-adv-x="438" d="M8 -254h23q63 0 84.5 22.5t21.5 88.5v1171h170v-1196q0 -85 -13.5 -122.5t-45.5 -63.5q-59 -49 -160 -49q-44 0 -80 6v143zM137 1286v189h170v-189h-170z" />
<glyph unicode="k" horiz-adv-x="872" d="M117 0v1475h176v-854l313 407h197l-348 -426l417 -602h-215l-364 553v-553h-176z" />
<glyph unicode="l" horiz-adv-x="399" d="M111 0v1475h176v-1475h-176z" />
<glyph unicode="m" horiz-adv-x="1497" d="M105 1028h180l8 -119q104 144 272 144q97 0 166 -45.5t98 -126.5q91 172 285 172q127 0 199.5 -74t72.5 -203v-776h-176v657q0 150 -38 205.5t-136.5 55.5t-147 -78t-48.5 -246v-594h-178v657q0 150 -38.5 205.5t-137.5 55.5t-147 -77.5t-48 -246.5v-594h-176v866 q0 64 -10 162z" />
<glyph unicode="n" horiz-adv-x="948" d="M105 1028h180l8 -119q104 144 272 144q127 0 201 -74.5t74 -202.5v-776h-178v657q0 150 -38.5 205.5t-137.5 55.5t-147 -77.5t-48 -246.5v-594h-176v866q0 64 -10 162z" />
<glyph unicode="o" horiz-adv-x="950" d="M88 513.5q0 283.5 92.5 410.5t295 127t293.5 -126.5t91 -410.5t-91.5 -411.5t-294.5 -127.5t-294.5 127.5t-91.5 411zM268 512q0 -209 48 -298t158.5 -89t158 89t47.5 299.5t-47.5 299t-157.5 88.5t-158.5 -90t-48.5 -299z" />
<glyph unicode="p" horiz-adv-x="961" d="M104 1028h181l10 -98q95 125 255 125t241 -127t81 -405t-82 -413t-246.5 -135t-252.5 142v-506h-178v1235q0 130 -9 182zM289 520q0 -210 51 -302.5t155 -92.5t149.5 93.5t45.5 311t-46 306t-153.5 88.5t-154.5 -97t-47 -307z" />
<glyph unicode="q" horiz-adv-x="961" d="M86 528q0 272 82 399.5t243.5 127.5t256.5 -125l10 98h176q-8 -58 -8 -182v-1235h-178v506q-90 -142 -254 -142q-328 0 -328 553zM268 530.5q0 -216.5 46.5 -311t150.5 -94.5t154.5 92t50.5 302.5t-47 307.5t-155 97t-154 -88.5t-46 -305z" />
<glyph unicode="r" horiz-adv-x="592" d="M98 1030h176l17 -135q58 160 258 160l33 -2v-181l-45 2q-133 0 -189.5 -57.5t-56.5 -193.5v-623h-176v856q0 4 -17 174z" />
<glyph unicode="s" horiz-adv-x="877" d="M76 313h192q6 -192 174 -192q76 0 122 37.5t46 91.5t-34.5 92t-114.5 80l-187 96q-101 53 -142.5 107.5t-41.5 134.5q0 132 98 213.5t256 81.5t249 -74t91 -201v-18h-188q0 76 -44 119t-117.5 43t-117 -36.5t-43.5 -84t24 -76.5t81 -57l170 -84q146 -73 199 -137.5 t53 -159.5q0 -143 -99.5 -228.5t-271 -85.5t-262.5 86t-92 252z" />
<glyph unicode="t" horiz-adv-x="584" d="M14 901v127h156v207l176 84v-291h205v-127h-205v-616q0 -83 25.5 -114.5t93.5 -31.5q24 0 80 4h6l-1 -133q-82 -18 -144 -18q-130 0 -183 51t-53 180v678h-156z" />
<glyph unicode="u" horiz-adv-x="948" d="M106 252v776h179v-655q0 -149 38 -204.5t137 -55.5t147 76.5t48 244.5v594h176v-866q2 -65 10 -162h-179l-9 121q-105 -146 -272 -146q-127 0 -201 74.5t-74 202.5z" />
<glyph unicode="v" horiz-adv-x="901" d="M18 1028h205l162 -592q40 -149 64 -311q32 140 56 221.5t26 88.5l165 593h185l-322 -1028h-219z" />
<glyph unicode="w" horiz-adv-x="1470" d="M20 1028h183l139 -592q38 -158 55 -288q17 70 39.5 169t28.5 119l166 592h211l162 -604q6 -21 28 -128t31 -148q13 91 59 284l146 596h180l-272 -1028h-222l-170 660q-19 78 -53 253q-33 -176 -53 -254l-174 -659h-217z" />
<glyph unicode="x" horiz-adv-x="915" d="M12 0l328 549l-297 479h203l209 -362l215 362h192l-311 -487l350 -541h-207l-254 424l-233 -424h-195z" />
<glyph unicode="y" horiz-adv-x="930" d="M20 1028h207l246 -813l244 813h190l-473 -1417h-174l113 389z" />
<glyph unicode="z" horiz-adv-x="696" d="M25 0v164l450 731h-424v133h623v-133l-469 -758h469v-137h-649z" />
<glyph unicode="{" horiz-adv-x="1024" d="M172 467v127l45 -2q134 0 189 61.5t55 214.5v244q0 153 22.5 215.5t71 94t108.5 43.5t160 12h35v-127l-45 2q-121 0 -164 -47t-43 -197v-242q0 -166 -43.5 -235.5t-154.5 -100.5q111 -30 154.5 -99.5t43.5 -235.5v-242q0 -149 43.5 -195.5t169.5 -46.5h39v-125h-35 q-184 0 -262 52q-55 36 -77.5 100t-22.5 213v244q0 152 -55 213t-189 61z" />
<glyph unicode="|" horiz-adv-x="1024" d="M449 -483v2048h126v-2048h-126z" />
<glyph unicode="}" horiz-adv-x="1024" d="M166 -289l45 -2q120 0 163.5 47.5t43.5 198.5v240q0 166 43.5 235.5t154.5 99.5q-111 31 -154.5 100.5t-43.5 235.5v242q0 149 -44 196.5t-169 47.5h-39v125h35q183 0 264 -52q54 -35 76 -98t22 -215v-244q0 -152 55.5 -214t190.5 -62l45 2v-127l-45 2q-135 0 -190.5 -62 t-55.5 -214v-242q0 -153 -22 -216.5t-68.5 -94.5t-105 -42.5t-160.5 -11.5h-41v125z" />
<glyph unicode="~" horiz-adv-x="1706" d="M178 461v133q209 145 387 145q114 0 303.5 -69.5t276.5 -69.5q159 0 385 158v-131q-202 -144 -387 -144q-82 0 -151.5 22.5t-126.5 43.5q-202 72 -302 72q-157 0 -385 -160z" />
<glyph unicode="&#xa0;" />
<glyph unicode="&#xa1;" horiz-adv-x="616" d="M197 0l41 1124h143l39 -1124h-223zM215 1276v199h191v-199h-191z" />
<glyph unicode="&#xa2;" d="M111 512q0 284 91.5 411.5t295.5 127.5q76 0 157 -25l60 148h92l-78 -187q135 -99 135 -248l-2 -28h-157q-4 103 -38 130l-284 -681q47 -35 126.5 -35t133.5 59.5t58 163.5h167q-3 -176 -100.5 -274.5t-269.5 -98.5q-94 0 -179 33l-63 -153h-92l84 196 q-72 65 -104.5 173.5t-32.5 287.5zM285 520q0 -206 37 -287l271 654q-40 14 -85 14q-122 0 -172.5 -85t-50.5 -296z" />
<glyph unicode="&#xa3;" d="M84 0v166h145v516h-145v158h145v149q0 144 13.5 208.5t52 123.5t116 96t179.5 37q148 0 232.5 -86t84.5 -238v-6h-198q-7 89 -40.5 128.5t-103.5 39.5q-153 0 -153 -217v-235h284v-158h-284v-516h493v-166h-821z" />
<glyph unicode="&#xa4;" horiz-adv-x="1241" d="M86 424l207 205q-88 116 -88 256t88 256l-207 205l72 73l207 -207q119 91 256 91q141 0 260 -91l204 207l72 -73l-205 -205q86 -114 86 -256q0 -144 -86 -256l205 -205l-72 -74l-204 207q-114 -88 -260 -88q-145 0 -256 88l-207 -207zM309 886q0 -130 91.5 -222.5 t221.5 -92.5t222 93t92 222.5t-91.5 221.5t-221.5 92t-222 -92t-92 -222z" />
<glyph unicode="&#xa5;" horiz-adv-x="956" d="M6 1427h207l274 -673l287 673h187l-203 -432h174v-108h-225l-95 -182h320v-109h-365v-596h-186v596h-358v109h311l-84 182h-227v108h176z" />
<glyph unicode="&#xa6;" horiz-adv-x="1024" d="M449 -350v758h126v-758h-126zM449 674v758h126v-758h-126z" />
<glyph unicode="&#xa7;" d="M152 737.5q0 71.5 51.5 133.5t163.5 133q-172 96 -172 245q0 112 91 180t239.5 68t236.5 -37v-129q-141 45 -230.5 45t-134.5 -31t-45 -85q0 -92 192 -184q178 -87 226.5 -143.5t48.5 -127.5q0 -155 -207 -264q127 -76 170 -134t43 -141q0 -134 -94 -211.5t-260.5 -77.5 t-282.5 54v147q151 -57 262.5 -57t167.5 36t56 92t-48 99t-215 126t-213 137.5t-46 126zM319 762q0 -81 175 -160q77 43 121 91t44 87q0 77 -180 152q-160 -96 -160 -170z" />
<glyph unicode="&#xa8;" horiz-adv-x="1024" d="M256 1223v209h182v-209h-182zM586 1223v209h182v-209h-182z" />
<glyph unicode="&#xa9;" horiz-adv-x="1706" d="M119 725q0 299 214 517t521 218t520 -213t213 -522t-211 -516q-109 -106 -244.5 -162.5t-280.5 -56.5q-298 0 -515 217q-217 215 -217 518zM207 725q0 -261 190 -455q192 -190 455 -190q265 0 463 192q186 184 186 452q0 270 -188 460q-188 188 -461 188 q-269 0 -453 -186q-192 -196 -192 -461zM465 722.5q0 206.5 107.5 331t287.5 124.5q137 0 230 -74.5t104 -192.5h-129q-15 77 -70.5 120.5t-138.5 43.5q-117 0 -182.5 -92.5t-65.5 -256t66.5 -255.5t167.5 -92t159.5 48.5t73.5 133.5h129q-11 -127 -109 -207t-259.5 -80 t-266 121t-104.5 327.5z" />
<glyph unicode="&#xaa;" horiz-adv-x="690" d="M57 967q0 250 342 250h74v36q0 85 -26.5 116.5t-92.5 31.5q-141 0 -141 -109v-6h-141v14q0 191 274 191q134 0 197 -50.5t63 -158.5v-336q0 -102 12 -192h-131l-10 90q-76 -96 -186 -96t-172 60.5t-62 158.5zM188 979q0 -53 35 -88t100.5 -35t108.5 57t43 162v55 q-159 0 -223 -34t-64 -117z" />
<glyph unicode="&#xab;" horiz-adv-x="825" d="M66 512l186 397h158l-158 -397l158 -393h-158zM412 512l182 397h164l-164 -397l164 -393h-164z" />
<glyph unicode="&#xac;" horiz-adv-x="1706" d="M254 741v117h1198v-502h-115v385h-1083z" />
<glyph unicode="&#xad;" horiz-adv-x="569" d="M68 442v150h434v-150h-434z" />
<glyph unicode="&#xae;" horiz-adv-x="1706" d="M119 725q0 303 221 524q207 211 512 211q307 0 524 -217q211 -211 211 -518q0 -309 -213 -516q-225 -219 -522 -219q-301 0 -518 219q-215 213 -215 516zM207 725q0 -261 190 -455q188 -190 453 -190q269 0 460 188t191 457t-186 457q-192 190 -463 190q-269 0 -451 -184 q-194 -196 -194 -463zM561 317v840h311q351 0 351 -231q0 -89 -53 -148.5t-144 -75.5l188 -385h-157l-176 365h-179v-365h-141zM702 774h148q123 0 175 33t52 110t-54.5 112.5t-176.5 35.5h-144v-291z" />
<glyph unicode="&#xaf;" horiz-adv-x="1024" d="M264 1262v133h498v-133h-498z" />
<glyph unicode="&#xb0;" horiz-adv-x="674" d="M55 1171.5q0 118.5 82.5 200.5t200 82t200.5 -83t83 -199.5t-83.5 -199.5t-201.5 -83t-199.5 82t-81.5 200.5zM135 1171q0 -84 59.5 -143t143.5 -59t142.5 59t58.5 143t-58.5 142.5t-142.5 58.5t-143.5 -58.5t-59.5 -142.5z" />
<glyph unicode="&#xb1;" horiz-adv-x="1706" d="M254 41v117h1198v-117h-1198zM254 719v117h541v344h118v-344h539v-117h-539v-344h-118v344h-541z" />
<glyph unicode="&#xb2;" horiz-adv-x="647" d="M72 571v109l288 377q89 112 89 188q0 47 -33.5 76t-90.5 29t-85 -32.5t-33 -106.5l-131 -1l-2 23q0 101 66.5 155t185.5 54t183 -50.5t64 -125.5t-33 -147.5t-102 -162.5l-223 -282h363v-103h-506z" />
<glyph unicode="&#xb3;" horiz-adv-x="647" d="M53 782v15h131q4 -144 123 -144q142 0 142 158t-177 158h-20v102q95 0 139.5 35t44.5 108q0 132 -119.5 132t-119.5 -123h-127v14q0 94 63 149.5t178 55.5t180.5 -55.5t65.5 -154t-42.5 -152.5t-120.5 -62q88 -3 129.5 -53t41.5 -154q0 -254 -252 -254q-126 0 -193 58 t-67 167z" />
<glyph unicode="&#xb4;" horiz-adv-x="1024" d="M369 1163l204 348h201l-285 -348h-120z" />
<glyph unicode="&#xb5;" horiz-adv-x="1128" d="M-111 -426l316 1495h157l-126 -595q-15 -62 -15 -154.5t57 -151.5t171 -59t197 101t128 308l121 551h156l-162 -754q-23 -100 -23 -135q0 -65 72 -65q17 0 35 2l-27 -125q-42 -10 -102 -10q-124 0 -135 147q-41 -70 -117 -108.5t-172 -38.5q-175 0 -262 137l-113 -545 h-156z" />
<glyph unicode="&#xb6;" horiz-adv-x="1024" d="M76 1133q0 154 107.5 250t285.5 96h479v-78h-125v-1401h-94v1401h-182v-1401h-96v782q-173 8 -274 102.5t-101 248.5z" />
<glyph unicode="&#xb7;" horiz-adv-x="492" d="M127 712.5q0 48.5 32.5 81.5t81 33t81 -32.5t32.5 -81.5t-32.5 -81t-81.5 -32t-81 32t-32 80.5z" />
<glyph unicode="&#xb8;" horiz-adv-x="1024" d="M258 -326q171 -39 248 -39q119 0 119 84t-131 84l-54 -1v198h76v-102h29q223 0 223 -181q0 -91 -64 -139.5t-177.5 -48.5t-268.5 45v100z" />
<glyph unicode="&#xb9;" horiz-adv-x="647" d="M141 1206v117q48 20 170 104h95v-856h-123l-1 725q-26 -25 -141 -90z" />
<glyph unicode="&#xba;" horiz-adv-x="713" d="M66 1112q0 198 69.5 287.5t221 89.5t220 -88.5t68.5 -287t-68 -287.5t-221 -89t-221.5 88.5t-68.5 286.5zM201 1112.5q0 -145.5 36 -208t118.5 -62.5t118.5 62.5t36 209t-35.5 208.5t-118 62t-119 -63t-36.5 -208.5z" />
<glyph unicode="&#xbb;" horiz-adv-x="825" d="M66 119l163 393l-163 397h163l185 -397l-185 -393h-163zM416 119l155 393l-155 397h155l187 -397l-187 -393h-155z" />
<glyph unicode="&#xbc;" horiz-adv-x="1579" d="M135 1329q53 23 160 96h90v-798h-117v676l-132 -84zM276 -25l904 1475h120l-903 -1475h-121zM1014 201v116l254 482h157v-510h99v-88h-99v-201h-116v201h-295zM1102 287h209l10 428z" />
<glyph unicode="&#xbd;" horiz-adv-x="1579" d="M135 1329q53 23 160 96h90v-798h-117v676l-132 -84zM276 -25l904 1475h120l-903 -1475h-121zM1028 0v102l277 351q84 108 84 164t-32.5 83t-86.5 27t-81 -31t-32 -100h-125v22q0 94 63 143.5t177 49.5t174.5 -46.5t60.5 -116.5q0 -131 -129 -290l-213 -264h346v-94h-483z " />
<glyph unicode="&#xbe;" horiz-adv-x="1579" d="M51 823v15l125 -1q4 -135 119 -135q133 0 133 147.5t-168 147.5h-18v97q89 0 131.5 32t42.5 101q0 123 -115 123q-55 0 -85 -30t-30 -85h-120v12q0 88 60 139.5t171 51.5t173 -51.5t62 -143.5t-41 -142t-116 -57q85 -3 124.5 -49.5t39.5 -144.5q0 -238 -240 -238 q-119 0 -183.5 55t-64.5 156zM276 -25l904 1475h120l-903 -1475h-121zM1014 201v116l254 482h157v-510h99v-88h-99v-201h-116v201h-295zM1102 287h209l10 428z" />
<glyph unicode="&#xbf;" horiz-adv-x="807" d="M76 338q0 81 24 150q32 90 164 256q74 94 81 124.5t7 69.5v162h164v-228q0 -89 -25.5 -128t-67.5 -95.5t-73 -102.5q-71 -107 -71 -216q0 -211 147 -211q75 0 110.5 65t39.5 209h184q4 -30 4 -80q0 -162 -93 -251t-258.5 -89t-251 94.5t-85.5 270.5zM336 1270v205h194 v-205h-194z" />
<glyph unicode="&#xc0;" horiz-adv-x="1208" d="M31 0l463 1475h233l451 -1475h-213l-99 358h-522l-102 -358h-211zM342 1957h201l204 -348h-120zM393 532h422l-207 713z" />
<glyph unicode="&#xc1;" horiz-adv-x="1208" d="M31 0l463 1475h233l451 -1475h-213l-99 358h-522l-102 -358h-211zM393 532h422l-207 713zM461 1609l204 348h201l-285 -348h-120z" />
<glyph unicode="&#xc2;" horiz-adv-x="1208" d="M31 0l463 1475h233l451 -1475h-213l-99 358h-522l-102 -358h-211zM309 1609l197 348h196l197 -348h-123l-172 230l-174 -230h-121zM393 532h422l-207 713z" />
<glyph unicode="&#xc3;" horiz-adv-x="1208" d="M31 0l463 1475h233l451 -1475h-213l-99 358h-522l-102 -358h-211zM332 1656q35 203 188 203q25 0 47 -6l91 -29q34 -10 46 -10q67 0 90 74h82q-37 -209 -182 -209q-27 0 -61 10l-89 27q-30 8 -46 8q-60 0 -84 -68h-82zM393 532h422l-207 713z" />
<glyph unicode="&#xc4;" horiz-adv-x="1208" d="M31 0l463 1475h233l451 -1475h-213l-99 358h-522l-102 -358h-211zM348 1669v209h182v-209h-182zM393 532h422l-207 713zM678 1669v209h182v-209h-182z" />
<glyph unicode="&#xc5;" horiz-adv-x="1208" d="M31 0l461 1462h237l449 -1462h-213l-99 358h-522l-102 -358h-211zM385 1746.5q0 94.5 65 160t159 65.5t159.5 -65t65.5 -160t-65 -159t-160 -64t-159.5 64t-64.5 158.5zM393 532h422l-207 713zM487 1748q0 -51 36 -86.5t86 -35.5t86 35.5t36 86.5t-35.5 86.5t-87 35.5 t-86.5 -35.5t-35 -86.5z" />
<glyph unicode="&#xc6;" horiz-adv-x="1548" d="M-12 0l547 1475h935v-162h-632l69 -473h563v-166h-542l78 -512h464v-162h-624l-49 356h-506l-129 -356h-174zM350 516h422l-115 813z" />
<glyph unicode="&#xc7;" horiz-adv-x="1098" d="M109 721q0 276 21.5 398t72 204t145 126t219.5 44q201 0 306.5 -112.5t105.5 -327.5h-207v22q0 262 -211 262q-136 0 -199 -102q-31 -50 -44 -151.5t-13 -411t56.5 -423.5t199.5 -114q114 0 168.5 74.5t54.5 228.5v17h205v-33q0 -210 -111 -327.5t-309 -117.5 q-94 0 -175.5 27t-131.5 74q-84 77 -118.5 222t-34.5 421zM295 -326q171 -39 248 -39q119 0 119 84t-131 84l-54 -1v198h76v-102h29q223 0 223 -181q0 -91 -64 -139.5t-177.5 -48.5t-268.5 45v100z" />
<glyph unicode="&#xc8;" horiz-adv-x="950" d="M135 0v1475h737v-162h-542v-473h526v-166h-526v-512h542v-162h-737zM242 1957h201l204 -348h-120z" />
<glyph unicode="&#xc9;" horiz-adv-x="950" d="M135 0v1475h737v-162h-542v-473h526v-166h-526v-512h542v-162h-737zM361 1609l204 348h201l-285 -348h-120z" />
<glyph unicode="&#xca;" horiz-adv-x="950" d="M135 0v1475h737v-162h-542v-473h526v-166h-526v-512h542v-162h-737zM209 1609l197 348h196l197 -348h-123l-172 230l-174 -230h-121z" />
<glyph unicode="&#xcb;" horiz-adv-x="950" d="M135 0v1475h737v-162h-542v-473h526v-166h-526v-512h542v-162h-737zM248 1669v209h182v-209h-182zM578 1669v209h182v-209h-182z" />
<glyph unicode="&#xcc;" horiz-adv-x="465" d="M-29 1957h201l204 -348h-120zM133 0v1475h199v-1475h-199z" />
<glyph unicode="&#xcd;" horiz-adv-x="465" d="M90 1609l204 348h201l-285 -348h-120zM133 0v1475h199v-1475h-199z" />
<glyph unicode="&#xce;" horiz-adv-x="465" d="M-62 1609l197 348h196l197 -348h-123l-172 230l-174 -230h-121zM133 0v1475h199v-1475h-199z" />
<glyph unicode="&#xcf;" horiz-adv-x="465" d="M-23 1669v209h182v-209h-182zM133 0v1475h199v-1475h-199zM307 1669v209h182v-209h-182z" />
<glyph unicode="&#xd0;" horiz-adv-x="1169" d="M-8 682v152h158v641h354q199 0 282.5 -23.5t151 -86.5t97.5 -185t30 -413.5t-20 -409t-68 -187.5q-62 -94 -155.5 -132t-317.5 -38h-354v682h-158zM346 168h207q107 0 168.5 24t93.5 78t45.5 163t13.5 285q0 356 -31.5 439t-96 120.5t-193.5 37.5h-207v-481h262v-152 h-262v-514z" />
<glyph unicode="&#xd1;" horiz-adv-x="1262" d="M135 0v1475h277l542 -1305q-8 142 -8 270v1035h180v-1475h-264l-567 1341q16 -190 16 -278v-1063h-176zM359 1656q35 203 188 203q25 0 47 -6l91 -29q34 -10 46 -10q67 0 90 74h82q-37 -209 -182 -209q-27 0 -61 10l-89 27q-30 8 -46 8q-60 0 -84 -68h-82z" />
<glyph unicode="&#xd2;" horiz-adv-x="1167" d="M115 714q0 280 17 399t58 190q110 194 394 194q229 0 348 -133q66 -76 93.5 -203.5t27.5 -401t-18 -395t-66 -205t-148.5 -134t-224.5 -50.5q-382 0 -454 333q-27 126 -27 406zM313 756q0 -240 9.5 -329t37.5 -151q59 -135 217 -135t217.5 111t59.5 485t-59.5 484 t-212.5 110q-138 0 -201 -96q-37 -56 -52.5 -147.5t-15.5 -331.5zM322 1957h201l204 -348h-120z" />
<glyph unicode="&#xd3;" horiz-adv-x="1167" d="M115 714q0 280 17 399t58 190q110 194 394 194q229 0 348 -133q66 -76 93.5 -203.5t27.5 -401t-18 -395t-66 -205t-148.5 -134t-224.5 -50.5q-382 0 -454 333q-27 126 -27 406zM313 756q0 -240 9.5 -329t37.5 -151q59 -135 217 -135t217.5 111t59.5 485t-59.5 484 t-212.5 110q-138 0 -201 -96q-37 -56 -52.5 -147.5t-15.5 -331.5zM441 1609l204 348h201l-285 -348h-120z" />
<glyph unicode="&#xd4;" horiz-adv-x="1167" d="M115 714q0 280 17 399t58 190q110 194 394 194q229 0 348 -133q66 -76 93.5 -203.5t27.5 -401t-18 -395t-66 -205t-148.5 -134t-224.5 -50.5q-382 0 -454 333q-27 126 -27 406zM289 1609l197 348h196l197 -348h-123l-172 230l-174 -230h-121zM313 756q0 -240 9.5 -329 t37.5 -151q59 -135 217 -135t217.5 111t59.5 485t-59.5 484t-212.5 110q-138 0 -201 -96q-37 -56 -52.5 -147.5t-15.5 -331.5z" />
<glyph unicode="&#xd5;" horiz-adv-x="1167" d="M115 714q0 280 17 399t58 190q110 194 394 194q229 0 348 -133q66 -76 93.5 -203.5t27.5 -401t-18 -395t-66 -205t-148.5 -134t-224.5 -50.5q-382 0 -454 333q-27 126 -27 406zM312 1656q35 203 188 203q25 0 47 -6l91 -29q34 -10 46 -10q67 0 90 74h82 q-37 -209 -182 -209q-27 0 -61 10l-89 27q-30 8 -46 8q-60 0 -84 -68h-82zM313 756q0 -240 9.5 -329t37.5 -151q59 -135 217 -135t217.5 111t59.5 485t-59.5 484t-212.5 110q-138 0 -201 -96q-37 -56 -52.5 -147.5t-15.5 -331.5z" />
<glyph unicode="&#xd6;" horiz-adv-x="1167" d="M115 714q0 280 17 399t58 190q110 194 394 194q229 0 348 -133q66 -76 93.5 -203.5t27.5 -401t-18 -395t-66 -205t-148.5 -134t-224.5 -50.5q-382 0 -454 333q-27 126 -27 406zM313 756q0 -240 9.5 -329t37.5 -151q59 -135 217 -135t217.5 111t59.5 485t-59.5 484 t-212.5 110q-138 0 -201 -96q-37 -56 -52.5 -147.5t-15.5 -331.5zM328 1669v209h182v-209h-182zM658 1669v209h182v-209h-182z" />
<glyph unicode="&#xd7;" horiz-adv-x="1706" d="M301 135l475 475l-475 477l80 82l477 -477l475 477l82 -82l-475 -477l475 -475l-82 -82l-475 475l-477 -475z" />
<glyph unicode="&#xd8;" horiz-adv-x="1167" d="M39 -39l143 223q-37 58 -52 174t-15 379t17 379t65.5 199t148.5 132.5t238 49.5q235 0 358 -141l121 174l70 -53l-138 -213q31 -50 43.5 -147.5t12.5 -338.5v-104q0 -214 -17.5 -323.5t-56.5 -178.5q-111 -197 -393 -197q-223 0 -348 131l-130 -192zM305 737 q0 -195 15 -341l509 786q-41 149 -241 149q-160 0 -221.5 -110.5t-61.5 -483.5zM350 281q67 -140 233 -140t227.5 112.5t61.5 483.5q0 168 -12 320z" />
<glyph unicode="&#xd9;" horiz-adv-x="1186" d="M135 541v934h184v-953q0 -119 10 -172.5t40 -103.5q66 -109 223 -109q160 0 231 121q22 37 31.5 90.5t9.5 171.5v955h187v-924q0 -309 -107.5 -442.5t-351.5 -133.5q-250 0 -371 166q-46 65 -66 147.5t-20 252.5zM332 1957h201l204 -348h-120z" />
<glyph unicode="&#xda;" horiz-adv-x="1186" d="M135 541v934h184v-953q0 -119 10 -172.5t40 -103.5q66 -109 223 -109q160 0 231 121q22 37 31.5 90.5t9.5 171.5v955h187v-924q0 -309 -107.5 -442.5t-351.5 -133.5q-250 0 -371 166q-46 65 -66 147.5t-20 252.5zM451 1609l204 348h201l-285 -348h-120z" />
<glyph unicode="&#xdb;" horiz-adv-x="1186" d="M135 541v934h184v-953q0 -119 10 -172.5t40 -103.5q66 -109 223 -109q160 0 231 121q22 37 31.5 90.5t9.5 171.5v955h187v-924q0 -309 -107.5 -442.5t-351.5 -133.5q-250 0 -371 166q-46 65 -66 147.5t-20 252.5zM299 1609l197 348h196l197 -348h-123l-172 230l-174 -230 h-121z" />
<glyph unicode="&#xdc;" horiz-adv-x="1186" d="M135 541v934h184v-953q0 -119 10 -172.5t40 -103.5q66 -109 223 -109q160 0 231 121q22 37 31.5 90.5t9.5 171.5v955h187v-924q0 -309 -107.5 -442.5t-351.5 -133.5q-250 0 -371 166q-46 65 -66 147.5t-20 252.5zM338 1669v209h182v-209h-182zM668 1669v209h182v-209 h-182z" />
<glyph unicode="&#xdd;" horiz-adv-x="977" d="M-10 1475h223l281 -695l294 695h197l-410 -875v-600h-198v618zM346 1609l204 348h201l-285 -348h-120z" />
<glyph unicode="&#xde;" horiz-adv-x="1028" d="M135 0v1475h195v-295h207q236 0 330 -90.5t94 -308.5t-92 -317t-289 -99h-250v-365h-195zM330 530h153q167 0 224 53t57 189t-50.5 189t-178.5 53h-205v-484z" />
<glyph unicode="&#xdf;" horiz-adv-x="1067" d="M113 0v1063q0 151 17 217t64 114q101 103 324 103q175 0 272 -74t97 -206q0 -137 -148 -289q-63 -66 -63 -99q0 -54 131 -172q41 -38 63 -59q142 -134 142 -285t-86.5 -238t-236.5 -87t-228 66t-78 194v18h176q4 -143 121 -143q71 0 113.5 46t42.5 113.5t-30 116.5 q-25 43 -140 146q-187 167 -187 254q0 34 24 77q26 45 109.5 145t83.5 175.5t-50 117.5t-122 42q-185 0 -217 -110q-10 -34 -10 -101v-1145h-184z" />
<glyph unicode="&#xe0;" horiz-adv-x="920" d="M76 305q0 357 456 357h99v51q0 121 -35.5 167t-122.5 46q-188 0 -188 -156v-10h-189v20q0 134 92.5 203.5t271.5 69.5t263 -72.5t84 -226.5v-480q0 -142 18 -274h-176l-12 129q-108 -139 -266 -139q-131 0 -213 87t-82 228zM219 1511h201l204 -348h-120zM252 322 q0 -76 46 -126.5t116 -50.5q104 0 161.5 81.5t57.5 232.5v80q-213 0 -297 -49.5t-84 -167.5z" />
<glyph unicode="&#xe1;" horiz-adv-x="920" d="M76 305q0 357 456 357h99v51q0 121 -35.5 167t-122.5 46q-188 0 -188 -156v-10h-189v20q0 134 92.5 203.5t271.5 69.5t263 -72.5t84 -226.5v-480q0 -142 18 -274h-176l-12 129q-108 -139 -266 -139q-131 0 -213 87t-82 228zM252 322q0 -76 46 -126.5t116 -50.5 q104 0 161.5 81.5t57.5 232.5v80q-213 0 -297 -49.5t-84 -167.5zM338 1163l204 348h201l-285 -348h-120z" />
<glyph unicode="&#xe2;" horiz-adv-x="920" d="M76 305q0 357 456 357h99v51q0 121 -35.5 167t-122.5 46q-188 0 -188 -156v-10h-189v20q0 134 92.5 203.5t271.5 69.5t263 -72.5t84 -226.5v-480q0 -142 18 -274h-176l-12 129q-108 -139 -266 -139q-131 0 -213 87t-82 228zM186 1163l197 348h196l197 -348h-123l-172 230 l-174 -230h-121zM252 322q0 -76 46 -126.5t116 -50.5q104 0 161.5 81.5t57.5 232.5v80q-213 0 -297 -49.5t-84 -167.5z" />
<glyph unicode="&#xe3;" horiz-adv-x="920" d="M76 305q0 357 456 357h99v51q0 121 -35.5 167t-122.5 46q-188 0 -188 -156v-10h-189v20q0 134 92.5 203.5t271.5 69.5t263 -72.5t84 -226.5v-480q0 -142 18 -274h-176l-12 129q-108 -139 -266 -139q-131 0 -213 87t-82 228zM209 1210q35 203 188 203q25 0 47 -6l91 -29 q34 -10 46 -10q67 0 90 74h82q-37 -209 -182 -209q-27 0 -61 10l-89 27q-30 8 -46 8q-60 0 -84 -68h-82zM252 322q0 -76 46 -126.5t116 -50.5q104 0 161.5 81.5t57.5 232.5v80q-213 0 -297 -49.5t-84 -167.5z" />
<glyph unicode="&#xe4;" horiz-adv-x="920" d="M76 305q0 357 456 357h99v51q0 121 -35.5 167t-122.5 46q-188 0 -188 -156v-10h-189v20q0 134 92.5 203.5t271.5 69.5t263 -72.5t84 -226.5v-480q0 -142 18 -274h-176l-12 129q-108 -139 -266 -139q-131 0 -213 87t-82 228zM225 1223v209h182v-209h-182zM252 322 q0 -76 46 -126.5t116 -50.5q104 0 161.5 81.5t57.5 232.5v80q-213 0 -297 -49.5t-84 -167.5zM555 1223v209h182v-209h-182z" />
<glyph unicode="&#xe5;" horiz-adv-x="920" d="M76 305q0 357 456 357h99v51q0 121 -35.5 167t-122.5 46q-188 0 -188 -156v-10h-189v20q0 134 92.5 203.5t271.5 69.5t263 -72.5t84 -226.5v-480q0 -142 18 -274h-176l-12 129q-108 -139 -266 -139q-131 0 -213 87t-82 228zM250 322q0 -76 46.5 -126.5t117.5 -50.5 q104 0 161.5 81.5t57.5 232.5v80q-213 0 -298 -49.5t-85 -167.5zM252 1336.5q0 94.5 64.5 159.5t159.5 65t159.5 -64.5t64.5 -159.5t-65 -160t-159.5 -65t-159 65t-64.5 159.5zM354 1336q0 -51 35.5 -86.5t86 -35.5t86.5 35.5t36 86.5t-36 86.5t-87 35.5t-86 -35.5 t-35 -86.5z" />
<glyph unicode="&#xe6;" horiz-adv-x="1470" d="M84 301q0 361 459 361h98v51q0 123 -35.5 168t-122.5 45q-190 0 -190 -156v-10h-191l2 20q0 134 93.5 203.5t287.5 69.5t273 -113q71 111 262 111t281 -101.5t90 -316.5v-94h-572v-125q0 -156 47.5 -222.5t141.5 -66.5q180 0 209 197h174q-8 -163 -105.5 -255t-263.5 -92 q-249 0 -336 191q-109 -176 -301 -176q-136 0 -218.5 85t-82.5 226zM262 322q0 -79 43.5 -128t112.5 -49q109 0 167 80.5t58 233.5v80q-212 0 -296.5 -49.5t-84.5 -167.5zM819 662h398v63q0 207 -195 207q-92 0 -147.5 -57.5t-55.5 -153.5v-59z" />
<glyph unicode="&#xe7;" horiz-adv-x="924" d="M90 512q0 285 91 412t294 127q164 0 264.5 -87.5t100.5 -230.5v-22h-174q0 90 -47.5 140t-133.5 50q-117 0 -166 -86t-49 -300t47.5 -302t145.5 -88t150 60.5t55 162.5h177q-3 -177 -100.5 -275t-285 -98t-278.5 126t-91 411zM217 -326q171 -39 248 -39q119 0 119 84 t-131 84l-54 -1v198h76v-102h29q223 0 223 -181q0 -91 -64 -139.5t-177.5 -48.5t-268.5 45v100z" />
<glyph unicode="&#xe8;" horiz-adv-x="924" d="M90 513q0 286 92 412t288 126t285 -100.5t89 -317.5v-160h-572v-59q0 -152 48.5 -220.5t141.5 -68.5q179 0 206 197h176q-8 -163 -105.5 -255t-263.5 -92q-206 0 -295.5 126t-89.5 412zM217 1511h201l204 -348h-120zM273 606h397v88q0 236 -189 236q-104 0 -154.5 -78 t-53.5 -246z" />
<glyph unicode="&#xe9;" horiz-adv-x="924" d="M90 513q0 286 92 412t288 126t285 -100.5t89 -317.5v-160h-572v-59q0 -152 48.5 -220.5t141.5 -68.5q179 0 206 197h176q-8 -163 -105.5 -255t-263.5 -92q-206 0 -295.5 126t-89.5 412zM273 606h397v88q0 236 -189 236q-104 0 -154.5 -78t-53.5 -246zM336 1163l204 348 h201l-285 -348h-120z" />
<glyph unicode="&#xea;" horiz-adv-x="924" d="M90 513q0 286 92 412t288 126t285 -100.5t89 -317.5v-160h-572v-59q0 -152 48.5 -220.5t141.5 -68.5q179 0 206 197h176q-8 -163 -105.5 -255t-263.5 -92q-206 0 -295.5 126t-89.5 412zM184 1163l197 348h196l197 -348h-123l-172 230l-174 -230h-121zM273 606h397v88 q0 236 -189 236q-104 0 -154.5 -78t-53.5 -246z" />
<glyph unicode="&#xeb;" horiz-adv-x="924" d="M90 513q0 286 92 412t288 126t285 -100.5t89 -317.5v-160h-572v-59q0 -152 48.5 -220.5t141.5 -68.5q179 0 206 197h176q-8 -163 -105.5 -255t-263.5 -92q-206 0 -295.5 126t-89.5 412zM223 1223v209h182v-209h-182zM273 606h397v88q0 236 -189 236q-104 0 -154.5 -78 t-53.5 -246zM553 1223v209h182v-209h-182z" />
<glyph unicode="&#xec;" horiz-adv-x="428" d="M-47 1511h201l204 -348h-120zM129 0v1028h170v-1028h-170z" />
<glyph unicode="&#xed;" horiz-adv-x="428" d="M72 1163l204 348h201l-285 -348h-120zM129 0v1028h170v-1028h-170z" />
<glyph unicode="&#xee;" horiz-adv-x="428" d="M-80 1163l197 348h196l197 -348h-123l-172 230l-174 -230h-121zM129 0v1028h170v-1028h-170z" />
<glyph unicode="&#xef;" horiz-adv-x="428" d="M-41 1223v209h182v-209h-182zM129 0v1028h170v-1028h-170zM289 1223v209h182v-209h-182z" />
<glyph unicode="&#xf0;" horiz-adv-x="872" d="M84 480.5q0 264.5 82 387.5t256 123q79 0 153 -39q-36 110 -83 195l-283 -90l-31 94l250 84q-87 103 -205 197l86 77q123 -80 254 -233l248 80l31 -94l-219 -70q165 -289 165 -743q0 -243 -85.5 -358.5t-268.5 -115.5t-266.5 120.5t-83.5 385zM252 483.5 q0 -198.5 42.5 -282.5t141.5 -84t142 84t43 282.5t-43 282.5t-141.5 84t-141.5 -84t-43 -282.5z" />
<glyph unicode="&#xf1;" horiz-adv-x="948" d="M105 1028h180l8 -119q104 144 272 144q127 0 201 -74.5t74 -202.5v-776h-178v657q0 150 -38.5 205.5t-137.5 55.5t-147 -77.5t-48 -246.5v-594h-176v866q0 64 -10 162zM203 1210q35 203 188 203q25 0 47 -6l91 -29q34 -10 46 -10q67 0 90 74h82q-37 -209 -182 -209 q-27 0 -61 10l-89 27q-30 8 -46 8q-60 0 -84 -68h-82z" />
<glyph unicode="&#xf2;" horiz-adv-x="950" d="M88 513.5q0 283.5 92.5 410.5t295 127t293.5 -126.5t91 -410.5t-91.5 -411.5t-294.5 -127.5t-294.5 127.5t-91.5 411zM213 1511h201l204 -348h-120zM268 512q0 -209 48 -298t158.5 -89t158 89t47.5 299.5t-47.5 299t-157.5 88.5t-158.5 -90t-48.5 -299z" />
<glyph unicode="&#xf3;" horiz-adv-x="950" d="M88 513.5q0 283.5 92.5 410.5t295 127t293.5 -126.5t91 -410.5t-91.5 -411.5t-294.5 -127.5t-294.5 127.5t-91.5 411zM268 512q0 -209 48 -298t158.5 -89t158 89t47.5 299.5t-47.5 299t-157.5 88.5t-158.5 -90t-48.5 -299zM332 1163l204 348h201l-285 -348h-120z" />
<glyph unicode="&#xf4;" horiz-adv-x="950" d="M88 513.5q0 283.5 92.5 410.5t295 127t293.5 -126.5t91 -410.5t-91.5 -411.5t-294.5 -127.5t-294.5 127.5t-91.5 411zM180 1163l197 348h196l197 -348h-123l-172 230l-174 -230h-121zM268 512q0 -209 48 -298t158.5 -89t158 89t47.5 299.5t-47.5 299t-157.5 88.5 t-158.5 -90t-48.5 -299z" />
<glyph unicode="&#xf5;" horiz-adv-x="950" d="M88 513.5q0 283.5 92.5 410.5t295 127t293.5 -126.5t91 -410.5t-91.5 -411.5t-294.5 -127.5t-294.5 127.5t-91.5 411zM203 1210q35 203 188 203q25 0 47 -6l91 -29q34 -10 46 -10q67 0 90 74h82q-37 -209 -182 -209q-27 0 -61 10l-89 27q-30 8 -46 8q-60 0 -84 -68h-82z M268 512q0 -209 48 -298t158.5 -89t158 89t47.5 299.5t-47.5 299t-157.5 88.5t-158.5 -90t-48.5 -299z" />
<glyph unicode="&#xf6;" horiz-adv-x="950" d="M88 513.5q0 283.5 92.5 410.5t295 127t293.5 -126.5t91 -410.5t-91.5 -411.5t-294.5 -127.5t-294.5 127.5t-91.5 411zM219 1223v209h182v-209h-182zM268 512q0 -209 48 -298t158.5 -89t158 89t47.5 299.5t-47.5 299t-157.5 88.5t-158.5 -90t-48.5 -299zM549 1223v209h182 v-209h-182z" />
<glyph unicode="&#xf7;" horiz-adv-x="1706" d="M254 553v117h1198v-117h-1198zM739 250q0 48 34 81.5t81 33.5t81 -34t34 -81t-33.5 -81t-81.5 -34t-81.5 33.5t-33.5 81.5zM739 970.5q0 47.5 34 81t81.5 33.5t81 -33.5t33.5 -81t-33.5 -81t-82 -33.5t-81.5 33.5t-33 81z" />
<glyph unicode="&#xf8;" horiz-adv-x="950" d="M90 505q0 297 92 421.5t287.5 124.5t275.5 -99l74 111l62 -45l-88 -127q67 -124 67 -395t-92 -396t-301 -125q-133 0 -227 64l-86 -131l-62 47l94 141q-96 112 -96 409zM270 428q0 -108 25 -164l350 535q-35 104 -160 104t-170 -86.5t-45 -388.5zM338 190 q48 -65 147.5 -65t147 90t47.5 305q0 80 -12 178z" />
<glyph unicode="&#xf9;" horiz-adv-x="948" d="M106 252v776h179v-655q0 -149 38 -204.5t137 -55.5t147 76.5t48 244.5v594h176v-866q2 -65 10 -162h-179l-9 121q-105 -146 -272 -146q-127 0 -201 74.5t-74 202.5zM213 1511h201l204 -348h-120z" />
<glyph unicode="&#xfa;" horiz-adv-x="948" d="M106 252v776h179v-655q0 -149 38 -204.5t137 -55.5t147 76.5t48 244.5v594h176v-866q2 -65 10 -162h-179l-9 121q-105 -146 -272 -146q-127 0 -201 74.5t-74 202.5zM332 1163l204 348h201l-285 -348h-120z" />
<glyph unicode="&#xfb;" horiz-adv-x="948" d="M106 252v776h179v-655q0 -149 38 -204.5t137 -55.5t147 76.5t48 244.5v594h176v-866q2 -65 10 -162h-179l-9 121q-105 -146 -272 -146q-127 0 -201 74.5t-74 202.5zM180 1163l197 348h196l197 -348h-123l-172 230l-174 -230h-121z" />
<glyph unicode="&#xfc;" horiz-adv-x="948" d="M106 252v776h179v-655q0 -149 38 -204.5t137 -55.5t147 76.5t48 244.5v594h176v-866q2 -65 10 -162h-179l-9 121q-105 -146 -272 -146q-127 0 -201 74.5t-74 202.5zM219 1223v209h182v-209h-182zM549 1223v209h182v-209h-182z" />
<glyph unicode="&#xfd;" horiz-adv-x="930" d="M20 1028h207l246 -813l244 813h190l-473 -1417h-174l113 389zM322 1163l204 348h201l-285 -348h-120z" />
<glyph unicode="&#xfe;" horiz-adv-x="961" d="M113 -389v1864h178v-551q91 131 256 131q134 0 223 -103q55 -63 78.5 -155t23.5 -269q0 -286 -82.5 -419.5t-259.5 -133.5q-148 0 -239 142v-506h-178zM289 520q0 -210 51 -302.5t155 -92.5t149.5 93.5t45.5 311t-46 306t-153.5 88.5t-154.5 -97t-47 -307z" />
<glyph unicode="&#xff;" horiz-adv-x="930" d="M20 1028h207l246 -813l244 813h190l-473 -1417h-174l113 389zM209 1223v209h182v-209h-182zM539 1223v209h182v-209h-182z" />
<glyph unicode="&#x152;" horiz-adv-x="1632" d="M109 737q0 295 26.5 416t89.5 191t159 101.5t245 31.5l102 -2h823v-162h-540v-473h540v-166h-540v-512h540v-162h-823l-108 -2q-279 0 -396 129q-65 71 -91.5 193t-26.5 417zM299 752.5q0 -373.5 59.5 -482t214.5 -108.5h246v1151h-246q-161 0 -217.5 -93.5t-56.5 -467z " />
<glyph unicode="&#x153;" horiz-adv-x="1509" d="M90 512q0 285 91 412t296.5 127t290.5 -138q97 138 289.5 138t282.5 -100.5t90 -317.5v-160h-572v-70q0 -146 48.5 -212t141.5 -66q180 0 205 197h177q-8 -163 -105.5 -255t-263.5 -92q-209 0 -295 140q-91 -140 -292.5 -140t-292.5 126t-91 411zM270 512.5 q0 -210.5 47.5 -299t158 -88.5t157.5 87.5t47 298.5t-48 300.5t-157 89.5t-157 -89t-48 -299.5zM858 606h397v88q0 122 -47.5 180t-145.5 58t-151 -62.5t-53 -175.5v-88z" />
<glyph unicode="&#x178;" horiz-adv-x="977" d="M-10 1475h223l281 -695l294 695h197l-410 -875v-600h-198v618zM233 1669v209h182v-209h-182zM563 1669v209h182v-209h-182z" />
<glyph unicode="&#x2c6;" horiz-adv-x="1024" d="M217 1163l197 348h196l197 -348h-123l-172 230l-174 -230h-121z" />
<glyph unicode="&#x2dc;" horiz-adv-x="1024" d="M240 1210q35 203 188 203q25 0 47 -6l91 -29q34 -10 46 -10q67 0 90 74h82q-37 -209 -182 -209q-27 0 -61 10l-89 27q-30 8 -46 8q-60 0 -84 -68h-82z" />
<glyph unicode="&#x2000;" horiz-adv-x="986" />
<glyph unicode="&#x2001;" horiz-adv-x="1972" />
<glyph unicode="&#x2002;" horiz-adv-x="986" />
<glyph unicode="&#x2003;" horiz-adv-x="1972" />
<glyph unicode="&#x2004;" horiz-adv-x="657" />
<glyph unicode="&#x2005;" horiz-adv-x="493" />
<glyph unicode="&#x2006;" horiz-adv-x="328" />
<glyph unicode="&#x2007;" horiz-adv-x="328" />
<glyph unicode="&#x2008;" horiz-adv-x="246" />
<glyph unicode="&#x2009;" horiz-adv-x="394" />
<glyph unicode="&#x200a;" horiz-adv-x="109" />
<glyph unicode="&#x2010;" horiz-adv-x="569" d="M68 442v150h434v-150h-434z" />
<glyph unicode="&#x2011;" horiz-adv-x="569" d="M68 442v150h434v-150h-434z" />
<glyph unicode="&#x2012;" horiz-adv-x="569" d="M68 442v150h434v-150h-434z" />
<glyph unicode="&#x2013;" horiz-adv-x="1024" d="M0 455v118h1024v-118h-1024z" />
<glyph unicode="&#x2014;" horiz-adv-x="2048" d="M0 455v118h2048v-118h-2048z" />
<glyph unicode="&#x2018;" horiz-adv-x="426" d="M63 1073l156 402h143l-88 -402h-211z" />
<glyph unicode="&#x2019;" horiz-adv-x="426" d="M63 1073l89 402h210l-155 -402h-144z" />
<glyph unicode="&#x201a;" horiz-adv-x="426" d="M16 -211l90 401h213l-157 -401h-146z" />
<glyph unicode="&#x201c;" horiz-adv-x="754" d="M63 1073l158 402h148l-90 -402h-216zM391 1073l158 402h147l-90 -402h-215z" />
<glyph unicode="&#x201d;" horiz-adv-x="754" d="M63 1073l91 402h215l-158 -402h-148zM391 1073l88 402h217l-159 -402h-146z" />
<glyph unicode="&#x201e;" horiz-adv-x="754" d="M63 -211l91 401h215l-158 -401h-148zM391 -211l88 401h217l-159 -401h-146z" />
<glyph unicode="&#x2022;" horiz-adv-x="1208" d="M307 762q0 123 87 209t209.5 86t209 -86.5t86.5 -208.5t-87.5 -209.5t-210 -87.5t-208.5 87t-86 210z" />
<glyph unicode="&#x2026;" horiz-adv-x="2048" d="M243 0v227h195v-227h-195zM925 0v227h195v-227h-195zM1609 0v227h195v-227h-195z" />
<glyph unicode="&#x202f;" horiz-adv-x="394" />
<glyph unicode="&#x2039;" horiz-adv-x="498" d="M78 512l186 397h156l-156 -397l156 -393h-156z" />
<glyph unicode="&#x203a;" horiz-adv-x="498" d="M78 119l155 393l-155 397h155l187 -397l-187 -393h-155z" />
<glyph unicode="&#x205f;" horiz-adv-x="493" />
<glyph unicode="&#x2122;" horiz-adv-x="1706" d="M254 1389v67h440v-67h-172v-467h-94v467h-174zM819 922v534h129l160 -405l149 405h132v-534h-82v458l-172 -458h-54l-180 458v-458h-82z" />
<glyph unicode="&#xe000;" horiz-adv-x="1030" d="M0 0v1030h1030v-1030h-1030z" />
</font>
</defs>
</svg>
