<?xml version="1.0" encoding="windows-1252"?>
<!-- Generator: Adobe Illustrator 19.0.0, SVG Export Plug-In . SVG Version: 6.00 Build 0)  -->
<svg version="1.1" id="Capa_1" xmlns="http://www.w3.org/2000/svg" xmlns:xlink="http://www.w3.org/1999/xlink" x="0px" y="0px" viewBox="0 0 337.984 337.984" style="enable-background:new 0 0 337.984 337.984;" xml:space="preserve">
<g>
	<g>
		<path d="M281.899,74.186L209.495,1.781c-1.141-1.14-2.687-1.781-4.3-1.781H96.588C73.272,0,54.304,18.968,54.304,42.284V295.7    c0,23.316,18.968,42.284,42.284,42.284h72.405c3.358,0,6.082-2.724,6.082-6.082s-2.723-6.082-6.082-6.082H96.588    c-16.609,0-30.121-13.512-30.121-30.121V42.284c0-16.609,13.512-30.121,30.121-30.121h106.088l68.841,68.842v142.291    c0,3.358,2.723,6.082,6.082,6.082c3.358,0,6.082-2.723,6.082-6.082V78.486C283.68,76.873,283.04,75.326,281.899,74.186z"/>
	</g>
</g>
<g>
	<g>
		<path d="M277.599,72.405h-36.202c-16.608,0-30.12-13.512-30.12-30.121V6.082c0-3.359-2.723-6.082-6.082-6.082    c-3.358,0-6.082,2.723-6.082,6.082v36.202c0,23.315,18.968,42.284,42.283,42.284h36.202c3.358,0,6.082-2.723,6.082-6.082    C283.68,75.127,280.957,72.405,277.599,72.405z"/>
	</g>
</g>
<g>
	<g>
		<path d="M243.207,180.288H96.588c-3.359,0-6.082,2.723-6.082,6.082s2.723,6.082,6.082,6.082h146.619    c3.359,0,6.082-2.723,6.082-6.082S246.565,180.288,243.207,180.288z"/>
	</g>
</g>
<g>
	<g>
		<path d="M243.207,144.809H96.588c-3.359,0-6.082,2.723-6.082,6.082s2.723,6.082,6.082,6.082h146.619    c3.359,0,6.082-2.723,6.082-6.082S246.565,144.809,243.207,144.809z"/>
	</g>
</g>
<g>
	<g>
		<path d="M243.207,108.607H96.588c-3.359,0-6.082,2.723-6.082,6.082s2.723,6.082,6.082,6.082h146.619    c3.359,0,6.082-2.723,6.082-6.082S246.565,108.607,243.207,108.607z"/>
	</g>
</g>
<g>
	<g>
		<path d="M168.992,36.202H96.588c-3.359,0-6.082,2.723-6.082,6.082c0,3.359,2.723,6.082,6.082,6.082h72.405    c3.358,0,6.082-2.723,6.082-6.082C175.074,38.925,172.35,36.202,168.992,36.202z"/>
	</g>
</g>
<g>
	<g>
		<path d="M132.066,245.377c-0.362-2.895-1.81-5.068-3.62-6.516c-1.81-1.81-3.982-2.896-6.516-3.619    c-2.534-0.724-5.793-1.087-10.137-1.087H98.036c-2.896,0-5.068,0.724-6.516,2.172c-1.448,1.448-2.172,3.62-2.172,6.879v44.166    c0,2.535,0.724,4.707,1.81,6.516c1.449,1.449,3.258,2.535,5.431,2.535c2.172,0,3.982-0.724,5.068-2.535    c1.448-1.448,1.81-3.619,1.81-6.516v-14.481h7.964c6.879,0,12.308-1.81,16.291-5.068c3.62-3.258,5.792-8.326,5.792-14.481    C133.515,250.446,133.152,247.55,132.066,245.377z M118.309,257.325c-0.724,1.087-1.81,1.81-2.897,2.172    c-1.448,0.362-3.62,0.724-5.792,0.724h-5.792v-13.757h5.431c5.43,0,7.24,1.086,8.326,1.81c1.086,1.086,1.448,2.896,1.448,5.068    C119.395,254.792,119.033,256.24,118.309,257.325z"/>
	</g>
</g>
<g>
	<g>
		<path d="M186.37,239.948c-1.81-2.534-4.345-3.982-7.241-4.705c-2.897-0.724-6.154-1.087-9.774-1.087h-14.119    c-2.897,0-5.068,0.724-6.517,2.172c-1.448,1.448-2.172,3.62-2.172,6.516v41.995c0,2.172,0,3.62,0.362,5.068    c0.362,1.448,1.448,2.896,2.896,3.62c1.448,0.723,2.897,1.086,5.431,1.086h14.119c2.534,0,4.706,0,6.878-0.362    c2.172-0.362,3.983-1.086,5.792-1.81c1.81-1.086,3.62-2.171,5.068-3.62c1.81-1.809,3.62-3.982,4.706-6.516    c1.086-2.534,2.172-5.068,2.896-7.964s0.724-6.154,0.724-9.774C195.42,253.704,192.524,245.377,186.37,239.948z M176.595,279.771    c-0.724,0.723-1.448,1.086-2.172,1.448c-1.086,0.362-1.81,0.724-2.534,0.724c-1.086,0-2.172,0-3.982,0h-6.517v-35.116h5.431    c3.258,0,5.792,0.361,7.964,1.086c1.81,0.724,3.62,2.172,4.706,4.706c1.086,2.173,1.81,6.155,1.81,11.585    C181.301,271.807,179.853,276.875,176.595,279.771z"/>
	</g>
</g>
<g>
	<g>
		<path d="M249.723,239.948c0-1.81-0.724-3.258-1.81-4.345c-1.086-1.086-2.897-1.448-5.068-1.448h-25.342    c-1.81,0-3.258,0.362-4.706,1.087c-1.449,0.723-2.534,1.809-2.897,3.258c-0.724,1.448-0.724,2.896-0.724,4.706v43.805    c0,2.896,0.724,5.068,1.81,6.516c1.448,1.448,3.258,2.534,5.43,2.534c2.172,0,3.983-0.723,5.068-2.534    c1.448-1.448,1.81-3.62,1.81-6.516v-17.016h15.929c2.172,0,3.62-0.724,5.068-1.81c1.086-1.087,1.81-2.535,1.81-4.345    c0-1.809-0.724-3.258-1.81-4.344c-1.087-1.086-2.897-1.81-5.068-1.81h-15.929v-10.86h19.55v-0.36h-0.001    c2.172,0,3.982-0.724,5.068-1.81C248.999,243.569,249.723,242.119,249.723,239.948z"/>
	</g>
</g>
<g>
</g>
<g>
</g>
<g>
</g>
<g>
</g>
<g>
</g>
<g>
</g>
<g>
</g>
<g>
</g>
<g>
</g>
<g>
</g>
<g>
</g>
<g>
</g>
<g>
</g>
<g>
</g>
<g>
</g>
</svg>