<?xml version="1.0" standalone="no"?>
<!DOCTYPE svg PUBLIC "-//W3C//DTD SVG 1.1//EN" "http://www.w3.org/Graphics/SVG/1.1/DTD/svg11.dtd" >
<svg xmlns="http://www.w3.org/2000/svg">
<metadata>Generated by IcoMoon</metadata>
<defs>
<font id="icomoon" horiz-adv-x="1024">
<font-face units-per-em="1024" ascent="960" descent="-64" />
<missing-glyph horiz-adv-x="1024" />
<glyph unicode="&#x20;" horiz-adv-x="512" d="" />
<glyph unicode="&#xe900;" glyph-name="bottom-quote" d="M813.568 457.216h-131.072v353.792h341.504v-300.032c0-284.672-136.192-405.504-395.264-425.984l-33.28 133.632c156.672 28.16 230.912 107.52 218.112 238.592zM220.672 457.216h-133.632v353.792h341.504v-300.032c0-284.672-136.192-405.504-395.264-425.984l-33.28 133.12c156.672 28.672 230.912 108.032 220.672 239.104z" />
<glyph unicode="&#xe901;" glyph-name="chevron" d="M512 891.392c-244.736 0-443.392-198.656-443.392-443.392s198.144-443.392 443.392-443.392c244.736 0 443.392 198.656 443.392 443.392s-198.656 443.392-443.392 443.392zM512-64c-282.624 0-512 229.376-512 512s229.376 512 512 512c282.624 0 512-229.376 512-512s-229.376-512-512-512zM350.208 260.096l321.536 183.296-321.536 184.32v76.288l403.456-227.328v-64.512l-403.456-227.328v75.264z" />
<glyph unicode="&#xe902;" glyph-name="email" d="M744.448 640h-501.248c-18.944 0-34.816-15.872-34.816-34.816v-329.728c0-18.944 15.872-34.816 34.816-34.816h501.248c18.944 0 34.816 15.872 34.816 34.816v329.728c0 18.944-15.36 34.816-34.816 34.816zM723.968 322.048c7.168-6.656 7.68-17.408 1.536-24.576-6.656-7.168-17.408-7.68-24.576-1.536l-134.656 121.344-60.416-54.272c-3.072-3.072-7.68-4.608-11.776-4.608s-8.192 1.536-11.776 4.608l-60.416 54.272-135.168-120.832c-7.168-6.656-18.432-5.632-24.576 1.536-6.656 7.168-5.632 18.432 1.536 24.576l132.096 118.784-132.096 118.784c-7.168 6.656-7.68 17.408-1.536 24.576 6.656 7.168 17.408 7.68 24.576 1.536l206.848-186.368 206.848 186.368c7.168 6.656 18.432 5.632 24.576-1.536 6.656-7.168 5.632-18.432-1.536-24.576l-132.096-118.784 132.608-119.296zM512-64c-282.112 0-512 229.888-512 512s229.888 512 512 512 512-229.888 512-512-229.888-512-512-512zM512 921.6c-261.12 0-473.6-212.48-473.6-473.6s212.48-473.6 473.6-473.6 473.6 212.48 473.6 473.6-212.48 473.6-473.6 473.6z" />
<glyph unicode="&#xe903;" glyph-name="facebook" d="M561.152 98.304c-44.032 0-85.504 0-128 0 0 110.592 0 220.16 0 330.752-5.12 0.512-9.216 0.512-13.312 0.512-30.72 0-61.952 0-92.672 0.512-3.584 0-9.728 3.584-9.728 5.632-0.512 34.816 0 69.12 0 104.96 5.632 0.512 9.728 1.024 14.336 1.024 29.696 0 59.392 0.512 89.088 0 9.216 0 12.288 2.56 12.288 12.288 1.024 32.768-0.512 66.048 5.632 97.792 13.312 70.144 74.24 126.464 149.504 124.928 32.256-0.512 64 0 96.256 0 3.072 0 6.144-0.512 10.24-1.024 0-12.8 0-24.576 0-36.864 0-23.040-0.512-46.592 0-69.632 0-8.192-2.56-10.752-10.24-10.752-29.696 0.512-59.392 0-89.088 0-16.896 0-31.232-8.192-32.256-24.576-2.048-30.208-0.512-60.416-0.512-92.16 4.096 0 8.704 0 12.8 0 35.328 0 71.168-0.512 106.496 0 9.728 0 13.312-2.048 13.312-12.8-0.512-29.184-0.512-58.88 0-88.064 0-8.704-2.56-11.264-11.264-11.264-36.352 0.512-72.704 0-108.544 0-4.096 0-8.192 0-14.336 0 0-110.592 0-220.16 0-331.264zM512 918.528c259.584 0 470.528-210.944 470.528-470.528s-210.944-470.528-470.528-470.528-470.528 210.944-470.528 470.528 210.944 470.528 470.528 470.528zM512 960c-282.624 0-512-229.376-512-512s229.376-512 512-512c282.624 0 512 229.376 512 512s-229.376 512-512 512v0z" />
<glyph unicode="&#xe904;" glyph-name="hamburger" d="M0 827.904h1024v-93.696h-1024v93.696zM0 161.28h1024v-93.696h-1024v93.696zM0 494.592h1024v-93.696h-1024v93.696z" />
<glyph unicode="&#xe905;" glyph-name="linkedin" d="M434.176 181.76c0 127.488 0 254.464 0 381.44 1.536 0 3.584 0 5.12 0 38.4 0 77.312 0 115.712 0 4.608 0 6.144-1.536 5.632-6.144-0.512-15.36 0-30.72 0-47.104 4.608 6.144 8.192 11.264 12.288 15.872 21.504 26.624 49.152 41.472 82.944 45.056 30.208 3.072 59.392-0.512 87.040-13.824 24.064-11.776 42.496-29.696 55.296-53.248 17.408-31.744 23.040-66.56 23.040-102.4 0-72.192 0-143.872 0-216.064 0-1.024 0-2.048 0-3.584-41.984 0-83.968 0-126.464 0 0 2.048 0 4.096 0 6.144 0 65.024 0 129.536 0 194.56 0 16.896-1.024 33.792-7.168 50.176-9.728 27.136-32.768 41.472-61.44 38.912-31.744-2.56-51.2-20.992-61.44-49.664-3.072-9.728-3.072-20.48-3.072-30.72 0-67.584 0-135.68 0-203.264 0-6.144 0-6.144-6.144-6.144-38.4 0-76.288 0-114.688 0-2.56 0-4.608 0-6.656 0zM363.52 181.76c-1.536 0-3.584 0-5.12 0-38.4 0-77.312 0-115.712 0-4.608 0-5.632 1.024-5.632 5.632 0 123.392 0 246.784 0 370.176 0 4.096 1.024 5.632 5.632 5.632 38.4 0 77.312 0 115.712 0 1.536 0 3.072 0 5.12 0 0-126.976 0-253.952 0-381.44zM300.032 615.424c-25.088 0.512-46.592 8.704-60.416 30.208-20.992 32.768-10.24 83.968 35.84 97.792 24.576 7.168 48.128 5.632 69.632-9.216s29.184-36.864 26.112-62.464c-3.072-25.088-17.92-42.496-41.472-51.2-9.216-3.072-19.456-4.608-29.184-6.656-0.512 1.024-0.512 1.536-0.512 1.536zM512 918.528c259.584 0 470.528-210.944 470.528-470.528s-210.944-470.528-470.528-470.528-470.528 210.944-470.528 470.528 210.944 470.528 470.528 470.528zM512 960c-282.624 0-512-229.376-512-512s229.376-512 512-512 512 229.376 512 512-229.376 512-512 512v0z" />
<glyph unicode="&#xe906;" glyph-name="minus" d="M512 891.392c-244.736 0-443.392-198.656-443.392-443.392s198.144-443.392 443.392-443.392c244.736 0 443.392 198.656 443.392 443.392s-198.656 443.392-443.392 443.392zM512-64c-282.624 0-512 229.376-512 512s229.376 512 512 512c282.624 0 512-229.376 512-512s-229.376-512-512-512zM262.656 472.576h499.2v-48.64h-499.2v48.64z" />
<glyph unicode="&#xe907;" glyph-name="plus" d="M512 891.392c-244.736 0-443.392-198.656-443.392-443.392s198.144-443.392 443.392-443.392c244.736 0 443.392 198.656 443.392 443.392s-198.656 443.392-443.392 443.392zM512-64c-282.624 0-512 229.376-512 512s229.376 512 512 512c282.624 0 512-229.376 512-512s-229.376-512-512-512zM487.424 697.344h48.64v-499.2h-48.64v499.2zM262.656 472.576h499.2v-48.64h-499.2v48.64z" />
<glyph unicode="&#xe908;" glyph-name="top-quote" d="M210.432 438.784h131.072v-354.304h-341.504v300.032c0 284.672 136.192 405.504 395.264 425.984l33.28-133.632c-156.672-27.648-230.912-107.008-218.112-238.080zM803.328 438.784h133.632v-354.304h-341.504v300.032c0 284.672 136.192 405.504 395.264 425.984l33.28-133.632c-156.672-27.648-230.912-107.008-220.672-238.080z" />
<glyph unicode="&#xe909;" glyph-name="twitter" d="M302.080 479.232c14.848-4.096 29.184-8.192 43.008-12.288 0.512 0.512 1.024 1.536 1.536 2.048-46.080 39.936-55.808 87.552-31.232 145.408 60.928-69.12 134.144-108.544 225.28-114.688 0 14.336-1.024 27.648 0 40.96 5.12 47.616 50.176 89.088 97.792 92.16 31.232 1.536 58.88-5.632 82.432-27.136 6.144-5.632 12.288-6.144 18.944-3.584 14.848 5.12 29.184 10.752 43.52 16.384 4.096 1.536 8.192 3.584 13.312 5.632-7.68-24.576-23.552-40.96-40.96-56.32 0.512-1.024 1.024-1.536 1.024-2.56 16.896 4.608 34.304 9.216 53.248 14.336-3.584-5.12-6.144-9.216-9.216-12.8-8.192-9.216-15.36-19.456-25.088-26.112-14.848-10.24-17.92-23.552-18.432-40.448-2.56-67.072-24.064-127.488-65.024-180.736-59.392-76.8-138.24-116.224-236.032-118.272-56.832-1.024-109.568 10.752-159.232 37.888-4.608 2.56-8.704 5.12-12.8 9.216 56.832-3.072 108.544 10.24 156.16 46.080-48.64 6.144-82.432 29.696-100.864 76.8 15.872 0 30.208 0 44.544 0-55.296 24.064-86.016 65.024-81.92 108.032zM512 918.528c259.584 0 470.528-210.944 470.528-470.528s-210.944-470.528-470.528-470.528-470.528 210.944-470.528 470.528 210.944 470.528 470.528 470.528zM512 960c-282.624 0-512-229.376-512-512s229.376-512 512-512c282.624 0 512 229.376 512 512s-229.376 512-512 512v0z" />
<glyph unicode="&#xe90a;" glyph-name="video" d="M512 960c-282.624 0-512-229.376-512-512s229.376-512 512-512 512 229.376 512 512-229.376 512-512 512zM512 4.608c-244.736 0-443.392 198.656-443.392 443.392s198.656 443.392 443.392 443.392c244.736 0 443.392-198.656 443.392-443.392s-198.656-443.392-443.392-443.392zM345.088 206.848c0-9.216 6.656-13.312 14.848-8.704l437.248 240.64c8.192 4.608 8.192 11.776 0 16.384l-437.248 242.688c-8.192 4.608-14.848 0.512-14.848-8.704v-482.304z" />
<glyph unicode="&#xe90b;" glyph-name="youtube" d="M1024 448c0 282.765-229.237 512-512 512-282.765 0-512-229.235-512-512 0-282.763 229.235-512 512-512 282.763 0 512 229.237 512 512zM46.545 448c0 257.071 208.384 465.455 465.455 465.455s465.455-208.384 465.455-465.455c0-257.071-208.384-465.455-465.455-465.455s-465.455 208.384-465.455 465.455zM761.713 697.304h-499.378c-58.785 0-106.444-47.682-106.444-106.537v-285.556c0-58.808 47.659-106.514 106.444-106.514h499.355c58.785 0 106.42 47.706 106.42 106.514v285.556c0 58.832-47.659 106.537-106.397 106.537zM440.792 327.509v268.283l203.398-134.118z" />
<glyph unicode="&#xe90c;" glyph-name="twitter-silhouette" d="M1024 765.477c-37.689-16.7-78.129-28.026-120.618-33.083 43.384 25.98 76.594 67.187 92.334 116.139-40.696-24.059-85.616-41.529-133.48-50.999-38.328 40.888-92.846 66.356-153.316 66.356-116.010 0-210.072-94.062-210.072-210.009 0-16.444 1.856-32.505 5.44-47.864-174.559 8.768-329.345 92.399-432.941 219.481-18.109-30.971-28.411-67.059-28.411-105.581 0-72.883 37.113-137.191 93.423-174.815-34.426 1.151-66.804 10.621-95.15 26.363v-2.624c0-101.741 72.435-186.652 168.48-205.978-17.597-4.735-36.153-7.359-55.35-7.359-13.565 0-26.683 1.344-39.544 3.904 26.746-83.505 104.301-144.228 196.188-145.893-71.859-56.31-162.466-89.776-260.879-89.776-16.956 0-33.658 1.024-50.102 2.88 92.975-59.702 203.354-94.511 321.988-94.511 386.423 0 597.648 320.069 597.648 597.648l-0.704 27.195c41.271 29.437 76.976 66.421 105.067 108.526z" />
<glyph unicode="&#xe90d;" glyph-name="linkedin-silhouette" d="M1024 337.332v-378.579h-219.476v353.224c0 88.733-31.745 149.29-111.188 149.29-60.645 0-96.735-40.811-112.612-80.288-5.79-14.113-7.28-33.757-7.28-53.512v-368.714h-219.55c0 0 2.957 598.246 0 660.229h219.529v-93.585c-0.445-0.7-1.024-1.455-1.443-2.133h1.443v2.133c29.167 44.922 81.255 109.095 197.845 109.095 144.447 0.002 252.733-94.363 252.733-297.16zM124.235 937.245c-75.108 0-124.235-49.265-124.235-114.050 0-63.373 47.705-114.133 121.321-114.133h1.467c76.562 0 124.177 50.75 124.177 114.133-1.443 64.785-47.615 114.050-122.73 114.050zM13.039-41.247h219.467v660.229h-219.467v-660.229z" />
<glyph unicode="&#xe90e;" glyph-name="facebook-silhouette" d="M767.965 959.787l-132.79 0.213c-149.185 0-245.595-98.913-245.595-252.008v-116.192h-133.514c-11.537 0-20.88-9.353-20.88-20.891v-168.35c0-11.537 9.353-20.88 20.88-20.88h133.514v-424.8c0-11.537 9.343-20.88 20.88-20.88h174.198c11.537 0 20.88 9.353 20.88 20.88v424.8h156.109c11.537 0 20.88 9.343 20.88 20.88l0.064 168.35c0 5.54-2.205 10.845-6.115 14.765s-9.236 6.125-14.776 6.125h-156.163v98.498c0 47.342 11.282 71.375 72.952 71.375l89.453 0.032c11.527 0 20.869 9.353 20.869 20.88v156.322c0 11.516-9.332 20.859-20.848 20.88z" />
<glyph unicode="&#xe933;" glyph-name="profit" d="M4.008-2.744h1018.132v-62.758h-1018.132v62.758zM922.674 764.715l-308.398-332.174-126.244 135.977-399.33-430.115 41.198-44.374 358.132 385.737 126.244-135.979 349.598 376.553v-101.752h58.266v208.887h-193.936v-62.758zM4.008-61.601l-3.951 1018.124 62.758 0.244 3.951-1018.124-62.758-0.244z" />
<glyph unicode="&#xe934;" glyph-name="sq-facebook-logo" d="M1024 789.322c0 89.68-80.964 170.678-170.667 170.678h-682.667c-89.702 0-170.667-80.998-170.667-170.678v-682.644c0-89.68 80.964-170.678 170.678-170.678h341.322v386.844h-125.156v170.667h125.156v66.492c0 114.677 86.107 217.953 192 217.953h137.956v-170.667h-137.956c-15.098 0-32.711-18.33-32.711-45.784v-67.994h170.667v-170.667h-170.667v-386.844h182.044c89.702 0 170.667 80.998 170.667 170.678v682.644z" />
<glyph unicode="&#xe935;" glyph-name="sq-linkedin-sign" d="M967.665 903.672c-37.54 37.55-82.77 56.328-135.654 56.328h-640.005c-52.884 0-98.114-18.778-135.671-56.328-37.55-37.557-56.328-82.784-56.328-135.671v-639.998c0-52.882 18.778-98.114 56.328-135.671 37.557-37.557 82.787-56.335 135.671-56.335h639.998c52.884 0 98.114 18.778 135.654 56.335 37.557 37.557 56.335 82.787 56.335 135.671v639.998c-0.002 52.886-18.781 98.121-56.328 135.671zM312.004 102.673h-154.001v462.668h154.001v-462.668zM298.012 650.999c-15.997-15.334-37.111-23.002-63.336-23.002h-0.672c-25.331 0-45.879 7.668-61.661 23.002-15.785 15.334-23.673 34.332-23.673 56.998 0 23.11 8.117 42.225 24.333 57.339 16.229 15.11 37.225 22.669 62.999 22.669 25.777 0 46.444-7.559 62.002-22.669 15.554-15.115 23.556-34.229 23.997-57.339-0.002-22.657-7.993-41.655-23.99-56.998zM866.004 102.673h-154.001v247.328c0 69.769-25.77 104.664-77.327 104.664-19.554 0-36.006-5.443-49.335-16.334-13.345-10.884-23.341-24.107-29.998-39.675-3.117-7.991-4.668-20.432-4.668-37.316v-258.664h-154.001c1.333 279.105 1.333 433.335 0 462.67h154.001v-65.32c32.38 50.626 78.359 75.992 138.003 75.992 53.332 0 96.227-17.56 128.67-52.665 32.445-35.112 48.665-86.896 48.665-155.325v-265.354h-0.009z" />
<glyph unicode="&#xe936;" glyph-name="sq-twitter-logo" d="M831.999 960h-640c-106.048 0-191.999-85.951-191.999-191.999v-640c0-106.048 85.951-191.999 191.999-191.999h640c106.048 0 191.999 85.953 191.999 191.999v640c0.002 106.048-85.951 191.999-191.999 191.999zM766.72 562.945l0.383-16.32c0-166.655-126.783-358.656-358.656-358.656-71.167 0-137.409 20.864-193.216 56.641 9.857-1.152 19.903-1.792 30.080-1.792 59.073 0 113.408 20.16 156.544 53.952-55.167 1.023-101.696 37.504-117.76 87.551 7.743-1.408 15.552-2.177 23.744-2.177 11.52 0 22.655 1.472 33.215 4.352-57.664 11.649-101.12 62.527-101.12 123.583v1.6c17.023-9.472 36.415-15.103 57.087-15.809-33.792 22.592-56.064 61.184-56.064 104.896 0 23.104 6.209 44.735 17.023 63.359 62.144-76.288 155.072-126.463 259.84-131.712-2.177 9.217-3.263 18.88-3.263 28.735 0 69.567 56.447 126.017 126.080 126.017 36.224 0 68.993-15.295 92.031-39.807 28.672 5.697 55.681 16.192 80.064 30.592-9.409-29.44-29.375-54.144-55.424-69.759 25.409 3.008 49.792 9.857 72.384 19.84-16.895-25.215-38.335-47.424-62.974-65.087z" />
<glyph unicode="&#xe937;" glyph-name="sq-youtube" d="M832 832h-640c-105.6 0-192-86.4-192-192v-384c0-105.6 86.4-192 192-192h640c105.602 0 192 86.4 192 192v384c0 105.6-86.398 192-192 192zM384 192v512l320-256-320-256z" />
</font>
</defs>
</svg>
