<svg data-name="Layer 1" xmlns="http://www.w3.org/2000/svg" viewBox="0 0 541.96 7.22"><defs><clipPath id="a" transform="translate(-20 -281.85)"><path fill="none" d="M20 281.85h541.96v7.22H20z"/></clipPath></defs><g clip-path="url(#a)"><path d="M133 1.41l.69.1c-1.57.06-1.13 0-.69-.1M516.25.93c.36-.05.33-.1.18-.14a9.85 9.85 0 0 1-2 .1 5.12 5.12 0 0 0 1.78 0m-3.57-.07h-.08c-1.72-.09-1.11-.05.08 0M344.28 5.3a9.36 9.36 0 0 1-2.46-.05 20.3 20.3 0 0 1 2.46.05m-60.48.85a11 11 0 0 1-2.87.07 5.77 5.77 0 0 1 2.87-.07m-39.8 0l2.66.28c-3.22.39-5.55.22-3.05.61.39-.89 10.36 0 10.74-.88l1.75.2h-1.08c3.41.45 2.54-.63 6.94-.48 1.53.08 2.6.21 1.55.31l3.42-.2c1 0 .75.18-.24.15h5.21c.74-.14 2.43-.34 3.25-.43 1.32.14-.66.09-.32.21l2.89-.2c1.17.24-1.22.45-3.21.41 2.69.9 2.4-.21 8.21.34l-2.73.1c1.75.51 3.88.34 7 .66-.73-.16-6.16-.8-3-1a19.88 19.88 0 0 0 3.73-.08c0 .32 1.67.24 3.73.22l-.14.42a17.83 17.83 0 0 0 3.37-.52c2.49 0 3 .37 3.59.64 4 .07-2.75-.52 2-.6a77.64 77.64 0 0 0 9.6-.25c2.32.15-.4.26.43.38l2.06-.34c.5 0 .34.11.26.16 1.73-.13.14-.42 2.86-.54.73-.46 5.59.66 9 .13.83.12-.4.26-.15.42 4.62-.36 4-.26 7.75-.73l3.23.27c-2.38-.31.65-.69 3.31-1-.84-.15-1.56-.28-2-.34l4.24-.24c.51.06.09.21-.61.39l.78-.11c1.52.14.73.39-.35.63L339 4.85c-1 .26-2 .54-1.8.79a13 13 0 0 1 1.39-.12c-.27.07-.45.13-.32.17a5.89 5.89 0 0 0 1.28-.16l1 .46.23-.19 5.55.26A123.44 123.44 0 0 1 360 4.63c-1.56.35-.33.56-.41 1-1.73-.42-4.88.21-8.15.15 1.7 0 1.33.23.9.3l5.82-.43c-.13.33 1.24.24 2.77.37-1.16-.65 4.33-.46 6.7-.69.15.22-.42.45-3.31.42 3.2.47 4.11-.81 7.25-.42a4.54 4.54 0 0 0-1.36.1c1.65-.21 5.68-.09 4.73.11h-.7c4.69 0 14.27-.13 15-.69 0 .07-.6.68-.88.79l8.32-2c-.73.49 2.13 1.59-1.76 1.91a32.48 32.48 0 0 0 4.85-.08c-.76-.06-1.91-.67-.87-.73 2.87.5 2 .26 5.52.67-1.14-.09.11-.86 1.91-.85-.28.12.17.74-.49.83l4.47-.79c-1.12.14-.18.63.83.82-.47-.14 3.88 0 5.07-.12l-1.91-.15c5.07 0 5-1.09 10-1.13-.61.16-1.48 1 1.08 1a38.81 38.81 0 0 1 9.58-2.25l.86.2 3.41-.3c-2.11.6-8 1.88-11.28 2.4a14.21 14.21 0 0 0 3.38.19c1 .19-1.54.33-2.37.35h6.61c-.3-.44 5-.52 4.78-.88l-7.17.56c-.3-.44 4.12-1.31 8.81-1.3 1.2.16-.87.8-.77.94a31.31 31.31 0 0 1 4.87-.26l-2 .27c2.61.13 4.24-.64 7.38-.28 1.08 0 3.25.51 3.43.25-1.78-.47-2.17-2-1-2.42.38 0 5.69.38 6.94.61 1.79.36-2.65 1-1.12 1.3a5 5 0 0 1 1.45-.34c1.14.09-.46.38 2 .29.4-.45 5 0 1.16-.4 2.41-.17 2.57 0 5.4 0-.91-.28 2.51-1 4.93-1.19-.14.12.41.26.68.32 4.95-.05 7.61.1 12.23 0 .43.1 2.66.19 1.72.4a17.5 17.5 0 0 1 2.69-.29c2.77.34-3.17.12-1.06.55.17-.26 3.67-.43 5.69-.63-.64-.39-4.69 0-6.71.21 0-.55 3.49-1.2 8.3-1.54 3.83-.21 1.68.33 2.34.24 7.2 0 6.1-1.09 12.09-.81 2.39.3.13.7.67.94-3.12.2-4.8-.13-6.92-.07l2.61.11a26.57 26.57 0 0 1-4.21.19c2 .28 12.17-.18 17.73 0 1-.14 2.68-.3 1.87-.42l-1.76.08c-1.62-.25 3.29-.46 1.06-.55a58 58 0 0 1 8.31-.52l.64.39a11.39 11.39 0 0 0-3.11-.05c1.38-.21 5.11.44 6.61-.12l-2.34-.23A62 62 0 0 1 542 .28c-1.35-.37-.68.06-2.78-.36 1.84.54-7.52.13-4.59.68-2.17-.5-3.72-.15-6.54-.55.09.13 1 .23-1.47.22a4.72 4.72 0 0 1-.54.13h.05a6.71 6.71 0 0 1 1.27.18c-1.21.33-5.14.4-6.46.58-1.47 0 .61-.16-.2-.29l-2 .28c-.21-.29-3.91-.41-.47-.65h-3.11a40.83 40.83 0 0 0-5.9 0c-1.46 0-3.69.4-2.42.14l-4.87.28V.85c-4.81.05-9.88.67-15.39.24-1.62.1-3.28.22-6 .19l-.58-.13c-2.07.13-6.25-.14-7.13.14-2.26-.65-10.09 0-13.74 0l-.13.34c-2.52 0-4.92.16-8 .34l.2.29c-2.68.29-6.93-.1-11.18 0a8.08 8.08 0 0 1 2.13 0c-5.11-.59-10.72.64-15.34.22a14 14 0 0 1-2.79 0h.29-.47l-1.6-.13c.48.06.95.12 1.35.14-.89 0-2.23.07-3.55.17l-.57-.31h-.3c-1.3-.1-1 .16-.34.39-.66.06-1.27.13-1.74.21-1.06-.5-3.46.21-4.9-.31-.88.28-6.62.28-7.31.85 0-.07-.44-.1.28-.12a27.19 27.19 0 0 0-4.25.08l-.63-.39-3.2.58c-2-.22-2.77-.36-.84-.69-4.66.53-3.79.22-7.75.73l.19-.26c-1.42 0-3.68.39-4.55.19-3.19-.47-15.73.1-23.89-.32 1.59.76-3.8-.32-4.11.28-.48-.18-1.61-.27-.3-.44-4.16.2-6.26-.25-9.13.27-.48-.18.89-.27.46-.37a6.86 6.86 0 0 1-1.76.06c-.42-.11.61-.15 1.27-.24-4.25.06-4.68.62-5 1.14a12.81 12.81 0 0 0-4.79.15c-.75-.17-2-.34.64-.41-1.49 0-9.08-.22-9.23.19a13.33 13.33 0 0 0-2.47 0c-3.33 0-3.63-.05-6.91 0l.91.07c-1.29.51-2.72.12-5.37.19l.08-.05c-6.06-.35-2.61.18-8.59-.24l.32.31c-.56.68-5.29-.4-8.76-.15l1.25.18c-1.9.23-5.29-.93-7.19-1-.42-.06.65-.1 1.23-.14-5-.4-.65.41-4.36.5-.68-.22.88-.56-1.61-.61-1.24-.17-7.25.7-10.65.26.75.18 1.49.35-.23.47-2.64 0-7.13-.68-9.52-.15-.34 0-.46-.1-.48-.14-2 .13-6.56.2-7.78.48-1.85-1.09-12.56.42-12.5-.58h-6.21l.17-.1a30.6 30.6 0 0 0-6.78.35c-.92-.08-.24-.17-.17-.22a59.76 59.76 0 0 0-11.25.2l-.5-.33c-1.32.17-8.37-.62-14.07-.32a1.38 1.38 0 0 1 .63-.14c-6.41.3-15.29-1.15-17.67 0l-4.23.21c5.46.2-.83.5 1.41.74-2.15 0-5.54-.46-2.9-.47l.41.07c1-.6-6.78-.35-6.62-.77-10.75-.18-21.22-.73-31.29-1l1.14.5-3.51-.1c-.92-.13-1.22-.4 1.28-.33a12.61 12.61 0 0 0-4.29.24c-4.9-.29 1.94-.52.43-.56h-2l.46.07a23.28 23.28 0 0 1-4.83.29c-1.9-.13-1-.31-1.72-.35 0 0-.25-.05-1.15 0l-4.43-.12 1.76.41c-2 .15-4.16-.1-2.13.37-3-.72-16.51-.53-18.35-.75a79.29 79.29 0 0 1-8.83.11c.83.09 1.32.52-1.58.43 1.08-.87-5.3-.44-7.63-1.1 2.09.44-8.25 0-5 .64-2.42-.09-.14-.33-2-.55-5.77.29-12.69-.32-19.82-.21-.11.12 1.08.29-.45.46L60.18.41c-1.41.06-1.29.67-3.87.27.36.1.91.24 0 .28-14-.55-28.49.61-42.7-.1 1.93.18.65.23-.81.27 1 0 0 .29.19.44l-6-.28c-1.06.46-6.36.22-7 .65l1.87-.13c-2.47.56 3.55 1 3.22 1.62 2.76-.65 7.4.62 11.94-.27 1 .11-.85.22-.31.36a19 19 0 0 1 5.15-.31l-.29.07c7.3-.17 10.44 0 18.64.13l-.61-.3a25.84 25.84 0 0 1 3 .19c2-.49-5 0-3.11-.52 2.35.61 12.43-.08 14 .65 2.71 0-.8-.36 1.91-.36l.72.19.68-.25c1.78 0 2.68.28 2.74.44-.43 0-1.23 0-1.69.06 2.31.22 6.5-.07 7.29 0l-2.6-.13c7.4-.17 16.43.14 23.59-.19l-.54-.15c5.47-.22 4.37.21 10.37.15h-.22a35.1 35.1 0 0 1 4.45-.15c-1.52.15 2.84.37.85.54 5.93-.21 2.93-.19 6.86-.68l.89.26a19.78 19.78 0 0 1 4.45-.33c-2.46.17 1.9.4-.86.63 6.27.64 9.35-.38 12.21.45 2.91-.62-5.43-.47-3.8-.58-1.35-.24 2.4-.46 4.37-.36s3.39.92 8.43 1h-1c1.88.21 3.71-.17 6 .16 1.32-.38 3 .08 3.4-.43h-4.64c2.63-.09 5.12-.64 9.43-.26a21.66 21.66 0 0 1-2.52.27c1.26.18 2.44-.05 3.74.13-.39.51-5.63 0-8.46.34 1.35.25 5.34-.27 3.9.27 2.06-.68 5 .19 8.41-.29l-.24.31c.54 0 1.67-.16 2.67-.13l-1.82.37c2.78-.29 5.33.41 8 .27-5.56-.1-1.24-.4-3.58-.67 6.87-.28 3.91.89 11.6.9-1 0-3.9-.27-2.27-.38a42.4 42.4 0 0 1 4.28.43c5.09 0-.77-.34 1.4-.48 1.72.41 2.51-.11 4.74-.18v.32c5.79.31 1.56-.63 6.78-.29l-2.22.4 2.73-.06-.57.35a42.32 42.32 0 0 1 6.79 0c-.67-.23.4-.57 3-.53 1.75.22-1 .28 2.65.3a6.92 6.92 0 0 1-3.31.1c-.17.1-.82.18-1 .28a56.61 56.61 0 0 0 6.06.15c-.51 0-1.11 0-1.43-.1l5.29-.35c.83.13.17.22-.49.3 1.07 0 1.82-.15 3.39-.16-.41.25-.32.52-2.55.61l5-.21c.33.12 2.58.34 1.92.43 2.79.19 6.86-.4 10.55-.15a7.68 7.68 0 0 1 1.37-.12 88.81 88.81 0 0 0 10.67.16l2.33.48c3.23-.07-3.15-.61 2.23-.73 3.81-.11 1.41.4 2.74.55a37 37 0 0 1 8.68-.25c-1.16.07-2.07 0-3.15 0" fill="#0e0e0e"/></g></svg>