<?xml version="1.0" encoding="UTF-8" standalone="no"?>
<!DOCTYPE svg PUBLIC "-//W3C//DTD SVG 20010904//EN" "http://www.w3.org/TR/2001/REC-SVG-20010904/DTD/svg10.dtd">
<svg version="1.0" xmlns="http://www.w3.org/2000/svg" width="700.000000pt" height="700.000000pt" viewBox="0 0 700.000000 700.000000" preserveAspectRatio="xMidYMid meet">
<metadata>
Created by potrace 1.11, written by Peter Selinger 2001-2013
</metadata>
<g transform="translate(0.000000,700.000000) scale(0.100000,-0.100000)" fill="#000000" stroke="none">
<path d="M5057 4945 c-1 -1 -42 -5 -92 -9 -49 -3 -103 -8 -120 -11 -219 -38 -387 -102 -541 -206 -65 -44 -253 -193 -315 -250 -14 -13 -59 -53 -100 -89 -104 -91 -167 -149 -292 -270 -59 -58 -112 -106 -116 -108 -11 -4 -92 76 -161 158 -126 152 -314 327 -452 424 -63 44 -226 146 -233 146 -3 0 -40 18 -84 39 -130 64 -324 126 -458 147 -103 16 -365 6 -478 -19 -11 -2 -37 -8 -59 -11 -71 -13 -250 -78 -336 -122 -237 -120 -459 -298 -586 -470 -168 -228 -237 -456 -237 -789 0 -241 37 -414 133 -615 28 -60 37 -74 116 -195 121 -184 332 -384 522 -496 412 -243 878 -287 1317 -124 111 41 179 76 275 143 60 42 319 239 330 251 3 4 52 44 110 91 58 47 114 92 125 102 77 64 205 168 208 168 1 0 54 -51 117 -113 142 -139 183 -175 290 -257 353 -271 721 -444 1035 -488 64 -9 270 -8 356 1 336 36 528 111 764 301 56 44 185 172 228 226 122 149 236 404 261 580 4 25 10 72 15 105 10 64 7 433 -3 500 -66 417 -202 709 -425 910 -65 58 -197 148 -281 190 -130 65 -307 124 -420 140 -25 3 -58 9 -75 12 -28 5 -332 12 -338 8z m-2945 -874 c170 -44 253 -105 555 -410 l243 -245 -23 -24 c-296 -323 -396 -409 -589 -511 -278 -148 -523 -154 -747 -17 -63 39 -167 130 -136 119 20 -7 20 -7 0 22 -81 124 -132 233 -150 326 -16 81 -14 224 4 309 40 183 123 291 281 368 78 38 203 76 275 85 68 8 215 -4 287 -22z m3218 -1 c175 -50 298 -147 368 -290 43 -89 66 -352 42 -496 -47 -293 -281 -495 -592 -511 -210 -11 -353 44 -538 207 -41 36 -124 106 -185 156 -134 109 -141 114 -168 138 -12 10 -52 43 -89 73 -81 66 -85 49 38 198 230 277 552 494 808 545 70 13 234 3 316 -20z"/>
</g>
</svg>