<svg id="Layer_1" data-name="Layer 1" xmlns="http://www.w3.org/2000/svg" viewBox="0 0 376.67 246.02"><defs><style>.cls-1{fill:#007e41;}.cls-1,.cls-3,.cls-5,.cls-6{fill-rule:evenodd;}.cls-2,.cls-5{fill:#231f20;}.cls-3,.cls-7{fill:#e61e26;}.cls-4,.cls-6{fill:#fff;}</style></defs><title>logo</title><polygon class="cls-1" points="0 224.38 15.89 224.38 16.1 186.36 16.38 186.36 25.65 224.38 41.19 224.38 50.74 186.36 50.88 186.36 51.15 224.38 67.88 224.38 67.88 175.95 40.35 175.95 34.08 202.46 33.94 202.46 27.59 175.95 0 175.95 0 224.38"/><path class="cls-1" d="M100.74,202.17v36.15h17.56V225.21c0-5.34,4.11-9.57,9-9.57a11.75,11.75,0,0,1,4,.55v-14.5a11,11,0,0,0-2.86-.35c-5.5,0-9,3.89-11.08,9h-0.14v-8.19H100.74Z" transform="translate(-28.69 -13.94)"/><path class="cls-1" d="M136.64,238.32h18.61l3-10.48H174l3.21,10.48h19.58l-17.35-48.43H153.71l-17.07,48.43h0Zm29.54-38h0.14l5.3,15.89h-10.8Z" transform="translate(-28.69 -13.94)"/><path class="cls-1" d="M196.41,238.32h18.67V224.37h13.38c9.75,0,17.91-5.2,17.91-17.83,0-13-10.24-16.65-17.84-16.65H196.41v48.43h0Zm18.19-37.19h4c4.53,0,9.06.63,9.06,5.76,0,5.42-4.53,6.25-9,6.25H214.6v-12Z" transform="translate(-28.69 -13.94)"/><path class="cls-1" d="M249.09,238.32h18.67V224.37h13.38c9.76,0,17.91-5.2,17.91-17.83,0-13-10.24-16.65-17.84-16.65H249.09v48.43h0Zm18.19-37.19h4c4.53,0,9.06.63,9.06,5.76,0,5.42-4.53,6.25-9,6.25h-4.11v-12Z" transform="translate(-28.69 -13.94)"/><polygon class="cls-1" points="273.09 224.38 314.69 224.38 314.69 210.09 291.77 210.09 291.77 175.95 273.09 175.95 273.09 224.38"/><polygon class="cls-1" points="316.86 224.38 359.5 224.38 359.5 212.73 335.11 212.73 335.11 206.13 357.97 206.13 357.97 194.48 335.11 194.48 335.11 187.61 359.02 187.61 359.02 175.95 316.86 175.95 316.86 224.38"/><rect class="cls-2" x="52.76" y="161.39" width="277.24" height="2.81"/><path class="cls-3" d="M225.46,66.42c-3.18,1.37-9.24,3.58-12.84,2.07-44.48-18.75-80.69,17.59-69.86,52.65C151.06,148,167,168.2,190.14,180.92c10.57,5.82,14.25,3.07,24-1.32,6.92-2.27,11.34-1.49,15.48.56,7.55,3.75,16.3,3.65,20.4.19,23.6-19.93,46.26-49.06,48.9-75.58,1.52-15.34-7.93-45.68-45.13-44.18C242.51,61,238.11,61,225.46,66.42Z" transform="translate(-28.69 -13.94)"/><path class="cls-4" d="M194.38,183.47q-3-11.82-4.95-23.29H163.35v-1.75h25.79A239.49,239.49,0,0,1,186.09,126H156.56a195.48,195.48,0,0,0,1.35,25l-1.74.2A197.45,197.45,0,0,1,154.81,126H144.05v-1.75h10.79a129.05,129.05,0,0,1,5.33-34.54H145.6V87.94h15.12A120.27,120.27,0,0,1,170.28,66l1.53,0.85a118.62,118.62,0,0,0-9.24,21h26.16a177.25,177.25,0,0,1,5.91-24.4l1.67,0.53a175.29,175.29,0,0,0-5.8,23.86h28.21V68.44h1.75v19.5h30.41a193.68,193.68,0,0,0-6.59-26.66l1.66-.54a195.48,195.48,0,0,1,6.7,27.19h26.6a86.22,86.22,0,0,0-11.56-25.61l1.45-1a88.19,88.19,0,0,1,11.93,26.59h16v1.75H281.51a141.13,141.13,0,0,1,4,34.54h7.92V126h-7.93q-0.06,8.17-.85,17l-1.74-.16q0.77-8.71.84-16.81H255.43a218,218,0,0,1-3.18,32.46h19v1.75H251.95q-2,11.13-5.17,22.42l-1.68-.47q3.09-11,5.07-21.94H220.46v18.16h-1.75V160.18H191.2q1.9,11.25,4.87,22.85Zm26.08-25h30a216.39,216.39,0,0,0,3.2-32.46H220.46v32.46Zm-29.55,0h27.8V126H187.84A237.93,237.93,0,0,0,190.91,158.44Zm64.55-34.21h28.28a138.87,138.87,0,0,0-4-34.54H252.94A199.33,199.33,0,0,1,255.46,124.23Zm-35,0h33.25a197.63,197.63,0,0,0-2.55-34.54h-30.7v34.54Zm-32.66,0h30.91V89.69H190.21A197.5,197.5,0,0,0,187.8,124.23Zm-31.21,0h29.46a199.28,199.28,0,0,1,2.39-34.54H162A127.18,127.18,0,0,0,156.6,124.23Z" transform="translate(-28.69 -13.94)"/><path class="cls-1" d="M203.58,15.26q4-2.19,9.64-.75,6.89,20.33,6.42,36.1c2.83-9.72,9.72-18.74,22.28-23.13C249.48,24.84,258.61,21.73,267,16q-7.95,49.65-47.4,44.18a26.18,26.18,0,0,1-.38,6L216,67.7Q216.1,36.74,203.58,15.26Z" transform="translate(-28.69 -13.94)"/><polygon class="cls-5" points="66.87 246.02 70.74 246.02 70.74 234.01 70.8 234.01 78.5 246.02 83.44 246.02 83.44 229.97 79.57 229.97 79.57 241.97 79.51 241.97 71.84 229.97 66.87 229.97 66.87 246.02"/><polygon class="cls-5" points="92.12 246.02 104.07 246.02 104.07 243.49 96.16 243.49 96.16 238.98 103.35 238.98 103.35 236.45 96.16 236.45 96.16 232.49 104.02 232.49 104.02 229.97 92.12 229.97 92.12 246.02"/><polygon class="cls-5" points="115.67 246.02 120.89 246.02 124.47 233.19 124.53 233.19 128.16 246.02 133.36 246.02 138.61 229.97 134.69 229.97 130.9 242.8 130.85 242.8 127.3 229.97 121.81 229.97 118.38 242.8 118.32 242.8 114.57 229.97 110.32 229.97 115.67 246.02"/><polygon class="cls-5" points="156.38 246.02 170.35 246.02 170.35 243.49 160.59 243.49 170.15 232.59 170.15 229.97 156.75 229.97 156.75 232.49 165.85 232.49 156.38 243.4 156.38 246.02"/><polygon class="cls-5" points="177.93 246.02 189.88 246.02 189.88 243.49 181.97 243.49 181.97 238.98 189.16 238.98 189.16 236.45 181.97 236.45 181.97 232.49 189.82 232.49 189.82 229.97 177.93 229.97 177.93 246.02"/><path class="cls-5" d="M237.78,253.75h-5.88l2.91-6.62h0.06l2.91,6.62h0Zm-13,6.21H229l1.76-3.68h8.17l1.73,3.68h4.47l-7.9-16h-4.56Z" transform="translate(-28.69 -13.94)"/><polygon class="cls-5" points="223.23 246.02 235.1 246.02 235.1 243.49 227.27 243.49 227.27 229.97 223.23 229.97 223.23 246.02"/><path class="cls-5" d="M281.47,253.75h-5.89l2.92-6.62h0.06l2.91,6.62h0Zm-13,6.21h4.19l1.76-3.68h8.17l1.73,3.68h4.47l-7.91-16h-4.56Z" transform="translate(-28.69 -13.94)"/><polygon class="cls-5" points="266.72 246.02 270.59 246.02 270.59 234.01 270.64 234.01 278.35 246.02 283.29 246.02 283.29 229.97 279.42 229.97 279.42 241.97 279.36 241.97 271.68 229.97 266.72 229.97 266.72 246.02"/><path class="cls-5" d="M320.65,260h5.52c6.17,0,11.63-1.66,11.63-8s-5.46-8-11.63-8h-5.52v16h0Zm4-13.52h2.26c3.37,0,6.64,2,6.64,5.5s-3.26,5.49-6.64,5.49h-2.26v-11Z" transform="translate(-28.69 -13.94)"/><polygon class="cls-5" points="316.7 241.34 321.7 241.34 321.7 240.28 318.4 240.28 318.4 234.59 316.7 234.59 316.7 241.34"/><polygon class="cls-5" points="324.38 241.34 326.08 241.34 326.08 235.65 328.52 235.65 328.52 234.59 321.95 234.59 321.95 235.65 324.38 235.65 324.38 241.34"/><path class="cls-5" d="M359.46,255.28h2.32c2.6,0,4.9-.69,4.9-3.38s-2.3-3.38-4.9-3.38h-2.32v6.76h0Zm1.7-5.7h1a2.36,2.36,0,1,1,0,4.63h-1v-4.63Z" transform="translate(-28.69 -13.94)"/><path class="cls-6" d="M263.41,101.9a6.14,6.14,0,0,1,.76,1.63c0.18,0.64.16,1.12,0.26,1.56a4.12,4.12,0,0,1,.07.57c0,0.18,0,.38,0,0.59a5.2,5.2,0,0,0,.13,1.08c0.12,0.4.27,0.75,1.3,0.44a0.7,0.7,0,0,1,.8.38l0.08,0.19c-0.15-.65-0.33-1.33-0.43-1.85a3.21,3.21,0,0,1-.08-0.8,0.77,0.77,0,0,1,1-.73,4.07,4.07,0,0,1,2.29,3.1c0.14,0.55.22,1.08,0.31,1.49a2.65,2.65,0,0,0,.12.41,0.23,0.23,0,0,1-.12-0.07l0.34,0.63-0.12,1.4a1.84,1.84,0,0,0,.15.2,0.61,0.61,0,0,1,.8,0,2.85,2.85,0,0,0,.35.2l0.64,0.32a6.1,6.1,0,0,1,.67.39,2.14,2.14,0,0,1,.36.32l2,0.61,0.45,0.75a0.23,0.23,0,0,1,0-.14,0.25,0.25,0,0,1-.09-0.13l0.15,0a1.82,1.82,0,0,0,.54,0c1.4-1.69,3-3.28,5.31-1.82h0.21a1.24,1.24,0,0,1,.46.11,0.78,0.78,0,0,1,.47.75,2.2,2.2,0,0,1-.11.49q-0.08.22-.2,0.53c-0.15.38-.34,0.85-0.51,1.32a8.39,8.39,0,0,0-.38,1.26,1.75,1.75,0,0,0,0,.37,4.76,4.76,0,0,1-.6,1.86s-0.21.23-.22,0.24c-0.18.11-.44,0.24-0.7,0.38a3,3,0,0,0-.6.4c-0.23.21-.33,0.37,0,0.78s0.17,1.05-.64,1.16l-0.47,0-2.56.13a2.79,2.79,0,0,0-1.13,1.13v0.71l0.18,0a0.61,0.61,0,0,1,.41.94c-0.82,1.49-2.37,5-4.13,7.66a11.14,11.14,0,0,1-2.91,3.23,2.53,2.53,0,0,1-3.39-.28,0.81,0.81,0,0,1-.74-0.15l-0.19-.17a1.12,1.12,0,0,1-.31.11l-0.34,0a1.8,1.8,0,0,1-.41,0,0.73,0.73,0,0,1-.65-0.67,2.7,2.7,0,0,1,.07-0.35l3-5.49a3.46,3.46,0,0,0-1.24-2.6,14.37,14.37,0,0,1-3.47-1.69,7.86,7.86,0,0,1-1.83-1.52,1.38,1.38,0,0,1,0-2.07l2.08-1.24,0.33-.09h0.74a4.29,4.29,0,0,0,.84-1.87c0.2-.89.29-1.83,0.49-2.69l0-.07c0.2-.55.37-0.9,0.47-1.2a1.35,1.35,0,0,0,.1-0.62,6.73,6.73,0,0,0-.29-1.29c-0.19-.66-0.48-1.56-0.88-2.84l0-.13,0-.23a1.09,1.09,0,0,1-.31-0.47,2.51,2.51,0,0,0-.34-0.6c-0.17-.24-0.35-0.48-0.52-0.72a2.5,2.5,0,0,1-.57-2,0.78,0.78,0,0,1-.6-0.4,2.94,2.94,0,0,1-.18-0.37,2.18,2.18,0,0,1-.17-0.8,8.55,8.55,0,0,0-1.27-1.87l-0.82-1a9.75,9.75,0,0,1-.73-1,1,1,0,0,1,0-.14,0.63,0.63,0,0,1-.29-0.26l-0.49-.83a0.82,0.82,0,0,1-.57-0.57,1.64,1.64,0,0,1,0-.85,5.2,5.2,0,0,1,.2-0.58L254,94c-0.1-.05-0.18-0.05-0.29-0.12a1.54,1.54,0,0,1-.4-0.36,0.83,0.83,0,0,1-.05-0.92,1.06,1.06,0,0,1,.56-0.45,1.9,1.9,0,0,1,.54-0.1,3.83,3.83,0,0,1,1,.08c2.47,0.52,3.79,1.37,1,1.53,0.12,0.34.19,0.62,0.29,0.87A1.13,1.13,0,0,0,257,95a16.3,16.3,0,0,0,2.85.69,2.61,2.61,0,0,1,.37.14l0.44,0.34c0.12,0,.29.08,0.42,0.14a1.29,1.29,0,0,1,.51.42,0.71,0.71,0,0,1,.65,0,2.85,2.85,0,0,1,1.2,2.1c0.06,0.34.11,0.71,0.18,1.05a3.6,3.6,0,0,0,.25.82,1.28,1.28,0,0,1,0,.58l-0.14.28A0.65,0.65,0,0,1,263.41,101.9Z" transform="translate(-28.69 -13.94)"/><path class="cls-7" d="M266.33,139.81a5.36,5.36,0,0,1-2.94-.89l-0.29-.09a4.78,4.78,0,0,1-1.06-.06,3.8,3.8,0,0,1-3.19-3.5h0a4.26,4.26,0,0,1,.42-2l2.24-4.17a21.91,21.91,0,0,1-3-1.58,10.49,10.49,0,0,1-2.57-2.19,5.1,5.1,0,0,1-1.09-2.53,4.22,4.22,0,0,1,1.64-3.88l0.33-.23,2.08-1.24h0a3.54,3.54,0,0,1,.54-0.25c0.06-.29.1-0.59,0.15-0.88,0.08-.54.17-1.07,0.29-1.58l0.13-.42c0.12-.33.23-0.6,0.33-0.84l-0.1-.37c-0.18-.63-0.46-1.51-0.86-2.76v0a4.59,4.59,0,0,1-.25-0.51l-0.05-.08-0.22-.3-0.28-.38a6.44,6.44,0,0,1-1-2.2,4,4,0,0,1-.28-0.43,5.83,5.83,0,0,1-.35-0.7,6.22,6.22,0,0,1-.32-1c-0.2-.3-0.53-0.7-0.68-0.88l-0.25-.31-0.61-.75a13.7,13.7,0,0,1-.8-1.13,3.63,3.63,0,0,1-.54-0.74l-0.06-.1a4,4,0,0,1-1.24-1.85,4.47,4.47,0,0,1-.15-1.85l-0.49-.78a4.44,4.44,0,0,1-1-1,3.9,3.9,0,0,1-.23-4.27,4.11,4.11,0,0,1,2.14-1.79,5,5,0,0,1,1.42-.29,6.85,6.85,0,0,1,1.82.14c1.34,0.29,4.76,1,5,3.74a4,4,0,0,1,1.16.59l0,0,0.31,0.13,0.17,0.09a3.65,3.65,0,0,1,1.26.48,5.85,5.85,0,0,1,2.61,4.17c0,0.18.07,0.38,0.1,0.58s0,0.29.07,0.44,0,0.09,0,.15a4.17,4.17,0,0,1,.23,2.33,4,4,0,0,1,1.55.26c2.12,0.79,3.53,2.55,4.19,5.24,0.11,0.42.19,0.84,0.26,1.22L273,108.9l0.14,0.34,0.33,0.61v0.05l0.11,0.06a8.81,8.81,0,0,1,1,.6l0.12,0.09,0.66,0.2c1.56-1.39,4-2.72,7-1.21a4.18,4.18,0,0,1,1.08.35,3.83,3.83,0,0,1,2.21,3.66,5.2,5.2,0,0,1-.26,1.31c-0.08.23-.16,0.45-0.26,0.7l-0.09.22c-0.12.31-.26,0.66-0.39,1s-0.21.6-.23,0.71a7.35,7.35,0,0,1-1,3.23h0a4.36,4.36,0,0,1-1,1.19,3.63,3.63,0,0,1-.3,1.1,3.9,3.9,0,0,1-3.19,2.23l-0.53,0-0.27,0a3.86,3.86,0,0,1-.45,1.37c-0.23.42-.52,1-0.86,1.69a61,61,0,0,1-3.39,6.17,13.53,13.53,0,0,1-3.83,4.14A6.08,6.08,0,0,1,266.33,139.81Zm-0.07-6.54,0.21,0.21a9.5,9.5,0,0,0,1.82-2.21,56.09,56.09,0,0,0,3-5.53l0-.08,0-2.7,0.29-.63a5.84,5.84,0,0,1,2.44-2.55l0.62-.34,1.59-.08a3.82,3.82,0,0,1,.94-1.26,5.63,5.63,0,0,1,1.12-.78,4.87,4.87,0,0,1,.07-0.65l-0.48.57-1,.24a4.89,4.89,0,0,1-1.5.13,3.76,3.76,0,0,1-.8-0.15L275,116l-0.24-.12-0.42.66-0.14.46-0.13,0-0.19.3a3.28,3.28,0,0,1-.67-0.57l-1.86-.57-0.44-.52-1,.82L268,114.11a5.21,5.21,0,0,1-.42-0.58l-0.53-.86,0.14-1.68a5.92,5.92,0,0,1-.21-0.75l-0.11-.56c-0.05-.27-0.11-0.57-0.18-0.87l0-.15-1.19.37c0.23,0.72.41,1.31,0.56,1.79a2.4,2.4,0,0,0,.83-0.1,6,6,0,0,1-.8.19l0.15,0.49a9.27,9.27,0,0,1,.41,2,4.43,4.43,0,0,1-.29,1.87c-0.06.15-.13,0.33-0.21,0.54s-0.13.32-.21,0.53-0.12.64-.17,1c-0.08.52-.17,1-0.28,1.55a7.34,7.34,0,0,1-1.49,3.18l-0.87,1a8.83,8.83,0,0,0,1.33.59l0.71,0.16,0.55,0.46c1.31,1.08,2.86,3.6,2.24,5.82l-0.09.32Zm7.48-5.95,0.08,0Zm-1.44-3.51h0Zm6-6.53h0Zm-9.08-2.7,0.15,0.11Zm-10.13-4.88v0Zm7.53-10.31,0,0Zm-10-8.88h0Z" transform="translate(-28.69 -13.94)"/><path class="cls-6" d="M259.92,136.23a6.24,6.24,0,0,0,.65,1.36,1,1,0,0,1,0,.87,2.21,2.21,0,0,1-.3.48c-0.1.13-.2,0.25-0.3,0.36l-0.13.16c-0.15.23-.59,1.06-1.06,1.81a9.92,9.92,0,0,1-.73,1.06,2.57,2.57,0,0,1-.4.4,0.83,0.83,0,0,1-.18.11c-0.39.73-.79,1.59-1.29,2.34a5.15,5.15,0,0,1-2.14,2l-0.39,1.09c1.73,2.1,1.39,2.82-.76,3.07a8,8,0,0,0-5.76,3,8.74,8.74,0,0,0-.21,3,1.88,1.88,0,0,1-.1.4,13,13,0,0,0-1.47,2.95c-0.27.82-.39,1.48-0.57,2.08-0.41,1.37-1.13,2.44-3.63,4a1.23,1.23,0,0,1-.35.43,2.34,2.34,0,0,1-.2.45,7.71,7.71,0,0,1-3.54,1.07,15.86,15.86,0,0,1-2.75-.69c-0.64-.23-1.21-0.48-2.29-0.84l-0.26-.17-0.79-.8a0.44,0.44,0,0,1-.06.11,1,1,0,0,1-.63.44h-0.16c-0.39,0-.94,0-1.48,0a3.44,3.44,0,0,1-1.72-.5,0.89,0.89,0,0,1-.37-0.72,1.85,1.85,0,0,1,.08-0.51c-0.81-.37-1.9-1.43-0.33-1.91l0.77-.31a2.88,2.88,0,0,1,0-.29c0-.05,0-0.12,0-0.21a1,1,0,0,1-.13-0.17,1,1,0,0,1-.1-0.67,2.08,2.08,0,0,1,.14-0.4c0-.07.06-0.13,0.09-0.2a0.69,0.69,0,0,1,.9-0.78,1.26,1.26,0,0,1,.36.09l0.07-.12c-0.06-.06-0.13-0.12-0.19-0.19a1.14,1.14,0,0,1-.32-0.75,0.84,0.84,0,0,1,.93-0.55,1.32,1.32,0,0,1,.65-0.55,2.62,2.62,0,0,1-.09-0.51,1,1,0,0,1,.25-0.75,0.81,0.81,0,0,1,.6-0.25,4.82,4.82,0,0,1,.29-0.47l0.35-.51a1.88,1.88,0,0,0,.19-0.32l0.07-.14,0.84-1.18,0.21-.14a5.36,5.36,0,0,1,1.28-1.64,2.93,2.93,0,0,1,1-.61,1.41,1.41,0,0,1,.86,0c0.23-.17.51-0.39,0.83-0.66l1.58-1.33c0.56-.47,1.12-0.91,1.61-1.25a4.79,4.79,0,0,1,1.13-.62l0.93-1.38a1.37,1.37,0,0,1,.48-0.28c1.07-.12,2.16-1.32,3.09-3.12A18.42,18.42,0,0,0,246.7,138a0.71,0.71,0,0,1,.69-0.54,1.47,1.47,0,0,0,1.19-.58,4.89,4.89,0,0,0,.54-0.72c0.15-.23.28-0.45,0.41-0.67l0.05-2.37a2.22,2.22,0,0,1,.15-0.4l1.85-2.2,1.08,0.12a0.28,0.28,0,0,1-.1-0.15l0.26,0.16,0.82,0.5a10.61,10.61,0,0,1,.89.6,3.58,3.58,0,0,1,.37.32,1.35,1.35,0,0,1,.31.45,2.12,2.12,0,0,1,0,1c0,0.25-.08.52-0.1,0.78,0,0.42,0,.45.27,0.5a1.37,1.37,0,0,0,1.14-.71c0.27-.29.54-0.61,0.82-0.89a3.55,3.55,0,0,1,1.09-.8c1.11-.49,1.67-0.22,1.09.72l0.07,0,0.08,0a0.8,0.8,0,0,1,1,.39,1,1,0,0,1-.14,1l-0.16.19a0.76,0.76,0,0,1,.27.61,0.91,0.91,0,0,1-.73.88h-0.05Z" transform="translate(-28.69 -13.94)"/><path class="cls-7" d="M237.12,171.8a3.32,3.32,0,0,1-.57,0,18.65,18.65,0,0,1-3.25-.82l-0.75-.28c-0.39-.15-0.84-0.32-1.47-0.54l-0.35-.14-0.25-.13-0.25,0h-0.59c-0.37,0-.78,0-1.19,0a6.48,6.48,0,0,1-3.29-1.06,3.89,3.89,0,0,1-1.51-2.14,3.94,3.94,0,0,1-1.2-3,3.68,3.68,0,0,1,1.39-2.61v0a5.43,5.43,0,0,1,.2-0.71,15.34,15.34,0,0,1,2.07-3.76,4,4,0,0,1,.42-0.32,4,4,0,0,1,.89-1.48,4.27,4.27,0,0,1,.78-0.63l0.15-.21a1.18,1.18,0,0,0-.08.17h0l0.26-.52,1-1.36a2.71,2.71,0,0,1,.31-0.38,8.92,8.92,0,0,1,1.66-1.94,5.88,5.88,0,0,1,2.2-1.24,4.37,4.37,0,0,1,.67-0.15l0.63-.53,0.86-.72c0.76-.63,1.33-1.08,1.83-1.42,0.23-.16.49-0.33,0.79-0.5l0.46-.68a4.07,4.07,0,0,1,2.35-1.57,5.88,5.88,0,0,0,1-1.53,15.32,15.32,0,0,0,1.36-3.94,3.76,3.76,0,0,1,2.81-3l0-1.44a4.26,4.26,0,0,1,.76-2.17l0.11-.14,2.9-3.46,2.72,0.3-0.19,1.73,1.4-1.42,0.4,0.25,0.68,0.41a12.64,12.64,0,0,1,1.13.77,6.25,6.25,0,0,1,.48.4l0.34-.16c2.74-1.21,4.27.07,4.8,0.68a3.27,3.27,0,0,1,.42.61,4,4,0,0,1,1.29,4.09,4,4,0,0,1,0,.4,4,4,0,0,1-.24,1.38,4,4,0,0,1-.13,3,5.17,5.17,0,0,1-.72,1.17c-0.08.1-.2,0.25-0.32,0.39l-0.11.19c-0.22.4-.53,0.94-0.85,1.45a12.54,12.54,0,0,1-1,1.38,6.24,6.24,0,0,1-.53.57,21.6,21.6,0,0,1-1.14,2,9.9,9.9,0,0,1-1.3,1.61,4.08,4.08,0,0,1,.11,3.21c-0.92,2.3-3.47,2.59-4.31,2.69a4.92,4.92,0,0,0-3.26,1.41,7.45,7.45,0,0,0,0,1.31,4.21,4.21,0,0,1-.58,2.33h0a9.88,9.88,0,0,0-1.14,2.26c-0.13.4-.22,0.77-0.3,1.1s-0.15.59-.23,0.87c-0.65,2.18-1.89,3.72-4.36,5.35a3.3,3.3,0,0,1-.6.83h0C241.61,171,238.74,171.8,237.12,171.8Zm-3.54-7.33,1.19,0.44,0.6,0.23a11.89,11.89,0,0,0,1.95.5,8.35,8.35,0,0,0,.92-0.24l0-.1,0.31-.25,0.19-.41,0.77-.48c2-1.25,2.16-1.76,2.31-2.26,0.05-.18.1-0.38,0.15-0.59,0.12-.47.25-1,0.44-1.58a15.6,15.6,0,0,1,1.38-3,10.86,10.86,0,0,1,.36-3.27l0.18-.62,0.41-.5a11,11,0,0,1,5.46-3.7l1.36-3.83,1.21-.54a2.22,2.22,0,0,0,.81-0.86c0.28-.42.55-1,0.81-1.47l0.33-.63,0.48-.91,0.53-.25c0.09-.12.22-0.31,0.38-0.58,0.28-.45.54-0.91,0.73-1.24l0.33-.57-0.13-.32a3.6,3.6,0,0,1-2.25.28,3.38,3.38,0,0,1-2.26-1.5v0.06l-0.4.69c-0.15.26-.31,0.53-0.48,0.79a7.83,7.83,0,0,1-.89,1.16,5,5,0,0,1-1.44,1.11,22,22,0,0,1-1.6,4.17c-1.22,2.35-2.65,3.85-4.26,4.47l-1,1.49-1,.33a1.93,1.93,0,0,1-.35.23c-0.45.31-1,.77-1.39,1.08l-0.81.69-0.77.65c-0.38.31-.7,0.57-1,0.77l-1.29,1-0.69-.23a2.33,2.33,0,0,0-.24.33l-0.37.86-0.48.29-0.36.5a5.41,5.41,0,0,1-.37.61l-0.32.47L233,158l-0.22.41,0.38,1.57-1.14.42-1,1.44Zm-5.08-.84h0Zm6-8-0.06.08Zm9.54-7.75-0.11.17Zm-2.5-5h0Zm5.62-2.38h0Zm10.62-3.45,2.53,1.74L257.91,137l-0.08.06v0Zm-8.08,1.41h0Zm10-3.35h0Zm-5.43-7.1-0.59,1.64,1.37-.89A2.85,2.85,0,0,0,254.35,128.06Zm1.11,1.4v0Z" transform="translate(-28.69 -13.94)"/><path class="cls-6" d="M267.54,104.69l-0.6,0-0.25-.25a0.73,0.73,0,0,0-.15-0.12,0.74,0.74,0,0,1-.34-0.76,4.64,4.64,0,0,1,.14-0.47,1.68,1.68,0,0,1,.35-0.6,0.67,0.67,0,0,1,.94,0l0.55,0.54a1.69,1.69,0,0,1,.2.47v0.33l0.18,0.36c0.21,0.56-.34,1.25-1.16.73l-0.07,0A0.66,0.66,0,0,1,267.54,104.69Z" transform="translate(-28.69 -13.94)"/><path class="cls-7" d="M268,108.18a4,4,0,0,1-1.63-.35l-0.64,0-0.58-.6-2.61-1.15,0.84-1.1a3.7,3.7,0,0,1-.11-2.23,7.55,7.55,0,0,1,.23-0.76,4.61,4.61,0,0,1,1-1.62,3.75,3.75,0,0,1,5.31-.16l0.67,0.65a4.33,4.33,0,0,1,1,2.17v0a3.75,3.75,0,0,1-1.14,4.26A3.68,3.68,0,0,1,268,108.18Zm0.6-2.36L269,107.4a2.45,2.45,0,0,0,.77-0.65Zm-1-.77v0.31l0.3-.07Zm0.61-.66,0.19,0.7a2.43,2.43,0,0,0,.59-0.47,1.48,1.48,0,0,0,.26-0.38,2.6,2.6,0,0,0,0-.39h-0.88l0.87-.43a2.3,2.3,0,0,0-.24-0.76l-0.09.09L268,103.94l0.11,0.39,0.4-.15Zm-0.83-.06,0.13,0.24,0.29-.67Zm1.92-.19h0Zm-1.28-.45,0,0.09,0.15-.27Zm-0.09-.34,0,0.18,0.18-.41Zm-1.48-.75,0.48,0.89-0.05-1.18a2.49,2.49,0,0,0-.41.27h0Zm1.12-.53,0.35,1.26,0.24-.23,0.44-1A2.34,2.34,0,0,0,267.52,102.05Z" transform="translate(-28.69 -13.94)"/><path class="cls-6" d="M230.83,171.51a3.33,3.33,0,0,1-.11-1.32,4,4,0,0,1,.36-1.33,1.37,1.37,0,0,1,1.21-.86A1.52,1.52,0,0,1,234,169.4c0,0.1,0,.21.05,0.31a1,1,0,0,0,.06.2,0.67,0.67,0,0,0,.36.29,0.61,0.61,0,0,1,0,1.21l-2.31.82A1,1,0,0,1,230.83,171.51Z" transform="translate(-28.69 -13.94)"/><path class="cls-7" d="M231.79,175.39a3.93,3.93,0,0,1-1.71-.39,4.29,4.29,0,0,1-2.17-2.5,6.38,6.38,0,0,1-.26-2.6,7.08,7.08,0,0,1,.66-2.41,4.37,4.37,0,0,1,4.06-2.57,4.54,4.54,0,0,1,4.51,3.22,3.65,3.65,0,0,1,1.18,2.79,3.77,3.77,0,0,1-2.58,3.39l-2.31.82A4.08,4.08,0,0,1,231.79,175.39Zm1.47-2.36h0Zm-1.33-2a1,1,0,0,0,.3.09,1.88,1.88,0,0,0,1.48-.65,1.93,1.93,0,0,0-1-1,2.2,2.2,0,0,0-.35-0.13,2.59,2.59,0,0,0-.48,1.41C231.92,170.82,231.92,170.9,231.93,171Zm-0.79-1.65h0Z" transform="translate(-28.69 -13.94)"/><path class="cls-6" d="M263.41,101.9a6.14,6.14,0,0,1,.76,1.63c0.18,0.64.16,1.12,0.26,1.56a4.12,4.12,0,0,1,.07.57c0,0.18,0,.38,0,0.59a5.2,5.2,0,0,0,.13,1.08c0.12,0.4.27,0.75,1.3,0.44a0.7,0.7,0,0,1,.8.38l0.08,0.19c-0.15-.65-0.33-1.33-0.43-1.85a3.21,3.21,0,0,1-.08-0.8,0.77,0.77,0,0,1,1-.73,4.07,4.07,0,0,1,2.29,3.1c0.14,0.55.22,1.08,0.31,1.49a2.65,2.65,0,0,0,.12.41,0.23,0.23,0,0,1-.12-0.07l0.34,0.63-0.12,1.4a1.84,1.84,0,0,0,.15.2,0.61,0.61,0,0,1,.8,0,2.85,2.85,0,0,0,.35.2l0.64,0.32a6.1,6.1,0,0,1,.67.39,2.14,2.14,0,0,1,.36.32l2,0.61,0.45,0.75a0.23,0.23,0,0,1,0-.14,0.25,0.25,0,0,1-.09-0.13l0.15,0a1.82,1.82,0,0,0,.54,0c1.4-1.69,3-3.28,5.31-1.82h0.21a1.24,1.24,0,0,1,.46.11,0.78,0.78,0,0,1,.47.75,2.2,2.2,0,0,1-.11.49q-0.08.22-.2,0.53c-0.15.38-.34,0.85-0.51,1.32a8.39,8.39,0,0,0-.38,1.26,1.75,1.75,0,0,0,0,.37,4.76,4.76,0,0,1-.6,1.86s-0.21.23-.22,0.24c-0.18.11-.44,0.24-0.7,0.38a3,3,0,0,0-.6.4c-0.23.21-.33,0.37,0,0.78s0.17,1.05-.64,1.16l-0.47,0-2.56.13a2.79,2.79,0,0,0-1.13,1.13v0.71l0.18,0a0.61,0.61,0,0,1,.41.94c-0.82,1.49-2.37,5-4.13,7.66a11.14,11.14,0,0,1-2.91,3.23,2.53,2.53,0,0,1-3.39-.28,0.81,0.81,0,0,1-.74-0.15l-0.19-.17a1.12,1.12,0,0,1-.31.11l-0.34,0a1.8,1.8,0,0,1-.41,0,0.73,0.73,0,0,1-.65-0.67,2.7,2.7,0,0,1,.07-0.35l3-5.49a3.46,3.46,0,0,0-1.24-2.6,14.37,14.37,0,0,1-3.47-1.69,7.86,7.86,0,0,1-1.83-1.52,1.38,1.38,0,0,1,0-2.07l2.08-1.24,0.33-.09h0.74a4.29,4.29,0,0,0,.84-1.87c0.2-.89.29-1.83,0.49-2.69l0-.07c0.2-.55.37-0.9,0.47-1.2a1.35,1.35,0,0,0,.1-0.62,6.73,6.73,0,0,0-.29-1.29c-0.19-.66-0.48-1.56-0.88-2.84l0-.13,0-.23a1.09,1.09,0,0,1-.31-0.47,2.51,2.51,0,0,0-.34-0.6c-0.17-.24-0.35-0.48-0.52-0.72a2.5,2.5,0,0,1-.57-2,0.78,0.78,0,0,1-.6-0.4,2.94,2.94,0,0,1-.18-0.37,2.18,2.18,0,0,1-.17-0.8,8.55,8.55,0,0,0-1.27-1.87l-0.82-1a9.75,9.75,0,0,1-.73-1,1,1,0,0,1,0-.14,0.63,0.63,0,0,1-.29-0.26l-0.49-.83a0.82,0.82,0,0,1-.57-0.57,1.64,1.64,0,0,1,0-.85,5.2,5.2,0,0,1,.2-0.58L254,94c-0.1-.05-0.18-0.05-0.29-0.12a1.54,1.54,0,0,1-.4-0.36,0.83,0.83,0,0,1-.05-0.92,1.06,1.06,0,0,1,.56-0.45,1.9,1.9,0,0,1,.54-0.1,3.83,3.83,0,0,1,1,.08c2.47,0.52,3.79,1.37,1,1.53,0.12,0.34.19,0.62,0.29,0.87A1.13,1.13,0,0,0,257,95a16.3,16.3,0,0,0,2.85.69,2.61,2.61,0,0,1,.37.14l0.44,0.34c0.12,0,.29.08,0.42,0.14a1.29,1.29,0,0,1,.51.42,0.71,0.71,0,0,1,.65,0,2.85,2.85,0,0,1,1.2,2.1c0.06,0.34.11,0.71,0.18,1.05a3.6,3.6,0,0,0,.25.82,1.28,1.28,0,0,1,0,.58l-0.14.28A0.65,0.65,0,0,1,263.41,101.9Z" transform="translate(-28.69 -13.94)"/><path class="cls-6" d="M259.92,136.23a6.24,6.24,0,0,0,.65,1.36,1,1,0,0,1,0,.87,2.21,2.21,0,0,1-.3.48c-0.1.13-.2,0.25-0.3,0.36l-0.13.16c-0.15.23-.59,1.06-1.06,1.81a9.92,9.92,0,0,1-.73,1.06,2.57,2.57,0,0,1-.4.4,0.83,0.83,0,0,1-.18.11c-0.39.73-.79,1.59-1.29,2.34a5.15,5.15,0,0,1-2.14,2l-0.39,1.09c1.73,2.1,1.39,2.82-.76,3.07a8,8,0,0,0-5.76,3,8.74,8.74,0,0,0-.21,3,1.88,1.88,0,0,1-.1.4,13,13,0,0,0-1.47,2.95c-0.27.82-.39,1.48-0.57,2.08-0.41,1.37-1.13,2.44-3.63,4a1.23,1.23,0,0,1-.35.43,2.34,2.34,0,0,1-.2.45,7.71,7.71,0,0,1-3.54,1.07,15.86,15.86,0,0,1-2.75-.69c-0.64-.23-1.21-0.48-2.29-0.84l-0.26-.17-0.79-.8a0.44,0.44,0,0,1-.06.11,1,1,0,0,1-.63.44h-0.16c-0.39,0-.94,0-1.48,0a3.44,3.44,0,0,1-1.72-.5,0.89,0.89,0,0,1-.37-0.72,1.85,1.85,0,0,1,.08-0.51c-0.81-.37-1.9-1.43-0.33-1.91l0.77-.31a2.88,2.88,0,0,1,0-.29c0-.05,0-0.12,0-0.21a1,1,0,0,1-.13-0.17,1,1,0,0,1-.1-0.67,2.08,2.08,0,0,1,.14-0.4c0-.07.06-0.13,0.09-0.2a0.69,0.69,0,0,1,.9-0.78,1.26,1.26,0,0,1,.36.09l0.07-.12c-0.06-.06-0.13-0.12-0.19-0.19a1.14,1.14,0,0,1-.32-0.75,0.84,0.84,0,0,1,.93-0.55,1.32,1.32,0,0,1,.65-0.55,2.62,2.62,0,0,1-.09-0.51,1,1,0,0,1,.25-0.75,0.81,0.81,0,0,1,.6-0.25,4.82,4.82,0,0,1,.29-0.47l0.35-.51a1.88,1.88,0,0,0,.19-0.32l0.07-.14,0.84-1.18,0.21-.14a5.36,5.36,0,0,1,1.28-1.64,2.93,2.93,0,0,1,1-.61,1.41,1.41,0,0,1,.86,0c0.23-.17.51-0.39,0.83-0.66l1.58-1.33c0.56-.47,1.12-0.91,1.61-1.25a4.79,4.79,0,0,1,1.13-.62l0.93-1.38a1.37,1.37,0,0,1,.48-0.28c1.07-.12,2.16-1.32,3.09-3.12A18.42,18.42,0,0,0,246.7,138a0.71,0.71,0,0,1,.69-0.54,1.47,1.47,0,0,0,1.19-.58,4.89,4.89,0,0,0,.54-0.72c0.15-.23.28-0.45,0.41-0.67l0.05-2.37a2.22,2.22,0,0,1,.15-0.4l1.85-2.2,1.08,0.12a0.28,0.28,0,0,1-.1-0.15l0.26,0.16,0.82,0.5a10.61,10.61,0,0,1,.89.6,3.58,3.58,0,0,1,.37.32,1.35,1.35,0,0,1,.31.45,2.12,2.12,0,0,1,0,1c0,0.25-.08.52-0.1,0.78,0,0.42,0,.45.27,0.5a1.37,1.37,0,0,0,1.14-.71c0.27-.29.54-0.61,0.82-0.89a3.55,3.55,0,0,1,1.09-.8c1.11-.49,1.67-0.22,1.09.72l0.07,0,0.08,0a0.8,0.8,0,0,1,1,.39,1,1,0,0,1-.14,1l-0.16.19a0.76,0.76,0,0,1,.27.61,0.91,0.91,0,0,1-.73.88h-0.05Z" transform="translate(-28.69 -13.94)"/><path class="cls-6" d="M267.54,104.69l-0.6,0-0.25-.25a0.73,0.73,0,0,0-.15-0.12,0.74,0.74,0,0,1-.34-0.76,4.64,4.64,0,0,1,.14-0.47,1.68,1.68,0,0,1,.35-0.6,0.67,0.67,0,0,1,.94,0l0.55,0.54a1.69,1.69,0,0,1,.2.47v0.33l0.18,0.36c0.21,0.56-.34,1.25-1.16.73l-0.07,0A0.66,0.66,0,0,1,267.54,104.69Z" transform="translate(-28.69 -13.94)"/><path class="cls-6" d="M230.83,171.51a3.33,3.33,0,0,1-.11-1.32,4,4,0,0,1,.36-1.33,1.37,1.37,0,0,1,1.21-.86A1.52,1.52,0,0,1,234,169.4c0,0.1,0,.21.05,0.31a1,1,0,0,0,.06.2,0.67,0.67,0,0,0,.36.29,0.61,0.61,0,0,1,0,1.21l-2.31.82A1,1,0,0,1,230.83,171.51Z" transform="translate(-28.69 -13.94)"/><path class="cls-5" d="M391.51,187.26v-5.6h-2.58v-1.14h6.91v1.14h-2.57v5.6h-1.76Zm5.45,0v-6.74h2.64l1.56,4.6,1.54-4.6h2.65v6.74h-1.63V182L402,187.26h-1.7L398.6,182v5.31H397Z" transform="translate(-28.69 -13.94)"/></svg>