<svg xmlns="http://www.w3.org/2000/svg" xmlns:xlink="http://www.w3.org/1999/xlink" viewBox="0 0 165 94">
  <defs>
    <rect id="a" width="183" height="105" rx="8"/>
  </defs>
  <g fill="none" fill-rule="evenodd" transform="translate(-18 -11)">
    <mask id="b" fill="#fff">
      <use xlink:href="#a"/>
    </mask>
    <path fill="#512D8C" fill-rule="nonzero" d="M56.07 63.78l1.95 3.88a.75.75 0 0 1-.67 1.09h-3.9a.75.75 0 0 1-.67-1.09l1.95-3.88a.75.75 0 0 1 1.34 0zm-.44.22a.25.25 0 0 0-.45 0l-1.95 3.89a.25.25 0 0 0 .22.36h3.9a.25.25 0 0 0 .22-.36L55.62 64zm28.46-8.34a.75.75 0 0 1-.67 1.09h-3.9a.75.75 0 0 1-.66-1.09l1.94-3.88a.75.75 0 0 1 1.34 0l1.95 3.88zm-2.5-3.77a.25.25 0 0 0-.34.11L79.3 55.9a.25.25 0 0 0 .23.36h3.89a.25.25 0 0 0 .22-.36L81.7 52a.25.25 0 0 0-.11-.1z" mask="url(#b)"/>
    <path fill="#F0E6FF" fill-rule="nonzero" d="M99.77 89.36c5.34-18.87 20.03-25.52 44.07-19.96 36.05 8.34 25.18 17.1 37.77 25.04 12.59 7.93 10.87 20.45-4 29.21-14.89 8.76-21.18 11.27-41.21 7.93s-28.04-5-31.48-14.2c-2.29-6.11-4-15.45-5.15-28.02z" mask="url(#b)" opacity=".48" transform="matrix(-1 0 0 1 289.8 0)"/>
    <path fill="#512D8C" d="M88.62 55.39c-3.24-.4-6.38.66-9.54 1.2-3.48.59-6.91.09-9.91-1.84a12.87 12.87 0 0 1-3.85-17.6c1.56-2.46 3.8-4.57 4.3-7.54a8.7 8.7 0 0 0-1.68-6.66c-3.49-4.57-9.77-4.28-14.12-1.2-2.7 1.94-4.97 4.48-8.07 5.84a15.73 15.73 0 0 1-10.62.63c-7.03-2.06-11.27-9.19-10.5-16.28.14-1.26-1.83-1.25-1.97 0-1.25 11.47 9.23 20.83 20.56 18.5 2.78-.58 5.21-1.87 7.42-3.6 2.37-1.86 4.58-4.26 7.54-5.15 3.34-1 7.17.3 8.82 3.43 1.84 3.48-.06 6.48-2.13 9.28-3.48 4.68-4.67 10.55-2.12 15.99 2.3 4.9 7.49 8.2 12.9 8.42 3.51.14 6.83-1.2 10.28-1.5 3.81-.32 7.03 1.34 9.76 3.87a22.42 22.42 0 0 1 7.13 17c-.23 6.72.35 9.26 1.47 4a23.9 23.9 0 0 0-2.34-16.03c-2.6-4.95-7.48-10.05-13.33-10.76z" mask="url(#b)" opacity=".1"/>
    <path fill="#512D8C" d="M87.6 63.94c-2.97-.07-5.82.98-8.67 1.65a27.12 27.12 0 0 1-9.25.57C64 65.53 57.44 63 54.45 57.81c-3.15-5.45.35-11.2 1.22-16.75.58-3.65-.13-9.54-5.22-7.45-6.43 2.64-13.23 5.09-20.15 2.5-5.85-2.18-10.44-8.57-8.7-14.89.2-.72-.93-1.03-1.13-.3-1.2 4.3.27 8.68 3.18 11.97 3.38 3.82 8.29 5.54 13.32 5.49a28.6 28.6 0 0 0 8.47-1.48c1.24-.4 2.46-.87 3.65-1.4.71-.3 1.51-.84 2.27-1 .73-.15 2.17.16 2.71.8.26.32.36 1 .45 1.4 1.21 5.5-2.65 10.8-2.58 16.28.15 10.9 14.2 15.2 23.13 14.42 5.63-.5 12.81-4.72 17.76-.29 3.95 3.55 4.03 9.8 1.7 14.2-3.14 5.9-2.32 5.99.4 1.63 2.34-3.74 3.08-8.27 1.5-12.45-1.46-3.8-4.66-6.44-8.83-6.55z" mask="url(#b)" opacity=".1"/>
    <path fill="#512D8C" d="M82.61 69.84c-3.52-.05-4.61.36-6.91.48a63.33 63.33 0 0 1-9.13-.2c-5.5-.5-11.94-1.54-15.58-6.15a9.18 9.18 0 0 1-1.82-7.86c.46-2.27 1.42-4.48 1.36-6.84-.1-3.63-2.38-6.51-6.22-6.13-2.37.24-4.64.79-7.05.76a25.32 25.32 0 0 1-7.04-1.05c-4.7-1.42-8.74-4.38-10.74-8.94-.4-.92-1.76-.12-1.36.79 3.16 7.21 11.1 10.53 18.62 10.76 1.81.06 3.63-.08 5.42-.37 1.48-.24 3.19-.83 4.64-.11 1.28.63 1.85 2.05 2.06 3.38.4 2.53-.7 4.91-1.2 7.33a10.7 10.7 0 0 0 .42 6.43c3.86 9.37 17.13 10.02 25.72 9.83 2.57-.05 5.1-.6 7.67-.7 2.44-.1 4.77 0 5.02-.5s-.35-.86-3.88-.9z" mask="url(#b)" opacity=".1"/>
  </g>
</svg>
