<svg xmlns="http://www.w3.org/2000/svg" width="137" height="199" viewBox="0 0 137 199">
    <g fill="#029F48" fill-rule="evenodd">
        <path d="M113.967 95.528l.092-.098.335-.015-.047.064c-.007.01-.018.02-.025.028-.118.008-.231.014-.355.021zm.892-.966c.095.02-.088.352-.439.816l-.339.028.778-.844zm16.066-4.523c-.07-.048-.145-.096-.219-.144.078-.701.203-1.483.417-2.426-.02.63.182.184.33.258-.264.477-.365 1.357-.528 2.312zm-4.863 1.596l-.032.303c-.045.276-.082.294-.076.148-.079.598-.163 1.2-.22 1.804l-.009-.018c.01.12.015.304.022.497-.056.016-.108.037-.166.048l-.034-.082a.542.542 0 0 0 .06-.015c-.018 0-.043.005-.065.005-.388-.89-.69-1.621-.963-2.316l.531-.567c.046-.023.167-.111.294-.203.226.139.437.265.658.396zm-.449 2.94l-.022-.057.16-.025v.047l-.138.035zm-4.192.14l.042.104c-.03.032-.066.066-.102.101-.127.025-.252.044-.382.077.017-.015.023-.025.039-.04.436-.335.07.069.403-.242zm15.533.687c.134-.5-.018-1.252-.612-1.668l-.768-.556.115-.41c-.132-.02-.356.05-.523.074l-.048.008a81.828 81.828 0 0 1-2.025-1.48c-.246-.128-.602-.33-.711-.361-.449-.305-.904-.6-1.353-.902.085-.615.174-1.23.29-1.841.116.082.21-.443.42-.999-.378.362.296-1.674.524-2.573.098-.027.113.21-.246 1.277.305-.634.338-1.048.4-1.496.03-.029.055-.057.087-.087l.48-.37-.329-.318.055-.212.047-.211c-.054.211-.099.324-.11.414l-.046-.042c.045-.135.1-.28.169-.437.009-.042.02-.075.026-.116a2.325 2.325 0 0 0-.044-.818c-.115-.489-.318-.793-.167-.632a2.357 2.357 0 0 0-1.238-1.081 1.756 1.756 0 0 0-1.201-.019c-.292.096-.568.299-.761.478-.055-.04-.117-.085-.17-.126.059.046.11.086.17.126-.058.053-.11.105-.15.15l-.04.039-.131-.083-.244-.16c-.047.07-.068.21-.103.313-.059.196-.118.4-.178.603-.175.184-.328.354-.459.5l.06-.199c.137-.466.124-.49-.245.352.005.01 0 .044.003.065-.135.163-.221.285-.228.342-.033-.007-.009-.358.041-.467l-1.287 1.934c-.25.24-.5.477-.751.714-.236-.055-.554-.081.163-.868-.335.283-.752.635-1.375 1.322.236-.187.73-.318.445-.023-.202.132-.34.225-.454.303-.258-.159-.519-.31-.776-.468l-.134-.1c-.042-.021-.068-.028-.105-.045-.331-.201-.666-.4-1-.6a1.498 1.498 0 0 0-.218-.16c-.12-.054-.24-.142-.36-.195l.002.007c-.171-.102-.342-.208-.513-.308l-.14-.37c-.034-.086-.065-.19-.102-.26l-.211.154-.154.111c-.136-.081-.27-.164-.404-.243-1.448-.85-3.371.34-2.69 2.085.038.09.074.178.109.27a.451.451 0 0 0-.038.027c.014-.008.028-.017.038-.026l.065.16c-.131.088-.262.173-.372.242-.067.04-.128.078-.19.113l.07.073c.032.04.041.067.024.075l-.093-.056c.163.216.603.434.997.645.444 1.12.887 2.24 1.343 3.353-.65.76-.711 1.187-1.826 2.235.131-.21.171-.676-.583-.01-.122.227-.4.769-.808 1.413-.474.454-.948.905-1.422 1.357-.022 0-.041.003-.063.004.032-.048.063-.091.097-.14.5-.71 1.041-1.457 1.444-1.965-.588.468-.223.07-1.026.848-.34.215.358-.507.592-.737l-1.92 1.757c.058.014-.026.141-.163.311l-.206.019c-.037.003-.087.003-.112.016l.03-.003.104-.005.168-.008-.082.099-.089.006c.005.018.017.045.024.07l-.074.084-.012-.028c-.022-.053-.044-.11-.07-.17l-.013-.033c-.004.014-.002.031.02.059l.075.174c-.055.058-.106.119-.161.18-.144.164-.4.448-.486.65-.115.2-.13.352-.089.336.105-.272.275-.514.466-.733l.31-.337a4.02 4.02 0 0 1 0-.002l.07-.076.11.297-.298.343a2.421 2.421 0 0 0-.591 1.308c-.047.25-.125.164-.187-.013-.064-.173-.079-.433-.107-.417-.02.151-.104.719.073 1.233.149.528.53.923.595 1.009a2.237 2.237 0 0 1-.628-.793c.21.646.717 1.05 1.257 1.228.555.192 1.167.087 1.745.115.046-.002.097-.001.148-.001l-.004.026a.922.922 0 0 0 .031-.026c.453.007 1.125.097 1.182 0-.378-.07-.604-.271-.67-.474.036-.036.072-.069.107-.102.444-.04.887-.086 1.332-.129l-.067.092.28-.031-.02-.078c.487-.049.976-.09 1.464-.141.208.128-1.087.447-.546.511.02-.05.402-.149.56-.186.45-.006-.168.168.799.043.142-.193 1.972-.205.441-.199.942-.155 1.011-.078 2.12-.217-.155-.03.003-.128.298-.241.72 1.639 1.452 3.272 2.197 4.902-.033.268-.091.401-.139.54.112 1.581.11-1.107.304.757.01.294.029.7.19 1.081.132.385.433.7.763.938.702.43 1.6.48 2.467.023 1.02-.576-.118.21.26.02.294-.218.515-.528.675-.844.118-.234.116-.141.116-.092.182-.43.092-.466.083-.553-.023-.078.003-.257-.063-.84-.211-.275.063-2.19-.162-3.489.035-.325.106.152.166.052l-.281-3.02c.014-.136.035-.27.054-.406l.022-.002c.172.017 1.049-.07.69.065.254-.073.483-.172 1.036-.265 1.098-.024-1.233.224-.385.273.054-.112 1.412-.373 2.188-.575-.269-.111-1.826.279-2.607.467-.014-.077.154-.185.457-.31 1.397-.226 2.797-.459 4.192-.713a1.84 1.84 0 0 0 1.081-.66 1.7 1.7 0 0 0 .431-.82zM81.916 15.08l.091-.099.334-.015c-.018.022-.029.04-.047.064l-.026.028c-.117.008-.23.014-.352.021zm.892-.967c.092.02-.089.352-.44.816l-.34.028.78-.844zM98.874 9.59l-.22-.145c.078-.7.202-1.484.416-2.425-.018.63.184.184.33.258-.263.477-.364 1.357-.526 2.312zm-4.866 1.596l-.03.303c-.045.276-.084.294-.077.148-.078.598-.162 1.2-.22 1.804l-.008-.018c.01.12.016.304.02.497-.054.016-.107.037-.163.048-.014-.027-.022-.052-.036-.081.02-.005.043-.009.062-.016-.019 0-.045.005-.066.005a69.46 69.46 0 0 1-.965-2.317l.532-.566c.046-.023.167-.111.294-.203.226.139.438.265.657.396zm-.447 2.94c-.007-.02-.015-.036-.022-.057l.16-.025v.047l-.138.035zm-4.191.14l.04.104c-.03.032-.066.066-.101.101-.127.025-.251.044-.382.077l.04-.042c.435-.333.068.07.403-.24zm15.533.685c.134-.499-.02-1.25-.615-1.666-.247-.182-.507-.369-.768-.556l.116-.41c-.131-.02-.356.05-.523.072a.345.345 0 0 1-.048.01c-.74-.53-1.468-1.051-2.026-1.48-.244-.128-.6-.33-.71-.361-.447-.305-.904-.6-1.354-.902.087-.615.176-1.23.29-1.841.118.083.211-.443.421-.999-.378.362.295-1.674.525-2.573.098-.027.114.21-.248 1.277.307-.635.34-1.05.402-1.496.03-.029.055-.057.087-.086l.477-.372-.327-.317c.018-.067.037-.135.054-.211.016-.067.031-.142.05-.214-.056.214-.101.326-.113.416l-.046-.044c.046-.133.1-.278.171-.435.008-.042.02-.075.026-.116a2.3 2.3 0 0 0-.044-.818c-.115-.491-.32-.794-.166-.632A2.366 2.366 0 0 0 99.296.116a1.762 1.762 0 0 0-1.204-.019c-.29.096-.566.299-.759.477a4.792 4.792 0 0 1-.001.001c-.058.053-.11.105-.15.15l-.04.039c-.046-.028-.085-.054-.13-.083l-.246-.16c-.044.07-.066.21-.102.312l-.177.605c-.174.183-.329.353-.46.498l.061-.198c.137-.466.123-.49-.245.35.006.011 0 .046.001.064-.132.166-.219.288-.228.345-.032-.007-.006-.358.042-.466l-1.286 1.933c-.25.24-.5.477-.75.714-.237-.055-.555-.081.162-.868-.337.283-.752.635-1.375 1.322.234-.187.73-.318.444-.023-.2.132-.339.225-.453.303-.257-.158-.518-.31-.777-.468l-.132-.1c-.044-.021-.07-.03-.108-.045-.33-.201-.665-.4-.998-.6a1.43 1.43 0 0 0-.219-.16c-.119-.054-.238-.142-.359-.195v.007c-.171-.102-.34-.208-.512-.308a15.37 15.37 0 0 0-.14-.369c-.034-.087-.065-.19-.102-.261l-.21.154-.153.111c-.136-.081-.27-.164-.405-.243-1.449-.85-3.372.34-2.69 2.084.037.09.074.18.108.27l-.037.028.038-.026c.021.053.044.107.063.16-.131.088-.26.173-.37.242l-.189.113.068.073c.034.04.042.067.024.075-.029-.016-.062-.038-.093-.056.164.216.605.434.998.645.443 1.12.887 2.24 1.34 3.353-.647.76-.709 1.187-1.824 2.235.132-.211.171-.676-.582-.008-.123.225-.4.767-.807 1.412l-1.424 1.356-.063.004.097-.14a48.066 48.066 0 0 1 1.443-1.965c-.587.468-.221.07-1.024.848-.342.215.356-.507.592-.736l-1.92 1.756c.057.014-.026.141-.163.311l-.205.019c-.039.003-.088.002-.114.016l.032-.003.103-.005.168-.008c-.027.03-.053.064-.083.099l-.087.004c.003.02.016.048.024.072l-.074.084c-.005-.01-.009-.016-.013-.028-.023-.053-.045-.11-.069-.17l-.013-.033c-.006.014-.005.03.017.059l.076.174c-.053.058-.107.12-.16.18-.144.164-.4.447-.486.65-.115.2-.13.353-.088.336.104-.272.273-.514.464-.733l.31-.337.073.167a6.84 6.84 0 0 0-.071-.17l.07-.075.109.297-.299.343c-.31.345-.531.809-.591 1.308-.048.25-.124.164-.188-.013-.063-.174-.078-.433-.106-.417-.021.151-.103.719.073 1.233.15.528.53.923.594 1.009a2.287 2.287 0 0 1-.627-.793c.21.646.716 1.05 1.257 1.228.555.192 1.169.087 1.746.115.044-.002.096-.001.148-.001l-.004.026a.34.34 0 0 1 .03-.026c.453.007 1.125.097 1.182 0-.378-.07-.603-.271-.671-.474l.108-.102c.446-.042.889-.086 1.332-.129l-.066.092.28-.03-.022-.08c.489-.048.979-.088 1.466-.14.209.128-1.088.447-.547.511.022-.05.402-.149.561-.186.451-.006-.17.168.798.043.143-.193 1.972-.205.441-.199.943-.155 1.013-.078 2.121-.217-.155-.03.003-.127.298-.241.72 1.639 1.452 3.273 2.196 4.902-.032.268-.09.401-.14.54.113 1.581.11-1.107.307.757.009.293.028.7.188 1.081.132.382.432.7.764.938.702.43 1.6.48 2.466.023 1.022-.576-.118.21.261.02.294-.218.514-.528.674-.844.118-.234.116-.141.116-.092.182-.43.093-.468.083-.553-.024-.078.004-.257-.064-.843-.209-.272.064-2.186-.162-3.486.035-.325.107.152.169.052l-.282-3.02c.013-.136.035-.27.053-.406a.167.167 0 0 0 .022-.002c.173.017 1.05-.07.69.065.254-.073.483-.172 1.037-.265 1.097-.024-1.233.224-.386.273.053-.112 1.412-.373 2.187-.575-.266-.111-1.825.279-2.606.467-.013-.077.156-.185.458-.31 1.398-.226 2.797-.459 4.192-.713.45-.084.813-.338 1.08-.66.155-.156.343-.428.433-.822zM33.283 78.998l.092-.098.334-.016c-.018.022-.029.04-.046.064-.007.01-.018.019-.025.029l-.355.02zm.892-.967c.095.021-.088.353-.438.817a68.76 68.76 0 0 0-.34.027l.778-.844zm16.066-4.523a8.344 8.344 0 0 0-.218-.144c.077-.7.202-1.482.416-2.426-.02.63.183.184.33.258-.263.478-.365 1.357-.528 2.312zm-4.864 1.596l-.032.303c-.044.277-.082.294-.075.148-.08.598-.162 1.201-.22 1.804l-.009-.018c.01.12.016.304.022.497-.056.017-.108.038-.165.049-.014-.028-.023-.053-.035-.083a.542.542 0 0 0 .061-.014c-.019 0-.044.004-.066.004-.39-.89-.69-1.62-.963-2.316l.532-.567c.045-.023.167-.111.294-.202.225.138.436.264.656.395zm-.447 2.94c-.01-.02-.015-.036-.024-.057l.16-.024.002.046-.138.035zm-4.194.14c.016.036.029.069.043.104-.03.032-.066.066-.101.101-.127.026-.253.044-.383.077.017-.015.023-.025.039-.041.436-.333.07.07.402-.24zm15.535.687c.133-.5-.02-1.252-.613-1.667-.25-.182-.508-.37-.768-.557.038-.138.079-.277.115-.409-.131-.02-.357.05-.523.073l-.048.009c-.742-.531-1.467-1.05-2.025-1.48-.245-.128-.6-.33-.71-.362-.45-.305-.905-.6-1.354-.901.085-.615.174-1.23.29-1.842.116.083.209-.443.42-.998-.378.361.296-1.674.524-2.575.098-.026.114.21-.246 1.279.306-.636.339-1.048.4-1.497.03-.028.055-.057.086-.086l.48-.371-.328-.318.055-.211c.015-.066.031-.141.05-.214-.057.214-.101.326-.114.417l-.045-.044c.045-.134.1-.278.17-.436.008-.042.019-.075.026-.115a2.325 2.325 0 0 0-.045-.818c-.114-.492-.318-.794-.166-.633a2.357 2.357 0 0 0-1.238-1.08 1.76 1.76 0 0 0-1.203-.02c-.29.096-.567.3-.76.478a3.949 3.949 0 0 1-.17-.126c.06.044.111.086.17.127-.058.053-.11.104-.15.148l-.04.04c-.045-.027-.084-.054-.132-.082l-.245-.16c-.044.07-.065.21-.1.312-.06.197-.12.4-.18.605-.173.183-.327.352-.457.498l.06-.199c.136-.466.122-.49-.246.352.005.01 0 .044.003.065-.135.163-.22.285-.228.343-.033-.008-.008-.358.041-.466l-1.287 1.932c-.25.24-.5.478-.75.715-.237-.055-.554-.082.162-.869-.335.283-.752.635-1.375 1.323.236-.188.73-.319.445-.022-.202.13-.34.223-.454.302-.258-.16-.518-.311-.776-.469l-.135-.099c-.04-.022-.067-.029-.104-.044-.331-.203-.666-.402-1-.602a1.388 1.388 0 0 0-.218-.16c-.12-.054-.24-.142-.36-.195v.007c-.17-.101-.34-.207-.51-.307l-.141-.37c-.034-.087-.065-.19-.102-.26l-.21.153c-.054.039-.104.074-.154.112-.136-.082-.27-.164-.406-.244-1.447-.85-3.37.34-2.688 2.085.035.09.073.179.108.27-.013.01-.022.015-.037.028l.037-.027c.022.053.044.107.063.16a7.73 7.73 0 0 1-.372.243c-.064.038-.126.077-.187.112l.067.074c.035.04.044.066.026.075a10.6 10.6 0 0 1-.093-.056c.162.216.603.434.997.644.444 1.12.886 2.24 1.343 3.354-.649.76-.71 1.187-1.826 2.235.131-.212.17-.677-.583-.01-.123.227-.4.768-.807 1.414l-1.423 1.355-.063.005c.032-.049.063-.092.096-.141.5-.71 1.042-1.456 1.443-1.964-.587.467-.22.07-1.024.847-.34.215.358-.507.593-.737l-1.92 1.758c.057.013-.027.14-.165.31l-.204.02c-.038.003-.088.001-.113.016l.03-.004.105-.005.168-.008-.084.1-.088.004c.005.02.017.046.025.071-.022.027-.051.058-.074.084l-.013-.027-.07-.171-.012-.032c-.006.013-.004.03.02.058l.075.174c-.056.06-.108.12-.162.181-.145.163-.4.446-.486.65-.115.2-.13.352-.089.335.105-.272.276-.513.466-.733l.31-.337c.025.055.047.108.072.168l-.072-.17.071-.076.11.298-.299.342a2.421 2.421 0 0 0-.591 1.308c-.047.25-.125.165-.187-.013-.064-.173-.078-.433-.107-.416-.02.15-.105.716.073 1.233.149.528.53.922.594 1.008a2.262 2.262 0 0 1-.627-.792c.21.646.717 1.049 1.257 1.227.555.192 1.166.088 1.746.115.044-.002.095-.002.148-.001l-.005.026.031-.026c.452.008 1.125.097 1.182.001-.378-.07-.604-.272-.671-.475l.108-.101c.444-.042.888-.086 1.332-.13l-.066.092.28-.03-.022-.079c.488-.048.977-.09 1.464-.14.21.127-1.087.447-.545.51.02-.05.402-.148.56-.186.451-.005-.168.169.798.043.143-.193 1.973-.205.442-.198.942-.156 1.012-.078 2.12-.217-.155-.031.002-.128.299-.242a345.79 345.79 0 0 0 2.196 4.902c-.032.268-.09.401-.138.54.111 1.582.109-1.106.304.757.01.295.027.7.189 1.081.132.385.433.7.763.938.702.43 1.6.48 2.467.023 1.02-.576-.118.21.26.02.294-.218.514-.528.675-.844.119-.234.116-.14.116-.091.18-.431.092-.467.083-.554-.023-.078.002-.256-.063-.843-.21-.272.063-2.186-.162-3.485.035-.326.106.152.167.051l-.283-3.02c.015-.136.036-.27.055-.406.008 0 .014 0 .022-.002.171.018 1.049-.07.69.065.254-.073.483-.172 1.036-.265 1.098-.024-1.233.224-.385.274.054-.113 1.411-.374 2.188-.575-.27-.112-1.826.278-2.607.467-.016-.077.155-.185.456-.31 1.398-.227 2.798-.46 4.194-.714a1.85 1.85 0 0 0 1.08-.66 1.7 1.7 0 0 0 .432-.82zM42.885 174.817l.104.02c.015-.118.06-.216.102-.316-.015-.003-.02-.01-.01-.02 0-.003.01-.007.018-.01.016-.032.018-.074.035-.104-.004-.007-.004-.012-.006-.02l-.113.028a1.207 1.207 0 0 0-.13.422zm-.238-.334c.09-.034.193-.062.303-.091.029-.068.06-.134.095-.194-.344.12-.436.238-.398.285zm.576-.108c.005.01.032.04.054.068.038-.007.08-.015.129-.022l.005-.005a.247.247 0 0 1-.07-.065l.074.056a.013.013 0 0 0 .003-.006.242.242 0 0 1-.074-.071l.079-.015.043.03c.01-.014.018-.03.032-.044-.029.005-.047.01-.075.014l-.014-.012c.036-.007.063-.014.101-.019.003-.001.003-.004.004-.004l-.178-.134c.002-.003.005-.006.007-.006l.177.132c.002 0 .002-.002.002-.002l-.115-.17.01-.004.113.167c.003-.004.004-.009.01-.014l-.108-.155.001-.003.106.157c.006-.006.01-.017.02-.024-.009.004-.008-.008-.01-.012-.003 0-.005-.003-.005-.005-.005-.01-.014-.02-.016-.046a.659.659 0 0 0-.028-.087c-.026.005-.039.011-.067.017l-.02-.029h-.002l.021.032c-.005 0-.01 0-.014.002l-.017-.026-.009.008.015.022-.042.01c-.009.01-.015.02-.022.03l-.01-.01.01-.014-.023.008-.032-.026.005.017.014.011-.01.004.005.026v.012l.023-.028.01.006c-.011.014-.02.027-.032.04l.004.027.001.015-.017-.015-.002-.01c-.001 0-.005.003-.006.006l-.007-.006.012-.017-.001-.029-.005-.021h.001l.006-.002-.01.002v-.002l-.021.006h-.003.003a.047.047 0 0 0-.022.005c-.01.001-.016.001-.022.003l.014-.002-.02.006-.002-.002a.738.738 0 0 1-.026.005l-.004.002c.002.003 0 .003.002.004h-.003c-.012.014-.024.027-.032.042l.041.03a.361.361 0 0 0 .016.067.152.152 0 0 1 .025-.035l.007.005c-.01.014-.021.025-.03.04.003.006.005.016.01.026l.088-.015.018.013-.102.017c.004.01.003.01.007.024zm3.664-37.07c.828.486 1.558.916 2.061 1.14a24.002 24.002 0 0 0-2.06-1.14zM34.366 119.21c.082.518.557 1.855.694 2.561-.17-1.205-.291-1.84-.694-2.56zm8.716 56.123l-.243-.52c.012-.15.052-.277.1-.396-.28.084-.444.179-.643.273.26-.153.026-.118-.372.028-.395.139-.918.426-1.13.53l-.238.167c-.028.025-.097.055-.09.075l.112.043c.833.347 1.604.608 2.38.805.839.214 1.677.348 2.524.397 1.662.073 3.58-.116 5.327-1.603.028-.015.067-.043.1-.066a8.146 8.146 0 0 0 1.833-2.289c.166-.376.305-.747.37-1.083.199-.989.025-1.558-.05-1.163.079-1.255-.242-1.849-.59-2.315-.378-.47-.834-.859-1.83-1.41.76.5 1.042.772 1.11.835.066.066-.087-.068-.355-.261-.529-.387-1.585-.954-1.815-.96-2.1-1.158-.675-.501-1.605-1.093-.355-.177-1.21-.611-1.294-.6-1.034-.79 1.827.677 1.56.308-1.097-.638-2.152-1.29-3.037-1.966l-.03.083c-.186-.14-.366-.28-.54-.428.06.012.118.018.179.031-.87-.717-1.527-1.462-1.775-2.252a1.272 1.272 0 0 1-.039-.633.3.3 0 0 0-.145.013c-.302.089-.519.949-.04 1.83-.059-.019-.17-.184-.295-.443-.102-.259-.288-.62-.267-1.185.02-.534.318-1.076.734-1.388.412-.319.88-.426 1.257-.428.863.002 1.552.647 1.726 1.282.078.247.447.58.778.824.343.257.707.476 1.068.693.73.432 1.483.833 2.337 1.366l-1.682-.873c.297.259 3.53 2.061 4.085 2.355.037.104-1.845-.714-.902-.034l1.437.878c.232.14.464.28.695.417.21.125.351.308.564.31.383-.099.776-.31 1.05-.618.268-.305.432-.666.517-1.01.341-1.456-.456-2.064-.437-1.93.218.427.313.8.27 1.263-.04.458-.195.917-.447 1.267-.237.355-.662.573-.89.643-.154.025-.244-.103-.443-.222l-.753-.436c-.028-.07.231.053.633.267.225.112.346.22.449.266.119.062.232-.04.357-.096.745-.35.927-1.427.787-1.312.583-1.438-.965-3.024-2.541-4.22.314.224.924.694 1.33 1.059.407.365.646.598.389.24-.887-.898-1.203-1.08-1.36-1.245-.174-.154-.24-.262-.951-.8.662.386 1.456.867 2.22 1.476.75.61 1.523 1.362 1.816 2.342.088.339.1.694.076 1.042.032-.19.058-.378.059-.56.01-.745-.322-1.535-.984-2.348-.475-.581-1.08-1.132-1.735-1.645a13.703 13.703 0 0 0-.326-.194c-1.445-.802-2.629-1.228-3.156-1.451-2.085-1.323-1.144-1.196-.608-.946-2.057-1.28-3.126-1.82-4.16-2.498-.512-.35-1.034-.71-1.556-1.376-.299-.365-.512-1.038-.248-1.682a1.848 1.848 0 0 1 1.821-1.142 1.911 1.911 0 0 0-2 1.419c.065-.428.466-1.125 1.242-1.398.377-.138.845-.16 1.268-.006.42.133.8.505.97.783.544.686 1.421 1.229 1.226 1.069.694.626 1.32 1.3.39.761 1.249.705 2.54 1.338 3.83 2.014-.561-.31-.366.168-.626.068 1.465.925 2.686 1.33 1.789.67 1.371 1.038 1.863 1.468 2.291 1.84.105.09.216.197.31.293.066.07.14.148.222.24.024.022.045.053.071.071l.101-.013.234-.03c.168-.021.476-.072.758-.18.735-.49-.224-.143-.77-.098.912-.251 1.298-.75 1.387-1.28.106-.549.015-1.095-.107-1.537.276.774.275 1.227.323 1.465.034.238.101.294.207.261.072-.015.148-.09.22-.162.038-.225.069-.451.053-.713-.04-.581-.227-1.196-.52-1.797a7.395 7.395 0 0 0-.915-1.14c-.935-.926-2.106-1.546-3.287-2.146.255.096.931.216.917.163-.334-.111-2.446-1.321-5.029-2.8-1.27-.772-2.675-1.6-3.79-2.808-.263-.328-.535-.592-.715-1.113a1.73 1.73 0 0 1 .203-1.443c.3-.465.778-.713 1.267-.792-.118.033-.005.024.273.024.34-.003 1.01.194 1.375.792.487.738 1.725 1.49 2.379 1.874-.252-.1-.55-.31-1.093-.694 2.344 1.853 3.5 1.7 5.989 3.552-2.371-1.502-2.898-1.665-2.83-1.51.732.404 1.806 1.03 2.818 1.659.504.315.994.63 1.415.915l.648.424c.05.061.087-.014.112-.059a.312.312 0 0 0 .047-.109c.01-.06-.017-.081-.077-.09.118-.093.231-.211.302-.346a.721.721 0 0 0 .08-.191c.038-.096.04-.197.06-.284.033-.357-.03-.604.067-.573-.481-1.522-2.122-2.648-3.537-3.756.33.238.688.368-.585-.63 1.218.943 2.447 1.889 3.316 2.824.417.476.733.983.858 1.455.138.45.062.937-.075 1.125.08.068.197-.06.295-.152.053-.068.216.005-.04.712.366-.65.336-1.42.071-2.023-.25-.618-.653-1.121-1.068-1.551a20.129 20.129 0 0 0-2.586-2.094c-1.691-1.163-3.251-2.018-4.921-2.906a57.226 57.226 0 0 0-4.576-2.648l-.24-.016-.738-.59c-.625-.218-1.027-.343-1.146-.41-.104-.064.06-.03.314.038-.519-.196-.993-.372-1.247-.431-.154-.183.77.002 1.741.298.425.227.853.475 1.284.721.592.214 1.084.38 1.112.329a54.537 54.537 0 0 0-1.774-.856 73.942 73.942 0 0 1-.622-.194l-.406-.22c.175.066.344.127.513.19-.281-.123-.554-.24-.819-.348.102.051.198.102.306.158-2.422-1.05-5.278-.824-3.102-.503-.966-.19-1.983-.239-2.997-.193-1.768.292-2.469.546-3.27.774-.789.26-1.706.504-3.657 1.431-.252.025.783-.497.043-.238-1.406.736-3.117 1.62-4.437 2.56-1.33.92-2.231 1.887-2.34 2.225a1.811 1.811 0 0 1-1.488.793c-.36-.008-.504-.06-.616-.072-.11-.022-.184-.026-.36-.113-.155-.097-.477-.24-.773-.828.095.097.172.306-.041-.386a1.89 1.89 0 0 1 .219-1.453l.611-.889c.581-.6-1.138 1.526.425-.196 1.304-1.494 2.559-2.465 3.794-3.277a21.126 21.126 0 0 1 4.016-2.04c4.361-1.672-2.01.376 1.728-.949l.601-.062c.218-.023.65-.092.702-.076.13.006.092-.052.23-.245.158-.291.334-.614.522-1.003.212-.558.267-.82.36-1.166.049-.177.1-.372.169-.632.02-.066.038-.137.06-.213.022-.085.042-.157.04-.17.008-.07.027-.104.008-.15 0 0-.013-.01-.023-.015a1.94 1.94 0 0 1 .208-.034l.03-.002-.002-.004a.472.472 0 0 1-.097-.098c-.035-.05.486-2.73.499-2.737 0 0 .154-.202.182-.267.022-.052.054-.22.09-.199-.05-1.548-.21-2.612-.308-3.425-.335-1.41-.33-.857-.236.11.085.97.072 2.36.024 2.679.078-2.765-.61-4.657-.936-6.213.306.768.594 1.551.794 2.364-.536-2.634-1.286-3.722-1.764-4.454-.493-.69-.731-1.02-1.518-2.117 1.314 1.178 2.356 3.182 1.94 2.159a9.745 9.745 0 0 0-1.663-2.033c-.154-.281 1.025 1.088.279.138-.282-.247-.709-.624-1.181-.902-.47-.28-.958-.497-1.26-.579h.036c-.66-.28-1.436-.353-1.78-.103-.212.118-.333.443-.366.841.14-.072.284-.144.46-.183.434-.098.99-.036 1.444.27.22.142.422.358.544.537.103.154.206.31.284.465.337.62.545 1.26.725 1.906.344 1.296.538 2.565.507 3.713-.007 1.162-.538 2.091-.56 2.26-.656.764-1.275.878-1.378.912-.142.01.118-.034.563-.337.456-.291.977-.949 1.176-1.73.225-.788.18-1.655.054-2.463.037.897.047 1.939-.496 2.945.565-1.258.456-2.28.292-3.417.063.937.144 1.924-.189 2.938-.17.493-.464.994-.93 1.351a2.33 2.33 0 0 1-.758.387c-.174.049-.17.045-.214.055a.289.289 0 0 1-.106.004c-.048.012-.131-.082-.125-.014l.016.187.002.154c0 .028.007.002.001.075l-.019.22c-.075.755-.028.606-.022.756-.012.025-.004.031.006.033.076.044-.047.093-.074.14-.005.012.001.021.025.04.047.032-.694 3.206-.735 3.206-.036 0-.07-.004-.097-.006-.112.003-.234.007-.23.087-.072.327.032.195.108.133.15-.007.236.073.112.135a.63.63 0 0 1-.025.09l-.052.063c-.018.019-.035.036-.09.148l-.271.519c-.19.34-.379.68-.581 1.01-1.648 3.735-3.608 6.06-5.433 8.813-.397.636-.576.958-.653 1.127-1.996 2.92-3.657 6.429-4.972 8.736.252-.572-.838 1.275-1.03 1.538a138.747 138.747 0 0 0-2.02 4.357c.87-1.938.724-1.907.784-2.31-.655 1.354-.9 2.02-1.314 2.952.217-.585.455-1.171.058-.479a109.325 109.325 0 0 0-1.837 4.688c.134-.264.367-.793.56-1.237-.496 1.156-1.442 3.699-2.103 5.367.006-.166.168-.763.172-.926.642-1.372.864-2.203 1.053-2.972-1.234 3.246-.344.796-1.03 2.323-.826 2.313-.968 3.322-.665 2.744-.88 2.616-1.179 3.451-1.734 6.216l-.037-.56a55.568 55.568 0 0 0-.54 2.535c.073-.7.161-1.399.27-2.095-.644 2.41-.574 2.66-.577 2.961.01.307.004.68-.524 3.389l-.152-.01c-.276 2.117-.116 2.87-.487 4.488-.153 2.058.62-3.476.102 1.34-.168.839-.386 2.668-.494 4.06-.033 1.346.185-.527.274-1.69-.214 3.261-.336 4.363-.497 5.35-.12 1.035-.286 1.978-.161 5.26.086-1.713.197.26.26-1.047-.008.36-.003.727-.017 1.091l-.016.436-.007.23a2.25 2.25 0 0 1-.035.344 2.01 2.01 0 0 1-.724 1.213 2.143 2.143 0 0 1-2.654-.021 2.022 2.022 0 0 1-.598-.805c.138.313.357.58.623.777a1.973 1.973 0 0 0 1.622.33 2.003 2.003 0 0 1-1.556-.406 1.896 1.896 0 0 1-.647-1.048c-.08-.407-.05-.568-.071-.736l.15.217c-.288-3.301.163-6.132-.077-8.106.105.69.128.075.146-.875.036-.95.08-2.238.177-2.887-.062 2.721-.382 7.783-.123 8.147.101-1.262-.01-2.393.128-3.608-.011.854.025 2.093.075 2.418.255-4.153.134-6.534.326-9.064-.135 1.485-.227 2.97-.3 4.458-.214-.376.072-2.01.007-3.274.334-2.218.355-3.98.707-5.776l-.13.995c.698-4.839 1.48-6.07 1.878-7.956.454-1.842 1.313-5.338.86-4.112.192-.758-.265.797-.632 2.215-.368 1.42-.728 2.687-.549 1.294 1.029-2.606 1.233-5.631 3.66-11.227-.839 2.523.757-1.38-.005.866.999-2.709 1.054-2.8 1.439-4.036l.462-.747c1.349-3.531.105-.926 2.526-6.107-.797 1.744 1.202-1.964.603-.626a140.926 140.926 0 0 0 1.952-3.819l-.09.192c1.39-2.538 2.046-3.529 2.647-4.471.611-.942 1.172-1.833 2.564-4.073l-.345.4c1.797-2.945 4.144-6.073 5.6-9.59.726-1.75 1.168-3.612 1.174-5.424-.005-1.823-.416-3.622-.892-5.3.115.465.198.931.294 1.397a36.301 36.301 0 0 0-.498-1.807c-.415-1.222-.498-2.806-.138-3.997a7.333 7.333 0 0 0-.176 1.366c.041-.036.087-.293.201-.769.126-.47.305-1.188.86-1.992.11-.227.236-.45.388-.662.208-.171.43-.323.663-.453.608-.435.93-.515 1.014-.578.091-.055-.02-.034-.129-.011-.112.022-.224.047-.132-.01.094-.045.385-.233 1.135-.372.447 0 1.48-.056 2.694.308 1.214.345 2.557 1.115 3.689 2.134 2.298 2.057 3.53 4.983 3.783 6.086.42.812.035-.391-.505-1.516-.53-1.13-1.198-2.17-.582-1.366.363.74.545 1.07 1.179 2.69l-.092-.612c1.332 3.372 1.605 6.022 1.57 8.46a17.142 17.142 0 0 1-.492 3.605c-.148.601-.33 1.208-.553 1.829-.159.447-.285.741-.468 1.137.165-.017.355-.038.564-.058l.321-.022c.141-.007.286-.012.431-.017-.088.014-.22.026-.256.039 2.501-.008 3.963.364 5.07.646.486.24-1.28-.337-.353.048 4.396 1.185 7.919 4.047 10.32 5.272-.21.028.634.724 1.392 1.411 1.682 1.174 3.2 2.39 4.358 3.557 2.7 2.72 2.965 5.933.677 8.182a3.916 3.916 0 0 1-.262.24l.103.145c.848 1.233 1.364 2.621 1.455 3.91.145 2.17-.895 3.973-2.791 4.828a6.2 6.2 0 0 1-.405.172c.08.137.168.297.259.486.358.758.524 1.564.5 2.47-.028 2.261-1.28 4.219-3.187 4.984a9.96 9.96 0 0 1-.215.081c.029.077.055.16.086.257 1.384 4.494-2.247 9.304-6.418 10.604-3.154.986-6.99.491-11.09-1.424l-.193-.091a1.998 1.998 0 0 1-.124-.061c-.011.01-.018.019-.03.028-.088.084-.202.194-.35.324-2.326 2.032-4.864 4.103-8.083 5.138-.095.031-.274.089-.324.118h.002-.007c.007-.004.01.006.013.012-.002-.005 0-.01-.004-.012.005.002.002.01.005.012.001.006.005.013.006.024 0 0 .003.002.003.004v.002c0-.004-.003-.005-.003-.006v.032l.003-.026-.003.027v.06a2.916 2.916 0 0 1-.013.128v.004-.003l-.002.009c0 .005 0 .01-.002.014.004.006-.003.01 0 .016a.068.068 0 0 0-.004.021l-.002.005-.002.017-.07.47c-.631 3.87-.8 8.051-.528 13.155.001.063-.007.123-.014.184-.003.039-.002.077-.008.115a1.209 1.209 0 0 1-.122.367c-.012.025-.012.056-.03.079a1.114 1.114 0 0 1-.35.345c-.011.007-.02.018-.03.026-.39.25-.908.277-1.323.067-.4-.203-.642-.587-.668-1.053-.006-.115-.007-.221-.014-.334-.007-.073-.016-.14-.022-.224v-.279a84.813 84.813 0 0 1-.087-3.708c-.032-.558-.073-.94-.114-1.005.043-.677.079.085.114.16 0-.136.006-.272.01-.41a64.02 64.02 0 0 1 0-2.202c.032-.078.056-.068.076 0 .084-1.579.226-3.087.428-4.548l-.006.017.03-.163c.032-.224.058-.45.093-.671.023-.153.048-.288.074-.406-.09.002-.195.005-.294.005-.88 0-1.785-.097-2.698-.29a1.313 1.313 0 0 1-.412-.17c.175.112.366.199.574.217.236.058.474.11.715.154-.406-.08-.82-.115-1.208-.287a1.193 1.193 0 0 1-.526-.538c.007.015.022.029.031.042a1.134 1.134 0 0 1-.084-.172c.008.02.008.041.018.061a1.192 1.192 0 0 1-.107-.383c.004.04.025.077.032.114-.084-.401.02-.836.296-1.144a1.22 1.22 0 0 1 1.193-.376c2.032.429 3.783.22 5.363-.355.251-.14 1.142-.537 1.68-.916 1.18-.61 2.472-1.588 3.761-2.689 1.299-1.095 2.61-2.314 3.986-3.284 1.36-.99 2.852-1.644 4.13-1.77a5.21 5.21 0 0 1 1.643.068c1.14.185 2.354.704 3.677 1.676.581.43.692 1.191.26 1.77-.434.58-1.196.696-1.774.27a7.55 7.55 0 0 0-.489-.327c-.08-.049-.157-.095-.23-.141a6.138 6.138 0 0 0-.52-.277h-.003c-.066.507-2.262.093-2.27.085-.01-.013-.016-.019-.028-.03a.861.861 0 0 1-.137-.01 1.162 1.162 0 0 0-.024.81zm31.233-26.458c.669.022 1.26-.045 1.626-.163-.602.076-1.147.119-1.626.163zm-17.1-27.838c.203.186.284.204.414.286l.001.006.002-.007c-.131-.133-.153-.188-.361-.414a7.92 7.92 0 0 0-.66-.658c.077.199.316.51.604.787zm49.435 56.537c3.762-4.737 8.252-8.36 11.721-9.461l-.002-.025c-.155-5.5-.544-10.51-1.186-15.194l-.075-.442c-.013-.136-.02-.233-.028-.31-.105-.75-.227-1.485-.346-2.218-.008-.034-.017-.05-.027-.086 0-.043-.007-.087-.01-.13a91.495 91.495 0 0 0-.485-2.657c-.106-.356-.198-.598-.243-.629-.063-.47.089.036.133.084a2.662 2.662 0 0 0-.023-.13 35.025 35.025 0 0 0-.429-1.642c.018-.052.04-.055.067-.03-.957-4.257-2.18-8.274-3.72-12.177-.11-.162-.399-.791-.622-1.202-.64-1.755-1.732-4.167-2.8-6.256-.749-1.472-1.46-2.784-1.912-3.654a136.208 136.208 0 0 0-5.34-8.693c-.336-.354-.57-.54-.642-.49.833 1.084 2.443 3.3 2.493 3.761-.782-1.116-2.116-3.056-2.29-3.084-.592-1.298 1.473 2.108.61.463-.536-.794-.825-1.095-1.106-1.442.432.477-.354-.798-.48-1.06-1.771-2.548-2.76-4.039-4.796-6.679l-.047-.097c-.422-.543-.837-1.089-1.25-1.64-.772-.83-1.44-1.465-1.279-1.084-1.102-1.58-1.07-1.72-1.958-3.104 1.17 2.36-.248-.446-.545-.614-.794-1.5-.18-.57-.473-1.296a9.818 9.818 0 0 1-.15-.26c-.077-.014-.054-.016-.069-.032.015.001.039.005.053.005l-.018-.034c-.016.01-.032.02-.035.029-.115-.02-.151-.065-.11-.107.021-.013.042-.03.07-.049l-.004-.007-.18-.105a.24.24 0 0 0-.008-.028l.168.1a1.56 1.56 0 0 0-.085-.135l.218.129a.58.58 0 0 1 .086-.02c.033.042.063.085.093.125l.083.048c-.014.002-.029 0-.043.002.16.205.294.334.306.222-.046-.103-.1-.203-.145-.303l-.11-.27c-.019-.05-.033-.09-.05-.127-.02.004-.075-.007-.171-.018-.147-.02-.697-1.988-.557-2.004-.035-.124-.063-.249-.093-.373-.2-.05-.308.068-.566.044-.176-.04-.346-.086-.463-.075-.012-.053.062-.075.217-.073.097-.098.088-.368-.015-.97-.02-.227-.041-.422-.058-.607-.007-.082-.015-.16-.02-.24a.771.771 0 0 1-.204.122.545.545 0 0 1-.224.036 2.242 2.242 0 0 1-1.363-.597c-.506-.472-.782-1.1-.88-1.773.13.496.34 1.003.701 1.44-.113-.15-.54-.934-.627-1.748-.116-.803-.089-1.576-.112-1.795.054-.056.318 1.398.417.573.08-1.602.281-3.13.688-4.284.094-.263.267-.617.54-.817a1.63 1.63 0 0 1 .79-.34c.485-.059.746.043.69-.051-.654-.26-1.474-.06-1.922.47-.238.291-.309.495-.405.71a5.713 5.713 0 0 0-.224.64c-.24.842-.355 1.671-.416 2.505-.098.078-.054-.811.115-1.71.138-.887.535-1.824.414-1.776.086-.17.303-.522.591-.727a1.92 1.92 0 0 1 1.981-.207c-.051-.365-.166-.552-.15-.47-.04-.224-.112-.415-.148-.536-.03-.078 0-.14.104-.104-.653-.353-1.525 0-2.186.452.34-.206-.02-.361.119-.486-1.087.497-1.428 1.367-.85.945-.927.575-1.212.922-1.47 1.179-.251.275-.493.486-1.078 1.231-.316.603.307.092.587-.293-.718 1.312-1.04 2.143-1.315 2.808.359-1.2.324-1.413.112-1.413-.07 0-.159.031-.24.06a15.277 15.277 0 0 0-.618 1.69 18.59 18.59 0 0 0-.122 3.837c-.038-.187-.282-.656-.313-.628.07.144.029.786.038 1.686.008.452.027.97.076 1.522.022.255.06.612.096.793.02.18.807 2.896.767 2.934-.025.116.076.258.11.387.086.21.173.411.253.606.177.4.354.766.52 1.085l-.214-.41c-.157-.228-.035.12.23.654.253.511.714 1.322.945 1.565l.285.026a.87.87 0 0 1-.292-.013c-.069-.048-.12-.17-.199-.284.058.11.104.242.177.314.244.06.67.122 1.007.175l.987.126c.648.095 1.332.223 2.237.68-1.87-.7-2.294-.647-2.222-.532.797.17 2.077.597 3.05.984.976.38 1.664.677 1.379.36.92.507 1.758.961 1.599 1.053 1.186.62 2.336 1.34 3.385 2.222-.251-.18-.493-.297.355.537-1.607-1.662-3.67-2.505-4.605-3.23-.139.145.546.621-.468.276 1.914.93 3.323 1.82 4.494 2.727.29.23.574.45.83.693.138.123.256.217.4.365.152.162.278.357.359.573.354.894-.173 1.984-1.122 2.344a1.888 1.888 0 0 1-1.948-.544l-.309-.357c-.39-.444-.812-.865-1.274-1.25l-.175-.025c-.115-.188-.247-.364-.371-.55-.404-.22-.675-.336-.74-.408-.061-.06.053-.026.22.047a7.477 7.477 0 0 0-.808-.435c-.066-.17.569.027 1.22.324.255.219.506.458.755.695.361.203.66.372.727.356a14.267 14.267 0 0 0-1.137-.887c-.114-.057-.218-.11-.345-.164-.084-.07-.169-.144-.247-.212.108.057.19.112.294.17-.17-.114-.328-.228-.5-.337.069.059.133.105.206.167-1.586-.863-3.518-1.465-2.153-.676a22.284 22.284 0 0 0-1.908-.974c-1.22-.335-1.732-.424-2.303-.55-.576-.107-1.216-.272-2.723-.427-.152-.104.656-.04.127-.183-1.113-.056-2.444-.226-3.575-.254-1.13-.032-2.045.09-2.241.26-1.637.567-.608.395-1.628.874.039-.044.117-.134-.184.001-.385.246-.77.482-1.145.745-.515.203 1.06-.678-.335-.029-2.257 1.361-3.515 2.268-5.373 3.454-2.532 1.843 1.27-.524-.896.988-.386.128-.767.19-2.072 1.201-.618.622-.474.617-1.532 1.628l-.065-.21c-1.014.91-1.697 1.732-1.814 1.637-.691.84-1.015 1.426-1.235 1.88-.196.836-.006.527.25.059.286-.491.902-1.146 1.074-1.263-.63.61-.985 1.28-1.108 1.767-.07.25-.064.443-.057.623-.031.024-.024.133-.016.247a.611.611 0 0 1-.132-.2 1.415 1.415 0 0 1-.052-.59 1.36 1.36 0 0 0-.019.614c-.001.07.05.187.097.252.102.118.23.3.308.208.067-.09.127-.163.179-.23l.06-.08c.07-.063.137-.12.203-.18.302-.25.632-.457 1.198-.702-.278.199-.562.417-.823.632-.263.22-.513.448-.54.499-.15.18-.248.35-.061.247l.208-.215.34-.31.755-.642c.218-.099-.877.708-.117.21.412-.362 1.264-1.108 1.668-1.46l-.013.024 2.845-2.037c-.54.377-.632.533-.086.152a30.435 30.435 0 0 0 1.72-1.447c-.507.462.132.09.817-.553.115-.118.207-.228.271-.32.03-.042.14-.261.264-.416.244-.312.55-.513.835-.624.569-.216 1.039-.16 1.414-.055.38.12.74.313 1.047.757.257.353.427 1.018.18 1.715.076-.237.082-.415.074-.81a2.02 2.02 0 0 1-.18.943c-.146.307-.264.44-.408.637.05.119-.218.615-.716 1.158-.494.55-1.201 1.137-1.914 1.684-1.437 1.078-2.876 2.043-2.855 2.296-1.47.806-.166-.007 1.517-1.418l-1.552.926c.59-.426 1.116-.744 1.737-1.234-2.055 1.213-3.751 2.622-4.626 3.489-.682.514.263-.719-1.478.981-.563.62-.708.956-.756 1.077-.04.12.057.042.175-.066.241-.212.553-.535.042.237a5.775 5.775 0 0 0-.79 1.122c-.247.888-.233 1.724.02 2.159.122.221.298.384.569.516.133.066.286.119.45.163l.279.062c.053.022.072.01.1-.03l.103-.092c.21-.21.415-.387.63-.571.401-.374.591-.558.68-.663 2.037-1.545 4.15-3.304 5.622-4.372-.305.301.901-.533 1.077-.644.191-.183.366-.37.517-.553.079-.093.141-.18.195-.263l.063-.111c.042-.076.115-.198.184-.286.315-.432.802-.701 1.326-.803-.054.013-.115.024-.162.04-.34.109-.532.257-.658.373-.241.242-.246.357-.333.554a1.985 1.985 0 0 1 1.682-.78c.54.031 1.01.24 1.388.672a1.754 1.754 0 0 0-.689-.461c-.15-.031-.096-.016.226.23.75.472 1.07 1.526.675 2.37-.332.677-.728 1.163-1.155 1.65.171-.148.49-.457.732-.763-.607.83-2.118 2.17-3.219 2.837.064-.105.391-.41.448-.517.95-.55 1.36-1.065 1.714-1.529-1.9 1.69-.495.402-1.482 1.106-1.388 1.07-1.878 1.599-1.441 1.424-1.615 1.113-2.16 1.428-3.626 2.733l.184-.366c-.463.387-.917.777-1.35 1.182.318-.369.642-.733.984-1.091-1.387 1.044-1.42 1.239-1.518 1.424-.048.098-.107.203-.31.446-.193.245-.584.626-1.03 1.33l-.139-.063c-.263.574-.22 1.02-.166 1.38.066.366.145.673.272 1.128.626.914-.717-1.73.627.467.052.084.123.181.202.258a.42.42 0 0 0 .178.132c.113.02.155.04.36-.057.189-.087.374-.24.63-.404.91-.76-.991.559-.918.38a.341.341 0 0 0 .122-.04c.07-.03.15-.078.233-.132.141-.1.348-.258.549-.388.382-.26.701-.465.97-.63.542-.332.898-.51 1.239-.68.661-.328 1.303-.585 3.077-2.018-1.33.827.904-.976-2.118 1.154.708-.534 1.45-.99 2.164-1.48.354-.246.708-.499 1.025-.78.302-.26.63-.623.694-.827-.023.18-.259.545-.485.833.355-.312.658-.747.635-.876.039-.182.105-.349.168-.472.004.093.014.182.035.267.235-.828 1.188-1.32 1.96-1.171.779.097 1.445.727 1.581 1.449.076.351.041.726-.068 1.015-.084.255-.191.479-.293.695-.2.367-.388.707-.618 1.13.225-.5-.052-.1-.534.422-.481.525-1.189 1.145-1.597 1.384.719-.664 1.838-1.553 2.53-2.656a4.47 4.47 0 0 0 .413-.834c.11-.254.175-.653.128-.921-.085-.585-.407-.866-.498-.889.367.48.453 1.1.281 1.611-.131.45-.355.855-.648 1.206.36-.524.691-1.443.578-1.772-.125.882-.548 1.391-.906 1.898-.376.486-.756.885-1.122 1.243-.73.72-1.397 1.29-2.114 1.826.857-.611 1.71-1.246 2.49-1.99-.02.37-1.069.988-1.686 1.647-1.375.814-2.311 1.614-3.395 2.256.276-.186.282-.218.563-.405-1.403.937-2.305 1.493-2.843 1.997-.519.493-.711 1.06-.782 1.697-.082.636.102 1.565.404 2.146.295.587.56.866.39.475.29.426-.31-.475-.47-1.405-.094-.46-.08-.904-.037-1.112.038-.212.09-.184.164.236-.19.848.113 1.794.788 2.747.71.928 1.8 1.983 3.61 2.722-1.677-.47.903.56-.607.106.914.342 1.434.366 1.801.391.372.007.61-.01 1.04-.063.194.035.39.075.589.097.595-.108.935-.198 1.16-.273-.07-.024-.137-.042-.207-.08a2.047 2.047 0 0 1-.572-.472 1.25 1.25 0 0 1-.23-.396c-.027-.024-.013-.161-.07-.114l-.187.145c.058-.012.11-.019.156-.024l-.39.313-.185.143c-.156.137-.365.27-.592.35-.93.37-2.065-.189-2.41-1.107a1.848 1.848 0 0 1 .034-1.496c.11-.233.267-.442.453-.61.166-.147.287-.231.435-.35a9.83 9.83 0 0 1 1.843-1.185c1.331-.662 2.954-.957 4.42-.642 1.465.284 2.733.94 3.833 1.608a16.265 16.265 0 0 0-1.589-.951c.25.139 1.064.52 1.91 1.064.855.529 1.749 1.195 2.337 1.71-.251-.184-.705-.483-.937-.665-.01.09.415.546 1.357 1.289l.44.183.329.362c1.455 1.073-.326-.442 1.13.618.329.425 1.898 1.606 3.72 2.283 1.822.737 3.832.648 4.597.64.566-.227-.25-.047-1.051-.035-.807.029-1.587-.074-.94-.13.514.052.752.15 1.874.026l-.4-.091c.44-.058.86-.098 1.254-.2l.665-.14c.3-.045.614-.018.9.083 1.174.44 1.52 1.755 1.063 2.636a1.808 1.808 0 0 1-1.139.933c-.362.096-.686.167-1.027.233l-.513.085-.392.052c-.19.019-.385.033-.59.036.009.13.056.305.086.464.04.22.085.448.129.684.116.616.23 1.28.335 2.004l-.057-.191c.19 1.756.298 2.698.49 3.473-.038.372-.181-.893-.184-.204.645 3.077.012 6.19.305 8.06-.134-.108-.261.648-.38 1.361.002.283.006.56.007.845l.005.511c.006.838.013 1.693.025 2.573l.003.27v.167c.135.08.28.18.474.34 1.188.995 2.362 3.044 3.493 6.088.82 2.212 1.625 4.934 2.276 7.704 1.13-2.643 2.854-5.455 4.998-8.155zm-18.238-94.6c.015-.094.02-.182.032-.272-.31-.203-.692-.263-1.012-.15-.259.085-.432.26-.552.46a.99.99 0 0 1 1.307-.238c.092.053.158.129.225.2zm-.371 5.829l.144.068c-.002-.066-.005-.124-.006-.188l-.15.08.012.04zm.134-.225c-.096-.033-.21-.182-.25-.345.01.188.055.35.099.505l.153-.084c0-.024 0-.049-.002-.076zm-28.57 28.62c-.02.208.07.464.173.484.001-.056-.118-.892.063-1.302-.148.335-.234.596-.236.818zm17.426 27.675c.342-.126.77-.297 1.347-.55-.73.37.044.097.506-.045-.048-.022-.097-.056-.146-.076a6.25 6.25 0 0 0-.458-.18c-.146-.05-.2-.056-.29-.072l.082.01a3.052 3.052 0 0 0-.95-.172c-.086-.026-.022.09-.034.121.2.156.216.384.16.563-.046.15-.133.277-.217.401zm16.687-35.14c-.451-.522-.766-.879-1.155-1.193.478.489.782.893 1.155 1.192zM126 184.003c-.13-.103-.265.626-.392 1.31-.004 1.275-.025 2.539-.046 3.79-.047 2.52-.096 5.127.018 7.747.028.717-.498 1.278-1.222 1.308-.018.002-.037.002-.056.002-.3 0-.589-.1-.813-.28a1.238 1.238 0 0 1-.456-.93c-.113-2.634-.064-5.248-.015-7.777.083-4.419.17-8.986-.626-13.684-.582-3.446-1.474-5.313-2.44-5.16-3.014.506-7.455 3.966-11.309 8.816-.107.135-.203.27-.308.407l-.147.2c-.028.037-.048.059-.073.092-.493.65-.961 1.3-1.397 1.947l-.017.031c-.016.02-.028.04-.044.058a34.504 34.504 0 0 0-1.436 2.352c-.118.276-.186.477-.164.527-.217.355-.077-.01-.052-.127-.032.056-.062.113-.095.17-.218.466-.435.937-.625 1.417-.037.024-.057.017-.07-.002-.715 1.577-1.203 3.072-1.4 4.398-.098.672-.123 1.482-.127 2.305.006-.379.016-.756.037-1.133l.064-.487a22.429 22.429 0 0 0-.101 1.639 77.13 77.13 0 0 0 .013 1.504c.006.397.011.776.011 1.117 0 .717-.547 1.257-1.273 1.257-.23 0-.432-.07-.616-.169-.018.017-.12-.02-.275-.124-.258-.168-.495-.605-.504-.962.035-.9.088-1.986.07-3.129-.003-1.142-.198-2.328-.407-3.439-.312-1.656-.672-3.143-.871-4.054-.521-2.027-1.154-4.167-1.85-6.04-.49-1.316-.916-2.29-1.287-3.02-.298-.402-.52-.61-.606-.551.74 1.061 1.826 3.478 1.771 3.923-.492-1.219-1.465-3.242-1.65-3.267-.21-.636.092-.117.343.383.254.496.46.965.183.12-.396-.824-.657-1.126-.908-1.455.368.414-.22-.677-.425-.882-.118-.1-.251-.248-.416-.21-.154.037-.272.15-.374.257-.202.223-.34.482-.468.734-.262.538-.457 1.117-.628 1.684-.343 1.153-.61 2.358-.863 3.94l-.035.097c-.053.36-.106.723-.157 1.122-.039.294-.071.6-.105.896.002 1.066.1 1.91.225 1.54-.159 1.82-.267 1.91-.314 3.47.37-2.47-.07.485.134.765-.064 1.59-.135.548-.223 1.28.01.265.048.902.105.947-.182.852-.3-1.258-.49-1.03-.04.825-.076 1.638-.105 2.442l.08-.015-.015.46-.077-.101c-.03.813-.053 1.612-.073 2.386.274-.005.608-.344.771-1.02.118.124-.174 1.504-.204 2.203-.093.52-.005.885-.186 1.52-.186.56-.628.981-1.146 1.156-.524.165-1.034.15-1.563-.12a1.78 1.78 0 0 1-.932-1.476c.083.644.539 1.241 1.13 1.462-.085-.052-.363-.194-.62-.508-.263-.295-.432-.86-.402-1.269-.005-.709-.024-1.43-.054-1.629.07-.06.33 1.296.43.525.102-3.033-.146-5.93-.363-5.753-.002 1.56.017 3.117.05 4.673-.188.159-.074-3.317-.286-3.134.079-1.432.171-2.865.29-4.296-.036.542-.078 2.204.054 1.558.104-1.847.09-.957.253-2.181.033 1.225.184 3.022.35 4.596.05-1.2.113-2.422.194-3.649-.146-1.23-.307-2.187-.366-2.603.196-1.655.521-1.037.551-.638.374-3.234-.219-3.27.462-6.536l-.321 1.212c.046-.392.237-1.285.428-2.044.196-.755.395-1.375.314-1.236.293-.617.732-1.107.544-.39.212-.966.478-1.942 1.008-2.882-.243.403.189.32.125.511.634-.99 1.26-1.8.556-1.298.12-.094.252-.197.348-.247.07-.036.108-.055.159-.073a.534.534 0 0 1 .163-.05c.041-.16.036-.28.048-.434.015-.192.022-.35.032-.519.022-.33.061-.686.152-1.39-.03-.672-.318.066-.345.56-.1-1.523-.066-2.42-.044-3.141.105 1.744.394 1.396.637 1.177a662.94 662.94 0 0 0-.015-1.62c-.225-1.268-.444-2.539-.7-3.795.06.18.364.599.395.566-.144-.22-.256-1.879-.437-3.843-.176-1.966-.482-4.23-.766-5.702l.09.442c.097.28.055-.169-.057-.823-.05-.307-.152-.747-.212-1.017-.03-.118-.057-.233-.087-.344.03.04.05.093.048.178-.019-.088.009-.224-.055-.264-.088-.021-.168-.042-.247-.059l-1.784-.362a5.573 5.573 0 0 1-1.981-.88c1.713.917 2.158.869 2.09.754-.766-.218-1.945-.8-2.823-1.306-.878-.497-1.487-.873-1.267-.528-.8-.618-1.54-1.125-1.375-1.2l-1.434-.957-.376.251c-.248.149-.5.292-.757.428.246-.157.433-.34-.603.122a12.65 12.65 0 0 0 1.064-.519l.405-.234.277-.181c.17.11.33.22.487.323l.669.472c.419.302.773.58 1.03.839.155-.126-.436-.67.49-.215-.994-.679-1.862-1.266-2.644-1.798l-.577.381-.654.4a28.9 28.9 0 0 1-1.248.71c-.82.44-1.624.804-2.505 1.114-1.22.275-2.48.4-3.737.36l-.161.086c-.218-.085-.434-.158-.644-.253-.471.018-.777.02-.867-.018-.083-.033.038-.045.226-.051-.386-.043-.736-.082-.937-.106-.118-.143.554-.123 1.246-.18.323.077.657.135.998.18.478-.076.843-.159.76-.222-.442.02-.875.018-1.305-.008-.146.016-.287.035-.453.05-.1-.022-.206-.045-.304-.076.11.004.2-.002.307-.001-.2-.02-.394-.054-.587-.085.096.03.176.056.28.086-1.74-.043-3.703-.836-2.26-.063a10.14 10.14 0 0 1-1.908-1.086c-1.122-.618-1.554-.961-2.003-1.366-.45-.41-.967-.87-1.845-2.23-.016-.186.457.52.226-.007-.685-.946-1.068-2.386-1.043-3.579.01-.576.067-1.172.148-1.493.05-.277.082-.467.04-.506.006-.013.003-.023-.008-.021a42.427 42.427 0 0 1-.525-.14 1.648 1.648 0 0 0-.299-.076c-.118-.02-.19.035-.72-.319.065.017.184.052-.101-.178a5.832 5.832 0 0 1-1.148-.993c-.312-.517.907 1.039-.028-.358a6.377 6.377 0 0 1-1.16-3.269 5.84 5.84 0 0 1 .101-1.551c.128-.59.154-.571.271-.799-.007-.017-.048-.022-.073-.037-.146-.047-.248-.078-.318-.102a2.474 2.474 0 0 0-.304-.117c-.093-.017.118.147.236.245.032.054.044.096.026.11-.01.008-.026.011-.047.006-.018-.006-.016 0-.052-.02a5.35 5.35 0 0 1-.43-.242c-.171-.201-.347-.402-.563-.654-.254-.302-.662-.725-1.1-1.55a9.3 9.3 0 0 1-.514-.877c-.122-.276-.296-.649-.383-1.483l.208.091c-.116-1.505.237-2.65.373-2.616.113-.58.28-1.06.458-1.444.11-.246.106-.22.154-.306.042-.06.083-.117.118-.17.002-.01.015-.02.006-.024-.351-.222-.28-.05-.289.054a2.183 2.183 0 0 1-.144.101l-.057.033c-.033.038-.108.179-.157.26-.223.379-.382.736-.446.865.16-.406.342-.77.514-1.103.064-.108.064-.072.1-.122l-.047-.07c.03.017-.243-.276-.36-.45a3.783 3.783 0 0 1-.618-1.211 5.893 5.893 0 0 0 .902 1.26l.18.182.086.077-.39-.485a6.311 6.311 0 0 1-.375-.552 6.487 6.487 0 0 1-.486-.97 6.532 6.532 0 0 1-.392-1.397c-.099-.732-.11-1.235.327-2.13-.468 1.409.077 3.17.034 2.293a5.703 5.703 0 0 1 .007-2.046c.083-.225-.17 1.154.05.244.033-.582.373-1.725.59-2.209l-.002.033c.501-.96 1.198-1.76 1.893-2.5-.155.187-.095.188.231-.146a34.33 34.33 0 0 1 1.571-1.638c-.483.499.083.066.87-.564 2.274-1.78 1.527-1.812 3.461-2.978-.267.186-.3.232-.566.426l.994-.596c-.03-.249 1.37-1.226 2.818-2.132 1.448-.908 2.952-1.732 2.97-1.971 1.574-.605.12.006-1.617 1.243.522-.266 1.062-.507 1.596-.752-.62.354-1.162.613-1.795 1.038 2.077-1.021 3.882-2.16 5.122-2.724.46-.122.306.017.356.068.054.062.292-.02 1.561-.299 3.631-.52-.737-.263 1.462-.542l.405.026c.108.014.339.022.31.04.068.037.158.071.27.109a2.19 2.19 0 0 1 .246-.041c-.006-.056-.098-.16-.128-.227a2.241 2.241 0 0 1-.108-.214l-.12-.281-.162-.412a17.61 17.61 0 0 1-.874-3.352 16.963 16.963 0 0 0-.199-.909c-.235-2.505-.203-5.26.272-7.1-.055.439.373-1.02.51-1.215.2-.84.472-1.666.797-2.478-.224.651-.107.711-.113.936.382-.984.529-1.468.865-2.114-.182.407-.323.83-.028.355a13.51 13.51 0 0 1 1.873-3.081c-.172.139-.434.466-.67.732.52-.74 1.933-2.233 3.192-2.785-.083.098-.442.388-.509.487-.993.521-1.387 1.06-1.695 1.53.416-.465.707-.672.848-.806.148-.127.189-.137.191-.128.009.019-.1.148.402-.179 1.416-1.024 2.144-1.319 1.637-1.27a7.32 7.32 0 0 1 2.384-.53c.706-.022 1.466-.02 2.548.416-.158-.014-.317-.014-.463-.017a4.645 4.645 0 0 1 1.725 1.1 4.502 4.502 0 0 0-1.441-.808c.837.465 1.179.866 1.398 1.082.217.221.297.288.399.358.09.08.212.16.397.484.176.318.468.897.555 1.944l-.15.027c.177 1.525.192 2.196-.179 3.21-.173 1.37.658-2.268.08.91-.176.543-.407 1.74-.474 2.644.02 1.006.2-.753.28-1.398-.224 2.378-.194 3.08-.25 3.758.02.664-.066 1.334.778 3.32-.206-.71-.029-.445.045-.414.097.026-.015-.153-.434-1.792.44 1.537.798 3.135 1.803 4.582-.25-.295-.47-.604-.708-.91.283.563.694 1.147.888 1.427l-.198-.05c1.323 1.73 2.165 3.453 3.229 4.296-.77-.56 1.013 1.297 1.478 2.058-1.293-1.321-3.157-4.144-3.468-4.215.416.738.967 1.273 1.394 1.97-.37-.433-.915-1.066-1.08-1.214 1.53 2.347 2.785 3.397 3.866 4.727l-1.886-2.348c.342.043.863 1.038 1.534 1.595.814 1.28 1.675 2.113 2.328 3.162l-.413-.535c1.936 2.666 2.095 3.665 2.818 4.75.69 1.078 2.109 3.055 1.725 2.257.639.84-2.45-3.617-1.151-2.22.718 1.77 2.25 3.152 4.112 6.814-1.024-1.476.354 1.012-.544-.315 1.01 1.664 1.088 1.704 1.607 2.406l.184.569c1.42 2.13.53.39 2.402 3.778-.663-1.119.541 1.461.026.614.484.952.92 1.901 1.321 2.58l-.072-.123c1.623 3.562 1.151 2.987 2.535 6.27l-.057-.355c1.801 4.32 3.204 10.088 4.103 14.83-.065-.564-.173-1.123-.26-1.683.087.509.699 3.187.81 4.693-.053-.296-.148-.806-.199-1.085-.072.056-.076.649.05 1.801l.182.425-.03.477c.236 1.75.101-.538.338 1.216-.191 1.06.715 7.573.437 9.115.319 1.182-.165-3.333.138-2.034-.004.54-.034.782.012 1.93l.126-.404c.052 1.08.083 2.022.09 2.876l.015 1.217c.003.149.003.294.004.436.005.089-.013.2.012.277.136.05.248.09.481.235.272.161.513.353.732.56.432.418.775.894 1.057 1.408.567 1.024.96 2.18 1.304 3.58l-.079-.182c.343 1.689.467 2.59.705 3.328-.02.36-.223-.851-.191-.186.803 2.941.223 5.975.505 7.773z"/>
    </g>
</svg>
