<svg xmlns="http://www.w3.org/2000/svg" xmlns:xlink="http://www.w3.org/1999/xlink" width="102" height="102" viewBox="0 0 102 102">
    <defs>
        <path id="a" d="M64.466 71.074a5.3 5.3 0 1 1-7.911-7.025 5.3 5.3 0 1 1 7.911-7.025 5.3 5.3 0 1 1 7.911 7.025 5.3 5.3 0 1 1-7.911 7.025zm.117-3.574a3.75 3.75 0 1 0 0-7.5 3.75 3.75 0 0 0 0 7.5z"/>
    </defs>
    <g fill="none" fill-rule="evenodd">
        <path fill="#006EB7" d="M51 101.833C22.926 101.833.167 79.074.167 51 .167 22.926 22.926.167 51 .167c28.074 0 50.833 22.759 50.833 50.833 0 28.074-22.759 50.833-50.833 50.833zm0-1.666c27.154 0 49.167-22.013 49.167-49.167S78.154 1.833 51 1.833 1.833 23.846 1.833 51 23.846 100.167 51 100.167z"/>
        <path fill="#006EB7" d="M44.333 40.167H58.5a.833.833 0 0 1 0 1.667H44.333a.833.833 0 1 1 0-1.667z"/>
        <path fill="#006AB7" d="M23.5 34.333c-.92 0-1.667.747-1.667 1.667v32.5c0 .92.747 1.667 1.667 1.667h55c.92 0 1.667-.747 1.667-1.667V36c0-.92-.747-1.667-1.667-1.667h-55zm0-1.666h55A3.333 3.333 0 0 1 81.833 36v32.5a3.333 3.333 0 0 1-3.333 3.333h-55a3.333 3.333 0 0 1-3.333-3.333V36a3.333 3.333 0 0 1 3.333-3.333z"/>
        <path fill="#006EB7" d="M36.833 44.333h28.334a.833.833 0 1 1 0 1.667H36.833a.833.833 0 1 1 0-1.667zM44.333 40.167H58.5a.833.833 0 0 1 0 1.667H44.333a.833.833 0 1 1 0-1.667zM31 57.667h3.333a.833.833 0 0 1 0 1.667H31a.833.833 0 1 1 0-1.667zM37.667 57.667H41a.833.833 0 0 1 0 1.667h-3.333a.833.833 0 0 1 0-1.667zM71 57.667h5a.833.833 0 0 1 0 1.667h-5a.833.833 0 1 1 0-1.667zM71.004 71.837L71 70.17a8.333 8.333 0 0 1 8.33-8.337l1.674.004.004 7.5a2.5 2.5 0 0 1-2.499 2.5h-7.505z"/>
        <path fill="#7FB6DB" d="M79.341 69.338l-.003-5.838a6.668 6.668 0 0 0-6.671 6.666l5.883.004a.833.833 0 0 0 .791-.832z"/>
        <path fill="#006EB7" d="M71.004 33.497L71 35.163a8.333 8.333 0 0 0 8.33 8.337l1.674-.003.004-7.5a2.5 2.5 0 0 0-2.499-2.501h-7.505z"/>
        <path fill="#7FB6DB" d="M79.341 35.996l-.003 5.837a6.668 6.668 0 0 1-6.671-6.666l5.883-.004a.833.833 0 0 1 .791.833z"/>
        <path fill="#006EB7" d="M30.33 33.497l.003 1.666a8.333 8.333 0 0 1-8.33 8.337l-1.674-.003-.004-7.5a2.5 2.5 0 0 1 2.5-2.501h7.504z"/>
        <path fill="#7FB6DB" d="M21.992 35.996l.003 5.837a6.668 6.668 0 0 0 6.672-6.666l-5.883-.004a.833.833 0 0 0-.792.833z"/>
        <g>
            <path fill="#006EB7" d="M30.33 71.837l.003-1.667a8.333 8.333 0 0 0-8.33-8.337l-1.674.004-.004 7.5a2.5 2.5 0 0 0 2.5 2.5h7.504z"/>
            <path fill="#7FB6DB" d="M21.992 69.338l.003-5.838a6.668 6.668 0 0 1 6.672 6.666l-5.883.004a.833.833 0 0 1-.792-.832z"/>
        </g>
        <path fill="#006EB7" d="M61.179 84.232a1.757 1.757 0 0 1-1.179.443c-.92 0-1.667-.677-1.667-1.513V68.355l13.334-.02v14.827c0 .402-.176.786-.488 1.07-.651.59-1.707.59-2.358 0L65 80.765l-3.821 3.467zM60 83.008l5-5 5 5V68.335l-10 .017v14.656z"/>
        <g>
            <use fill="#FFF" xlink:href="#a"/>
            <use fill="#006EB7" fill-opacity=".5" xlink:href="#a"/>
        </g>
        <g fill="#006EB7">
            <path d="M64.583 69.167a5.417 5.417 0 1 1 0-10.834 5.417 5.417 0 0 1 0 10.834zm0-1.667a3.75 3.75 0 1 0 0-7.5 3.75 3.75 0 0 0 0 7.5z"/>
            <path d="M63.645 70.392l.654-.832.655.832a4.466 4.466 0 1 0 6.668-5.92l-.59-.59.59-.589a4.466 4.466 0 1 0-6.668-5.92l-.655.832-.654-.832a4.466 4.466 0 1 0-6.668 5.92l.59.59-.59.59a4.466 4.466 0 1 0 6.668 5.92zm-3.512 3.374a6.133 6.133 0 0 1-4.853-9.883 6.133 6.133 0 0 1 9.02-8.25 6.133 6.133 0 0 1 9.02 8.25 6.133 6.133 0 0 1-9.02 8.25 6.117 6.117 0 0 1-4.167 1.633z"/>
        </g>
    </g>
</svg>
