<svg xmlns="http://www.w3.org/2000/svg" width="102" height="102" viewBox="0 0 102 102">
    <g fill="none" fill-rule="evenodd">
        <path fill="#80B7DB" d="M23 53.746a1 1 0 0 0-1 1v16.762a1 1 0 0 0 1 1h7.634a1 1 0 0 0 1-1V54.746a1 1 0 0 0-1-1H23z"/>
        <path fill="#006EB7" d="M45.812 26c-2.002 0-4.003.77-5.527 2.312-3.049 3.081-3.044 8.067 0 11.152l12.13 12.295a.81.81 0 0 0 1.154 0c4.05-4.095 8.094-8.188 12.145-12.283 3.048-3.081 3.048-8.07 0-11.152a7.762 7.762 0 0 0-11.054 0L53 30.001l-1.674-1.69A7.718 7.718 0 0 0 45.812 26zm.33 2.129c1.506 0 3.011.581 4.172 1.757l2.14 2.169a.774.774 0 0 0 1.101 0l2.129-2.157a5.82 5.82 0 0 1 8.344 0 6.003 6.003 0 0 1 0 8.457c-3.678 3.72-7.35 7.44-11.03 11.16L41.97 38.343a6.004 6.004 0 0 1 0-8.457 5.841 5.841 0 0 1 4.172-1.757z"/>
        <path fill="#006EB7" d="M51 102C22.833 102 0 79.167 0 51S22.833 0 51 0s51 22.833 51 51-22.833 51-51 51zm0-2c27.062 0 49-21.938 49-49S78.062 2 51 2 2 23.938 2 51s21.938 49 49 49z"/>
        <path fill="#006AB7" d="M23 53.746a1 1 0 0 0-1 1v16.762a1 1 0 0 0 1 1h7.634a1 1 0 0 0 1-1V54.746a1 1 0 0 0-1-1H23zm0-2h7.634a3 3 0 0 1 3 3v16.762a3 3 0 0 1-3 3H23a3 3 0 0 1-3-3V54.746a3 3 0 0 1 3-3z"/>
        <g fill="#006EB7">
            <path d="M51.512 60.05h8.546a3.492 3.492 0 0 1 3.373 4.4c6.588-2.056 10.638-3.233 12.218-3.55 3.383-.675 5.351.898 5.351 4.303v.646l-19.808 8.94a20 20 0 0 1-14.106.888l-15.452-4.752V55.068h9.31c5.062 0 8.636 1.656 10.568 4.983zm-3.838 13.715a18 18 0 0 0 12.695-.798l18.603-8.397c-.159-1.623-1.005-2.093-2.93-1.708-1.482.296-5.51 1.467-12.016 3.497a2 2 0 0 1-2.539-2.381 1.91 1.91 0 0 0 .062-.436c0-.823-.667-1.491-1.491-1.491h-9.76l-.277-.553c-1.475-2.948-4.441-4.43-9.077-4.43h-7.31v12.38l14.04 4.317z"/>
            <path d="M45.099 67.864a1 1 0 0 1 0-2h14.128a2.322 2.322 0 0 0 2.322-2.322 1 1 0 1 1 2 0 4.322 4.322 0 0 1-4.322 4.322H45.1z"/>
        </g>
        <path fill="#006EB7" d="M64 35.364c0-1.441-.534-2.79-1.506-3.8A5.039 5.039 0 0 0 58.837 30c-1.388 0-1.062 1.272 0 1.272 1.06 0 2.052.423 2.792 1.192a4.152 4.152 0 0 1 1.147 2.9c0 .35.274.636.612.636a.624.624 0 0 0 .612-.636z"/>
    </g>
</svg>
