<svg xmlns="http://www.w3.org/2000/svg" width="102" height="102" viewBox="0 0 102 102">
    <g fill="none" fill-rule="evenodd">
        <g fill="#006EB7">
            <path d="M51 102C22.833 102 0 79.167 0 51S22.833 0 51 0s51 22.833 51 51-22.833 51-51 51zm0-2c27.062 0 49-21.938 49-49S78.062 2 51 2 2 23.938 2 51s21.938 49 49 49z"/>
            <path d="M38.479 42.633c1.12 3.01 2.897 5.931 5.09 8.07 1.24 1.21 2.617 2.17 4.086 2.75a8.508 8.508 0 0 0 3.144.619 8.578 8.578 0 0 0 3.145-.62c1.52-.601 2.94-1.604 4.216-2.877 2.141-2.13 3.87-5.008 4.97-7.966.845-.248 1.73-1.828 2.091-3.847.393-2.19.022-4.1-.824-4.419.032-.533.05-1.074.05-1.63-.023-7.934-4.688-12.549-12.041-13.04-6.415-.429-11.244 2.111-13.446 6.337-.741 1.421-1.163 3.2-1.325 5.13a13.057 13.057 0 0 0-.392 3.132h.024l-.002.025c-.015.002-.032.002-.047.005-.937.164-1.366 2.158-.954 4.458.378 2.116 1.334 3.748 2.215 3.873zm24.49-3.567c-.198 1.118-.637 2.038-1.103 2.43-.186.156-.378.23-.56.198a.55.55 0 0 1-.279-.145c-1.018 3.157-2.953 6.3-5.4 8.209-1.46 1.138-3.099 1.84-4.833 1.84-1.695 0-3.301-.67-4.736-1.767-2.49-1.901-4.464-5.087-5.494-8.282a.533.533 0 0 1-.28.144c-.21.037-.434-.068-.647-.281-.432-.431-.827-1.302-1.013-2.347-.013-.068-.02-.134-.03-.203.013-.732.042-1.441.093-2.143.091-.27.214-.48.37-.592a.552.552 0 0 1 .214-.093c.174-.032.356.036.535.178h.002c0-.014.003-.03.003-.041.061-.597.858-5.807 5.886-5.342 0 0 4.408 1.618 8.418.189.432-.01.851-.012 1.241.002 1.66.061 2.799.92 3.988 1.473-.044-.545-.466-1.106-.441-1.473.189.054.363.135.53.225.858.91 1.687 2.44 2.347 4.938.003.01.003.022.003.032l.004-.005c0 .002.003.002.003.002l.01-.012c.174-.137.35-.198.52-.169a.532.532 0 0 1 .125.04c.552.259.785 1.536.525 2.994zM74.7 80.4c-5.91 0-10.7-4.79-10.7-10.7C64 63.79 68.79 59 74.7 59c5.91 0 10.7 4.79 10.7 10.7 0 5.91-4.79 10.7-10.7 10.7zm0-1.4a9.3 9.3 0 1 0 0-18.6 9.3 9.3 0 0 0 0 18.6z"/>
            <path d="M79.06 75.002a.489.489 0 0 1-.095.407.531.531 0 0 1-.675.134l-3.142-1.75-3.237 1.75a.543.543 0 0 1-.564-.03.484.484 0 0 1-.21-.49l.74-3.435-2.704-2.352a.492.492 0 0 1-.147-.531.522.522 0 0 1 .44-.344l3.62-.339 1.537-3.227a.524.524 0 0 1 .477-.295c.206 0 .392.115.477.295l1.458 3.17 3.7.396a.522.522 0 0 1 .44.344c.063.19.005.398-.114.456l-.034.076-2.704 2.351.737 3.414zm-1.825-3.492a.493.493 0 0 1 .163-.476l2.064-1.794-2.783-.297a.525.525 0 0 1-.42-.291l-1.16-2.435-1.159 2.435a.525.525 0 0 1-.42.29l-2.783.298 2.065 1.794c.138.12.2.3.162.476l-.563 2.612 2.442-1.321a.543.543 0 0 1 .514 0l2.442 1.321-.564-2.612z"/>
        </g>
        <path fill="#80B7DB" d="M51 76c-10.597.002-23.705-1.444-26.197-6.146-.672-1.263-.816-2.805-.404-4.224 3.041-10.442 8.666-10.802 9.875-11.083 2.382-.556 5.268-.318 6.806-.798.27 2.246 4.607 4.035 9.92 4.035 5.31 0 9.649-1.786 9.918-4.035 1.54.477 4.425.24 6.807.798.923.214 4.417.475 7.373 5.23-5.55.395-9.93 5.022-9.93 10.672 0 1.579.342 3.077.956 4.426-4.701.812-10.186 1.126-15.125 1.125z"/>
        <path fill="#006EB7" d="M38.236 55.157a45.354 45.354 0 0 0-1.843.127 14 14 0 0 0-1.882.285c-.044.01-.458.092-.54.109l-.337.07c-.43.099-.819.219-1.211.377-1.148.461-2.2 1.2-3.179 2.27-1.58 1.726-2.873 4.22-3.837 7.528-.338 1.164-.217 2.423.323 3.437 1.8 3.397 11.418 5.593 25.27 5.59 4.96.001 9.706-.311 13.679-.906a11.757 11.757 0 0 1 8.583-15.055 11.734 11.734 0 0 0-.505-.591c-.98-1.071-2.032-1.81-3.18-2.273a7.886 7.886 0 0 0-1.513-.44c-.12-.024-.533-.105-.58-.116a13.934 13.934 0 0 0-1.877-.286 44.979 44.979 0 0 0-1.855-.128c-.976-.057-1.628-.108-2.139-.182-1.273 2.412-5.668 3.86-10.614 3.86-4.943 0-9.339-1.448-10.613-3.859-.512.074-1.168.126-2.15.183zM24.23 70.16c-.752-1.411-.915-3.127-.455-4.71 1.055-3.624 2.485-6.313 4.216-8.203 1.187-1.296 2.46-2.16 3.797-2.699a9.596 9.596 0 0 1 1.467-.456c.25-.057.831-.168.871-.177a15.671 15.671 0 0 1 2.11-.322c.528-.05.855-.071 1.902-.132 1.536-.089 2.202-.161 2.749-.331l.745-.233.094.776c.216 1.803 4.278 3.462 9.273 3.462 4.996 0 9.058-1.658 9.274-3.462l.093-.774.745.23c.546.17 1.21.24 2.74.33 1.053.06 1.382.082 1.915.132.795.075 1.479.177 2.106.324.04.009.622.12.873.177a9.59 9.59 0 0 1 1.466.457c1.339.539 2.612 1.404 3.8 2.702a14.787 14.787 0 0 1 1.639 2.183l.568.915-1.074.077c-5.238.373-9.326 4.743-9.326 10.024 0 1.454.309 2.863.898 4.157l.348.766-.83.144c-4.406.76-9.77 1.135-15.235 1.134-13.689.003-24.427-2.071-26.77-6.491z"/>
    </g>
</svg>
