<svg xmlns="http://www.w3.org/2000/svg" width="102" height="102" viewBox="0 0 102 102">
    <g fill="none" fill-rule="evenodd">
        <g fill="#006EB7">
            <path d="M41.625 69.6c-8.735 0-15.975-2.063-15.975-5.35V33c0-3.287 7.24-5.35 15.975-5.35S57.6 29.713 57.6 33v22.254c.668-.039.848-.048 1.197-.064.577-.027 1.082-.04 1.578-.04 8.735 0 15.975 2.063 15.975 5.35V73c0 3.287-7.24 5.35-15.975 5.35S44.4 76.287 44.4 73v-3.503c-1.258.075-1.957.103-2.775.103zM27.6 39.25c0 1.528 6.267 3.4 14.025 3.4s14.025-1.872 14.025-3.4v-3.53c-2.737 1.654-8.202 2.63-14.025 2.63-5.828 0-11.29-.974-14.025-2.63v3.53zm14.025 5.35c-5.823 0-11.288-.976-14.025-2.63v3.53c0 1.528 6.267 3.4 14.025 3.4s14.025-1.872 14.025-3.4v-3.53c-2.737 1.654-8.202 2.63-14.025 2.63zM27.6 48.22v3.53c0 1.528 6.267 3.4 14.025 3.4s14.025-1.872 14.025-3.4v-3.53c-2.737 1.654-8.202 2.63-14.025 2.63-5.828 0-11.29-.974-14.025-2.63zm0 16.03c0 1.528 6.267 3.4 14.025 3.4.81 0 1.504-.029 2.775-.104v-4.299c-1.258.075-1.957.103-2.775.103-5.828 0-11.29-.975-14.025-2.63v3.53zm18.75 2.5c0 1.528 6.267 3.4 14.025 3.4S74.4 68.278 74.4 66.75v-3.53c-2.737 1.654-8.202 2.63-14.025 2.63-5.828 0-11.29-.975-14.025-2.63v3.53zm0 6.25c0 1.528 6.267 3.4 14.025 3.4 7.759 0 14.025-1.872 14.025-3.4v-3.467c-2.737 1.655-8.201 2.63-14.025 2.63-5.798 0-11.283-.995-14.025-2.659V73zm3.332-16.574c-2.41.437-5.19.674-8.057.674-5.828 0-11.29-.975-14.025-2.63V58c0 1.528 6.267 3.4 14.025 3.4.82 0 1.602-.032 2.775-.103V60.5c0-1.758 1.985-3.144 5.282-4.074zm2.597-.591c-.935.17-1.804.367-2.597.59a28.282 28.282 0 0 0 2.597-.59zm3.371-.465v-.9c-.872.527-2.021.985-3.37 1.365a42.636 42.636 0 0 1 3.37-.465z"/>
            <path d="M75.35 60.5c0 2.025-6.601 3.85-14.85 3.85-8.249 0-14.85-1.825-14.85-3.85 0-2.025 6.601-3.85 14.85-3.85 8.249 0 14.85 1.825 14.85 3.85zM41.5 28.65c8.23 0 14.85 2.091 14.85 4.35 0 2.259-6.619 4.35-14.85 4.35S26.65 35.259 26.65 33c0-2.259 6.619-4.35 14.85-4.35z"/>
            <path d="M51 102C22.833 102 0 79.167 0 51S22.833 0 51 0s51 22.833 51 51-22.833 51-51 51zm0-2c27.062 0 49-21.938 49-49S78.062 2 51 2 2 23.938 2 51s21.938 49 49 49z"/>
        </g>
        <path fill="#7FB6DB" d="M74.65 60.5c0-1.4-6.333-3.15-14.15-3.15S46.35 59.1 46.35 60.5s6.333 3.15 14.15 3.15 14.15-1.75 14.15-3.15zM41.5 29.35c-7.834 0-14.15 1.995-14.15 3.65 0 1.655 6.316 3.65 14.15 3.65 7.834 0 14.15-1.995 14.15-3.65 0-1.655-6.316-3.65-14.15-3.65z"/>
    </g>
</svg>
