<?xml version="1.0" standalone="no"?>
<!DOCTYPE svg PUBLIC "-//W3C//DTD SVG 1.1//EN" "http://www.w3.org/Graphics/SVG/1.1/DTD/svg11.dtd" >
<svg xmlns="http://www.w3.org/2000/svg" xmlns:xlink="http://www.w3.org/1999/xlink" version="1.1">
<metadata></metadata>
<defs>
<font id="kg_fall_for_youregular" horiz-adv-x="260" >
<font-face units-per-em="2048" ascent="1638" descent="-410" />
<missing-glyph horiz-adv-x="622" />
<glyph horiz-adv-x="0" />
<glyph unicode="&#xd;" horiz-adv-x="622" />
<glyph unicode=" "  horiz-adv-x="622" />
<glyph unicode="&#x09;" horiz-adv-x="622" />
<glyph unicode="&#xa0;" horiz-adv-x="622" />
<glyph unicode="!" horiz-adv-x="274" d="M72 346l12 1104q6 18 22 26t35 8t36 -8t23 -26l-12 -1132q-8 -2 -25 -4t-36 -1t-35 9t-20 24zM78 75q0 11 6 24t19 24t37 17q36 -2 48 -19t8 -38t-19 -41t-34 -27t-37 1t-26 44q-2 4 -2 15z" />
<glyph unicode="&#x22;" horiz-adv-x="506" d="M58 1260q-2 18 9 36t29 28t39 11t39 -17q14 -104 22 -194t2 -152t-31 -88t-79 -2zM258 1252q-2 18 9 36t29 28t39 11t39 -17q14 -108 23 -200t2 -154t-33 -86t-78 4z" />
<glyph unicode="#" horiz-adv-x="1236" d="M48 734v116h316l-12 328q0 20 20 35t44 17t45 -14t25 -58q2 -20 6 -57t7 -77t6 -76t5 -56h290q-2 16 -3 57t-1 88t1 88t3 57q2 28 22 43t44 18t43 -5t19 -28l12 -312l200 12q64 -18 36 -104q-12 -22 -37 -32t-55 -15t-60 -7t-52 -4q-2 -10 -5 -36t-1 -54t9 -51t25 -27 q6 -2 31 0t54 5t54 6t31 1q26 -6 40 -24t15 -39t-10 -43t-35 -36l-178 8v-230q0 -24 -20 -39t-45 -19t-45 3t-20 27v228q-18 26 -73 27t-114 -6t-107 -17t-54 -4v-230h-116v230l-304 28q-42 22 -37 57t57 51l240 10v160h-316zM538 574l65 -5t80 -1t80 9t65 25v146 q-20 2 -61 4t-86 0t-85 -9t-58 -25v-144z" />
<glyph unicode="$" horiz-adv-x="926" d="M54 925q2 75 39 146t108 133t173 102q4 6 11 40t14 74t12 74t9 42q14 40 42 45t80 -11q20 -16 22 -43t-4 -58t-14 -64t-8 -60t14 -46t54 -21l288 -116q18 -6 18 -28t-10 -43t-28 -36t-38 -9q-22 6 -54 24t-67 36t-69 32t-62 11t-45 -27t-17 -80q0 -16 -2 -61t-3 -96 t-2 -96t3 -61q200 -102 293 -188t89 -164t-102 -154t-280 -162v-166q-12 -14 -35 -24t-46 -11t-40 9t-17 38v128q-28 24 -59 40t-68 39t-78 57t-89 94q-8 18 -8 39t7 39t22 29t37 9l230 -198v400q-110 28 -182 81t-106 120t-32 142zM215 913q-1 -49 15 -87t52 -59t92 -11 q0 92 5 194t-5 200q-50 -16 -85 -55t-54 -86t-20 -96zM548 234q182 76 186 159t-186 161v-320z" />
<glyph unicode="%" horiz-adv-x="1446" d="M157 1050q11 72 51 140t98 114t129 61t145 -17q104 -48 143 -122t29 -152t-59 -150t-119 -117t-153 -53t-159 44q-70 46 -93 113t-12 139zM267 1012q3 -50 53 -98q28 -28 64 -35t72 4t69 35t55 56t31 69t-3 73q-18 56 -61 77t-91 15t-94 -34t-72 -70t-23 -92zM508 40 q-4 18 14 48l492 1186q10 26 34 32t46 -4t35 -33t1 -53l-516 -1186q-22 -12 -45 -16t-40 2t-21 24zM930 255q10 63 39 125t68 108t86 65t93 -3q86 -38 129 -100t50 -129t-19 -131t-81 -105t-134 -53t-177 26q-42 28 -53 81t-1 116zM1054 230q0 -36 18 -56q16 -36 60 -37 t82 29t55 87t-19 135q-26 42 -54 48t-53 -11t-46 -51t-32 -71t-11 -73z" />
<glyph unicode="&#x26;" horiz-adv-x="956" d="M56 317q2 65 36 127t97 113t151 79q-114 94 -143 187t3 174t114 144t190 97q0 2 -1 33t4 71t17 77t38 51q8 4 22 1t29 -8t26 -12t11 -11v-202q0 -16 23 -28t57 -23t72 -24t67 -34t42 -50t-1 -73q-12 -36 -36 -41t-54 7t-62 33t-59 39t-45 26t-20 -8l-46 -354l194 -52 q18 -22 23 -49t-3 -50t-27 -39t-47 -16q-4 0 -25 4t-45 9t-45 10t-23 7l-42 -292q6 2 23 11t35 18t35 17t23 12q72 42 118 43t67 -17t18 -44t-29 -40l-290 -144q-2 0 -4 -28t-9 -67t-19 -79t-31 -64t-46 -25t-65 41q-6 6 -5 35t5 64t8 66t6 41q-116 0 -190 33t-109 86 t-33 118zM182 349q-12 -43 5 -78t67 -58t140 -19l46 328q-66 -2 -121 -28t-90 -64t-47 -81zM340 962q-18 -54 3 -117t105 -117l52 368q-50 -4 -96 -42t-64 -92z" />
<glyph unicode="'" d="M40 762q-2 36 0 79t10 87t26 75t46 43t70 -8l-2 -298q0 -30 -20 -53t-46 -31t-49 3t-31 51q-2 16 -4 52z" />
<glyph unicode="(" horiz-adv-x="568" d="M50 590q0 144 23 283t69 266t112 225q26 32 53 64t58 49t70 12t87 -43q-90 -80 -163 -209t-118 -281t-57 -312t21 -303t116 -253t227 -162q-4 -30 -15 -58t-36 -41t-69 -3t-114 60q-90 74 -148 186t-87 244t-29 276z" />
<glyph unicode=")" horiz-adv-x="488" d="M-50 -74q144 52 227 162t116 253t21 303t-57 312t-118 281t-163 209q48 38 86 43t70 -12t59 -49t53 -64q64 -98 111 -225t70 -266t23 -283t-29 -276t-87 -244t-148 -186q-70 -50 -114 -60t-69 3t-36 41t-15 58z" />
<glyph unicode="*" horiz-adv-x="1096" d="M138 882q12 22 34 31t48 10t51 -4t41 -7q-6 8 -30 39t-42 67t-20 71t34 53q26 12 64 -22t77 -83t72 -96t47 -59v290q40 20 65 9t40 -37t24 -59t15 -57q18 34 61 56t83 25t62 -15t-2 -66q-10 -18 -34 -38t-46 -42t-35 -46t-1 -48q10 -2 44 -11t76 -22t82 -30t59 -35t9 -38 t-68 -38q-28 -10 -56 -5t-58 14t-60 16t-58 3q-12 -24 6 -44t50 -40t71 -40t68 -44t42 -54t-5 -66q-4 -8 -26 -19t-32 -9q-8 6 -28 18t-43 26t-44 26t-29 16q-16 6 -44 6t-28 -6v-202q0 -6 -21 -15t-45 -14t-45 0t-21 29v316q-28 -34 -64 -76t-72 -66t-68 -17t-56 73 q12 12 32 36t43 52t42 59t27 55q-8 6 -36 15t-64 20t-75 25t-68 32t-43 38t-2 44z" />
<glyph unicode="+" horiz-adv-x="902" d="M88 707q-2 25 6 45t26 20l268 6v252q0 18 23 26t50 8t50 -8t23 -26l6 -246l290 -14q6 -4 10 -21t4 -38t-5 -40t-17 -23h-288l-6 -314q0 -16 -21 -25t-45 -11t-45 6t-21 30l6 314l-282 -6q-14 0 -22 20t-10 45z" />
<glyph unicode="," horiz-adv-x="328" d="M72 -166q20 30 39 75t25 95t-5 100t-51 90q14 36 39 44t52 -8t50 -52t33 -89t0 -120t-48 -143q-16 -30 -35 -47t-38 -18t-36 16t-25 57z" />
<glyph unicode="-" horiz-adv-x="816" d="M102 629q0 13 2 28t3 28t3 17q30 -4 95 1t143 10t157 7t136 -6t81 -31t-6 -69q-220 0 -342 -1t-182 -2t-74 -1t-14 4q-2 2 -2 15z" />
<glyph unicode="." horiz-adv-x="246" d="M43 93q7 29 30 44t52 12t49 -33q16 -24 7 -51t-30 -45t-47 -19t-44 29q-24 34 -17 63z" />
<glyph unicode="/" horiz-adv-x="824" d="M43 30q-7 26 5 78l644 1306q8 28 32 34t46 -4t35 -34t3 -54l-654 -1322q-22 -24 -45 -35t-41 -3t-25 34z" />
<glyph unicode="0" horiz-adv-x="968" d="M66 786q14 156 62 294t125 243t175 149q100 30 178 2t135 -98t94 -173t53 -223t13 -247t-26 -245t-65 -218t-103 -164t-141 -85t-178 19q-130 64 -205 182t-103 263t-14 301zM177 805q-13 -125 3 -244t65 -222t133 -169q114 -38 192 -3t123 118t63 199t13 242t-28 247 t-60 213t-83 141t-96 29q-92 -38 -160 -122t-110 -194t-55 -235z" />
<glyph unicode="1" d="M44 58l10 1270q0 24 23 48t50 34t50 -1t23 -53l-10 -1326q0 -24 -23 -31t-50 -1t-50 22t-23 38z" />
<glyph unicode="2" horiz-adv-x="882" d="M58 1179q8 39 41 89t85 97t116 83t134 45t140 -17t134 -100q20 -42 29 -88t3 -110t-33 -150t-81 -207t-141 -281t-211 -372h550q18 0 25 -20t6 -45t-10 -45t-21 -20h-608q-58 -4 -84 22t-29 64t13 79t42 67q28 42 75 116t100 167t106 196t92 202t58 187t3 150 q-18 76 -57 92t-85 -2t-96 -61t-92 -87t-71 -78t-33 -36q-62 -16 -85 4t-15 59z" />
<glyph unicode="3" horiz-adv-x="702" d="M24 1064q-8 24 10 66q84 154 165 233t153 101t132 -6t102 -87t63 -141t14 -170t-44 -173t-111 -151q100 -64 131 -159t11 -194t-80 -189t-142 -145t-175 -63t-179 56q-28 8 -29 31t9 47t25 45t19 27q72 -46 137 -49t117 25t88 78t54 107t14 114t-34 98t-89 59t-149 -2 q-2 8 -3 26t-1 36t1 33t3 19q4 12 37 37t77 59t88 79t72 98t28 113t-44 128q-30 46 -64 55t-69 -7t-69 -51t-64 -75t-55 -82t-41 -70q-12 -4 -35 -3t-44 12t-29 35z" />
<glyph unicode="4" horiz-adv-x="976" d="M59 723q5 23 23 35q108 40 191 126t147 186t115 196t96 156t87 66t90 -74l-6 -646q68 12 97 3t37 -27t5 -41t1 -41q0 -16 -20 -21t-47 -4t-52 3t-33 2l6 -622q0 -18 -18 -26t-41 -8t-44 9t-27 25l-18 614l-508 -12q-30 0 -50 16t-28 39t-3 46zM342 758q80 -8 160 1 t158 29q6 36 13 100t13 135t8 138t-2 107q-46 -164 -133 -283t-217 -227z" />
<glyph unicode="5" horiz-adv-x="882" d="M90 136q6 28 32 38q64 -18 141 -10t152 37t140 77t105 110t46 137t-36 157q-40 58 -109 70t-149 6t-162 -17t-148 1q-2 12 -2 63v122v152t1 152t0 122t-1 63q56 44 153 57t197 12t183 -7t109 -2q6 -8 23 -25t22 -35t-12 -36t-77 -29t-176 -13t-308 12l6 -468 q158 26 263 21t171 -30t99 -62t45 -75q46 -136 30 -247t-73 -196t-144 -143t-180 -85t-183 -22t-154 43q-10 22 -4 50z" />
<glyph unicode="6" horiz-adv-x="748" d="M56 364q-6 124 16 272t55 297t70 288t61 247l132 -4l-188 -750q140 102 240 118t162 -26t89 -126t22 -184t-40 -200t-96 -172t-148 -103t-195 9q-92 32 -133 121t-47 213zM192 361q-4 -79 32 -161q50 -52 102 -56t100 25t87 83t63 117t29 129t-15 118q-30 56 -78 70 t-101 -4t-103 -65t-81 -112t-35 -144z" />
<glyph unicode="7" horiz-adv-x="756" d="M44 1364q-2 24 8 43t34 17l628 16l-192 -1382q-4 -18 -21 -27t-36 -8t-36 10t-23 25q0 2 5 74t22 224t46 389t75 571q-14 0 -49 -1t-81 -4t-97 -6t-97 -4t-81 -2t-49 1q-26 0 -40 20t-16 44z" />
<glyph unicode="8" horiz-adv-x="882" d="M68 323q4 61 26 122t44 114t36 96t2 69q-78 170 -97 299t3 220t77 146t127 78t151 14t149 -46t122 -101t70 -150q14 -82 0 -150t-35 -120t-40 -84t-15 -40q96 -44 145 -112t60 -145t-13 -158t-73 -152t-119 -124t-153 -75t-175 -7t-184 81q-66 48 -89 106t-19 119z M194 1068q-2 -60 15 -116t57 -96q142 -26 229 7t123 95t28 136t-56 131t-131 79t-193 -20q-32 -42 -51 -99t-21 -117zM213 286q9 -58 53 -88q58 -50 130 -58t140 16t124 74t80 114t8 137t-90 143q-74 56 -145 54t-129 -39t-100 -100t-61 -129t-10 -124z" />
<glyph unicode="9" horiz-adv-x="776" d="M32 1012q-8 86 21 172t91 158t145 108t182 23t203 -99q28 -30 37 -111t7 -195t-13 -250t-21 -275t-16 -270t0 -233q-6 -30 -22 -35t-37 2t-43 18t-38 15q-2 34 -2 94t1 133t5 151t7 149t7 128t8 87q-176 -34 -288 -7t-169 89t-65 148zM177 1080q-7 -50 7 -92t56 -60 q94 -42 165 -30t116 53t63 103t10 122t-44 107t-102 61q-48 12 -93 -9t-82 -61t-63 -92t-33 -102z" />
<glyph unicode=":" horiz-adv-x="348" d="M117 291q7 29 30 44t52 12t49 -33q16 -24 7 -51t-30 -45t-47 -19t-44 29q-24 34 -17 63zM123 803q7 29 30 44t52 12t49 -33q16 -24 7 -51t-30 -45t-47 -19t-44 29q-24 34 -17 63z" />
<glyph unicode=";" horiz-adv-x="360" d="M89 571q7 29 30 44t52 12t49 -33q16 -24 7 -51t-30 -45t-47 -19t-44 29q-24 34 -17 63zM112 -234q20 30 39 75t25 95t-5 100t-51 90q14 36 39 44t52 -8t50 -52t33 -89t0 -120t-48 -143q-16 -30 -35 -47t-38 -18t-36 16t-25 57z" />
<glyph unicode="&#x3c;" horiz-adv-x="954" d="M186 529q-28 35 4 89q30 24 82 65t109 85t110 84t83 62q20 16 62 21t75 -2t42 -26t-33 -51q-26 -18 -77 -53t-106 -73t-106 -73t-77 -55l400 -226q26 -18 32 -42t-4 -44t-33 -30t-53 0q-126 74 -233 119t-178 80t-99 70z" />
<glyph unicode="=" horiz-adv-x="968" d="M202 375q0 13 2 28t3 28t3 17q30 -4 95 1t143 10t157 7t136 -6t81 -31t-6 -69q-220 0 -342 -1t-182 -2t-74 -1t-14 4q-2 2 -2 15zM204 631q0 13 2 28t3 28t3 17q30 -4 95 1t143 10t157 7t136 -6t81 -31t-6 -69q-220 0 -342 -1t-182 -2t-74 -1t-14 4q-2 2 -2 15z" />
<glyph unicode="&#x3e;" horiz-adv-x="882" d="M154 334q6 24 32 42l400 226q-26 20 -77 55t-106 73t-106 73t-77 53q-42 32 -33 51t42 26t74 2t63 -21q30 -22 83 -62t110 -84t109 -85t82 -65q32 -32 5 -62t-98 -69t-178 -93t-235 -134q-30 -10 -53 0t-33 30t-4 44z" />
<glyph unicode="?" horiz-adv-x="710" d="M112 1323q0 17 8 21q64 38 139 47t148 -4t135 -47t99 -83t42 -109t-36 -125t-136 -133t-257 -134q44 -54 61 -111t11 -97t-33 -54t-71 20q0 44 -22 91t-44 89t-32 78t12 60q74 30 156 76t146 96t98 100t10 86t-117 52t-283 2q-8 0 -16 13t-13 31t-5 35zM204 30 q-16 60 19 91t97 13q26 -12 29 -32t-8 -39t-32 -35t-42 -23t-39 -2t-24 27z" />
<glyph unicode="@" horiz-adv-x="1202" d="M44 784q4 148 55 277t148 225t245 132q64 16 140 6t149 -38t135 -72t98 -98q66 -70 99 -168t34 -198t-29 -189t-91 -143t-151 -60t-210 62q-40 -26 -75 -52t-71 -39t-78 -6t-94 45q-68 52 -88 126t-4 150t63 146t111 113t141 50t153 -41q44 -28 58 -78t15 -108t0 -117 t13 -101q68 -14 113 10t68 72t23 113t-20 134t-60 135t-100 115t-138 74t-174 13q-114 -20 -188 -95t-112 -180t-42 -228t23 -240t82 -214t137 -151t187 -50t231 88q58 -62 37 -112t-92 -77t-173 -26t-206 41q-122 76 -205 199t-122 265t-35 290zM370 665q-4 -55 36 -87 q44 -30 86 -12t75 61t54 100t22 105t-21 77t-72 17q-38 -10 -80 -54t-69 -98t-31 -109z" />
<glyph unicode="A" horiz-adv-x="1026" d="M46 34l128 574q8 28 -2 60t-15 61t8 51t67 30q24 92 37 162t24 136t24 137t37 165q12 44 38 62t58 18t63 -15t55 -33q14 -32 32 -72t43 -102t59 -156t78 -235t101 -340t129 -471q-32 -46 -58 -46q-5 0 -10 2q-30 10 -54 58t-43 121t-35 148t-30 138t-26 91h-464 q-26 -92 -39 -182t-23 -166t-21 -135t-29 -89t-49 -26t-83 54zM328 716q38 2 86 2h98t98 1t86 5l-214 632z" />
<glyph unicode="B" horiz-adv-x="802" d="M68 1400q100 66 202 71q12 1 23 0q88 0 163 -33q84 -38 143 -109t73 -157q4 -22 3 -43q0 -65 -31 -132q-42 -89 -156 -163q116 -18 183 -78t94 -142q20 -60 20 -126q0 -24 -3 -49q-10 -93 -50 -179t-106 -155t-150 -101q-57 -22 -121 -22q-30 0 -62 5q-99 15 -205 95z M208 1298l12 -482q130 50 200 115t93 130q13 37 13 73q0 26 -7 51q-17 59 -62 96t-110 45q-12 1 -24 1q-54 0 -115 -29zM220 251q0 -53 2 -71q58 -50 119 -57q13 -2 26 -2q47 0 90 20q55 25 97 76t64 117q19 56 19 118q0 11 -1 23q-4 75 -44 149q-40 62 -104 83 q-40 13 -78 13q-24 0 -46 -5q-60 -13 -103 -57q-41 -42 -41 -104v-6v-71v-113v-113z" />
<glyph unicode="C" horiz-adv-x="882" d="M48 690v19q0 126 24 249q26 132 82 239t143 178t209 83q62 12 124 14q9 0 17 1q51 0 87 -11q42 -12 54 -42q3 -7 3 -16q0 -27 -29 -68q-72 16 -134 16q-64 0 -117 -17q-105 -33 -176 -110t-108 -185t-47 -226q-4 -47 -4 -94q0 -71 9 -141q15 -117 50 -211t89 -154 t120 -63h6q64 0 138 60q78 63 160 217q8 20 22 21t29 -12t28 -34t23 -41q-118 -180 -223 -264t-194 -93q-13 -1 -25 -1q-74 0 -134 47q-70 55 -120 152t-77 224t-29 263z" />
<glyph unicode="D" horiz-adv-x="1016" d="M112 323q2 155 7 324t8 350q1 78 1 157q0 106 -2 216q-2 9 -2 18q0 34 39 51q38 16 97 16q17 0 36 -1q84 -6 189 -41t202 -100t172 -163t103 -228q13 -68 13 -136q0 -54 -8 -108q-19 -122 -72 -232t-136 -201t-185 -149t-219 -78q-45 -8 -91 -8q-73 0 -148 20 q-4 104 -4 217v76zM260 146q10 0 20 -1q126 0 224 48q106 51 177 136t109 193t40 220v12q0 105 -32 206q-34 106 -105 183t-179 118q-75 28 -168 28q-41 0 -86 -5v-1138z" />
<glyph unicode="E" horiz-adv-x="868" d="M54 1017v79q0 119 4 240q0 48 37 80t97 50t137 23q48 3 97 3q29 0 58 -1q78 -3 153 -14t131 -27q20 -18 15 -42t-63 -44t-182 -27q-38 -2 -84 -2q-107 0 -260 11l10 -478q54 -4 116 -5h42q42 0 85 1q65 2 128 9t119 23q14 -10 28 -28t19 -37t-1 -38t-30 -31 q-72 -22 -145 -31t-140 -9t-127 7t-104 13l26 -562q6 -26 50 -34q29 -5 68 -5q19 0 40 1q64 4 140 16t144 24t119 20q41 6 59 6h8q18 -21 18 -41q0 -18 -15 -35q-31 -36 -99 -63t-162 -43t-186 -16t-171 18t-117 60q-16 156 -29 310t-22 308t-11 311z" />
<glyph unicode="F" horiz-adv-x="648" d="M50 1424q54 38 129 51t156 15q23 1 46 1q57 0 113 -4q78 -5 134 -5v-114l-454 -18q-1 -23 -1 -46q0 -46 3 -94q4 -72 8 -143t6 -140q1 -23 1 -45q0 -44 -3 -86l366 16q18 -6 26 -22t8 -35t-8 -36t-26 -23l-354 -28q-9 -71 -9 -148v-15q1 -85 2 -165q0 -40 0.5 -77.5 t-0.5 -72.5q-1 -70 -13 -117t-38 -65q-11 -8 -27 -8q-21 0 -49 14z" />
<glyph unicode="G" horiz-adv-x="928" d="M26 643v15q0 147 38 284q40 144 115 265t173 194t211 86q18 2 36 2q95 0 195 -59q0 -2 -8 -17t-17 -33t-17 -33t-10 -17q-62 16 -118 16t-105 -16q-99 -32 -171 -107t-118 -181t-65 -222q-13 -79 -13 -157q0 -37 3 -74q9 -115 47 -208t104 -151t162 -62q17 -6 35 -6 q25 0 51 12q44 20 82 61t66 99t42 121q10 44 10 88q0 18 -2 37q-6 62 -36 114q-6 18 -33 20t-63 -2t-75 -9q-19 -3 -36.5 -3t-32.5 3q-30 5 -45 23q-8 10 -8 28q0 14 5 34q4 8 31 19t67 20t88 15t95 6t87 -7t66 -25q17 -105 17 -199q0 -70 -9 -133q-22 -150 -78 -257 t-136 -165t-168 -58q-72 0 -136 28t-115 74t-89 108t-62 132q-58 142 -60 297z" />
<glyph unicode="H" horiz-adv-x="876" d="M72 1446q4 18 19 26t34 9t37 -1t26 -4l26 -648l456 14l-16 602q0 18 14 34t34 21t42 -3t36 -36q-8 -123 -8 -254q0 -39 1 -80q3 -174 15 -351t27 -348t29 -325q2 -24 3 -45t-10 -34t-36 -16q-6 -1 -13 -1q-23 0 -60 8q-2 20 -6 74t-9 127t-11 153t-11 153t-10 127t-7 74 l-460 -6q-6 -25 -6 -69q0 -17 1 -36q3 -71 7 -154t6 -170v-26q0 -71 -9 -128q-11 -67 -38 -104q-20 -27 -53 -27q-13 0 -28 4q6 116 6 242q0 47 -1 95q-3 177 -10 362t-13 372q-4 140 -4 278v91z" />
<glyph unicode="I" horiz-adv-x="246" d="M44 58q0 132 2 299t6 347t9 361t11 341q6 32 23 49t36 20t36 -7t21 -32q3 -72 3 -153t-3 -170q-6 -179 -13 -365t-13 -365q-4 -107 -4 -203q0 -64 2 -122q-6 -34 -20 -47t-31 -11t-35 18t-30 40z" />
<glyph unicode="J" horiz-adv-x="654" d="M30 460q6 42 34 56q9 4 19 4q25 0 61 -22q0 -154 53 -237t117 -91q7 -1 13 -1q56 0 104 63q53 70 53 220l-20 974q0 22 15 37t35 19t42 -2t36 -26q-4 -65 -4 -140q0 -37 1 -77q3 -119 9 -245t10 -252q2 -50 2 -99q0 -73 -4 -142q-6 -115 -25 -211t-60 -159t-107 -88 q-31 -12 -69 -12q-43 0 -95 15q-54 26 -98 78t-73 113t-42 122q-9 42 -9 75q0 15 2 28z" />
<glyph unicode="K" horiz-adv-x="854" d="M72 768v112q0 281 8 570q4 10 22 19t38 12t38 -4t22 -27q6 -52 6 -135v-174t-1 -179v-56q0 -52 1 -92l134 94l306 570q18 24 42 21t40 -22q17 -20 17 -55q0 -33 -29 -72q-14 -20 -39 -64t-54 -100t-62 -118t-64 -117t-56 -99t-41 -62l392 -658q20 -16 19 -43t-15 -50 t-36 -34t-46 5l-406 706l-92 -60l-8 -560q-12 -28 -33 -50t-42 -28t-37 9t-18 61q-4 344 -6 680z" />
<glyph unicode="L" horiz-adv-x="736" d="M41 1247v91q0 86 1 154q2 0 21 2t41 2t39 -6t17 -20l20 -1324h107t136 1t140 6t119 13q20 -6 29 -28t9 -47t-9 -45t-29 -20q-196 0 -317 -1h-57q-81 0 -133 2q-69 3 -94 13t-27 34q2 4 2 83t-2 202t-5 277t-5 311t-3 300z" />
<glyph unicode="M" horiz-adv-x="1350" d="M60 364q0 174 3 353t5 353q1 58 1 113q0 110 -3 207q10 68 40 81q10 4 21 4q23 0 51 -17q42 -26 93 -82t105 -126t105 -145t92 -138t70 -107t37 -50l456 626q40 43 66 43q6 0 11 -2q29 -11 45 -54t21 -106q4 -45 4 -84q0 -16 -1 -31q2 -32 4 -119t2 -201v-241t1 -241 t1 -201t2 -119q2 -11 2 -20q0 -27 -13 -43q-17 -21 -41 -26t-45 6t-23 33l-16 1204q-130 -190 -217 -307t-143 -179t-89 -77t-57 -2t-46 46t-56 69q-12 12 -39 51l-63 91t-77 110t-77 108t-64 86t-40 46l-20 -1222q-2 -22 -17 -30t-33 -6t-33 10t-19 18q-6 144 -6 318z" />
<glyph unicode="N" horiz-adv-x="996" d="M46 1376q6 42 17 64t29 28t42 -1t54 -23q38 -66 92 -168t114 -222l123 -246t119 -240t101 -206t71 -140q1 9 1 38v33q-1 57 -2 140t-4 186t-5 209t-4 208t-4 185t-3 139t-1 70q2 42 23 54t47 6t47 -23t25 -31q0 -22 -1 -89t-1 -164v-215v-240v-240t-1 -215t-1 -164 t-2 -89q-30 -14 -53 -18t-45 5t-45 33t-51 66q-42 62 -89 150t-96 189t-99 209t-99 210t-96 191t-89 155l14 -1184q-2 -12 -18 -21t-36 -9t-38 12t-22 40z" />
<glyph unicode="O" horiz-adv-x="848" d="M27 518q-2 39 -2 79q0 106 17 217q24 152 71 284t116 230t152 134q38 17 79 17q47 0 98 -23q94 -42 192 -188q42 -106 58 -251q9 -83 9 -168q0 -64 -5 -129q-12 -152 -54 -293t-116 -240t-182 -137q-45 -16 -95 -16q-72 0 -157 32q-86 68 -129 188t-52 264zM170 510 q4 -90 21 -165t53 -122t93 -60q15 -3 32 -4q47 0 107 27q80 78 128 184t69 222q17 94 17 188q0 22 -1 45q-5 117 -28 217t-62 174t-88 104q-28 17 -58 17q-23 0 -49 -10q-58 -23 -116 -117q-24 -58 -47 -141t-40 -177t-26 -193q-6 -69 -6 -133q0 -28 1 -56z" />
<glyph unicode="P" horiz-adv-x="802" d="M52 1384q162 90 290 98q19 1 36 1q105 0 185 -40q93 -47 148 -136t70 -193q5 -38 5 -76q0 -66 -16 -132q-26 -104 -97 -182t-189 -115q-65 -20 -145 -20q-65 0 -139 13l4 -494q-6 -90 -41 -106q-7 -3 -15 -3q-28 0 -60 47q-4 94 -5 222t-2 266l-2 276t-4 255t-8 202 t-15 117zM183 1162v-48q0 -49 1 -99q2 -75 9 -147t21 -134q68 -22 127 -22q31 0 59 6q82 18 137 68t85 122t31 147v5q0 72 -26 137q-27 67 -85 107t-146 43h-9q-85 0 -201 -51q-2 -62 -3 -134z" />
<glyph unicode="Q" horiz-adv-x="1042" d="M26 728q8 138 54 268t134 241t220 185q85 53 162 53q26 0 52 -6q100 -25 175 -116t122 -232t56 -304q2 -34 2 -68q0 -130 -27 -263q-34 -168 -118 -312q0 -6 17 -32t38 -57t39 -57t20 -30q10 -30 7 -58t-18 -45t-40 -17t-59 28l-21 21t-36 37t-35 37t-22 21 q-114 -45 -211 -45q-25 0 -48 3q-117 14 -207 79t-150 171t-87 233q-21 98 -21 202q0 31 2 63zM166 748q-5 -51 -5 -102q0 -55 6 -109q11 -103 45 -191t91 -145t139 -75q26 -6 56 -6q61 0 136 26q-26 30 -52 76t-49 95t-43 94t-32 73q32 50 61 55t54 -18t48 -63t44 -83 t41 -78t42 -45q30 4 57 64t47 153t28 207q4 54 4 106q0 60 -5 118q-9 110 -39 206t-88 152t-146 61h-12q-84 0 -200 -65q-64 -44 -112 -123t-77 -177t-39 -206z" />
<glyph unicode="R" horiz-adv-x="928" d="M44 1290q8 54 41 69q12 5 25 5q23 0 50 -16q40 20 73 42t65 41t68 35t82 26q19 2 36 1q89 0 145 -42q67 -51 96 -132q24 -67 24 -143q0 -16 -1 -32q-6 -94 -40 -172q-14 -32 -41 -63t-58 -61t-62 -58t-53 -54q68 -82 130 -168t112 -167t88 -154t58 -131q10 -18 7 -36 t-12 -33t-24 -28t-29 -19q-34 30 -72 101t-82 159t-95 178t-112 159t-131 101q-37 17 -78 17q-36 0 -74 -13l-12 -608q0 -32 -18 -57t-39 -33t-37 8q-14 14 -14 57v11q7 167 7 335q0 140 -5 281q-10 310 -18 594zM174 816q2 -4 26 -5t55 -1t61 1t44 5q92 32 151 85t89 116 t34 126q1 10 1 21q0 51 -17 93q-20 51 -60 82q-36 28 -88 28h-10q-58 -3 -130 -47t-156 -144v-360z" />
<glyph unicode="S" horiz-adv-x="762" d="M52 305q6 83 60 167q8 18 23 18t29 -12t23 -31t3 -37q-6 -42 -6 -77q0 -59 17 -96q27 -59 74 -76q22 -8 46 -8q28 0 59 11q58 20 103 66t68 112q12 35 12 73q0 33 -9 67q-8 34 -38 64t-73 64t-94 74t-102 94t-98 124t-81 164q-22 81 -22 147q0 35 6 66q18 89 69 139 t124 62q22 4 44 3q52 0 105 -19q76 -28 146 -98t114 -182q-10 -48 -29 -71t-37 -27t-34 5t-20 25q-58 108 -114 163t-101 69q-17 5 -32 5q-25 0 -46 -14q-33 -23 -45 -71q-6 -24 -6 -53t6 -64q12 -69 55 -147t120 -161t195 -161q76 -54 108 -124q31 -68 31 -140 q0 -76 -33 -149q-32 -71 -81 -125t-113 -87q-57 -29 -117 -29h-15q-20 -2 -40 -2q-71 0 -125 29q-69 37 -102 102q-28 55 -28 123q0 12 1 25z" />
<glyph unicode="T" horiz-adv-x="816" d="M31 1401q-1 25 11 46t38 23l808 8q38 -12 44 -46q2 -13 2 -26q0 -23 -6 -48l-380 -8l-12 -1302q8 12 1 -5t-25 -32t-43 -17h-2q-24 0 -53 40q-4 46 -6 126t-2 181t1 215t2 225t3 213t4 180t2 124v46l-338 -8q-24 0 -36 20t-13 45z" />
<glyph unicode="U" horiz-adv-x="956" d="M46 1136q2 102 10 181t22 119q8 26 26 34t37 4t34 -17t17 -27q-10 -76 -13 -193q-1 -44 -2 -90q0 -77 4 -159q5 -132 20 -268t42 -249t69 -190t99 -92q11 -3 24 -3q48 0 108 48q75 60 171 220q36 108 43 232q3 58 3 117q0 67 -4 136q-8 129 -21 259t-15 252q8 24 27 41 t40 21t39 -7t22 -41q8 -184 17 -340t16 -315t14 -334t13 -395q-10 -40 -33 -57t-46 -16t-37 22t-4 57l6 262q-44 -60 -86 -122t-90 -110t-107 -74q-38 -17 -85 -17q-25 0 -52 5q-66 10 -116 68t-87 147t-62 200t-40 231t-20 239q-4 85 -4 161q0 31 1 60z" />
<glyph unicode="V" horiz-adv-x="948" d="M18 1340q-10 22 0 50t26 49t35 29t27 -12l444 -1166l290 1156q12 24 26 32t29 5t29 -13t24 -20l-326 -1390q0 -16 -16 -34t-38 -26t-44 -1t-34 43z" />
<glyph unicode="W" horiz-adv-x="1244" d="M38 1378q-10 30 5 53t38 34t45 6t28 -35l208 -1176q70 162 127 340t75 354q6 18 23 27t36 9t35 -9t22 -27l290 -578q4 22 14 104t25 193t31 239t30 239t24 193t12 104q16 26 35 36t37 7t34 -19t24 -42q-18 -88 -36 -201t-34 -238t-29 -257t-23 -257t-16 -239t-6 -204 q-34 -18 -60 -18q-11 0 -21 3q-33 11 -60 52t-53 106t-59 144t-79 170t-112 183l-228 -660q-8 -14 -31 -21t-47 -5t-45 12t-23 30q-16 50 -36 148t-42 220t-43 260t-42 271t-40 250t-33 199z" />
<glyph unicode="X" horiz-adv-x="842" d="M6 1416q29 48 59 48q5 0 11 -2q36 -10 71 -62t70 -132t68 -164t64 -159t59 -117l322 626q14 30 31 32t31 -10t22 -35t2 -45q-16 -58 -59 -157t-94 -205t-98 -200t-71 -140q16 -46 59 -112t92 -139t95 -145t71 -129q19 -43 19 -75q0 -10 -2 -20q-8 -38 -66 -40l-368 542 q-26 -44 -59 -115t-67 -147t-69 -147t-68 -114t-63 -47h-4q-28 0 -50 54l308 652z" />
<glyph unicode="Y" horiz-adv-x="916" d="M12 1392q4 28 18 49t32 30t38 6t34 -21q6 -10 33 -49t63 -92t77 -113t78 -113t63 -92t34 -49q68 102 124 189t98 152t66 105l30 50q20 38 40 37t35 -20t22 -48t-1 -49q-8 -18 -34 -64t-62 -106t-76 -127t-76 -127t-63 -106t-35 -64l14 -718q-2 -20 -19 -34t-39 -19t-43 5 t-31 38l-2 732z" />
<glyph unicode="Z" horiz-adv-x="828" d="M22 1377q2 15 12 28t30 17q54 12 125 21t145 13t147 4t132 -4t98 -11t47 -19q16 -22 21 -45t-11 -57l-588 -1218q64 4 142 8t160 7t162 3t146 -4q12 -15 12 -28q0 -18 -24 -31q-42 -23 -121 -36t-180 -17q-67 -3 -129 -3q-31 0 -61 1q-89 2 -151 7t-64 13q-7 35 -7 67 q0 27 5 51q10 54 40 119t79 150t114 208t144 296t171 413h-39t-100 -1t-132 -2t-134 -1t-110 1t-57 3q-12 6 -19 19t-5 28z" />
<glyph unicode="[" horiz-adv-x="602" d="M123 1138q3 240 15 484q16 6 64 7t102 2t102 3t64 6q28 6 52 -6t35 -32t6 -43t-35 -35l-268 -8q2 -210 -6 -430t-13 -429t0 -398t33 -339l280 6q28 -36 25 -60t-30 -37t-71 -18t-95 -4t-104 6t-97 11q-22 188 -36 402t-20 443t-3 469z" />
<glyph unicode="\" horiz-adv-x="768" d="M21 1408q5 24 17 47t32 30t44 -29l628 -1356q2 -40 -23 -71t-71 -23l-626 1378q-6 0 -1 24z" />
<glyph unicode="]" horiz-adv-x="428" d="M-72 -114q-4 24 26 60l280 -6q8 62 12 165t6 234t1 282t-3 308t-2 312v295l-268 8q-30 12 -35 35t6 43t35 32t52 6q16 -4 64 -6t102 -3t102 -2t64 -7q12 -244 15 -484t-3 -469t-20 -443t-36 -402q-44 -6 -97 -11t-104 -6t-95 4t-71 18t-31 37z" />
<glyph unicode="^" horiz-adv-x="534" d="M114 690q36 56 56 78t33 39t27 44t38 97q14 42 47 24t69 -66t67 -112t41 -117t-7 -81t-77 0l-88 192l-104 -166q-8 -16 -28 -22t-40 2t-32 29t-2 59z" />
<glyph unicode="_" horiz-adv-x="942" d="M54 33q-10 27 7 54t53 46t74 7l626 -2q26 0 49 -20t31 -45t-4 -49t-54 -30l-718 8q-54 4 -64 31z" />
<glyph unicode="`" horiz-adv-x="328" d="M67 1143q5 21 25 27t46 -3t48 -31l80 -132q16 -42 -1 -64t-85 -10l-94 154q-24 38 -19 59z" />
<glyph unicode="a" horiz-adv-x="768" d="M32 401q12 91 62 190t148 197q44 46 101 62q38 11 77 10q19 0 39 -2q59 -8 115 -35t102 -69q14 -74 19 -155t8 -167t7 -176t14 -182q-34 -46 -58 -53t-41 11t-27 54t-15 76t-6 75t-1 51q-56 -118 -121 -182t-129 -81q-28 -7 -55 -7q-35 0 -68 12q-59 22 -101 74t-62 129 q-12 48 -12 102q0 32 4 66zM163 362q-4 -31 -4 -59q0 -44 10 -83q17 -64 73 -86q17 -7 34 -6q28 0 56 17q46 29 87 86t72 131t48 142q16 64 16 115v6q-1 53 -25 71q-47 35 -93 35q-16 0 -32 -4q-61 -17 -111 -72t-85 -135t-46 -158z" />
<glyph unicode="b" horiz-adv-x="788" d="M60 106q-1 36 -1 81t1 100q2 109 5 236t7 262t6 258t2 225t-4 164q12 20 31 35t40 20t39 0t30 -23l-28 -802q76 100 154 153t147 63q17 2 34 2q50 0 92 -22q57 -30 92 -98t42 -172q1 -21 1 -43q0 -88 -22 -197q-18 -64 -61 -126t-100 -111t-125 -81t-136 -37 q-11 -1 -22 -1q-56 0 -110 22q-64 26 -114 92zM188 140q57 -29 111 -30q12 0 24 2q65 8 119 45t96 96t69 126t36 135q4 31 4 58q0 34 -6 64q-11 54 -45 88q-32 32 -87 32h-7q-80 -14 -142 -84t-104 -164t-60 -195q-12 -65 -12 -118q0 -29 4 -55z" />
<glyph unicode="c" horiz-adv-x="736" d="M31 308q-2 23 -2 45q0 66 19 134q26 91 76 169t119 133t143 72q26 6 51 6q48 0 96 -21q73 -32 133 -128q2 -8 -3 -28t-16 -40t-28 -30t-37 2q-66 92 -132 101q-12 2 -24 2q-52 0 -97 -33q-55 -40 -95 -116t-54 -156q-6 -36 -6 -70q0 -42 9 -81q17 -71 75 -99 q60 -28 107 -29h6q43 0 79 13q38 14 69 38t60 46t56 37t59 11q16 -27 16 -54q0 -15 -5 -29q-13 -41 -51 -76t-91 -61t-111 -41t-111 -17h-12q-45 0 -77 14q-106 46 -159 122t-62 164z" />
<glyph unicode="d" horiz-adv-x="742" d="M32 255q-6 33 -6 69q0 77 27 167q39 131 163 263q64 66 150 71q10 1 21 0q75 0 149 -31l30 646q36 36 59 37h1q23 0 56 -33q-14 -222 -20 -380t-8 -276q-1 -47 -1 -90q0 -64 2 -117q3 -89 8 -173t12 -173t13 -207q0 -12 -15 -22t-35 -10t-39 13t-25 45q-6 26 -7 59t-1 64 t1 56t1 35q-62 -156 -147 -217q-73 -52 -142 -52q-11 0 -23 1q-80 10 -143 80t-81 175zM156 360q-2 -22 -3 -43q0 -49 14 -92q19 -61 75 -83q18 -7 36 -7l52 15q44 26 82 78t66 120t42 132q12 53 12 96q0 9 -1 18q-3 50 -27 68q-50 37 -96 37q-14 0 -27 -3q-59 -14 -107 -64 t-79 -124t-39 -148z" />
<glyph unicode="e" horiz-adv-x="728" d="M46 454q2 76 31 148t75 129t104 92t120 36h3q61 0 119 -41q60 -42 110 -136q43 -74 43 -129q0 -12 -2 -22q-11 -61 -57 -99t-115 -58t-135 -28t-116 -8h-58q12 -84 41 -129t67 -61q25 -11 54 -10q14 0 29 2q45 8 89 30t84 54t70 64q26 6 47 5t30 -14t1 -39t-38 -70 q-114 -88 -204 -122q-75 -28 -133 -28q-12 0 -24 1q-67 7 -113 47t-74 101t-39 135q-9 63 -9 127v23zM184 474q2 -18 30 -25q18 -4 40 -4q13 0 28 1q40 4 85 17t82 34t57 50q14 21 14 44q0 9 -2 19q-14 58 -47 87t-72 34q-9 1 -18 1q-31 0 -63 -13q-42 -17 -74 -52t-50 -84 q-12 -34 -12 -73q0 -18 2 -36z" />
<glyph unicode="f" horiz-adv-x="648" d="M40 824q12 4 32 5t45 1t52 1t51 5q-4 51 -4 100q0 74 9 142q15 114 47 202t79 141t102 59q6 1 12 1q49 0 102 -44q59 -49 115 -167q14 -28 4 -44t-30 -22t-42 -3t-32 15q-28 78 -60 104q-21 17 -40 17q-11 0 -21 -5q-29 -14 -54 -61t-41 -114t-20 -148q-1 -20 -1 -40 q0 -61 9 -121l252 20q30 0 40 -22t7 -46t-14 -42t-25 -10q-24 -2 -67 -6l-86 -8t-75 -8l-32 -4l8 -658q0 -36 -19 -50t-41 -11t-41 20t-21 41q-2 18 -2 68v116v140t-2 141t-5 119t-9 74l-208 -12q-38 19 -38 53q0 38 64 61z" />
<glyph unicode="g" horiz-adv-x="688" d="M29 366q1 92 32 184t92 162t150 105q53 21 117 21q43 0 92 -10q18 -4 37 -16t36 -28t29 -35t14 -37q-2 -356 -14 -623t-64 -420t-159 -179q-18 -4 -38 -4q-100 0 -257 108q-22 24 -22 55t17 50t49 18t78 -39q61 -53 105 -53h2q45 1 75 35t48 94t26 126t9 129v40 q0 37 -1 65q-114 -76 -200 -81q-9 -1 -17 -1q-75 0 -126 40q-57 44 -84 123q-26 76 -26 164v7zM157 376v-19q0 -51 13 -96q16 -53 52 -79q39 -28 72 -28q17 0 33 7q47 21 81 77t56 132t26 145q1 16 1 31q0 50 -10 87q-13 49 -45 49q-30 10 -57 10q-29 0 -56 -12 q-51 -22 -87 -69t-56 -110t-23 -125z" />
<glyph unicode="h" horiz-adv-x="776" d="M66 6l14 1430q18 24 41 31t42 1t33 -22t14 -36l-22 -780q110 152 199 201q58 32 106 32q25 0 48 -9q65 -26 108 -111t64 -199q19 -104 19 -222v-22q-2 -130 -24 -246q0 -22 -14 -34t-35 -12t-41 12t-32 42q8 64 13 153q3 56 3 112q0 34 -1 67q-3 90 -18 168t-46 118 q-25 32 -62 32q-9 0 -20 -2q-51 -10 -127 -96q-60 -80 -84 -163t-31 -157q-6 -65 -6 -121v-16v-11q0 -55 -9 -92q-10 -40 -38 -55q-11 -6 -29 -6q-26 0 -65 13z" />
<glyph unicode="i" d="M44 30q6 12 8 61t2 119t1 153t4 165t10 155t21 121t36 65t54 -13q1 -52 1 -121v-73q-1 -116 -5 -236t-8 -228t-8 -168q-8 -16 -23 -24t-33 -8t-35 7t-25 25zM94 1036q-2 2 7 20t24 32t35 11t40 -43q6 -30 -10 -41t-38 -11t-40 9t-18 23z" />
<glyph unicode="j" horiz-adv-x="294" d="M-330 -210q8 26 26 41t37 17t37 -10t24 -40q32 -72 72 -99q30 -20 60 -20l20 2q40 9 75 54t59 117q20 60 25 172q4 80 4 173q0 37 -1 76q-2 137 -9 287t-11 290l112 6q12 -178 24 -340t15 -301q1 -26 1 -51q0 -109 -11 -201q-13 -113 -49 -191q-50 -106 -118 -160 t-140 -54t-139 57t-113 175zM86 1190q-8 38 7 60t38 27t48 -9t39 -48q10 -28 -7 -47t-42 -25t-51 3t-32 39z" />
<glyph unicode="k" horiz-adv-x="662" d="M60 40q12 74 15 215q2 85 2 185q0 67 -1 142q-2 186 -6 405t-8 451q4 48 27 55t47 -4t39 -25t5 -8l6 -770q38 30 68 55t59 49t58 51t69 63q14 14 31 8t29 -23t19 -41t3 -46l-268 -228q28 -38 79 -102t106 -130t103 -121t72 -73q8 -8 17 -30t6 -45t-21 -40 q-15 -14 -46 -14q-7 0 -16 1l-368 442l2 -432q-40 -46 -76 -49h-3q-34 0 -49 59z" />
<glyph unicode="l" horiz-adv-x="280" d="M81 408q1 174 7 346t10 345q1 58 1 115q0 116 -5 232q6 24 25 32t39 3t36 -21t16 -42v-1388q0 -18 -16 -24t-37 -2t-39 18t-24 36q-13 164 -13 327v23z" />
<glyph unicode="m" horiz-adv-x="1242" d="M42 30q0 60 3 110t5 99t3 105t1 127t-2 164t-6 217q8 26 26 33t37 1t34 -23t19 -41v-200q30 128 98 192q59 55 124 55q10 0 20 -1q76 -10 146 -99t104 -267q36 114 93 202t121 131q50 34 99 33q14 0 27 -2q62 -12 110 -97t75 -254q20 -123 19 -301q0 -66 -2 -140 q0 -24 -19 -35t-41 -11t-41 10t-19 28v52q0 190 -13 313q-15 139 -40 207t-59 75q-6 1 -11 1q-29 0 -58 -30q-35 -36 -70 -106t-63 -155t-46 -177t-22 -172q-2 -30 -16 -44t-32 -15t-37 11t-27 34v30q0 212 -27 345q-29 143 -75 205q-39 52 -82 52q-8 0 -17 -2 q-53 -12 -101 -89t-82 -216t-40 -327q0 -26 -15 -42t-35 -21t-40 4t-26 31z" />
<glyph unicode="n" horiz-adv-x="782" d="M58 840q34 22 60 34q22 10 43 10t27 -22l-20 -248q82 140 152 201t129 64h7q55 0 100 -43q48 -46 84 -120t60 -166t36 -184t12 -171t-12 -127t-38 -55q-3 -1 -6 -1q-24 0 -58 48q0 226 -22 368t-58 217t-82 90q-15 5 -31 5l-61 -20q-46 -30 -88 -97t-71 -157t-42 -196 q-6 -51 -6 -102q0 -54 7 -108q-4 -18 -19 -30t-32 -15t-35 4t-28 27z" />
<glyph unicode="o" horiz-adv-x="708" d="M40 418v13q0 73 20 143q22 76 60 137t88 100t106 48q14 2 27 3q43 0 88 -22q59 -28 113 -104q80 -104 109 -214q21 -80 21 -152q0 -27 -3 -54q-11 -96 -57 -170t-115 -108q-50 -25 -109 -25q-23 0 -47 4q-87 13 -181 91q-62 68 -90 149t-30 161zM148 502q-4 -35 -4 -67 q0 -59 14 -110q22 -79 67 -129t108 -63q17 -4 35 -4q47 0 98 25q54 28 76 85q20 52 20 114v11q-2 68 -24 138t-57 126t-79 90q-36 28 -72 28q-9 0 -17 -2q-45 -8 -88 -64t-77 -178z" />
<glyph unicode="p" horiz-adv-x="702" d="M40 762v11q0 51 17 72q19 23 43 22t47 -20t29 -41q111 52 196 52q10 0 20 -1q92 -7 152 -58t89 -133q28 -79 28 -168v-6q-1 -92 -33 -183t-93 -160t-152 -103q-55 -21 -120 -21q-43 0 -89 9q-2 -27 -2 -61q0 -25 1 -54q3 -67 7 -133t9 -122t7 -84q-6 -16 -20 -33t-33 -25 t-39 -1t-36 39zM166 206q0 -40 2 -52q59 -18 108 -18q31 0 59 7q71 19 118 69t69 121q21 68 21 136v6q-1 71 -25 134t-70 97q-40 30 -98 30q-8 0 -17 -1q-69 -5 -159 -67q2 -14 1 -53t-2 -92t-3 -113t-3 -112t-1 -92z" />
<glyph unicode="q" horiz-adv-x="694" d="M49 438q11 102 50 196t102 155t148 72q12 2 25 2q75 0 164 -55q-6 4 1 18t21 26t31 16t31 -13t20 -61q3 -22 3 -53.5t-3 -72.5q-13 -277 -13 -474q0 -49 1 -93q4 -221 22 -350t45 -184t56 -68t57 -2t46 15q14 -22 20 -46t4 -45t-12 -38t-28 -23q-35 -11 -68 -11 q-29 0 -57 8q-61 17 -109 95t-77 226t-29 388q-111 -54 -193 -54q-16 0 -30 2q-91 12 -145 72t-74 155q-13 61 -13 125q0 36 4 72zM178 423q-3 -29 -3 -56q0 -45 8 -87q13 -68 50 -105q32 -32 83 -32q8 0 17 1q63 6 155 76q0 12 1 46t2 81t2 100t1 100t-1 82t-1 45 q-61 55 -113 55h-5q-54 -3 -95 -46t-67 -114t-34 -146z" />
<glyph unicode="r" horiz-adv-x="682" d="M54 842q22 30 50 30t50 -30l6 -234q30 86 74 147t99 89q47 24 103 24q10 0 20 -1q68 -5 146 -51q48 -28 57 -57t-3 -52t-33 -34t-29 -5q-78 62 -139 62h-4q-63 -2 -108 -48t-74 -125t-43 -168q-13 -83 -13 -165v-12q1 -88 15 -152q-4 -20 -17 -37t-32 -25t-41 -2t-42 34z " />
<glyph unicode="s" horiz-adv-x="682" d="M43 638q3 62 41 140q32 42 81 66t105 33q32 5 63 5l49 -3q56 -7 104 -27q10 -4 29 -21t39 -41t38 -51t26 -53t3 -48t-29 -32q-38 -26 -58 -23t-33 20t-25 43t-36 50t-66 38q-30 10 -74 10q-19 0 -40 -2q-62 -12 -76 -51q-7 -18 -6 -38q0 -22 8 -46q16 -45 50 -83t68 -46 q158 -38 239 -98t102 -125q9 -27 9 -53q0 -38 -18 -74q-30 -62 -95 -101t-157 -47q-15 -1 -31 -1q-78 0 -161 33q-68 60 -96 124q-26 60 -26 103v6q2 45 29 59q7 4 16 4q23 0 53 -28q26 -76 66 -118t82 -58q29 -11 58 -11q13 0 25 2q41 7 70 27t39 50q4 12 4 23q0 19 -10 39 q-4 18 -32 33t-70 32t-92 37t-98 47t-87 63t-61 83q-19 41 -19 94v15z" />
<glyph unicode="t" horiz-adv-x="628" d="M-4 851q0 21 21 41t69 26q16 2 45 4t57 3t49 2t21 3l16 514q47 29 73 29q6 0 10 -1q25 -8 37 -56l-4 -486q12 -6 42 -5t65 2h23q23 0 46 -1q34 -2 56 -14t25 -38v-5q0 -25 -25 -67h-232l-16 -742q-2 -34 -19 -47t-37 -12t-39 14t-23 31l24 750h-204q-38 0 -59 17t-21 38z " />
<glyph unicode="u" horiz-adv-x="756" d="M18 560v21q0 117 20 235q6 40 24 51t38 2t37 -30t23 -43q-13 -137 -13 -241q0 -52 3 -96q10 -131 39 -201t73 -87q19 -7 39 -8q26 0 53 13q48 22 95 75t85 123q18 32 24 94q4 46 4 98v35q-2 71 -8 139t-14 112q6 18 24 24t39 3t40 -14t25 -29l32 -810q-16 -32 -59 -35h-7 q-39 0 -80 29l4 172q-102 -114 -186 -149q-47 -20 -89 -20q-32 0 -60 12q-65 27 -110 104t-69 185t-26 236z" />
<glyph unicode="v" horiz-adv-x="816" d="M20 793q-1 11 -1 21q0 31 10 45q13 19 34 16t37 -19l348 -624q36 56 62 136t46 165t37 167t33 140q8 28 32 34t46 -4t35 -34t3 -54q-8 -22 -22 -73t-31 -118t-36 -141t-36 -141t-31 -119t-22 -74q-32 -92 -74 -92q-4 0 -9 1q-47 11 -113 101q-128 186 -201 317t-108 217 t-39 133z" />
<glyph unicode="w" horiz-adv-x="1056" d="M14 822q26 38 50 38q7 0 14 -3q30 -15 56 -72t49 -141t43 -171t38 -163t36 -116q10 16 30 69t46 119t57 133t61 110t60 50q3 1 7 1q26 0 47 -48l174 -388l118 594q8 30 30 36t44 -5t36 -35t6 -54l-148 -718q-4 -12 -20 -23t-35 -16t-36 -3t-23 14l-204 404 q-6 -16 -22 -53t-34 -79t-35 -78t-25 -50q-14 -36 -38 -76t-56 -64q-31 -23 -64 -23h-3q-35 1 -69 47z" />
<glyph unicode="x" horiz-adv-x="716" d="M-16 772q-6 36 9 57t38 29t48 4t37 -18l260 -290q4 6 19 29t36 55t44 67t44 67t36 55t21 29q16 18 40 12t44 -25t27 -47t-13 -54l-212 -334q-2 -2 12 -24l35 -55t47 -73t51 -77t45 -66t30 -39q-32 -54 -62 -54h-4q-32 4 -67 46t-77 112t-96 142q-76 -84 -124 -166 t-83 -129q-34 -46 -64 -46h-1q-30 1 -70 81l264 372z" />
<glyph unicode="y" horiz-adv-x="828" d="M12 819q6 25 28 34t53 0t55 -37q10 -14 36 -57t59 -101t69 -123t69 -122t58 -101t35 -58q6 14 23 58t38 103t46 125t47 125t39 102t25 55q16 32 41 38t46 -4t35 -30t8 -38l-528 -1396q0 -10 -20 -20t-45 -13t-49 9t-32 48l260 664l-376 678q-21 29 -21 51q0 5 1 10z" />
<glyph unicode="z" horiz-adv-x="788" d="M30 781q6 23 30 41q26 2 89 11t140 17t158 10h27q65 0 119 -8q65 -10 104 -36q32 -22 32 -58q0 -8 -1 -16q-20 -86 -86 -168t-148 -161t-164 -152t-136 -141q15 -5 41 -5q17 0 38 2q55 5 121 12t134 10q19 1 36 1q46 0 84 -6q52 -8 80 -33q19 -17 19 -44q0 -14 -5 -31 q-62 -6 -146 -13t-175 -12t-181 -8q-39 -1 -74 -1q-48 0 -90 2q-20 20 -29 54t-1 62q50 74 123 153t152 158l154 154t127 141l-508 -22q-22 0 -39 13t-24 32t-1 42z" />
<glyph unicode="{" horiz-adv-x="514" d="M23 558q-3 20 21 50q72 46 106 86t41 78t-7 75t-34 78t-41 87t-30 103t1 124t52 151q6 14 34 42t67 60t83 61t83 47t68 18t39 -28q22 -42 -5 -67t-75 -51t-102 -59t-88 -89t-33 -143t65 -219q26 -40 59 -48t61 -12t47 -19t19 -67q-10 -30 -30 -60t-46 -57t-53 -50 t-51 -41q56 -14 76 -45t17 -72t-22 -88t-42 -94t-40 -90t-17 -75q-24 -88 -12 -136t45 -72t80 -32t93 -14t85 -18t57 -46q16 -34 5 -52t-38 -25t-65 -6t-72 6t-60 11t-32 8q-84 42 -132 82t-70 81t-22 86t12 98t32 117t38 142q6 32 -8 54t-38 38t-52 29t-47 28t-22 35z" />
<glyph unicode="|" d="M61 408q1 174 7 346t10 345t-4 347q6 24 25 32t39 3t36 -21t16 -42v-1388q0 -18 -16 -24t-37 -2t-39 18t-24 36q-14 176 -13 350z" />
<glyph unicode="}" horiz-adv-x="622" d="M-29 -226q-11 18 5 52q18 34 57 46t85 18t93 14t80 32t44 72t-11 136q0 32 -17 75t-40 90t-42 94t-22 88t16 72t77 45q-24 18 -51 41t-53 50t-47 57t-29 60q0 52 19 67t47 19t60 12t60 48q64 132 65 219t-33 143t-88 89t-102 59t-75 51t-5 67q8 28 38 28t69 -18t83 -47 t83 -61t67 -60t34 -42q42 -84 52 -151t1 -124t-30 -103t-41 -87t-34 -78t-7 -75t41 -78t106 -86q24 -30 21 -50t-22 -35t-47 -28t-52 -29t-39 -38t-7 -54q18 -78 38 -142t32 -117t12 -98t-22 -86t-70 -81t-132 -82q-6 -2 -32 -8t-60 -11t-72 -6t-65 6t-38 25z" />
<glyph unicode="~" horiz-adv-x="936" d="M162 660q-8 36 12 70t55 60t78 40t84 11t73 -26t44 -73q8 -12 31 -31t50 -22t55 18t44 87q6 26 32 32t49 -2t33 -27t-14 -43q-20 -88 -67 -137t-101 -60t-103 14t-73 87q-38 58 -78 65t-72 -69q6 -14 0 -31t-20 -32t-33 -23t-36 -3t-29 27t-14 68z" />
<glyph unicode="&#xa1;" horiz-adv-x="274" d="M72 1068l12 -1104q6 -18 22 -26t35 -8t36 8t23 26l-12 1132q-8 2 -25 4t-36 1t-35 -9t-20 -24zM78 1339q0 -11 6 -24t19 -24t37 -17q36 2 48 19t8 38t-19 41t-34 27t-37 -1t-26 -44q-2 -4 -2 -15z" />
<glyph unicode="&#xa3;" horiz-adv-x="1042" d="M49 691q-9 23 41 42t178 25q10 84 33 181t60 188t89 168t118 124t148 54t180 -43l-54 -140q-44 36 -92 35t-95 -32t-91 -87t-77 -127t-53 -154t-22 -167q24 -2 71 9t101 24t108 23t91 4t50 -33t-15 -85l-400 -86q-12 -34 -19 -97t-11 -130t-6 -127t-6 -86q58 -6 134 -18 t156 -16t156 8t134 56q14 -6 23 -32t7 -58t-16 -64t-44 -50l-666 30q-40 6 -45 44t4 110t24 177t17 241q-88 18 -145 42t-66 47z" />
<glyph unicode="&#xa5;" horiz-adv-x="916" d="M12 1392q4 28 18 49t32 30t38 6t34 -21q6 -10 33 -49t63 -92t77 -113t78 -113t63 -92t34 -49q68 102 124 189t98 152t66 105l30 50q20 38 40 37t35 -20t22 -48t-1 -49q-8 -18 -34 -64t-62 -106t-76 -127t-76 -127t-63 -106t-35 -64l2 -116q58 0 108 -3t81 -15t41 -33 t-14 -55q-70 0 -117 -1t-97 -1l2 -148q56 2 104 -2t79 -16t40 -33t-13 -55q-66 0 -112 -1t-96 -1l6 -238q-2 -20 -19 -34t-39 -19t-43 5t-31 38l-2 248q-96 0 -151 -1t-83 -1h-35t-7 4q-2 2 -2 15t2 28t3 28t3 17q34 -4 108 2t162 10v154q-96 0 -151 -1t-82 -1h-34t-7 4 q-2 2 -2 15t2 28t3 28t3 17q34 -4 107 2t161 10v126z" />
<glyph unicode="&#xa8;" horiz-adv-x="542" d="M77 1013q7 29 30 44t52 12t49 -33q16 -24 7 -51t-30 -45t-47 -19t-44 29q-24 34 -17 63zM323 1013q7 29 30 44t52 12t49 -33q16 -24 7 -51t-30 -45t-47 -19t-44 29q-24 34 -17 63z" />
<glyph unicode="&#xad;" horiz-adv-x="816" d="M102 629q0 13 2 28t3 28t3 17q30 -4 95 1t143 10t157 7t136 -6t81 -31t-6 -69q-220 0 -342 -1t-182 -2t-74 -1t-14 4q-2 2 -2 15z" />
<glyph unicode="&#xaf;" horiz-adv-x="816" d="M94 963q0 13 2 28t3 28t3 17q30 -4 95 1t143 10t157 7t136 -6t81 -31t-6 -69q-220 0 -342 -1t-182 -2t-74 -1t-14 4q-2 2 -2 15z" />
<glyph unicode="&#xb4;" horiz-adv-x="328" d="M76 1004l80 132q20 22 47 31t47 3t25 -27t-19 -59l-94 -154q-68 -12 -85 10t-1 64z" />
<glyph unicode="&#xb8;" horiz-adv-x="634" d="M99 -298q3 36 31 43t70 -31q32 -74 71 -101t73 -22t60 33t30 62q8 66 -3 97t-32 42t-51 8t-61 -5t-62 3t-54 32t-36 83t-9 154l114 -6q-10 -82 5 -118t39 -45t48 -3t34 6q96 -2 143 -47t54 -109t-18 -134t-74 -118t-114 -63t-137 29q-68 60 -96 117t-25 93z" />
<glyph unicode="&#xbf;" horiz-adv-x="748" d="M89 268q-5 60 36 125t136 133t257 134q-44 54 -61 111t-11 97t33 54t71 -20q0 -44 22 -91t44 -89t32 -78t-12 -60q-74 -30 -156 -76t-146 -96t-98 -100t-10 -86t117 -52t283 -2q8 0 16 -13t13 -31t5 -35t-8 -21q-64 -38 -139 -47t-148 4t-135 47t-99 83t-42 109z M423 1314q-3 20 8 39t32 35t42 23t39 2t24 -27q16 -60 -19 -91t-97 -13q-26 12 -29 32z" />
<glyph unicode="&#xc0;" horiz-adv-x="1026" d="M46 34l128 574q8 28 -2 60t-15 61t8 51t67 30q24 92 37 162t24 136t24 137t37 165q12 44 38 62t58 18t63 -15t55 -33q14 -32 32 -72t43 -102t59 -156t78 -235t101 -340t129 -471q-38 -54 -68 -44t-54 58t-43 121t-35 148t-30 138t-26 91h-464q-26 -92 -39 -182t-23 -166 t-21 -135t-29 -89t-49 -26t-83 54zM328 716q38 2 86 2h98t98 1t86 5l-214 632zM423 1767q5 21 25 27t46 -3t48 -31l80 -132q16 -42 -1 -64t-85 -10l-94 154q-24 38 -19 59z" />
<glyph unicode="&#xc1;" horiz-adv-x="1026" d="M46 34l128 574q8 28 -2 60t-15 61t8 51t67 30q24 92 37 162t24 136t24 137t37 165q12 44 38 62t58 18t63 -15t55 -33q14 -32 32 -72t43 -102t59 -156t78 -235t101 -340t129 -471q-38 -54 -68 -44t-54 58t-43 121t-35 148t-30 138t-26 91h-464q-26 -92 -39 -182t-23 -166 t-21 -135t-29 -89t-49 -26t-83 54zM328 716q38 2 86 2h98t98 1t86 5l-214 632zM402 1628l80 132q20 22 47 31t47 3t25 -27t-19 -59l-94 -154q-68 -12 -85 10t-1 64z" />
<glyph unicode="&#xc2;" horiz-adv-x="1026" d="M46 34l128 574q8 28 -2 60t-15 61t8 51t67 30q24 92 37 162t24 136t24 137t37 165q12 44 38 62t58 18t63 -15t55 -33q14 -32 32 -72t43 -102t59 -156t78 -235t101 -340t129 -471q-38 -54 -68 -44t-54 58t-43 121t-35 148t-30 138t-26 91h-464q-26 -92 -39 -182t-23 -166 t-21 -135t-29 -89t-49 -26t-83 54zM256 1642q36 56 56 78t33 39t27 44t38 97q14 42 47 24t69 -66t67 -112t41 -117t-7 -81t-77 0l-88 192l-104 -166q-8 -16 -28 -22t-40 2t-32 29t-2 59zM328 716q38 2 86 2h98t98 1t86 5l-214 632z" />
<glyph unicode="&#xc3;" horiz-adv-x="1026" d="M46 34l128 574q8 28 -2 60t-15 61t8 51t67 30q24 92 37 162t24 136t24 137t37 165q12 44 38 62t58 18t63 -15t55 -33q14 -32 32 -72t43 -102t59 -156t78 -235t101 -340t129 -471q-38 -54 -68 -44t-54 58t-43 121t-35 148t-30 138t-26 91h-464q-26 -92 -39 -182t-23 -166 t-21 -135t-29 -89t-49 -26t-83 54zM182 1642q-8 36 12 70t55 60t78 40t84 11t73 -26t44 -73q8 -12 31 -31t50 -22t55 18t44 87q6 26 32 32t49 -2t33 -27t-14 -43q-20 -88 -67 -137t-101 -60t-103 14t-73 87q-38 58 -78 65t-72 -69q6 -14 0 -31t-20 -32t-33 -23t-36 -3 t-29 27t-14 68zM328 716q38 2 86 2h98t98 1t86 5l-214 632z" />
<glyph unicode="&#xc4;" horiz-adv-x="1026" d="M46 56l128 574q8 28 -2 60t-15 61t8 51t67 30q24 92 37 162t24 136t24 137t37 165q12 44 38 62t58 18t63 -15t55 -33q14 -32 32 -72t43 -102t59 -156t78 -235t101 -340t129 -471q-38 -54 -68 -44t-54 58t-43 121t-35 148t-30 138t-26 91h-464q-26 -92 -39 -182t-23 -166 t-21 -135t-29 -89t-49 -26t-83 54zM283 1665q7 29 30 44t52 12t49 -33q16 -24 7 -51t-30 -45t-47 -19t-44 29q-24 34 -17 63zM328 738q38 2 86 2h98t98 1t86 5l-214 632zM529 1665q7 29 30 44t52 12t49 -33q16 -24 7 -51t-30 -45t-47 -19t-44 29q-24 34 -17 63z" />
<glyph unicode="&#xc5;" horiz-adv-x="1026" d="M46 34l128 574q8 28 -2 60t-15 61t8 51t67 30q24 92 37 162t24 136t24 137t37 165q12 44 38 62t58 18t63 -15t55 -33q14 -32 32 -72t43 -102t59 -156t78 -235t101 -340t129 -471q-38 -54 -68 -44t-54 58t-43 121t-35 148t-30 138t-26 91h-464q-26 -92 -39 -182t-23 -166 t-21 -135t-29 -89t-49 -26t-83 54zM300 1692q6 58 38 96t78 56t97 16t94 -22t72 -58t31 -92q4 -50 -24 -88t-72 -60t-98 -26t-100 13t-79 57t-37 108zM328 716q38 2 86 2h98t98 1t86 5l-214 632zM396 1680q-4 -20 20 -41t60 -29t78 5t76 59q8 38 -8 61t-42 32t-59 6t-61 -15 t-47 -33t-17 -45z" />
<glyph unicode="&#xc6;" horiz-adv-x="1730" d="M62 42l232 572q12 26 7 59t-4 62t18 51t71 28q40 90 66 160t48 136t48 136t66 164q20 44 50 62t61 17t60 -16t49 -35q10 -40 24 -92t32 -144q2 26 2 51t2 51q0 48 37 80t97 50t137 23t155 2t153 -14t131 -27q20 -18 15 -42t-63 -44t-182 -27t-344 9l10 -478q54 -4 116 -5 t127 1t128 9t119 23q14 -10 28 -28t19 -37t-1 -38t-30 -31q-72 -22 -145 -31t-140 -9t-127 7t-104 13l26 -562q6 -28 50 -35t108 -3t140 16t144 24t119 20t67 6q30 -36 6 -70t-82 -60t-141 -44t-170 -22t-167 5t-134 37q-38 -26 -60 -2t-34 76t-16 123t-6 140t-4 127t-10 84 l-464 10q-42 -92 -71 -181t-53 -165t-44 -134t-44 -88t-55 -25t-73 55zM464 718q38 2 87 1t98 -3t97 -2t88 2l-102 638z" />
<glyph unicode="&#xc7;" horiz-adv-x="882" d="M48 690q-2 136 24 268t82 239t143 178t209 83q62 12 124 14t104 -10t54 -42t-26 -84q-146 32 -251 -1t-176 -110t-108 -185t-47 -226t5 -235t50 -211t89 -154t120 -63t144 60t160 217q8 20 22 21t29 -12t28 -34t23 -41q-118 -180 -223 -264t-194 -93t-159 46t-120 152 t-77 224t-29 263zM313 -306q3 36 31 43t70 -31q32 -74 71 -101t73 -22t60 33t30 62q8 66 -3 97t-32 42t-51 8t-61 -5t-62 3t-54 32t-36 83t-9 154l114 -6q-10 -82 5 -118t39 -45t48 -3t34 6q96 -2 143 -47t54 -109t-18 -134t-74 -118t-114 -63t-137 29q-68 60 -96 117 t-25 93z" />
<glyph unicode="&#xc8;" horiz-adv-x="868" d="M54 1017q-2 157 4 319q0 48 37 80t97 50t137 23t155 2t153 -14t131 -27q20 -18 15 -42t-63 -44t-182 -27t-344 9l10 -478q54 -4 116 -5t127 1t128 9t119 23q14 -10 28 -28t19 -37t-1 -38t-30 -31q-72 -22 -145 -31t-140 -9t-127 7t-104 13l26 -562q6 -26 50 -34t108 -4 t140 16t144 24t119 20t67 6q34 -40 3 -76t-99 -63t-162 -43t-186 -16t-171 18t-117 60q-16 156 -29 310t-22 308t-11 311zM345 1767q5 21 25 27t46 -3t48 -31l80 -132q16 -42 -1 -64t-85 -10l-94 154q-24 38 -19 59z" />
<glyph unicode="&#xc9;" horiz-adv-x="868" d="M54 1017q-2 157 4 319q0 48 37 80t97 50t137 23t155 2t153 -14t131 -27q20 -18 15 -42t-63 -44t-182 -27t-344 9l10 -478q54 -4 116 -5t127 1t128 9t119 23q14 -10 28 -28t19 -37t-1 -38t-30 -31q-72 -22 -145 -31t-140 -9t-127 7t-104 13l26 -562q6 -26 50 -34t108 -4 t140 16t144 24t119 20t67 6q34 -40 3 -76t-99 -63t-162 -43t-186 -16t-171 18t-117 60q-16 156 -29 310t-22 308t-11 311zM324 1628l80 132q20 22 47 31t47 3t25 -27t-19 -59l-94 -154q-68 -12 -85 10t-1 64z" />
<glyph unicode="&#xca;" horiz-adv-x="868" d="M54 1017q-2 157 4 319q0 48 37 80t97 50t137 23t155 2t153 -14t131 -27q20 -18 15 -42t-63 -44t-182 -27t-344 9l10 -478q54 -4 116 -5t127 1t128 9t119 23q14 -10 28 -28t19 -37t-1 -38t-30 -31q-72 -22 -145 -31t-140 -9t-127 7t-104 13l26 -562q6 -26 50 -34t108 -4 t140 16t144 24t119 20t67 6q34 -40 3 -76t-99 -63t-162 -43t-186 -16t-171 18t-117 60q-16 156 -29 310t-22 308t-11 311zM178 1642q36 56 56 78t33 39t27 44t38 97q14 42 47 24t69 -66t67 -112t41 -117t-7 -81t-77 0l-88 192l-104 -166q-8 -16 -28 -22t-40 2t-32 29t-2 59z " />
<glyph unicode="&#xcb;" horiz-adv-x="868" d="M54 1017q-2 157 4 319q0 48 37 80t97 50t137 23t155 2t153 -14t131 -27q20 -18 15 -42t-63 -44t-182 -27t-344 9l10 -478q54 -4 116 -5t127 1t128 9t119 23q14 -10 28 -28t19 -37t-1 -38t-30 -31q-72 -22 -145 -31t-140 -9t-127 7t-104 13l26 -562q6 -26 50 -34t108 -4 t140 16t144 24t119 20t67 6q34 -40 3 -76t-99 -63t-162 -43t-186 -16t-171 18t-117 60q-16 156 -29 310t-22 308t-11 311zM247 1637q7 29 30 44t52 12t49 -33q16 -24 7 -51t-30 -45t-47 -19t-44 29q-24 34 -17 63zM493 1637q7 29 30 44t52 12t49 -33q16 -24 7 -51t-30 -45 t-47 -19t-44 29q-24 34 -17 63z" />
<glyph unicode="&#xcc;" horiz-adv-x="246" d="M37 1767q5 21 25 27t46 -3t48 -31l80 -132q16 -42 -1 -64t-85 -10l-94 154q-24 38 -19 59zM44 58q0 132 2 299t6 347t9 361t11 341q6 32 23 49t36 20t36 -7t21 -32q6 -144 0 -323t-13 -365t-13 -365t-2 -325q-6 -34 -20 -47t-31 -11t-35 18t-30 40z" />
<glyph unicode="&#xcd;" horiz-adv-x="246" d="M16 1628l80 132q20 22 47 31t47 3t25 -27t-19 -59l-94 -154q-68 -12 -85 10t-1 64zM44 58q0 132 2 299t6 347t9 361t11 341q6 32 23 49t36 20t36 -7t21 -32q6 -144 0 -323t-13 -365t-13 -365t-2 -325q-6 -34 -20 -47t-31 -11t-35 18t-30 40z" />
<glyph unicode="&#xce;" horiz-adv-x="246" d="M-130 1642q36 56 56 78t33 39t27 44t38 97q14 42 47 24t69 -66t67 -112t41 -117t-7 -81t-77 0l-88 192l-104 -166q-8 -16 -28 -22t-40 2t-32 29t-2 59zM44 58q0 132 2 299t6 347t9 361t11 341q6 32 23 49t36 20t36 -7t21 -32q6 -144 0 -323t-13 -365t-13 -365t-2 -325 q-6 -34 -20 -47t-31 -11t-35 18t-30 40z" />
<glyph unicode="&#xcf;" horiz-adv-x="246" d="M-61 1637q7 29 30 44t52 12t49 -33q16 -24 7 -51t-30 -45t-47 -19t-44 29q-24 34 -17 63zM44 58q0 132 2 299t6 347t9 361t11 341q6 32 23 49t36 20t36 -7t21 -32q6 -144 0 -323t-13 -365t-13 -365t-2 -325q-6 -34 -20 -47t-31 -11t-35 18t-30 40zM185 1637q7 29 30 44 t52 12t49 -33q16 -24 7 -51t-30 -45t-47 -19t-44 29q-24 34 -17 63z" />
<glyph unicode="&#xd0;" horiz-adv-x="1016" d="M-60 645q0 13 2 28t3 28t3 17q30 -4 95 1t143 10t157 7t136 -6t81 -31t-6 -69q-220 0 -342 -1t-182 -2t-74 -1t-14 4q-2 2 -2 15zM112 323q2 155 7 324t8 350t-1 373q-12 48 37 69t133 15t189 -41t202 -100t172 -163t103 -228q24 -122 5 -244t-72 -232t-136 -201 t-185 -149t-219 -78t-239 12q-6 138 -4 293zM260 146q138 -4 244 47t177 136t109 193t40 220t-32 218t-105 183t-179 118t-254 23v-1138z" />
<glyph unicode="&#xd1;" horiz-adv-x="996" d="M46 1376q6 42 17 64t29 28t42 -1t54 -23q38 -66 92 -168t114 -222l123 -246t119 -240t101 -206t71 -140q2 14 1 71t-2 140t-4 186t-5 209t-4 208t-4 185t-3 139t-1 70q2 42 23 54t47 6t47 -23t25 -31q0 -22 -1 -89t-1 -164v-215v-240v-240t-1 -215t-1 -164t-2 -89 q-30 -14 -53 -18t-45 5t-45 33t-51 66q-42 62 -89 150t-96 189t-99 209t-99 210t-96 191t-89 155l14 -1184q-2 -12 -18 -21t-36 -9t-38 12t-22 40zM166 1642q-8 36 12 70t55 60t78 40t84 11t73 -26t44 -73q8 -12 31 -31t50 -22t55 18t44 87q6 26 32 32t49 -2t33 -27t-14 -43 q-20 -88 -67 -137t-101 -60t-103 14t-73 87q-38 58 -78 65t-72 -69q6 -14 0 -31t-20 -32t-33 -23t-36 -3t-29 27t-14 68z" />
<glyph unicode="&#xd2;" horiz-adv-x="848" d="M27 518q-9 144 15 296t71 284t116 230t152 134t177 -6t192 -188q42 -106 58 -251t4 -297t-54 -293t-116 -240t-182 -137t-252 16q-86 68 -129 188t-52 264zM170 510q4 -90 21 -165t53 -122t93 -60t139 23q80 78 128 184t69 222t16 233t-28 217t-62 174t-88 104t-107 7 t-116 -117q-24 -58 -47 -141t-40 -177t-26 -193t-5 -189zM335 1767q5 21 25 27t46 -3t48 -31l80 -132q16 -42 -1 -64t-85 -10l-94 154q-24 38 -19 59z" />
<glyph unicode="&#xd3;" horiz-adv-x="848" d="M27 518q-9 144 15 296t71 284t116 230t152 134t177 -6t192 -188q42 -106 58 -251t4 -297t-54 -293t-116 -240t-182 -137t-252 16q-86 68 -129 188t-52 264zM170 510q4 -90 21 -165t53 -122t93 -60t139 23q80 78 128 184t69 222t16 233t-28 217t-62 174t-88 104t-107 7 t-116 -117q-24 -58 -47 -141t-40 -177t-26 -193t-5 -189zM314 1628l80 132q20 22 47 31t47 3t25 -27t-19 -59l-94 -154q-68 -12 -85 10t-1 64z" />
<glyph unicode="&#xd4;" horiz-adv-x="848" d="M27 518q-9 144 15 296t71 284t116 230t152 134t177 -6t192 -188q42 -106 58 -251t4 -297t-54 -293t-116 -240t-182 -137t-252 16q-86 68 -129 188t-52 264zM168 1642q36 56 56 78t33 39t27 44t38 97q14 42 47 24t69 -66t67 -112t41 -117t-7 -81t-77 0l-88 192l-104 -166 q-8 -16 -28 -22t-40 2t-32 29t-2 59zM170 510q4 -90 21 -165t53 -122t93 -60t139 23q80 78 128 184t69 222t16 233t-28 217t-62 174t-88 104t-107 7t-116 -117q-24 -58 -47 -141t-40 -177t-26 -193t-5 -189z" />
<glyph unicode="&#xd5;" horiz-adv-x="848" d="M27 518q-9 144 15 296t71 284t116 230t152 134t177 -6t192 -188q42 -106 58 -251t4 -297t-54 -293t-116 -240t-182 -137t-252 16q-86 68 -129 188t-52 264zM92 1642q-8 36 12 70t55 60t78 40t84 11t73 -26t44 -73q8 -12 31 -31t50 -22t55 18t44 87q6 26 32 32t49 -2 t33 -27t-14 -43q-20 -88 -67 -137t-101 -60t-103 14t-73 87q-38 58 -78 65t-72 -69q6 -14 0 -31t-20 -32t-33 -23t-36 -3t-29 27t-14 68zM170 510q4 -90 21 -165t53 -122t93 -60t139 23q80 78 128 184t69 222t16 233t-28 217t-62 174t-88 104t-107 7t-116 -117 q-24 -58 -47 -141t-40 -177t-26 -193t-5 -189z" />
<glyph unicode="&#xd6;" horiz-adv-x="848" d="M27 518q-9 144 15 296t71 284t116 230t152 134t177 -6t192 -188q42 -106 58 -251t4 -297t-54 -293t-116 -240t-182 -137t-252 16q-86 68 -129 188t-52 264zM170 510q4 -90 21 -165t53 -122t93 -60t139 23q80 78 128 184t69 222t16 233t-28 217t-62 174t-88 104t-107 7 t-116 -117q-24 -58 -47 -141t-40 -177t-26 -193t-5 -189zM237 1637q7 29 30 44t52 12t49 -33q16 -24 7 -51t-30 -45t-47 -19t-44 29q-24 34 -17 63zM483 1637q7 29 30 44t52 12t49 -33q16 -24 7 -51t-30 -45t-47 -19t-44 29q-24 34 -17 63z" />
<glyph unicode="&#xd8;" horiz-adv-x="848" d="M27 518q-9 144 15 296t71 284t116 230t152 134t177 -6t192 -188q42 -106 58 -251t4 -297t-54 -293t-116 -240t-182 -137t-252 16q-86 68 -129 188t-52 264zM43 30q-7 26 5 78l644 1306q8 28 32 34t46 -4t35 -34t3 -54l-654 -1322q-22 -24 -45 -35t-41 -3t-25 34zM170 510 q4 -90 21 -165t53 -122t93 -60t139 23q80 78 128 184t69 222t16 233t-28 217t-62 174t-88 104t-107 7t-116 -117q-24 -58 -47 -141t-40 -177t-26 -193t-5 -189z" />
<glyph unicode="&#xd9;" horiz-adv-x="956" d="M46 1136q2 102 10 181t22 119q8 26 26 34t37 4t34 -17t17 -27q-10 -76 -13 -193t2 -249t20 -268t42 -249t69 -190t99 -92t132 45t171 220q36 108 43 232t-1 253t-21 259t-15 252q8 24 27 41t40 21t39 -7t22 -41q8 -184 17 -340t16 -315t14 -334t13 -395q-10 -40 -33 -57 t-46 -16t-37 22t-4 57l6 262q-44 -60 -86 -122t-90 -110t-107 -74t-137 -12q-66 10 -116 68t-87 147t-62 200t-40 231t-20 239t-3 221zM389 1767q5 21 25 27t46 -3t48 -31l80 -132q16 -42 -1 -64t-85 -10l-94 154q-24 38 -19 59z" />
<glyph unicode="&#xda;" horiz-adv-x="956" d="M46 1136q2 102 10 181t22 119q8 26 26 34t37 4t34 -17t17 -27q-10 -76 -13 -193t2 -249t20 -268t42 -249t69 -190t99 -92t132 45t171 220q36 108 43 232t-1 253t-21 259t-15 252q8 24 27 41t40 21t39 -7t22 -41q8 -184 17 -340t16 -315t14 -334t13 -395q-10 -40 -33 -57 t-46 -16t-37 22t-4 57l6 262q-44 -60 -86 -122t-90 -110t-107 -74t-137 -12q-66 10 -116 68t-87 147t-62 200t-40 231t-20 239t-3 221zM368 1628l80 132q20 22 47 31t47 3t25 -27t-19 -59l-94 -154q-68 -12 -85 10t-1 64z" />
<glyph unicode="&#xdb;" horiz-adv-x="956" d="M46 1136q2 102 10 181t22 119q8 26 26 34t37 4t34 -17t17 -27q-10 -76 -13 -193t2 -249t20 -268t42 -249t69 -190t99 -92t132 45t171 220q36 108 43 232t-1 253t-21 259t-15 252q8 24 27 41t40 21t39 -7t22 -41q8 -184 17 -340t16 -315t14 -334t13 -395q-10 -40 -33 -57 t-46 -16t-37 22t-4 57l6 262q-44 -60 -86 -122t-90 -110t-107 -74t-137 -12q-66 10 -116 68t-87 147t-62 200t-40 231t-20 239t-3 221zM222 1642q36 56 56 78t33 39t27 44t38 97q14 42 47 24t69 -66t67 -112t41 -117t-7 -81t-77 0l-88 192l-104 -166q-8 -16 -28 -22t-40 2 t-32 29t-2 59z" />
<glyph unicode="&#xdc;" horiz-adv-x="956" d="M46 1136q2 102 10 181t22 119q8 26 26 34t37 4t34 -17t17 -27q-10 -76 -13 -193t2 -249t20 -268t42 -249t69 -190t99 -92t132 45t171 220q36 108 43 232t-1 253t-21 259t-15 252q8 24 27 41t40 21t39 -7t22 -41q8 -184 17 -340t16 -315t14 -334t13 -395q-10 -40 -33 -57 t-46 -16t-37 22t-4 57l6 262q-44 -60 -86 -122t-90 -110t-107 -74t-137 -12q-66 10 -116 68t-87 147t-62 200t-40 231t-20 239t-3 221zM291 1637q7 29 30 44t52 12t49 -33q16 -24 7 -51t-30 -45t-47 -19t-44 29q-24 34 -17 63zM537 1637q7 29 30 44t52 12t49 -33 q16 -24 7 -51t-30 -45t-47 -19t-44 29q-24 34 -17 63z" />
<glyph unicode="&#xdd;" horiz-adv-x="916" d="M12 1392q4 28 18 49t32 30t38 6t34 -21q6 -10 33 -49t63 -92t77 -113t78 -113t63 -92t34 -49q68 102 124 189t98 152t66 105l30 50q20 38 40 37t35 -20t22 -48t-1 -49q-8 -18 -34 -64t-62 -106t-76 -127t-76 -127t-63 -106t-35 -64l14 -718q-2 -20 -19 -34t-39 -19t-43 5 t-31 38l-2 732zM348 1628l80 132q20 22 47 31t47 3t25 -27t-19 -59l-94 -154q-68 -12 -85 10t-1 64z" />
<glyph unicode="&#xde;" horiz-adv-x="788" d="M26 -380q10 96 17 218t12 256t8 274t4 272t1 250v208q12 20 31 35t40 20t39 0t30 -23l-20 -468q76 100 154 153t147 63t126 -20t92 -98t42 -172t-21 -240q-36 -114 -105 -198t-150 -132t-162 -55t-143 37l-20 -368q0 -10 -8 -27t-23 -26t-37 -2t-54 43zM188 140 q70 -36 135 -28t119 45t96 96t69 126t36 135t-2 122t-45 88t-94 32q-80 -14 -142 -84t-104 -164t-60 -195t-8 -173z" />
<glyph unicode="&#xdf;" horiz-adv-x="802" d="M92 408q4 288 32 492t75 330t101 190t110 72t101 -25t75 -100t33 -154t-27 -185t-104 -194q120 -36 183 -112t79 -168t-9 -188t-83 -171t-141 -119t-183 -30l34 128q70 14 131 60t97 109t39 137t-43 144t-107 97t-125 1l-40 154q90 64 136 135t60 135t0 114t-44 72 t-71 10t-81 -72t-73 -176t-49 -301t-8 -447t50 -614q2 -28 -15 -53t-39 -33t-42 10t-24 76q-32 388 -28 676z" />
<glyph unicode="&#xe0;" horiz-adv-x="768" d="M32 401q12 91 62 190t148 197q44 46 101 62t116 8t115 -35t102 -69q14 -74 19 -155t8 -167t7 -176t14 -182q-34 -46 -58 -53t-41 11t-27 54t-15 76t-6 75t-1 51q-56 -118 -121 -182t-129 -81t-123 5t-101 74t-62 129t-8 168zM163 362q-11 -78 6 -142t73 -86q44 -18 90 11 t87 86t72 131t48 142t16 121t-25 71q-64 48 -125 31t-111 -72t-85 -135t-46 -158zM295 1143q5 21 25 27t46 -3t48 -31l80 -132q16 -42 -1 -64t-85 -10l-94 154q-24 38 -19 59z" />
<glyph unicode="&#xe1;" horiz-adv-x="768" d="M32 401q12 91 62 190t148 197q44 46 101 62t116 8t115 -35t102 -69q14 -74 19 -155t8 -167t7 -176t14 -182q-34 -46 -58 -53t-41 11t-27 54t-15 76t-6 75t-1 51q-56 -118 -121 -182t-129 -81t-123 5t-101 74t-62 129t-8 168zM163 362q-11 -78 6 -142t73 -86q44 -18 90 11 t87 86t72 131t48 142t16 121t-25 71q-64 48 -125 31t-111 -72t-85 -135t-46 -158zM274 1004l80 132q20 22 47 31t47 3t25 -27t-19 -59l-94 -154q-68 -12 -85 10t-1 64z" />
<glyph unicode="&#xe2;" horiz-adv-x="768" d="M32 401q12 91 62 190t148 197q44 46 101 62t116 8t115 -35t102 -69q14 -74 19 -155t8 -167t7 -176t14 -182q-34 -46 -58 -53t-41 11t-27 54t-15 76t-6 75t-1 51q-56 -118 -121 -182t-129 -81t-123 5t-101 74t-62 129t-8 168zM163 362q-11 -78 6 -142t73 -86q44 -18 90 11 t87 86t72 131t48 142t16 121t-25 71q-64 48 -125 31t-111 -72t-85 -135t-46 -158zM244 1022q36 56 56 78t33 39t27 44t38 97q14 42 47 24t69 -66t67 -112t41 -117t-7 -81t-77 0l-88 192l-104 -166q-8 -16 -28 -22t-40 2t-32 29t-2 59z" />
<glyph unicode="&#xe3;" horiz-adv-x="768" d="M32 401q12 91 62 190t148 197q44 46 101 62t116 8t115 -35t102 -69q14 -74 19 -155t8 -167t7 -176t14 -182q-34 -46 -58 -53t-41 11t-27 54t-15 76t-6 75t-1 51q-56 -118 -121 -182t-129 -81t-123 5t-101 74t-62 129t-8 168zM56 1018q-8 36 12 70t55 60t78 40t84 11 t73 -26t44 -73q8 -12 31 -31t50 -22t55 18t44 87q6 26 32 32t49 -2t33 -27t-14 -43q-20 -88 -67 -137t-101 -60t-103 14t-73 87q-38 58 -78 65t-72 -69q6 -14 0 -31t-20 -32t-33 -23t-36 -3t-29 27t-14 68zM163 362q-11 -78 6 -142t73 -86q44 -18 90 11t87 86t72 131t48 142 t16 121t-25 71q-64 48 -125 31t-111 -72t-85 -135t-46 -158z" />
<glyph unicode="&#xe4;" horiz-adv-x="768" d="M32 401q12 91 62 190t148 197q44 46 101 62t116 8t115 -35t102 -69q14 -74 19 -155t8 -167t7 -176t14 -182q-34 -46 -58 -53t-41 11t-27 54t-15 76t-6 75t-1 51q-56 -118 -121 -182t-129 -81t-123 5t-101 74t-62 129t-8 168zM163 362q-11 -78 6 -142t73 -86q44 -18 90 11 t87 86t72 131t48 142t16 121t-25 71q-64 48 -125 31t-111 -72t-85 -135t-46 -158zM197 1013q7 29 30 44t52 12t49 -33q16 -24 7 -51t-30 -45t-47 -19t-44 29q-24 34 -17 63zM443 1013q7 29 30 44t52 12t49 -33q16 -24 7 -51t-30 -45t-47 -19t-44 29q-24 34 -17 63z" />
<glyph unicode="&#xe5;" horiz-adv-x="768" d="M32 401q12 91 62 190t148 197q44 46 101 62t116 8t115 -35t102 -69q14 -74 19 -155t8 -167t7 -176t14 -182q-34 -46 -58 -53t-41 11t-27 54t-15 76t-6 75t-1 51q-56 -118 -121 -182t-129 -81t-123 5t-101 74t-62 129t-8 168zM163 362q-11 -78 6 -142t73 -86q44 -18 90 11 t87 86t72 131t48 142t16 121t-25 71q-64 48 -125 31t-111 -72t-85 -135t-46 -158zM170 1068q6 58 38 96t78 56t97 16t94 -22t72 -58t31 -92q4 -50 -24 -88t-72 -60t-98 -26t-100 13t-79 57t-37 108zM266 1056q-4 -20 20 -41t60 -29t78 5t76 59q8 38 -8 61t-42 32t-59 6 t-61 -15t-47 -33t-17 -45z" />
<glyph unicode="&#xe6;" horiz-adv-x="1272" d="M32 401q12 91 62 190t148 197q44 46 101 62t116 8t115 -35t102 -69q14 -74 19 -155t8 -167t7 -176t14 -182q-34 -46 -58 -53t-41 11t-27 54t-15 76t-6 75t-1 51q-56 -118 -121 -182t-129 -81t-123 5t-101 74t-62 129t-8 168zM163 362q-11 -78 6 -142t73 -86q44 -18 90 11 t87 86t72 131t48 142t16 121t-25 71q-64 48 -125 31t-111 -72t-85 -135t-46 -158zM606 444q2 76 31 148t75 129t104 92t120 36t122 -41t110 -136q52 -90 41 -151t-57 -99t-115 -58t-135 -28t-116 -8h-58q12 -84 41 -129t67 -61t83 -8t89 30t84 54t70 64q26 6 47 5t30 -14 t1 -39t-38 -70q-114 -88 -204 -122t-157 -27t-113 47t-74 101t-39 135t-9 150zM744 464q2 -18 30 -25t68 -3t85 17t82 34t57 50t12 63q-14 58 -47 87t-72 34t-81 -12t-74 -52t-50 -84t-10 -109z" />
<glyph unicode="&#xe7;" horiz-adv-x="736" d="M31 308q-9 88 17 179t76 169t119 133t143 72t147 -15t133 -128q2 -8 -3 -28t-16 -40t-28 -30t-37 2q-66 92 -132 101t-121 -31t-95 -116t-54 -156t3 -151t75 -99q60 -28 107 -29t85 13t69 38t60 46t56 37t59 11q24 -42 11 -83t-51 -76t-91 -61t-111 -41t-111 -17t-89 14 q-106 46 -159 122t-62 164zM253 -298q3 36 31 43t70 -31q32 -74 71 -101t73 -22t60 33t30 62q8 66 -3 97t-32 42t-51 8t-61 -5t-62 3t-54 32t-36 83t-9 154l114 -6q-10 -82 5 -118t39 -45t48 -3t34 6q96 -2 143 -47t54 -109t-18 -134t-74 -118t-114 -63t-137 29 q-68 60 -96 117t-25 93z" />
<glyph unicode="&#xe8;" horiz-adv-x="728" d="M46 454q2 76 31 148t75 129t104 92t120 36t122 -41t110 -136q52 -90 41 -151t-57 -99t-115 -58t-135 -28t-116 -8h-58q12 -84 41 -129t67 -61t83 -8t89 30t84 54t70 64q26 6 47 5t30 -14t1 -39t-38 -70q-114 -88 -204 -122t-157 -27t-113 47t-74 101t-39 135t-9 150z M184 474q2 -18 30 -25t68 -3t85 17t82 34t57 50t12 63q-14 58 -47 87t-72 34t-81 -12t-74 -52t-50 -84t-10 -109zM275 1143q5 21 25 27t46 -3t48 -31l80 -132q16 -42 -1 -64t-85 -10l-94 154q-24 38 -19 59z" />
<glyph unicode="&#xe9;" horiz-adv-x="728" d="M46 454q2 76 31 148t75 129t104 92t120 36t122 -41t110 -136q52 -90 41 -151t-57 -99t-115 -58t-135 -28t-116 -8h-58q12 -84 41 -129t67 -61t83 -8t89 30t84 54t70 64q26 6 47 5t30 -14t1 -39t-38 -70q-114 -88 -204 -122t-157 -27t-113 47t-74 101t-39 135t-9 150z M184 474q2 -18 30 -25t68 -3t85 17t82 34t57 50t12 63q-14 58 -47 87t-72 34t-81 -12t-74 -52t-50 -84t-10 -109zM254 1004l80 132q20 22 47 31t47 3t25 -27t-19 -59l-94 -154q-68 -12 -85 10t-1 64z" />
<glyph unicode="&#xea;" horiz-adv-x="728" d="M46 454q2 76 31 148t75 129t104 92t120 36t122 -41t110 -136q52 -90 41 -151t-57 -99t-115 -58t-135 -28t-116 -8h-58q12 -84 41 -129t67 -61t83 -8t89 30t84 54t70 64q26 6 47 5t30 -14t1 -39t-38 -70q-114 -88 -204 -122t-157 -27t-113 47t-74 101t-39 135t-9 150z M108 1018q36 56 56 78t33 39t27 44t38 97q14 42 47 24t69 -66t67 -112t41 -117t-7 -81t-77 0l-88 192l-104 -166q-8 -16 -28 -22t-40 2t-32 29t-2 59zM184 474q2 -18 30 -25t68 -3t85 17t82 34t57 50t12 63q-14 58 -47 87t-72 34t-81 -12t-74 -52t-50 -84t-10 -109z" />
<glyph unicode="&#xeb;" horiz-adv-x="728" d="M46 454q2 76 31 148t75 129t104 92t120 36t122 -41t110 -136q52 -90 41 -151t-57 -99t-115 -58t-135 -28t-116 -8h-58q12 -84 41 -129t67 -61t83 -8t89 30t84 54t70 64q26 6 47 5t30 -14t1 -39t-38 -70q-114 -88 -204 -122t-157 -27t-113 47t-74 101t-39 135t-9 150z M177 1013q7 29 30 44t52 12t49 -33q16 -24 7 -51t-30 -45t-47 -19t-44 29q-24 34 -17 63zM184 474q2 -18 30 -25t68 -3t85 17t82 34t57 50t12 63q-14 58 -47 87t-72 34t-81 -12t-74 -52t-50 -84t-10 -109zM423 1013q7 29 30 44t52 12t49 -33q16 -24 7 -51t-30 -45t-47 -19 t-44 29q-24 34 -17 63z" />
<glyph unicode="&#xec;" d="M43 1143q5 21 25 27t46 -3t48 -31l80 -132q16 -42 -1 -64t-85 -10l-94 154q-24 38 -19 59zM44 30q6 12 8 61t2 119t1 153t4 165t10 155t21 121t36 65t54 -13q2 -78 1 -194t-5 -236t-8 -228t-8 -168q-8 -16 -23 -24t-33 -8t-35 7t-25 25z" />
<glyph unicode="&#xed;" d="M22 1004l80 132q20 22 47 31t47 3t25 -27t-19 -59l-94 -154q-68 -12 -85 10t-1 64zM44 30q6 12 8 61t2 119t1 153t4 165t10 155t21 121t36 65t54 -13q2 -78 1 -194t-5 -236t-8 -228t-8 -168q-8 -16 -23 -24t-33 -8t-35 7t-25 25z" />
<glyph unicode="&#xee;" d="M-58 1036q36 56 56 78t33 39t27 44t38 97q14 42 47 24t69 -66t67 -112t41 -117t-7 -81t-77 0l-88 192l-104 -166q-8 -16 -28 -22t-40 2t-32 29t-2 59zM44 30q6 12 8 61t2 119t1 153t4 165t10 155t21 121t36 65t54 -13q2 -78 1 -194t-5 -236t-8 -228t-8 -168 q-8 -16 -23 -24t-33 -8t-35 7t-25 25z" />
<glyph unicode="&#xef;" d="M-53 1013q7 29 30 44t52 12t49 -33q16 -24 7 -51t-30 -45t-47 -19t-44 29q-24 34 -17 63zM44 30q6 12 8 61t2 119t1 153t4 165t10 155t21 121t36 65t54 -13q2 -78 1 -194t-5 -236t-8 -228t-8 -168q-8 -16 -23 -24t-33 -8t-35 7t-25 25zM193 1013q7 29 30 44t52 12t49 -33 q16 -24 7 -51t-30 -45t-47 -19t-44 29q-24 34 -17 63z" />
<glyph unicode="&#xf0;" horiz-adv-x="736" d="M9 478q-5 100 22 184t89 126t162 26t240 -118l-74 266q-28 0 -52 -7t-51 -16t-59 -16t-72 -7q-32 18 -29 39t34 41t84 39t119 35l-88 376l132 4q16 -76 33 -148t43 -172q24 10 50 32t53 46t52 45t46 27t37 -6t22 -52q-56 -82 -119 -134t-117 -58q24 -104 46 -214t35 -216 t15 -202t-15 -175t-55 -134t-104 -77q-108 -40 -195 -9t-148 103t-96 172t-40 200zM118 480q6 -66 30 -129t63 -117t87 -83t100 -25t102 56q36 82 32 161t-35 144t-81 112t-103 65t-101 4t-78 -70q-22 -52 -16 -118z" />
<glyph unicode="&#xf1;" horiz-adv-x="782" d="M58 840q34 22 60 34q22 10 43 10t27 -22l-20 -248q82 140 152 201t129 64t107 -43t84 -120t60 -166t36 -184t12 -171t-12 -127t-38 -55t-64 47q0 226 -22 368t-58 217t-82 90t-92 -15t-88 -97t-71 -157t-42 -196t1 -210q-4 -18 -19 -30t-32 -15t-35 4t-28 27zM62 1018 q-8 36 12 70t55 60t78 40t84 11t73 -26t44 -73q8 -12 31 -31t50 -22t55 18t44 87q6 26 32 32t49 -2t33 -27t-14 -43q-20 -88 -67 -137t-101 -60t-103 14t-73 87q-38 58 -78 65t-72 -69q6 -14 0 -31t-20 -32t-33 -23t-36 -3t-29 27t-14 68z" />
<glyph unicode="&#xf2;" horiz-adv-x="708" d="M40 418q-2 80 20 156t60 137t88 100t106 48t115 -19t113 -104q80 -104 109 -214t18 -206t-57 -170t-115 -108t-156 -21t-181 91q-62 68 -90 149t-30 161zM148 502q-12 -98 10 -177t67 -129t108 -63t133 21q54 28 76 85t20 125t-24 138t-57 126t-79 90t-89 26t-88 -64 t-77 -178zM265 1143q5 21 25 27t46 -3t48 -31l80 -132q16 -42 -1 -64t-85 -10l-94 154q-24 38 -19 59z" />
<glyph unicode="&#xf3;" horiz-adv-x="708" d="M40 418q-2 80 20 156t60 137t88 100t106 48t115 -19t113 -104q80 -104 109 -214t18 -206t-57 -170t-115 -108t-156 -21t-181 91q-62 68 -90 149t-30 161zM148 502q-12 -98 10 -177t67 -129t108 -63t133 21q54 28 76 85t20 125t-24 138t-57 126t-79 90t-89 26t-88 -64 t-77 -178zM244 1004l80 132q20 22 47 31t47 3t25 -27t-19 -59l-94 -154q-68 -12 -85 10t-1 64z" />
<glyph unicode="&#xf4;" horiz-adv-x="708" d="M40 418q-2 80 20 156t60 137t88 100t106 48t115 -19t113 -104q80 -104 109 -214t18 -206t-57 -170t-115 -108t-156 -21t-181 91q-62 68 -90 149t-30 161zM98 1018q36 56 56 78t33 39t27 44t38 97q14 42 47 24t69 -66t67 -112t41 -117t-7 -81t-77 0l-88 192l-104 -166 q-8 -16 -28 -22t-40 2t-32 29t-2 59zM148 502q-12 -98 10 -177t67 -129t108 -63t133 21q54 28 76 85t20 125t-24 138t-57 126t-79 90t-89 26t-88 -64t-77 -178z" />
<glyph unicode="&#xf5;" horiz-adv-x="708" d="M26 1018q-8 36 12 70t55 60t78 40t84 11t73 -26t44 -73q8 -12 31 -31t50 -22t55 18t44 87q6 26 32 32t49 -2t33 -27t-14 -43q-20 -88 -67 -137t-101 -60t-103 14t-73 87q-38 58 -78 65t-72 -69q6 -14 0 -31t-20 -32t-33 -23t-36 -3t-29 27t-14 68zM40 418q-2 80 20 156 t60 137t88 100t106 48t115 -19t113 -104q80 -104 109 -214t18 -206t-57 -170t-115 -108t-156 -21t-181 91q-62 68 -90 149t-30 161zM148 502q-12 -98 10 -177t67 -129t108 -63t133 21q54 28 76 85t20 125t-24 138t-57 126t-79 90t-89 26t-88 -64t-77 -178z" />
<glyph unicode="&#xf6;" horiz-adv-x="708" d="M40 418q-2 80 20 156t60 137t88 100t106 48t115 -19t113 -104q80 -104 109 -214t18 -206t-57 -170t-115 -108t-156 -21t-181 91q-62 68 -90 149t-30 161zM148 502q-12 -98 10 -177t67 -129t108 -63t133 21q54 28 76 85t20 125t-24 138t-57 126t-79 90t-89 26t-88 -64 t-77 -178zM167 1013q7 29 30 44t52 12t49 -33q16 -24 7 -51t-30 -45t-47 -19t-44 29q-24 34 -17 63zM413 1013q7 29 30 44t52 12t49 -33q16 -24 7 -51t-30 -45t-47 -19t-44 29q-24 34 -17 63z" />
<glyph unicode="&#xf7;" horiz-adv-x="956" d="M170 505q0 13 2 28t3 28t3 17q30 -4 95 1t143 10t157 7t136 -6t81 -31t-6 -69q-220 0 -342 -1t-182 -2t-74 -1t-14 4q-2 2 -2 15zM405 287q7 29 30 44t52 12t49 -33q16 -24 7 -51t-30 -45t-47 -19t-44 29q-24 34 -17 63zM411 799q7 29 30 44t52 12t49 -33q16 -24 7 -51 t-30 -45t-47 -19t-44 29q-24 34 -17 63z" />
<glyph unicode="&#xf8;" horiz-adv-x="708" d="M-24.5 12q-6.5 16 4.5 48l622 800q8 17 31.5 21t44.5 -2t33.5 -21t2.5 -33l-631 -810q-21 -15 -43.5 -21.5t-40 -2t-24 20.5zM40 418q-2 80 20 156t60 137t88 100t106 48t115 -19t113 -104q80 -104 109 -214t18 -206t-57 -170t-115 -108t-156 -21t-181 91q-62 68 -90 149 t-30 161zM148 502q-12 -98 10 -177t67 -129t108 -63t133 21q54 28 76 85t20 125t-24 138t-57 126t-79 90t-89 26t-88 -64t-77 -178z" />
<glyph unicode="&#xf9;" horiz-adv-x="756" d="M18 560q-2 128 20 256q6 40 24 51t38 2t37 -30t23 -43q-20 -206 -10 -337t39 -201t73 -87t92 5t95 75t85 123q18 32 24 94t4 133t-8 139t-14 112q6 18 24 24t39 3t40 -14t25 -29l32 -810q-16 -32 -59 -35t-87 29l4 172q-102 -114 -186 -149t-149 -8t-110 104t-69 185 t-26 236zM241 1165q5 21 25 27t46 -3t48 -31l80 -132q16 -42 -1 -64t-85 -10l-94 154q-24 38 -19 59z" />
<glyph unicode="&#xfa;" horiz-adv-x="756" d="M18 560q-2 128 20 256q6 40 24 51t38 2t37 -30t23 -43q-20 -206 -10 -337t39 -201t73 -87t92 5t95 75t85 123q18 32 24 94t4 133t-8 139t-14 112q6 18 24 24t39 3t40 -14t25 -29l32 -810q-16 -32 -59 -35t-87 29l4 172q-102 -114 -186 -149t-149 -8t-110 104t-69 185 t-26 236zM268 1004l80 132q20 22 47 31t47 3t25 -27t-19 -59l-94 -154q-68 -12 -85 10t-1 64z" />
<glyph unicode="&#xfb;" horiz-adv-x="756" d="M18 560q-2 128 20 256q6 40 24 51t38 2t37 -30t23 -43q-20 -206 -10 -337t39 -201t73 -87t92 5t95 75t85 123q18 32 24 94t4 133t-8 139t-14 112q6 18 24 24t39 3t40 -14t25 -29l32 -810q-16 -32 -59 -35t-87 29l4 172q-102 -114 -186 -149t-149 -8t-110 104t-69 185 t-26 236zM122 1018q36 56 56 78t33 39t27 44t38 97q14 42 47 24t69 -66t67 -112t41 -117t-7 -81t-77 0l-88 192l-104 -166q-8 -16 -28 -22t-40 2t-32 29t-2 59z" />
<glyph unicode="&#xfc;" horiz-adv-x="756" d="M18 560q-2 128 20 256q6 40 24 51t38 2t37 -30t23 -43q-20 -206 -10 -337t39 -201t73 -87t92 5t95 75t85 123q18 32 24 94t4 133t-8 139t-14 112q6 18 24 24t39 3t40 -14t25 -29l32 -810q-16 -32 -59 -35t-87 29l4 172q-102 -114 -186 -149t-149 -8t-110 104t-69 185 t-26 236zM191 1013q7 29 30 44t52 12t49 -33q16 -24 7 -51t-30 -45t-47 -19t-44 29q-24 34 -17 63zM437 1013q7 29 30 44t52 12t49 -33q16 -24 7 -51t-30 -45t-47 -19t-44 29q-24 34 -17 63z" />
<glyph unicode="&#xfd;" horiz-adv-x="828" d="M12 819q6 25 28 34t53 0t55 -37q10 -14 36 -57t59 -101t69 -123t69 -122t58 -101t35 -58q6 14 23 58t38 103t46 125t47 125t39 102t25 55q16 32 41 38t46 -4t35 -30t8 -38l-528 -1396q0 -10 -20 -20t-45 -13t-49 9t-32 48l260 664l-376 678q-26 36 -20 61zM304 1004 l80 132q20 22 47 31t47 3t25 -27t-19 -59l-94 -154q-68 -12 -85 10t-1 64z" />
<glyph unicode="&#xfe;" horiz-adv-x="702" d="M26 1450q78 34 106 13t32 -76t-3 -136t1 -165q124 58 216 51t152 -58t89 -133t28 -174t-33 -183t-93 -160t-152 -103t-209 -12q-6 -98 -2 -155t8 -113q-6 -16 -20 -33t-33 -25t-39 -1t-36 39zM152 486q0 -40 2 -52q96 -30 167 -11t118 69t69 121t21 142t-25 134t-70 97 t-115 29t-159 -67q2 -12 1 -52t-2 -93t-3 -113t-3 -112t-1 -92z" />
<glyph unicode="&#xff;" horiz-adv-x="828" d="M12 819q6 25 28 34t53 0t55 -37q10 -14 36 -57t59 -101t69 -123t69 -122t58 -101t35 -58q6 14 23 58t38 103t46 125t47 125t39 102t25 55q16 32 41 38t46 -4t35 -30t8 -38l-528 -1396q0 -10 -20 -20t-45 -13t-49 9t-32 48l260 664l-376 678q-26 36 -20 61zM227 1013 q7 29 30 44t52 12t49 -33q16 -24 7 -51t-30 -45t-47 -19t-44 29q-24 34 -17 63zM473 1013q7 29 30 44t52 12t49 -33q16 -24 7 -51t-30 -45t-47 -19t-44 29q-24 34 -17 63z" />
<glyph unicode="&#x152;" horiz-adv-x="1540" d="M27 518q-9 144 15 296t71 284t116 230t152 134t177 -6t192 -188q42 -106 58 -251t4 -297t-54 -293t-116 -240t-182 -137t-252 16q-86 68 -129 188t-52 264zM170 510q4 -90 21 -165t53 -122t93 -60t139 23q80 78 128 184t69 222t16 233t-28 217t-62 174t-88 104t-107 7 t-116 -117q-24 -58 -47 -141t-40 -177t-26 -193t-5 -189zM694 1027q-2 157 4 319q0 48 37 80t97 50t137 23t155 2t153 -14t131 -27q20 -18 15 -42t-63 -44t-182 -27t-344 9l10 -478q54 -4 116 -5t127 1t128 9t119 23q14 -10 28 -28t19 -37t-1 -38t-30 -31q-72 -22 -145 -31 t-140 -9t-127 7t-104 13l26 -562q6 -26 50 -34t108 -4t140 16t144 24t119 20t67 6q34 -40 3 -76t-99 -63t-162 -43t-186 -16t-171 18t-117 60q-16 156 -29 310t-22 308t-11 311z" />
<glyph unicode="&#x153;" horiz-adv-x="1218" d="M40 418q-2 80 20 156t60 137t88 100t106 48t115 -19t113 -104q80 -104 109 -214t18 -206t-57 -170t-115 -108t-156 -21t-181 91q-62 68 -90 149t-30 161zM148 502q-12 -98 10 -177t67 -129t108 -63t133 21q54 28 76 85t20 125t-24 138t-57 126t-79 90t-89 26t-88 -64 t-77 -178zM568 452q2 76 31 148t75 129t104 92t120 36t122 -41t110 -136q52 -90 41 -151t-57 -99t-115 -58t-135 -28t-116 -8h-58q12 -84 41 -129t67 -61t83 -8t89 30t84 54t70 64q26 6 47 5t30 -14t1 -39t-38 -70q-114 -88 -204 -122t-157 -27t-113 47t-74 101t-39 135 t-9 150zM706 472q2 -18 30 -25t68 -3t85 17t82 34t57 50t12 63q-14 58 -47 87t-72 34t-81 -12t-74 -52t-50 -84t-10 -109z" />
<glyph unicode="&#x178;" horiz-adv-x="916" d="M12 1392q4 28 18 49t32 30t38 6t34 -21q6 -10 33 -49t63 -92t77 -113t78 -113t63 -92t34 -49q68 102 124 189t98 152t66 105l30 50q20 38 40 37t35 -20t22 -48t-1 -49q-8 -18 -34 -64t-62 -106t-76 -127t-76 -127t-63 -106t-35 -64l14 -718q-2 -20 -19 -34t-39 -19t-43 5 t-31 38l-2 732zM271 1637q7 29 30 44t52 12t49 -33q16 -24 7 -51t-30 -45t-47 -19t-44 29q-24 34 -17 63zM517 1637q7 29 30 44t52 12t49 -33q16 -24 7 -51t-30 -45t-47 -19t-44 29q-24 34 -17 63z" />
<glyph unicode="&#x2c6;" horiz-adv-x="534" d="M88 1018q36 56 56 78t33 39t27 44t38 97q14 42 47 24t69 -66t67 -112t41 -117t-7 -81t-77 0l-88 192l-104 -166q-8 -16 -28 -22t-40 2t-32 29t-2 59z" />
<glyph unicode="&#x2dc;" horiz-adv-x="722" d="M66 1018q-8 36 12 70t55 60t78 40t84 11t73 -26t44 -73q8 -12 31 -31t50 -22t55 18t44 87q6 26 32 32t49 -2t33 -27t-14 -43q-20 -88 -67 -137t-101 -60t-103 14t-73 87q-38 58 -78 65t-72 -69q6 -14 0 -31t-20 -32t-33 -23t-36 -3t-29 27t-14 68z" />
<glyph unicode="&#x2000;" horiz-adv-x="964" />
<glyph unicode="&#x2001;" horiz-adv-x="1929" />
<glyph unicode="&#x2002;" horiz-adv-x="964" />
<glyph unicode="&#x2003;" horiz-adv-x="1929" />
<glyph unicode="&#x2004;" horiz-adv-x="643" />
<glyph unicode="&#x2005;" horiz-adv-x="482" />
<glyph unicode="&#x2006;" horiz-adv-x="321" />
<glyph unicode="&#x2007;" horiz-adv-x="321" />
<glyph unicode="&#x2008;" horiz-adv-x="241" />
<glyph unicode="&#x2009;" horiz-adv-x="385" />
<glyph unicode="&#x200a;" horiz-adv-x="107" />
<glyph unicode="&#x2010;" horiz-adv-x="816" d="M102 629q0 13 2 28t3 28t3 17q30 -4 95 1t143 10t157 7t136 -6t81 -31t-6 -69q-220 0 -342 -1t-182 -2t-74 -1t-14 4q-2 2 -2 15z" />
<glyph unicode="&#x2011;" horiz-adv-x="816" d="M102 629q0 13 2 28t3 28t3 17q30 -4 95 1t143 10t157 7t136 -6t81 -31t-6 -69q-220 0 -342 -1t-182 -2t-74 -1t-14 4q-2 2 -2 15z" />
<glyph unicode="&#x2012;" horiz-adv-x="816" d="M102 629q0 13 2 28t3 28t3 17q30 -4 95 1t143 10t157 7t136 -6t81 -31t-6 -69q-220 0 -342 -1t-182 -2t-74 -1t-14 4q-2 2 -2 15z" />
<glyph unicode="&#x2013;" horiz-adv-x="816" d="M102 629q0 13 2 28t3 28t3 17q30 -4 95 1t143 10t157 7t136 -6t81 -31t-6 -69q-220 0 -342 -1t-182 -2t-74 -1t-14 4q-2 2 -2 15z" />
<glyph unicode="&#x2014;" horiz-adv-x="928" d="M102 629q0 13 2 28t3 28t3 17q30 -4 104 -1t165 6t185 3t165 -11t104 -35t3 -70q-220 0 -361 2t-223 5t-115 6t-33 7q-2 2 -2 15z" />
<glyph unicode="&#x2018;" d="M38 843q2 43 10 88t24 76t44 43t70 -8l4 -302q0 -30 -20 -53t-46 -31t-49 3t-31 51q-2 16 -5 53t-1 80z" />
<glyph unicode="&#x2019;" d="M40 763q-2 37 0 80t10 88t26 76t46 43t70 -8l-2 -302q0 -30 -20 -53t-46 -31t-49 3t-31 51q-2 16 -4 53z" />
<glyph unicode="&#x201a;" horiz-adv-x="334" d="M89 70q-3 38 0 84t11 92t25 80t45 47t70 -7v-320q0 -30 -20 -53t-46 -31t-49 3t-31 51q-2 16 -5 54z" />
<glyph unicode="&#x201c;" horiz-adv-x="506" d="M58 1260q-2 18 9 36t29 28t39 11t39 -17q14 -104 22 -194t2 -152t-31 -88t-79 -2zM258 1252q-2 18 9 36t29 28t39 11t39 -17q14 -108 23 -200t2 -154t-33 -86t-78 4z" />
<glyph unicode="&#x201d;" horiz-adv-x="506" d="M58 1260q-2 18 9 36t29 28t39 11t39 -17q14 -104 22 -194t2 -152t-31 -88t-79 -2zM258 1252q-2 18 9 36t29 28t39 11t39 -17q14 -108 23 -200t2 -154t-33 -86t-78 4z" />
<glyph unicode="&#x201e;" horiz-adv-x="506" d="M84 386q-2 18 9 36t29 28t39 11t39 -17q14 -104 22 -194t2 -152t-31 -88t-79 -2zM284 378q-2 18 9 36t29 28t39 11t39 -17q14 -108 23 -200t2 -154t-33 -86t-78 4z" />
<glyph unicode="&#x2026;" horiz-adv-x="738" d="M43 93q7 29 30 44t52 12t49 -33q16 -24 7 -51t-30 -45t-47 -19t-44 29q-24 34 -17 63zM289 93q7 29 30 44t52 12t49 -33q16 -24 7 -51t-30 -45t-47 -19t-44 29q-24 34 -17 63zM535 93q7 29 30 44t52 12t49 -33q16 -24 7 -51t-30 -45t-47 -19t-44 29q-24 34 -17 63z" />
<glyph unicode="&#x202f;" horiz-adv-x="385" />
<glyph unicode="&#x205f;" horiz-adv-x="482" />
<glyph unicode="&#x20ac;" horiz-adv-x="1182" d="M42 519q0 13 2 28t3 28t3 17q26 -4 75 -1t109 7q-2 80 0 160q-66 0 -103 -1t-56 -1h-24t-5 4q-2 2 -2 15t2 28t3 28t3 17q26 -4 77 0t115 8q14 108 48 208t89 178t132 128t177 60q62 12 141 9t140 -23t89 -56t-10 -90q-156 52 -278 37t-206 -76t-130 -158t-52 -209 q44 2 100 2t113 -3t108 -9t88 -18t51 -30t-2 -44h-114t-137 -1t-129 -2t-90 -1q-2 -38 -2 -75t4 -75q68 2 159 2t168 -11t121 -33t18 -60h-108t-133 -1t-125 -2t-86 -1q16 -84 53 -152t89 -112t115 -59t130 8t136 89t131 184q8 20 24 17t33 -21t32 -43t25 -45 q-106 -162 -211 -248t-201 -111t-181 5t-151 99t-110 170t-58 219q-70 0 -109 -1t-59 -1h-26t-6 4q-2 2 -2 15z" />
<glyph unicode="&#x25fc;" horiz-adv-x="870" d="M0 0v870h870v-870h-870z" />
</font>
</defs>
</svg>
