<?xml version="1.0" encoding="utf-8"?>
<!-- Generator: Adobe Illustrator 19.2.1, SVG Export Plug-In . SVG Version: 6.00 Build 0)  -->
<svg version="1.1" id="Layer_1" xmlns="http://www.w3.org/2000/svg" xmlns:xlink="http://www.w3.org/1999/xlink" x="0px" y="0px"
	 viewBox="0 0 35.5 35.5" style="enable-background:new 0 0 35.5 35.5;" xml:space="preserve">
<style type="text/css">
	.st0{fill:#FFFFFF;}
	.st1{opacity:0.91;enable-background:new    ;}
</style>
<g id="Facebook_4_">
	<path id="Blue_1_" class="st0" d="M33.5,35.5c1.1,0,2-0.9,2-2V2c0-1.1-0.9-2-2-2H2C0.9,0,0,0.9,0,2v31.5c0,1.1,0.9,2,2,2H33.5z"/>
	<path id="f_4_" class="st1" d="M24.5,35.5V21.7h4.6l0.7-5.4h-5.3V13c0-1.5,0.4-2.6,2.7-2.6H30V5.6c-0.5-0.1-2.2-0.2-4.1-0.2
		c-4.1,0-6.9,2.5-6.9,7.1v3.9h-4.6v5.4H19v13.7H24.5z"/>
</g>
</svg>
