<?xml version="1.0" encoding="utf-8"?>
<!-- Generator: Adobe Illustrator 19.2.1, SVG Export Plug-In . SVG Version: 6.00 Build 0)  -->
<svg version="1.1" id="Layer_1" xmlns="http://www.w3.org/2000/svg" xmlns:xlink="http://www.w3.org/1999/xlink" x="0px" y="0px"
	 viewBox="0 0 611.7 162.9" style="enable-background:new 0 0 611.7 162.9;" xml:space="preserve">
<style type="text/css">
	.st0{fill:#FFFFFF;}
</style>
<g>
	<path class="st0" d="M12.6,42.6L0,115.7c0,0,12.6,0.2,15.1,0l15-87.2C14.2,28.9,12.6,42.6,12.6,42.6z"/>
	<path class="st0" d="M53.2,53c-1,0-2,0-2.9,0c-3.4,3.3-6.3,7-6.3,7l1.5-6.9c-8.8,0.2-15.3,0.8-15.3,0.8l-10.9,61.5
		c2.6,0.2,15.2,0,15.2,0l8.6-48.6h7.7c8,0,10.2,2.5,8.6,11.4l-6.6,37.3c2.6,0.2,15.2,0,15.2,0l6.4-36.1C77.8,59.9,72.8,53,53.2,53z"
		/>
	<path class="st0" d="M109,52.4c-18.2,0-29.8,14.5-32.9,32.2c-4,22.6,2,32,20.3,32c2.6,0,5.4-0.1,7.7-0.3c3.3-3.2,5.9-6.6,5.9-6.6
		l-1.7,6.3c0.1,0,0,0,0,0c-3.2,9.8-8.2,9.3-16.7,9.3c-18,0-17.8,13.2-17.8,13.2h15.5c19,0,30.6-1.9,35.5-27.9l10.4-58
		C135.1,52.7,122.4,52.4,109,52.4z M110.6,103.8H99.9c-8.7,0-10.5-6.4-8.2-19.2C93.3,75.2,99,66,107.8,66h9.7L110.6,103.8z"/>
	<path class="st0" d="M162.4,53c-1.4,0-2.8,0-4.1,0.1c-3.4,3.3-6.2,6.9-6.2,6.9l1.6-7.4l4.3-24.3c-15.8,0.1-17.5,13.9-17.5,13.9
		l-13.1,73.2h15.1l8.6-48.6h8.8c8,0,10.2,2.5,8.6,11.4l-6.6,37.3c2.6,0.2,15.2,0,15.2,0l6.4-36.1C187,59.9,182.1,53,162.4,53z"/>
	<path class="st0" d="M297.3,53.1H273c-18.6,0-31.2,0.7-31.2,0.7l-10.9,61.5c2.6,0.2,15.1,0,15.1,0l8.6-48.3l16.9-0.1l-8.6,48.4
		c2.6,0.2,15.1,0,15.1,0l8.6-48.5h8.4c7.7,0,9,2.5,7.4,11.3l-6.6,37.3c15.3-0.2,17.6-15.2,17.6-15.2l3.9-21
		C320.7,59.4,318.3,53.1,297.3,53.1z"/>
	<path class="st0" d="M236,69.8c2.8-15.8-4.9-18.7-22.1-18.7c-11.3,0-15.4,2.5-15.4,2.5C196.2,60,193,67,193,67s10.3-2.5,18.4-2.5
		c2.1,0,4.1-0.2,6.2,0.1c1.5,0.2,2.9,0.8,3.1,2.5c0.1,0.6,0,1.1-0.1,1.7c0,0.3-0.1,0.7-0.1,1c-0.1,0.5-0.2,1-0.4,1.4
		c0,0.1-0.4,0.9-0.5,0.9h-11.4c-15.9,0.4-23.7,12.6-25.9,24.8c-2.2,12.2,2.3,18.9,17.2,18.9c2.3,0,4.6,0,6.9,0
		c3.5-3.3,6.4-7.1,6.4-7.1l-1.9,7c9.1-0.1,16.4-0.4,16.4-0.4L236,69.8z M214.2,103.7c0,0-6.4,0.4-11.3,0.4c-5.8,0-6.4-3.2-5.7-7.2
		c0.7-3.8,2.9-13.4,10.2-13.5l10.1,0.1L214.2,103.7z"/>
	<path class="st0" d="M334.5,39.2c-0.5-0.2-1.4-0.3-2.7-0.3h-3.5l-1.7,9.8h1.6l0.7-4.2h1c0.6,0,1.1,0.2,1.4,0.5
		c0.5,0.5,0.9,1.2,1.5,2.4c0.7,1.8,2.2,1.3,2.2,1.3s-0.5-1-0.9-1.9c-0.5-0.9-0.5-1.1-0.8-1.5c-0.2-0.2-0.5-0.8-0.8-1
		c0.9-0.1,1.7-0.4,2.4-0.9c0.7-0.5,1-1.2,1.2-1.9c0.1-0.5,0-1-0.2-1.4C335.4,39.7,335,39.3,334.5,39.2z M334.1,41.7
		c-0.1,0.5-0.3,0.8-0.7,1.1c-0.4,0.3-1.1,0.4-2.1,0.4h-1.4c-0.5,0.6-0.9,1.3-0.9,1.3l0.3-1.3l0,0l0.5-3h2c0.8,0,1.4,0.1,1.7,0.2
		c0.3,0.1,0.5,0.3,0.6,0.5C334.1,41.1,334.1,41.4,334.1,41.7z"/>
	<path class="st0" d="M331.2,35.5c-4.8,0-8.7,3.9-8.7,8.7c0,4.8,3.9,8.7,8.7,8.7c4.8,0,8.7-3.9,8.7-8.7
		C340,39.4,336,35.5,331.2,35.5z M331.2,51.4c-3.9,0-7.1-3.2-7.1-7.1c0-3.9,3.2-7.1,7.1-7.1s7.1,3.2,7.1,7.1
		C338.4,48.2,335.2,51.4,331.2,51.4z"/>
</g>
<g>
	<path class="st0" d="M442.5,75.3l-3.8-4.2c-0.2,0-0.6,0.1-1.3,0.1c-8.4,0-8.4-10-8.4-12.1c0-2.1,0-12.1,8.4-12.1
		c8.4,0,8.4,10,8.4,12.1c0,1.7,0,9.2-5,11.4l4.4,4.8H442.5z M437.4,69.2c6.1,0,6.1-8.3,6.1-10.1c0-1.9,0-10.1-6.1-10.1
		c-6.1,0-6.1,8.3-6.1,10.1C431.3,61,431.3,69.2,437.4,69.2z"/>
	<path class="st0" d="M460.9,65.6c0,1.8,0.1,3.6,0.1,5.4h-1.8c-0.1-0.8-0.1-1.3-0.1-2.5H459c-0.2,0.7-1.5,2.8-4.4,2.8
		c-3.8,0-4.8-2.7-4.8-5.5V53.6h2v11.7c0,1.2,0,4,3.2,4c2.4,0,3.9-2.3,3.9-5V53.6h2V65.6z"/>
	<path class="st0" d="M476.1,67.1c0,1.3,0.1,2.6,0.2,3.9h-1.8l-0.1-2.5h-0.1c-1.2,1.9-2.6,2.7-4.9,2.7c-2.7,0-4.8-2.2-4.8-5
		c0-5.5,5.9-5.6,8.4-5.6h1.3c0-2.2,0-5.3-3.6-5.3c-2.3,0-4.1,1.6-4.4,1.8l-0.3-2.1c1.6-0.9,2.9-1.5,4.8-1.5c5.3,0,5.3,4.5,5.3,5.7
		V67.1z M474.3,62.2c-4.1,0-7.5,0-7.5,3.9c0,1.5,1.1,3.2,3.2,3.2c0.9,0,4.3-0.4,4.3-5.1V62.2z"/>
	<path class="st0" d="M481.5,45.5h2V71h-2V45.5z"/>
	<path class="st0" d="M488.9,46.7h2.4v3.1h-2.4V46.7z M489.1,53.6h2V71h-2V53.6z"/>
	<path class="st0" d="M499.4,49.5v4.1h3.5v1.8h-3.5v11.3c0,1.4,0.2,2.6,1.9,2.6c0.9,0,1.3-0.2,1.6-0.4v2c-0.5,0.2-1.4,0.2-2.3,0.2
		c-2.5,0-3.2-2-3.2-3.9V55.5h-2.6v-1.8h2.6v-3.5L499.4,49.5z"/>
	<path class="st0" d="M511.4,68L511.4,68l3.9-14.4h2l-5.7,20.6c-0.6,2.3-1.2,4.3-3.9,4.3c-0.5,0-0.9-0.1-1.3-0.2l0.1-2
		c0.3,0.2,1,0.4,1.4,0.4c1,0,1.5-0.9,1.8-2l0.9-3.3l-5.1-17.7h2.1L511.4,68z"/>
	<path class="st0" d="M529.9,47.2h5.5c4.1,0,6.1,2.8,6.1,5.7c0,3.5-2.2,4.9-3.7,5.5v0.1c2.2,0.6,4.2,2.3,4.2,5.8
		c0,6.6-6.4,6.6-8.1,6.6h-4.1V47.2z M532,57.7h2.9c2.5,0,4.4-1.6,4.4-4.4c0-2.2-1.2-4-4.3-4h-3V57.7z M532,69h3
		c4.6,0,4.8-3.8,4.8-4.6c0-2.8-1.6-4.8-4.6-4.8H532V69z"/>
	<path class="st0" d="M546.5,59c0-1.8-0.1-3.6-0.1-5.4h1.8c0,1,0.1,2,0.1,2.8h0.1c1.3-2.5,2.7-3,4.6-3v2.1c-3.1,0-4.6,1.4-4.6,4.6
		V71h-2V59z"/>
	<path class="st0" d="M566.5,67.1c0,1.3,0.1,2.6,0.2,3.9H565l-0.1-2.5h-0.1c-1.2,1.9-2.6,2.7-4.9,2.7c-2.7,0-4.8-2.2-4.8-5
		c0-5.5,5.9-5.6,8.4-5.6h1.3c0-2.2,0-5.3-3.6-5.3c-2.3,0-4.1,1.6-4.4,1.8l-0.3-2.1c1.6-0.9,2.9-1.5,4.8-1.5c5.3,0,5.3,4.5,5.3,5.7
		V67.1z M564.7,62.2c-4.1,0-7.5,0-7.5,3.9c0,1.5,1.1,3.2,3.2,3.2c0.9,0,4.3-0.4,4.3-5.1V62.2z"/>
	<path class="st0" d="M571.8,59c0-1.8-0.1-3.6-0.1-5.4h1.8c0.1,0.8,0.1,1.3,0.1,2.5h0.1c0.4-0.7,1.5-2.8,4.4-2.8
		c4.8,0,4.8,4.8,4.8,5.9V71h-2V59.3c0-1.2,0-4-3.2-4c-2.4,0-3.9,2.3-3.9,5V71h-2V59z"/>
	<path class="st0" d="M598.8,65.2c0,2.7,0.1,4.2,0.1,5.7h-1.8v-2.4H597c-1.3,1.6-2.4,2.6-4.6,2.6c-5.6,0-5.8-7.1-5.8-9.6
		c0-3.3,1.4-8.3,5.7-8.3c2.2,0,3.5,0.9,4.4,2.5h0.1V45.5h2V65.2z M592.7,69.4c3.4,0,4.3-3.3,4.3-6.9c0-2.3,0-7.3-4.2-7.3
		c-3,0-4,3.1-4,7.1C588.7,63.7,588.7,69.4,592.7,69.4z"/>
	<path class="st0" d="M610.4,55.9c-1-0.4-1.8-0.7-3-0.7c-2,0-3,1.5-3,2.8c0,1.6,0.6,1.9,3,3.2c2.4,1.3,4.2,2.2,4.2,5
		c0,3.1-2.2,5-5.1,5c-2.1,0-3.4-0.4-4.4-0.8l0.3-2.2c0.6,0.4,2.3,1.2,3.9,1.2c1.9,0,3.2-1.4,3.2-3c0-1.7-1.1-2.3-3.1-3.4
		c-2.9-1.5-4.1-2.4-4.1-4.8c0-3.3,2.8-4.8,5.1-4.8c1.2,0,2.5,0.3,3.2,0.5L610.4,55.9z"/>
	<path class="st0" d="M442.5,118.1l-3.8-4.2c-0.2,0-0.6,0.1-1.3,0.1c-8.4,0-8.4-10-8.4-12.1c0-2.1,0-12.1,8.4-12.1
		c8.4,0,8.4,10,8.4,12.1c0,1.7,0,9.2-5,11.4l4.4,4.8H442.5z M437.4,112c6.1,0,6.1-8.3,6.1-10.1c0-1.9,0-10.1-6.1-10.1
		c-6.1,0-6.1,8.3-6.1,10.1C431.3,103.8,431.3,112,437.4,112z"/>
	<path class="st0" d="M460.3,108.4c0,1.8,0.1,3.6,0.1,5.4h-1.8c-0.1-0.8-0.1-1.3-0.1-2.5h-0.1c-0.2,0.7-1.5,2.8-4.4,2.8
		c-3.8,0-4.8-2.7-4.8-5.5V96.4h2v11.7c0,1.2,0,4,3.2,4c2.4,0,3.9-2.3,3.9-5V96.4h2V108.4z"/>
	<path class="st0" d="M474.7,109.9c0,1.3,0.1,2.6,0.2,3.9h-1.8l-0.1-2.5H473c-1.2,1.9-2.6,2.7-4.9,2.7c-2.7,0-4.8-2.2-4.8-5
		c0-5.5,5.9-5.6,8.4-5.6h1.3c0-2.2,0-5.3-3.6-5.3c-2.3,0-4.1,1.6-4.4,1.8l-0.3-2.1c1.6-0.9,2.9-1.5,4.8-1.5c5.3,0,5.3,4.5,5.3,5.7
		V109.9z M472.9,105c-4.1,0-7.5,0-7.5,3.9c0,1.5,1.1,3.2,3.2,3.2c0.9,0,4.3-0.4,4.3-5.1V105z"/>
	<path class="st0" d="M479.5,88.3h2v25.5h-2V88.3z"/>
	<path class="st0" d="M486.2,89.5h2.4v3.1h-2.4V89.5z M486.4,96.4h2v17.3h-2V96.4z"/>
	<path class="st0" d="M496.7,92.3v4.1h3.5v1.8h-3.5v11.3c0,1.4,0.2,2.6,1.9,2.6c0.9,0,1.3-0.2,1.6-0.4v2c-0.5,0.2-1.4,0.2-2.3,0.2
		c-2.6,0-3.2-2-3.2-3.9V98.3h-2.6v-1.8h2.6V93L496.7,92.3z"/>
	<path class="st0" d="M508,110.8L508,110.8l3.9-14.4h2l-5.7,20.6c-0.6,2.3-1.2,4.3-3.9,4.3c-0.5,0-0.9-0.1-1.3-0.2l0.1-2
		c0.3,0.2,1,0.4,1.4,0.4c1,0,1.5-0.9,1.8-2l0.9-3.3L502,96.4h2.1L508,110.8z"/>
	<path class="st0" d="M525.8,110.4c1.6,1.5,3.6,1.6,4.2,1.6c3.8,0,4.3-3.4,4.3-4.3c0-2.8-1.6-3.9-4.5-5.8c-3.3-2.2-4.3-3.7-4.3-6.4
		c0-5.3,4.8-5.7,6.2-5.7c1.9,0,3.2,0.5,3.7,0.7l-0.1,2.4c-0.9-0.5-2-1.2-3.8-1.2c-1.4,0-3.8,0.7-3.8,3.5c0,2.3,1.2,3.3,3.3,4.8
		c4.2,3.1,5.5,4.2,5.5,7.4c0,4-2.7,6.6-6.4,6.6c-1.5,0-3.3-0.3-4.5-1.1L525.8,110.4z"/>
	<path class="st0" d="M541.8,105.7c0,6.4,4.1,6.4,4.9,6.4c1.1,0,2.8-0.5,3.7-1.4l0.1,2.3c-0.8,0.4-2,1-4,1c-6.8,0-6.8-7.2-6.8-8.9
		c0-6.5,3.2-8.9,6.2-8.9c5,0,5.5,5.3,5.5,9.6H541.8z M549.2,103.9c0-4.6-1.9-5.9-3.5-5.9c-2.7,0-3.9,3.6-3.9,5.9H549.2z"/>
	<path class="st0" d="M555,101.8c0-1.8-0.1-3.6-0.1-5.4h1.8c0,1,0.1,2,0.1,2.8h0.1c1.3-2.5,2.7-3,4.6-3v2.1c-3.1,0-4.6,1.4-4.6,4.6
		v10.9h-2V101.8z"/>
	<path class="st0" d="M563.2,96.4h2.1l4.1,15.1h0.1l4.2-15.1h2l-5.1,17.3h-2.4L563.2,96.4z"/>
	<path class="st0" d="M578.4,89.5h2.4v3.1h-2.4V89.5z M578.6,96.4h2v17.3h-2V96.4z"/>
	<path class="st0" d="M594.8,99c-0.8-0.6-2.1-0.9-3.1-0.9c-2.7,0-5.1,1.8-5.1,6.4c0,6.4,3.5,7.4,5.4,7.4c0.8,0,2.3-0.2,2.9-0.9
		l0.2,2.2c-0.8,0.4-2.1,0.6-3.4,0.6c-3.7,0-7.2-2.9-7.2-8.8c0-5.3,2.3-9,7.2-9c1.4,0,2.4,0.3,3.2,0.6L594.8,99z"/>
	<path class="st0" d="M599.1,105.7c0,6.4,4.1,6.4,4.9,6.4c1.1,0,2.8-0.5,3.7-1.4l0.1,2.3c-0.8,0.4-2,1-4,1c-6.8,0-6.8-7.2-6.8-8.9
		c0-6.5,3.2-8.9,6.2-8.9c5,0,5.5,5.3,5.5,9.6H599.1z M606.6,103.9c0-4.6-1.9-5.9-3.5-5.9c-2.7,0-3.9,3.6-3.9,5.9H606.6z"/>
</g>
<rect x="373" class="st0" width="1.3" height="162.9"/>
</svg>
