<?xml version="1.0" encoding="utf-8"?>
<!-- Generator: Adobe Illustrator 19.2.1, SVG Export Plug-In . SVG Version: 6.00 Build 0)  -->
<svg version="1.1" id="Layer_1" xmlns="http://www.w3.org/2000/svg" xmlns:xlink="http://www.w3.org/1999/xlink" x="0px" y="0px"
	 viewBox="0 0 35.3 35.3" style="enable-background:new 0 0 35.3 35.3;" xml:space="preserve">
<style type="text/css">
	.st0{fill:#FFFFFF;}
	.st1{opacity:0.12;enable-background:new    ;}
</style>
<g id="Twitter_4_">
	<path class="st0" d="M34.1,35.3H1.3c-0.7,0-1.2-0.5-1.2-1.2V1.2C0.1,0.5,0.6,0,1.3,0h32.8c0.7,0,1.2,0.5,1.2,1.2V34
		C35.3,34.7,34.8,35.3,34.1,35.3z"/>
	<g>
		<rect y="0" class="st0" width="35.3" height="35.3"/>
		<path d="M13.6,26.6c8.3,0,12.9-6.9,12.9-12.9c0-0.2,0-0.4,0-0.6c0.9-0.6,1.7-1.4,2.3-2.3c-0.8,0.4-1.7,0.6-2.6,0.7
			c0.9-0.6,1.7-1.4,2-2.5c-0.9,0.5-1.8,0.9-2.9,1.1c-0.8-0.9-2-1.4-3.3-1.4c-2.5,0-4.5,2-4.5,4.5c0,0.4,0,0.7,0.1,1
			c-3.8-0.2-7.1-2-9.3-4.7c-0.4,0.7-0.6,1.4-0.6,2.3c0,1.6,0.8,3,2,3.8c-0.7,0-1.4-0.2-2-0.6c0,0,0,0,0,0.1c0,2.2,1.6,4,3.6,4.4
			c-0.4,0.1-0.8,0.2-1.2,0.2c-0.3,0-0.6,0-0.8-0.1c0.6,1.8,2.2,3.1,4.2,3.1c-1.5,1.2-3.5,1.9-5.6,1.9c-0.4,0-0.7,0-1.1-0.1
			C8.7,25.8,11,26.6,13.6,26.6"/>
	</g>
</g>
<g id="Youtube_4_">
	<g id="Lozenge_1_">
		<g>
			<path class="st0" d="M67-42.7c0,0-0.5-3.5-2-5c-1.9-2-4.1-2-5.1-2.1c-7-0.5-17.6-0.5-17.6-0.5l0,0c0,0-10.6,0-17.6,0.5
				c-1,0.1-3.1,0.1-5.1,2.1c-1.5,1.5-2,5-2,5s-0.5,4.1-0.5,8.2v3.8c0,4.1,0.5,8.2,0.5,8.2s0.5,3.5,2,5c1.9,2,4.4,1.9,5.6,2.2
				c4,0.4,17.1,0.5,17.1,0.5s10.6,0,17.6-0.5c1-0.1,3.1-0.1,5.1-2.1c1.5-1.5,2-5,2-5s0.5-4.1,0.5-8.2v-3.8
				C67.5-38.5,67-42.7,67-42.7z"/>
		</g>
	</g>
	<path id="Triangle_4_" d="M37.1-26L50.7-33l-13.6-7.1C37.1-40.2,37.1-26,37.1-26z"/>
	<path id="The_Sharpness_4_" class="st1" d="M37.1-40.1l11.9,8l1.7-0.9L37.1-40.1z"/>
</g>
<g id="Instagram_4_">
	<path class="st0" d="M99.6-47.2c4.7,0,5.3,0,7.2,0.1c1.7,0.1,2.7,0.4,3.3,0.6c0.8,0.3,1.4,0.7,2,1.3c0.6,0.6,1,1.2,1.3,2
		c0.2,0.6,0.5,1.6,0.6,3.3c0.1,1.9,0.1,2.4,0.1,7.2s0,5.3-0.1,7.2c-0.1,1.7-0.4,2.7-0.6,3.3c-0.3,0.8-0.7,1.4-1.3,2s-1.2,1-2,1.3
		c-0.6,0.2-1.6,0.5-3.3,0.6c-1.9,0.1-2.4,0.1-7.2,0.1c-4.7,0-5.3,0-7.2-0.1c-1.7-0.1-2.7-0.4-3.3-0.6c-0.8-0.3-1.4-0.7-2-1.3
		c-0.6-0.6-1-1.2-1.3-2c-0.2-0.6-0.5-1.6-0.6-3.3c-0.1-1.9-0.1-2.4-0.1-7.2s0-5.3,0.1-7.2c0.1-1.7,0.4-2.7,0.6-3.3
		c0.3-0.8,0.7-1.4,1.3-2c0.6-0.6,1.2-1,2-1.3c0.6-0.2,1.6-0.5,3.3-0.6C94.3-47.2,94.9-47.2,99.6-47.2 M99.6-50.3
		c-4.8,0-5.4,0-7.3,0.1c-1.9,0.1-3.2,0.4-4.3,0.8c-1.2,0.5-2.2,1.1-3.1,2c-1,1-1.6,2-2,3.1c-0.4,1.1-0.7,2.4-0.8,4.3
		C82-38.2,82-37.5,82-32.8s0,5.4,0.1,7.3c0.1,1.9,0.4,3.2,0.8,4.3c0.5,1.2,1.1,2.2,2,3.1c1,1,2,1.6,3.1,2s2.4,0.7,4.3,0.8
		c1.9,0.1,2.5,0.1,7.3,0.1s5.4,0,7.3-0.1c1.9-0.1,3.2-0.4,4.3-0.8c1.2-0.5,2.2-1.1,3.1-2c1-1,1.6-2,2-3.1s0.7-2.4,0.8-4.3
		c0.1-1.9,0.1-2.5,0.1-7.3s0-5.4-0.1-7.3c-0.1-1.9-0.4-3.2-0.8-4.3c-0.3-1-0.9-2-1.9-3s-2-1.6-3.1-2c-1.1-0.4-2.4-0.7-4.3-0.8
		C105.1-50.3,104.5-50.3,99.6-50.3L99.6-50.3z"/>
	<path class="st0" d="M99.6-41.8c-5,0-9.1,4.1-9.1,9.1s4.1,9.1,9.1,9.1s9.1-4.1,9.1-9.1S104.7-41.8,99.6-41.8z M99.6-26.6
		c-3.3,0-5.9-2.7-5.9-5.9s2.7-5.9,5.9-5.9c3.3,0,5.9,2.7,5.9,5.9S102.9-26.6,99.6-26.6z"/>
	<circle class="st0" cx="109.1" cy="-42" r="2.1"/>
</g>
</svg>
