<svg xmlns="http://www.w3.org/2000/svg" xmlns:xlink="http://www.w3.org/1999/xlink" width="40" height="44" viewBox="0 0 40 44">
    <g fill="#FFF" fill-rule="evenodd">
      <path id="a" d="M29.095 29.104c.688.81.6 1.821.023 2.428-3.086 3.244-8.158 9.557-8.155 9.563-.398.443-.854.764-1.398.745-.547-.024-1.055-.394-1.362-.853-3.565-5.291-7.818-9.824-7.818-9.824-.652-.7-.63-1.78.05-2.424.675-.65 1.757-.609 2.406.085 0 0 3.388 3.545 5.178 5.97-.075-7.316.498-27.41.784-30.26.357-3.555 4-2.5 4-1 0 8.47-1.472 23.003-1.376 31.315 1.497-1.88 2.55-3.007 5.26-5.758a1.7 1.7 0 0 1 2.408.013z"/>
    </g>
</svg>
