<svg xmlns="http://www.w3.org/2000/svg" viewBox="0 0 77 40">
  <g fill="none" fill-rule="evenodd">
    <path fill="#00B752" fill-rule="nonzero" d="M58.4 38.96c-7.48-.15-15.06-6.59-15.96-7.37a34.38 34.38 0 0 1-3.46-3.46 228.73 228.73 0 0 1-4.65 3.84c-3.52 2.83-5.31 4.25-6.95 5.02a19.1 19.1 0 0 1-8.1 1.8c-1.03-.02-4.41-.13-8.2-2a19.6 19.6 0 0 1-5.7-4.25C4.33 31.4.17 27.11.17 20.52c0-1.6-.2-5.07 1.8-8.69 2.65-4.77 7.16-6.63 8.94-7.36A20.55 20.55 0 0 1 17.97 3c4.9-.16 10.44 1.4 13.79 4.5.4.37 1.54 1.5 3.81 3.74a838.22 838.22 0 0 1 2.65 2.62c1.1-1.1 2.7-2.65 4.71-4.43 3.65-3.23 5.52-4.87 7.9-5.88a19.97 19.97 0 0 1 7.52-1.46c1.72-.05 4.28-.1 7.33.96 1.06.37 4.28 1.5 6.95 4.47 3.08 3.44 4.35 8.86 4.35 13.42 0 4.57-1.04 8.6-4.12 12.04a19.25 19.25 0 0 1-3.36 2.97c-.8.55-1.7 1.18-3.03 1.72-1.2.49-2.15.67-3.17.86 0 0-2.57.48-4.9.44zM45.9 21.14l6.4 5.25.18.17A8.36 8.36 0 0 0 58.65 29a8.4 8.4 0 0 0 2.72-.53c.52-.2 2.09-.81 3.32-2.3 1.78-2.13 1.69-4.7 1.64-6-.05-1.48-.13-3.52-1.64-5.2a7.84 7.84 0 0 0-4.3-2.25 8.95 8.95 0 0 0-2.03-.18c-.6.02-2.87.14-6.33 2.48a23.53 23.53 0 0 0-6.12 6.13zm-26.06-8.71h-.25c-4.6.14-6.96 2.36-6.96 2.36-2.72 2.55-3.01 8.08-.12 11.41a8.48 8.48 0 0 0 6.26 2.86c2.24 0 4.18-1.05 5.32-1.66.19-.1.88-.48 1.72-1.09 1.44-1.03 2.13-1.87 5.08-4.96l.86-.9-6.1-5.6-.07-.06a8.1 8.1 0 0 0-5.74-2.36z"/>
    <g fill="#FFF">
      <path d="M44.59 9.2c.06.02.28-.55.46-.49-.09-.03-.22.58-.46.5z"/>
      <path d="M45.06 9.17c.03-.03.32-.22.34-.2.02.05-.42.43-.55.58-.84.88-1.74 1.4-2.55 2.21-.4.4-.8.89-1.23 1.34-.48.5-1.05.9-1.25 1.3.03-.08.72-.58 1.03-.86-.07.06.22-.37.3-.23l-.13.14-.3.31-.57.57c-.13.13-.15 0-.23.17-.08.16.1.01.12 0 .27-.16.65-.45.83-.72-.1.14-.25.1-.05-.05.12-.09.36-.24.4-.3-.07.12-.19.1-.2.06-.03-.1.27-.13.35-.18.14-.1.23-.3.15-.2-.02.01-.1-.02-.1-.02.06-.13.27-.12.44-.26.4-.32.86-.83 1.24-1.26.5-.58 1.33-1.05 2.06-1.83.53-.56 1.14-1 1.63-1.44.49-.44.92-.96 1.56-1.45.36-.28 1.94-1.26 1.84-1.41 2.64-1.41-.9.06-1.01 0-.41-.18-1.01.43-1.24.61-.86.67-1.58 1.3-2.25 2.08-.18.22-.13.2.17-.05.23-.2.43-.5.8-.72 0-.01.09-.08.12-.02.07.15-.8.72-1 .91-.49.43-.83.77-1.13 1.09-1.47 1.56-3.12 2.37-4.18 4.13 1.35-1.31 3-2.96 4.6-4.3zm-3.1 3.24c-.05-.02-.03-.1-.01-.1.03.02.02.1 0 .1zm-.45.43c.08.03.07-.26.17-.22 0 0 0 .29-.17.22zm-.34.36c.14.06.12-.36.27-.3.01 0-.16.34-.27.3z"/>
      <path d="M40.47 13.47c-.14.35-.36.16 0 0zm-.86 1.26c-.04-.02-.01-.13.03-.1.04 0 .01.11-.03.1zm6.86-5.21c-.04-.02.31-.38.38-.44.96-.87 1.7-1.7 2.76-2.4-.02.02.47-.32.57-.14.1.18-.37.28-.41.3-.13.06-.4.11-.49.17-.54.35-.83.82-1.28 1.21-.44.39-.97.8-1.5 1.28l-.03.02zm-1.71 1.58c.02 0 .62-.62.68-.68.09-.07.56-.72.75-.65 0 0-.24.3-.3.35l-.75.66c-.1.08-.29.35-.38.32zm-4.31 3.18c-.04-.01-.02-.12.02-.1.04.01.02.12-.02.1zm-.34 1.83c-.03-.01.05.02 0 0z"/>
    </g>
    <path fill="#FFF" d="M36.38 18c-.04-.01.22-.37.28-.44.71-.87 1.24-1.69 2.08-2.43-.02.02.36-.34.47-.2.1.14-.11.45-.15.47-.1.07-.42.22-.49.28-.43.37-.7.6-1.03 1-.34.39-.74.8-1.14 1.3l-.02.01zM31.17 25.92c.13.04.26.27.18.25-.13-.03-.26-.27-.18-.25zm-1.09.21c.14.05.28.36.14.31-.14-.04-.28-.35-.14-.3zm-.2.33c.15.05.28.43.1.37-.14-.05-.28-.43-.1-.37zm-.51.28s.05.12.08.23c.04.11.05.22-.02.19-.02 0-.6-.62-.06-.42zm-.28.42c.12.05.23.3.15.26-.12-.05-.23-.29-.15-.26zm-.26.36c.56.33-.25.37-.3.4-.15.12-.45.44-.76.72a3.8 3.8 0 0 1-.77.6c-.55.2-.45.1-.19-.08.26-.17.68-.45.78-.55.34-.3.5-.73 1.09-.88.03-.02.08-.25.15-.2zm-.12-.31c.13.05.23.3.16.26-.13-.05-.23-.3-.16-.26zM12.52 29.3a.16.16 0 0 0 .06.05l-.06-.04zm.06.03l.07.04c-.03 0-.04-.03-.07-.04zm.16.12l.06.03-.04-.02h-.02zm.64.38l.02.01.06.01a.2.2 0 0 0-.08-.02zm-.68-.42c-.01 0 .03.03.05.03l-.03-.03h-.02zm.79.45l.04.02v-.01h-.04zm-.36-.22l.06.03-.06-.03zm.65.32h.03c.01.02.03.01.05.02l.06.03.1.01-.06-.02h-.05l-.02-.02a.27.27 0 0 1-.06-.01l-.05-.01zm-.55-.28l.03.02h.02l-.05-.02zm.11 0l.08.03c-.03-.01-.07-.03-.08-.02zm1.1.49l.06.02a.26.26 0 0 0-.07-.02zm-.86-.4l.08.02-.08-.03zm.78.3l.08.01h-.03l-.05-.01zm-.5-.24l-.06-.03c-.03 0 .03.02.06.03zm.27.08a.72.72 0 0 0 .08.02l-.1-.03.02.01zm.82.36c-.01.01.05.02.06.02l-.06-.02zm.07 0l-.05-.02c-.02 0-.02 0 0 0l.05.02zm.43.17l.09.03a.58.58 0 0 0-.1-.03zm-1.48-.64l.04.01c.03 0 .02 0 0 0l-.04-.01zm.2.08l.06.03-.07-.03zm-.04-.04h.02l.19.07h.03l-.05-.02-.04-.01-.07-.02c-.02 0-.04 0-.05-.02h-.03zm1.27.53h0-.03c.03 0 .05 0 .07.02l-.04-.02zm-1.75-.78c.02.01.04.03.07.03l-.07-.03zm0 0l.05.01-.05-.02zm.1.03h.03-.04c-.01 0 0 0 0 0zm1.75.77l.08.03c.03 0-.05-.02-.08-.03zm-1.99-.92a.77.77 0 0 0 .1.02l-.1-.02zm2.3 1l-.07-.02.06.01zm-1.6-.68l.07.02-.07-.02zm.5.22a.3.3 0 0 0 .11.03c-.01 0 0 0 0 0-.03-.02-.07-.02-.1-.03zm-.8-.38a.28.28 0 0 0 .09.03c-.03-.01-.06-.03-.1-.03zm2.04.87h.02l.15.03c-.07-.01-.1-.03-.17-.03zm-1.4-.61l.06.01h-.03l-.03-.01zm1.6.65h.02l.06.01h-.05a.14.14 0 0 1-.04-.01zm.09.02l.1.02c-.05-.01.02 0-.03-.02 0 .01-.04 0-.07 0zm-1.64-.7h.06-.06zm1.92.74l.1.02h-.03c.05.02.06 0 .13.02l-.04-.02c-.04 0 0 0 .02.01l-.18-.03zm-.75-.3a.28.28 0 0 0 .1 0 .36.36 0 0 0-.1 0zm-.47-.2l.03.01h.01l-.04-.01zm.73.17l.1.02-.1-.02zm-.43-.23l.06.01h-.02l-.04-.01zm-.37-.16l.1.02-.1-.02zm1.62.56l.03.01H16.85zm-1.04-.38l.1.02c.01 0 0 0 0 0h.05l-.05-.01-.1-.01zm1.2.37h.02-.02zm-.74-.29l.1.02c-.03 0-.07 0-.1-.02zm-.05-.05a.27.27 0 0 0 .08.01.74.74 0 0 0-.08 0zm.43.14l.08.01a.27.27 0 0 0-.08-.01zm.29.04l.05.01h-.05zm.12.01l.06.01h-.06zm1.12.24h.07c.03-.01-.04 0-.01-.01-.03 0-.1 0-.06.01zm.09-.01h.05a.23.23 0 0 0 .04 0h-.09zm.18.02h.07a.15.15 0 0 0-.07 0zm-.96-.19h.02-.02zm-.06-.02h.13-.13zm.12.02h.08-.08zm.13.03c.07 0 .08 0 .04-.01l-.04.01zm1.02.15a.3.3 0 0 0 .08 0h-.09zm.4 0l.18-.03c-.06 0-.12 0-.18.02l.02-.01c-.06 0-.06 0-.03.01zm-.94-.14h.05c0-.02-.06 0-.05 0zm.05 0l.07-.01a.25.25 0 0 0-.07 0zm1.26.1h.03l.03-.01h-.06zm-.73-.09h.02-.02zm1.13-.21l.07-.01-.07.01zm.8-.13l.07-.01h-.04a.19.19 0 0 0 .08-.01h-.04l.1-.02h-.05a.38.38 0 0 1-.1.02c-.01.01.03 0-.02.02zm.3-.06H21l.05-.02c-.03 0-.07.02-.04 0-.03 0-.03.02-.04.02zm.12-.02l.04-.02h-.04l-.02.02h.02zm.12-.03l.08-.02-.1.02h.02zm.13-.04c-.02 0-.03.01 0 0h.02-.02zm.02 0h.03l.02-.01h-.05zm.05-.03a.23.23 0 0 0 .08 0h-.08zm.45-.1l.05-.03-.05.01c-.02.01-.03.02 0 .01zm.24-.08l.06-.02h-.03l-.03.02zm.15-.05l.09-.02h-.05l-.04.02zm.1-.05l.05-.02-.06.02s.02 0 0 0zm.17-.04l.14-.04c.03-.02-.06 0-.08 0 0 .02 0 .01-.04.04l-.07.01h.05z"/>
    <path fill="#FFF" d="M22.53 29.54l.1-.04a.3.3 0 0 0-.1.04zm.16-.06l.04-.01c.02-.01-.02 0 0-.02a.34.34 0 0 0-.04.02c.03 0 .03 0 0 0zm.22-.09h.04s0-.02-.01-.01l-.03.01zm2.54-1.14a.64.64 0 0 0 .1-.07l-.1.05v.01zm.67-.43l.05-.02-.05.02zm.7-.43a.3.3 0 0 0 .08-.06l-.09.06zm.33-.23l.1-.07a.62.62 0 0 0-.1.07zm.64-.47l.07-.05a.33.33 0 0 0-.07.05zm.67-.5l.02-.02a.38.38 0 0 0-.04.03h.02zm2.36-1.46l.14-.14-.14.14zm.15-.15a.26.26 0 0 0 .06-.06l-.06.06zm-1.34.63s0-.01 0 0l.09-.09a1.23 1.23 0 0 0-.12.1l.03-.01zm.2-.16s.03-.03 0-.01c-.02.02-.02.03 0 .01zm-.06.03l.02-.01.02-.03-.04.04zm1.42-1.32l.04-.05-.04.04c.01 0 0 0 0 0zm.08-.1a.12.12 0 0 0 .04-.04l-.04.04zm.12-.1l.15-.14c-.02 0 .02-.02.04-.05l-.2.2zm.17-.17l.06-.06a.53.53 0 0 0-.06.06zm.09-.08l.07-.07-.07.07zm.07-.05l.06-.06c.01-.02.02-.03 0-.02l-.06.08zm0-.1l.05-.05a.27.27 0 0 0-.03.03l-.02.02zm.3-.23c0 .01 0 .01 0 0h.01c.01-.02.08-.08.1-.12 0 0 0 .01 0 0l-.08.1c-.03.01.01-.03 0-.03l-.03.04c0 .01.03-.02 0 .01zm-.2.13a1.52 1.52 0 0 0 .12-.12 1.14 1.14 0 0 0-.11.12zm.35-.28c.02-.01.02 0 .05-.03l.02-.03-.07.06zm.03-.04c.03-.02.06-.05.08-.09l-.08.09zm.27-.26h-.01c-.04.04-.07.09-.12.12.01.01.09-.09.13-.12zm-.14.13l.12-.13-.12.13zm.09-.11l.05-.06-.05.06zm.02-.02l.1-.1-.1.1zm.18-.16c-.04.03 0-.01.02-.03.02-.01 0 .02-.02.03l.05-.04a.93.93 0 0 1 .1-.14.4.4 0 0 0-.07.09c-.01 0-.05.04-.04.02l-.12.16a.37.37 0 0 0 .08-.08zm.15-.16l.02-.01.04-.05v-.01l-.03.03-.03.04zm.07-.06l.03-.03-.03.03zm.03-.05c0 .02.03-.02.04-.03l.02-.03-.06.06zm-20.61 7s.02.02 0 0l-.03-.03c.05.05-.04-.01.02.03l.15.15.05.04.03.03.07.03a.6.6 0 0 0-.08-.05l-.06-.05-.11-.12c-.03-.02.02.04.03.05l-.07-.07zm.54.46l.12.06-.02-.02-.1-.04z"/>
    <path fill="#FFF" d="M13 29.6c.02 0 .03 0 0 0a.1.1 0 0 1 .03.01h.05c.04.03.09.05.14.06.05.03.11.04.17.06-.01.01-.1-.02-.1-.02l.23.07c.02.02.04.02.08.03h-.03l.04.02c-.02-.01.04 0 0-.01l.17.04a2.77 2.77 0 0 0-.14-.03c.02.02.12.03.17.05l.08.02c.01 0 0 0 0 0a.08.08 0 0 0 .03 0v.01l.2.05h.01a6.71 6.71 0 0 0-.16-.03l.16.05-.03-.01h.04c.04.02 0 .02.04.03h.03a.07.07 0 0 0-.02 0c-.02 0 0-.02-.03-.01-.04-.02.02 0 .05 0-.05 0 .04.01 0 .01l.07.01h-.06c-.02 0 .02 0 0 0l.08.03h-.05c.02 0 .06 0 .08.02l-.04-.02.07.02c-.03-.01-.01 0 0-.01h.02l.02.01c.04 0 .22.06.2.07h.05l.03.02-.12-.03.17.05c.01 0-.02 0 .01.01l.12.03h.02c.02 0 .06 0 .1.02-.02 0 .06.02.07.01.05.02-.04 0 0 .01a.35.35 0 0 1 .07.02c-.1-.01-.17-.04-.23-.05.01.01.03 0 .05.02.11.01.2.06.31.07.1.04.3.07.33.1l.1.02.11.02s-.01 0 0 0 .07.01.06.02l.27.05H16.13l.23.04.1.02.05.01c.05 0 .2.04.3.04.07.02.22.01.27.03h-.07l.16.01.13.02h.04c.06.01.12.02.18.01l.32.02.53.02.52-.01c.35-.03.7-.05 1.05-.1.35-.04.7-.12 1.03-.18.34-.09.69-.16 1.02-.27.34-.1.67-.22 1-.33.33-.13.66-.26.97-.4.32-.14.63-.3.95-.45.3-.17.62-.33.92-.51.02-.01 0 0 0 .01l-.28.16-.28.15-.05.03.02-.01c-.03.01-.05.04-.08.04l-.02.02c-.08.03-.2.1-.3.16a2.92 2.92 0 0 0-.26.12s-.01 0 0 0l-.41.2-.03.01h.01l-.48.21c-.02.02-.1.05-.15.06-.07.03-.12.06-.15.06-.06.03-.12.06-.19.07-.03.02.02 0-.01.02h-.03l-.13.06c-.01 0 0 0 0 0l-.16.06h-.05l-.04.03h-.02l-.19.07c-.01 0-.01 0 0 0l-.34.11c-.05.02-.1.02-.14.05a.8.8 0 0 0-.14.04l-.9.23h-.01l-.07.02c-.18.04-.41.07-.61.12h-.02a1.8 1.8 0 0 1-.23.03s.02.01-.06.03h-.05l.06-.02H20c-.1.01-.2.04-.3.04a.39.39 0 0 1-.15.02c-.02 0 0 0 0 0l-.28.02-.01.01-.42.03c-.01 0 0 0 0 0h-.89-.03H17.81h-.05c-.05-.02-.17-.01-.24-.02h-.07.03a.68.68 0 0 0-.07 0s.02 0 0 0h.04-.16c0-.02.05 0 .07 0-.05-.02.03 0 .05 0-.08-.03-.08-.01-.15-.03-.02 0 .02.01.01.01h-.17l-.1-.01h.03-.04l-.08-.01s.02 0-.01-.01c-.04 0-.17 0-.17-.02h-.1c-.05-.02-.12-.02-.14-.04-.04.01-.14-.03-.22-.03l-.2-.04c-.02 0 .04 0 0 0-.11-.01-.21-.05-.32-.07l.04.01s-.02 0 0 .01l-.15-.04.03.01h-.06l-.03-.02-.2-.04h.01c-.02-.02-.04-.02-.06-.02h.02-.07.02l-.17-.05s.02 0 0 0c-.05 0-.21-.06-.27-.07l-.03-.01h-.04l-.08-.04.04.02s-.01 0 0 0c-.09-.02-.16-.05-.25-.06l-.02-.02c-.03 0 0 0 .01.01l-.12-.03c-.05-.02.02 0 0-.02l-.03.01c-.04 0-.03-.01-.05-.02h.03-.06l-.1-.04c-.04 0-.05-.01-.1-.03h-.02l.03.02.05.01c.02 0 .01 0 0 0l.17.05.06.01c.02.02 0 .01-.03 0l.06.02c.04 0 .07.02.1.03h-.02c.02 0 .1.02.08.03h.02l.08.02h.01l.06.01.2.06h-.03c.02 0 .04 0 .06.02a.3.3 0 0 1-.09-.03l-.16-.04.28.08-.02-.01c.05 0 .04.02.1.03l-.05-.02.07.02h-.01.04l.22.06h-.05l.33.07h-.03.06c.05.02 0 .02.04.03.05 0-.03-.02 0-.01l.2.04.1.02H16l.16.03h-.06l.14.02c.03 0-.01 0 .02.01h-.06c.1.01.17.03.27.03.04.01-.04 0 0 .02l.26.04.1.01h.02c.06.01.22.01.23.03l.32.03c.05.01.1 0 .16.02h.14c.2 0 .4.02.59.03 0 0 .02-.01-.01-.01h.6v-.01c.05 0 .11 0 .18-.02h.05l.51-.03h.01l.44-.06.22-.03.22-.04c.04-.02.24-.05.37-.08.07 0 .12-.02.17-.03l.03-.01.16-.04c.14-.04.34-.07.5-.13h.03c.2-.07.41-.12.62-.2.09-.01.18-.06.27-.08.05-.03.1-.04.16-.06.14-.04.29-.1.43-.16.16-.06.33-.12.48-.2l.48-.2.03-.02c.01-.01.01 0 0 0l.46-.22.03-.01c.03-.02 0-.02.06-.04l-.03.02.05-.03a17.9 17.9 0 0 0 1.74-1c.56-.35 1.1-.74 1.63-1.15l.02-.01.43-.34.05-.04a.84.84 0 0 1 .11-.1l.03-.02.15-.12c.24-.19.46-.4.7-.58l.02-.03a.68.68 0 0 0 .13-.1l.02-.01c.01-.03.03-.04.05-.05l.21-.2h.01c.02 0 .02-.02.06-.04h-.01l.05-.05c.01-.01 0 0 0 0l.1-.1c.02 0-.02.03-.03.05l.21-.2.03-.03c0 .01.02-.02-.01 0l.1-.1c.02 0 .06-.04.03-.01l.06-.06-.02.02.12-.13v.02c0-.01.01-.03.03-.03-.02 0 .02-.03.04-.05.1-.09.21-.22.31-.29.01-.03.08-.09.12-.12l-.07.07.03-.02-.1.1-.1.1c.07-.05.18-.16.24-.23l-.02.02c.04-.04.11-.11.1-.12l.04-.02.18-.2a3.87 3.87 0 0 0 .27-.26 1.69 1.69 0 0 0 .16-.18c.12-.1.3-.32.46-.45-.05.02.08-.1.06-.1.03-.02.06-.07.1-.09a3.51 3.51 0 0 1 .36-.36l.02-.03a.3.3 0 0 1 .06-.06l.05-.05c0-.02.02-.03.03-.05l-.03.03c.07-.08.2-.2.3-.28a.32.32 0 0 1 .07-.1l.24-.28.04-.02c-.02 0 .05-.06.07-.09 0 0 .01 0 0 0l.22-.23c.1-.09.2-.2.27-.29l.2-.23a3.98 3.98 0 0 0 .2-.23l-.04.03.05-.05-.06.05c-.02.03-.08.07-.08.09l-.05.03-.1.11.08-.1c-.14.14-.33.32-.48.5a.26.26 0 0 1-.04.04l-.05.05a.5.5 0 0 0-.11.14c-.02 0 0-.02.01-.04l-.04.04.05-.06c-.02 0-.02.03-.04.04l-.02.03-.02.02.01-.03.02-.02c0 .02.04-.04.06-.06h.02l.1-.13-.05.07.05-.06c.06-.05.11-.12.16-.18l-.1.11a.54.54 0 0 1 .13-.13l.13-.14.4-.43-.1.08a.88.88 0 0 1-.1.1v.01l-.09.07.02-.02c-.04.02-.07.06-.1.09-.02.02 0-.02 0 0-.06.03-.08.07-.13.12l.06-.07a.27.27 0 0 1-.03.02l-.04.05h-.02l-.12.13c0 .01 0 .02.01 0a.16.16 0 0 1-.03.04l-.03.01a.92.92 0 0 0 .11-.14c.07-.07.14-.15.22-.21-.02 0 .03-.04.06-.07l-.04.04.1-.1c.01-.01-.02.02.01 0 0-.02.08-.1.13-.14l.12-.12-.06.05.2-.21c.05-.06.23-.21.23-.24l.09-.1-.01.03a.9.9 0 0 0 .17-.22c-.03.02-.07.06-.06.04-.05.05-.13.12-.16.13-.02.02-.06.06-.06.08a.23.23 0 0 0 .02-.03c.02 0 0 0-.01.02l-.05.04c-.02.02-.02 0 0 0a.12.12 0 0 0-.03.02l-.18.17-.19.2-.01.02.11-.14-.04.03-.25.27.1-.12-.06.04-.02.04-.09.11c-.01.02 0 0-.03.02 0 0 .02-.02 0-.01l-.02.04-.03.02-.03.04c-.01.02-.02.02-.01 0-.03.03-.02.03-.02.04a.16.16 0 0 1-.04.03l.04-.05c-.04.03-.05.05-.05.06a.75.75 0 0 0-.1.11c-.03.03 0 0-.01 0l.07-.07c-.03.02-.03.01 0-.01l-.04.03-.03.03-.1.1.03-.03c0-.01 0 0 0 0l.01-.02-.07.07h-.01l-.03.04-.04.02-.01.02-.03.02-.1.1c-.02.01 0-.01.02-.03l-.05.05s-.01.01 0 0l-.26.26h.01l-.04.04c-.03 0-.11.12-.16.16 0-.03.07-.08.11-.14-.03.02-.05.06-.07.06l-.03.04-.02.01.05-.04.01-.03-.08.08-.07.1c-.02.01-.01 0 0-.02l-.06.06-.02.03.04-.03a.3.3 0 0 1-.06.06l-.05.06c-.01 0 0-.02-.03.02-.03.03 0-.02-.02 0 0 .02-.03.05-.07.1l-.1.1-.1.1c-.02.03.02-.02.02-.01a.8.8 0 0 0-.12.15c.06-.05.06-.08.1-.12 0 0 .01 0 0 0l.03-.03c.05-.04.13-.16.2-.2l-.18.19c-.02.05-.1.13-.18.2l.03-.05-.05.05c-.06.04-.07.07-.12.12l-.09.09h.01l-.05.05.02-.03a.3.3 0 0 0-.06.07l-.07.07-.1.1c-.02.02 0-.02.02-.05l-.11.13-.04.03c-.02.02.04-.04.02-.01l.05-.05c.02 0 .01 0 .04-.03v.01l-.06.04v.01a.45.45 0 0 1-.06.06l.01-.02.02-.01s0-.02 0 0l-.23.24-.02.01a1.15 1.15 0 0 1-.1.11l.05-.06c.02 0 .03-.03 0 0a6.23 6.23 0 0 1-.17.17c-.02.01.06-.06.05-.07l-.04.05c-.08.06-.2.21-.29.29-.02.01.05-.05.01-.02a.42.42 0 0 1-.06.07l.05-.05h.01l-.1.1-.03.01-.08.08c0 .01-.01.01 0 0l-.05.04c-.01.01 0 .01 0 0l-.29.28.01-.02-.05.05c-.03.03.01 0-.01.02a.49.49 0 0 0-.09.08l-.02.02v.01c-.05.03-.04.03-.08.07l-.03.01h.01a.5.5 0 0 1-.12.1c-.06.06.05-.03.01 0l-.04.04-.07.07a.29.29 0 0 1-.07.05l-.03.04c.03-.02 0-.02.03-.03l-.15.15.02-.04c-.04.03-.04.05-.08.1-.03.01-.06.04-.09.07a.57.57 0 0 0-.1.09c-.02 0 .03-.03.04-.05-.02.01.01-.02 0-.01l-.1.11-.05.04c-.02 0 .07-.06.02-.03l.05-.05-.07.05-.07.07-.07.06-.11.1.05-.04-.08.07.02-.02-.03.01-.07.07c.02 0 .03-.02.05-.03l-.06.05.01-.02-.02.02-.03.02c.01 0 .03 0 0 .02-.02.02 0 0-.02 0v.02l-.03.03c-.04.02.01-.03-.02-.01v.02l-.06.05-.04.02-.08.07-.1.08c-.01.02.04-.03 0 0-.02.03-.05.05-.1.08-.02.02.02 0 0 .01l-.04.02-.02.03c-.07.04-.13.1-.2.15l-.07.07-.04.03.05-.05a.68.68 0 0 0-.1.08c-.03.03-.02.01-.04.02l-.05.05-.03.01c.02 0-.05.05-.08.07l-.07.06c-.03.02 0 0 .02 0-.02 0-.03.01-.05.03-.03.01-.01 0 0-.01a.63.63 0 0 1-.09.05.05.05 0 0 1 .02-.01.9.9 0 0 0-.1.06c.08-.05.07-.03.13-.08-.05.06-.07.05-.11.09l.05-.02-.08.05-.03.04-.06.03c-.01 0 .03-.03 0-.01-.01.01-.02.01-.01.02-.02.01-.05.02-.03.02l-.06.04s.06-.05.04-.05c-.03.03-.18.16-.16.12l-.06.05c-.02.03-.1.07-.14.11-.01 0-.05.04-.04.02l-.05.04-.15.11-.05.04-.06.03h.03l-.07.03-.07.05v.01a1.06 1.06 0 0 1 .09-.06l-.15.1.06-.05-.12.08a.18.18 0 0 1-.02.02l-.08.06-.03.01c-.03.02.02 0-.02.02l-.02.01c-.02.02 0 0 0 .01-.12.06-.24.15-.33.2l.01-.02c-.04.02-.07.06-.12.07h.01l-.04.03c-.02.01 0 0 0 0l-.06.03h.02l-.04.03s0-.01 0 0l-.03.02h-.03a4.27 4.27 0 0 1-.2.13h.02l-.06.03c-.02 0 0 0 0-.01l-.13.08a.14.14 0 0 0-.05.03c.04-.01 0 0-.01.02l.16-.1-.02.01.04-.03.06-.02c-.08.04-.19.12-.25.14v.01c-.03.02 0 0-.03 0-.04.04-.08.06-.13.08l-.07.04c.01 0 .04-.02.01-.02l.06-.03-.04.01-.04.03-.07.04a.74.74 0 0 0-.14.08c0-.01-.03 0-.06.03-.05.01-.1.05-.14.07-.01 0 .02 0 0 0l-.04.03h-.01l-.04.02h-.01l-.12.06-.03.01-.03.02-.13.06-.1.05s.01 0 0 0c-.03.02-.07.03-.1.06l.05-.02-.04.02.04-.02-.02.02c-.01 0-.04.01-.07.04h-.02l-.09.03-.02.02a.76.76 0 0 1 .12-.08l-.08.03c0 .01-.01.02-.03.02l-.01.01-.06.02-.14.06-.05.03c.03 0 .05-.02.08-.03l-.1.04a.13.13 0 0 1-.02.02c-.02 0-.02 0 0 0-.03 0-.03.01 0 0 0 0 .03 0 .04-.02h.02l-.1.05c-.02 0 .04-.04-.01-.02l-.04.02h-.03c0 .01 0 .02-.03.03l-.1.04.27-.12c-.04 0 .06-.03.05-.04l-.04.02a.22.22 0 0 1-.09.03c.02 0-.03.02 0 .02-.03 0-.04.02-.06.03-.02 0 .06-.03 0-.01l.05-.03h-.03l-.06.03-.14.07h.02l-.16.07c-.03.01 0 0 0 0l.12-.05v-.01a.07.07 0 0 1-.03.01s-.01 0 0 0a.9.9 0 0 0-.18.08c.01-.02-.06.02-.08.02a.12.12 0 0 1-.04.01c-.01.02.03 0 .05 0l-.07.03.03-.02c-.04 0-.03.01-.07.03h.01c-.02.01-.04.01-.05.03l.1-.04.1-.05-.04.02.03-.01c.02.02-.21.08-.33.14h.02l.05-.02-.07.03-.08.04a.23.23 0 0 1 .06-.03s.02 0 .02-.02l-.06.02c.06-.03.09-.03.15-.07H23c0 .01.03 0-.02.03l-.15.05h.02a3.08 3.08 0 0 1 .06-.02l-.04.03c-.02 0-.01 0 0 0-.05 0-.01 0-.06.02v-.02l-.21.09h-.03l-.08.03h.03l-.1.04.06-.03h-.01l-.13.05.05-.02-.07.03h-.02l-.13.06c-.02 0 .06-.03.06-.04l-.02.01h-.02l-.05.02-.08.03.03-.02-.1.03-.05.02h.02-.05c-.04.03-.09.03-.17.05l-.22.07.05-.01a.53.53 0 0 1-.12.03c-.02 0 .05 0 .04-.01h-.05l-.08.03-.05.01-.08.02-.18.04c-.03 0 .03-.01 0 0-.05 0 0 0-.03.01h-.06l-.06.02h-.03-.03c-.01.02.03 0 .03 0-.02.02-.04.02-.06.02h.04l-.06.02c-.03 0 .01 0 .01-.01l-.04.01-.11.02.02-.02c-.03.01-.06 0-.1.02h-.12.05l-.07.02h-.02l.1-.01-.01.01-.06.01h-.02l-.07.02h.03-.04-.04l-.05.01c-.03 0-.04.02-.08.03l.02-.01-.12.01h-.03a.67.67 0 0 0-.2.05 3.13 3.13 0 0 1-.05.01c-.03 0 .03-.01-.01-.01h.06c.04-.02.05-.02.02-.02h-.09a.48.48 0 0 1-.16.02c-.03.01-.05.02 0 .01H19.63l.13-.02a4.34 4.34 0 0 1-.46.06H19.08a.22.22 0 0 1-.1.01l-.08.02h-.38-.05l-.03.01h-.03l.03-.01h-.06l-.08.01h.03H18c-.02 0 .02 0 0 0H17.92l.07-.01c-.01 0 0 0 0 0-.05-.02-.13-.03-.21-.02-.03 0 .03 0 0 0l-.16-.01h-.03s.02 0 0 0h-.03c-.03-.01-.07 0-.07 0h-.02l.02-.01-.24-.03h-.22.05-.07.02a2.98 2.98 0 0 0-.15-.03h.02-.07l-.27-.04.28.05-.1-.02.06.01h-.07l-.15-.02h.07s-.02 0 0 0l-.12-.01h.02c-.03-.02-.07 0-.12-.02-.03 0 .03 0 0-.01-.02 0-.01 0 0 0h-.1l-.05-.02h.04a2.36 2.36 0 0 0-.07-.01l-.03-.01-.14-.03h.04c-.06-.01-.08 0-.14-.02h-.04l-.14-.03.09.01.06.01-.12-.03c-.03 0 .01 0-.02-.01l-.2-.04h.03L15.6 30c-.05 0-.09-.02-.13-.03-.05-.02-.06-.01-.15-.02l.1.02c.02 0 .02 0 0 0a.26.26 0 0 1 .07.01h-.03a.38.38 0 0 0 .12.03.76.76 0 0 0 .17.04l.03.01.24.06.06.02.08.01h-.04.04l.06.02h.02a.1.1 0 0 0 .05.01l.04.01c.02 0-.04 0 0 0a.97.97 0 0 1 .2.04h.05l.04.02.23.03h.06-.08c.02 0 .02 0 0-.01a.31.31 0 0 1 .1.01h-.06.02l.15.02c-.02.01 0 0 .03.01a.24.24 0 0 1-.08 0c-.01 0 .02 0 0 0l.09.01-.03-.01h.14s-.01 0 0 0c.05 0 0 0 .04.01h-.03l.2.03.2.01c.02.01-.05 0-.05.01l.07.01c.01 0 .02 0 0-.01H17.91l-.02.01a.2.2 0 0 1-.04 0s-.01 0 0 0h-.03.09-.06c-.01.01.05.01.07.02h.14l.02.01h.03.05l.14-.01c.02 0 0 0 0 0l.1.01h.04-.13l.12-.01h.15c-.03 0-.05.01-.07 0l.08.01h.06a.07.07 0 0 1 .03 0h.08c-.02-.01.02 0 .06-.01.04 0-.06 0 0 0h.08c.07 0 .1 0 .16-.02h.14c.01 0 0 0 0 0l-.03.01c-.03 0 0 0 0 0h-.12H19.14l-.12.01s.01 0 0 0h-.04a.23.23 0 0 1-.04 0c0 .02-.07.01-.12.02h-.03c-.03 0 0 0-.02.01h.1-.13c-.06.02-.23 0-.33.01h.25c-.02-.01-.05-.01-.02-.02h-.08-.27s-.02 0 0 0h.03H18c-.03 0 .04 0 0-.01-.01 0 0 0 0 0h-.23.03-.09c-.02 0-.02 0 0 0H17.56s.05 0 .04-.01l-.07-.01a5.48 5.48 0 0 0-.2-.02c.04 0-.14-.01-.19-.03l.1.01c-.06-.01-.12 0-.16-.02h.01c-.02.01-.04 0-.07 0l-.17-.02-.18-.02.03.01c-.09 0-.1-.02-.1-.03h-.03l-.1-.01h.06l-.14-.02c-.02 0-.02-.01 0 0l-.05-.02.01.01c-.06 0-.16-.04-.25-.05l-.03-.02h-.05c-.06-.03-.14-.03-.2-.06a1.1 1.1 0 0 1-.21-.05l.08.01-.2-.04s-.06 0-.04.01l-.12-.03s.15.04.14.05l-.05-.02-.1-.01c.01 0 .02 0-.02-.02h-.06c-.02-.02-.06-.04-.07-.03-.03 0-.01 0-.04-.02h.02a.67.67 0 0 0-.1-.02c-.02-.01.04 0 .01-.01H15s-.03 0 0 0h-.05l-.05-.02c-.04 0 .02 0 .03.01l-.07-.01c-.01-.01.04 0 0-.01l-.03-.01a.85.85 0 0 1-.2-.06h-.02l.04.02c.02 0 0 0 0 0 .06 0 .12.03.19.05-.06 0-.11-.03-.17-.04l.09.03-.1-.02c-.02-.01.01 0-.01-.02h-.04c-.02-.01 0 0 0 0l-.04-.02-.07-.01c-.04-.02 0 0-.02-.02a.43.43 0 0 1-.11-.04l-.1-.02h.04c-.04-.02-.1-.02-.13-.04h-.03a.28.28 0 0 0-.08-.01c-.04-.01.02 0-.01-.01l-.07-.02h-.05c-.02-.02.04 0 .04 0h.05a.42.42 0 0 0-.1-.02l-.03-.02a.63.63 0 0 1-.13-.03h-.01l-.08-.03-.06-.01c.04 0 .06.03.1.03l.04.02c-.05 0-.06-.02-.07-.02-.03 0 .03.01.02.02l.05.01h.04-.03l.05.01c.01 0-.02 0 .02.02-.01-.02.03 0 .06.01h-.03c.03 0 .07.03.11.04.02.01.08.02.1.04l.08.01h-.03l.1.03h-.01.05l.03.02h-.03l.13.03c.02 0 .05.03.1.03-.02 0 .03.01.03.02l-.09-.03a.48.48 0 0 1-.14-.05h-.05c.08.01.22.08.3.08l.15.04h-.01.05l.04.02-.07-.02.07.03h.03l.04.02h-.03l.1.01a.27.27 0 0 1 .04 0c-.03.01.09.04.13.06l-.16-.04-.15-.04.08.03-.07-.01c0-.02-.04-.02-.05-.03-.04 0-.03 0-.02.01-.03 0-.03-.01-.04-.02l-.06-.01-.03-.02-.05-.01c-.04 0-.08-.02-.11-.03-.03 0 0 0 0 0l.1.02-.07-.02h-.01c-.04 0-.04 0-.07-.02h-.05a.08.08 0 0 0-.02 0c-.03-.02 0-.01 0-.01l-.06-.03c-.02 0-.01 0 0 0l-.15-.03-.21-.07-.08-.02h-.03l.05.03h.04l.1.02h-.04c.02.01.08.02.07.03l.15.04-.1-.02.07.02.03.01.18.05h-.02l.06.03c-.01-.01-.01-.02-.05-.03h.01l.05.01.02.01h.06c.01.02-.02 0-.02.01l-.08-.02.73.21.11.03.02-.01.08.02h-.01l.12.03c-.06 0 .09.03.14.06.04 0 0 0 0-.01l.08.02c.01 0-.01 0 0 0h.08c.04.01.02.02.06.02h-.02l.2.05h-.01l.23.04v.01a.54.54 0 0 0 .08 0c.03.01.03.02 0 .01.1.02.19.05.3.05.02.01-.02 0 .01.02h-.05c.08 0 .18 0 .27.03.02 0-.06-.01-.01-.01l.1.01h-.05.07l.24.03s-.02 0 0 0l.03.01h.08a2.56 2.56 0 0 1 .2.03h.14a.29.29 0 0 0 .08.01c-.01 0-.05 0-.02.01h-.05.1l.1-.01c.04 0-.02 0 .02.01h.34c-.03.01-.05 0-.07 0l.1.01h.24-.05.52c.02 0 .01 0 0 0 .08-.01.2-.01.28-.03h-.02.11c.06-.02.14 0 .17-.02h.12c.04-.02.14-.02.2-.04H19.9l.05-.02h.05a.57.57 0 0 1 .1-.02H20.13l.12-.02c-.03.01-.04 0-.05.02a.6.6 0 0 0 .07-.01h-.03c-.03.01-.06 0-.09.02h.06l-.05.01c-.01 0 0 0 0 0h-.05l-.08.01c.06 0 .04-.01.09-.02.01 0-.05 0 0 0h.01a.15.15 0 0 1 .03-.01l-.2.02-.04.01a.91.91 0 0 0 .12-.02c.02.02-.12.03-.16.04-.06 0 0-.01-.04-.01l-.08.01h.07l-.1.02c-.03 0 0-.01-.02-.01l-.04.01h.01a2.4 2.4 0 0 1-.23.04h.07a.53.53 0 0 1-.14 0 .2.2 0 0 0 .06 0c.01-.01-.04 0-.02-.01-.05 0-.1.02-.13.01h-.06s-.02.01 0 .01c-.07 0-.17.02-.2.01a1.76 1.76 0 0 0-.11.02l.01-.01h-.04c-.04 0-.02 0 0 0a.29.29 0 0 1-.1 0h-.02.08l-.03.01H18.59h.02-.04c-.04 0-.1.01-.14 0a.22.22 0 0 1-.08 0 .6.6 0 0 1-.16.02h-.16c-.06 0 .02-.01-.02-.02h-.1l-.06.01c-.02 0 .05 0 0-.01H17.63h-.02c0-.01.02-.02.05-.02h-.14l-.1-.01h.1l.04.01H17.46c-.04 0-.11 0-.17-.02l.06.01h-.07c-.04-.01-.03 0-.07 0 .05-.01-.13-.02-.18-.04h-.13c.01 0-.12-.01-.14 0l-.02-.02h-.08c-.02-.02-.06-.01-.12-.02l-.02-.01-.26-.04-.02-.01s-.06 0-.08-.02h-.04l-.04-.01h-.02c-.01 0 .02 0 0-.01H16c-.04-.01 0-.02-.04-.02h-.07c0-.02-.02-.01-.05-.02 0 0-.04 0-.07-.02h.01c-.01 0-.13-.03-.12-.01l-.1-.02h.06l-.08-.02c-.02.01-.13-.02-.16-.02h.06c.02 0 0 0 0 0l.06.02-.1-.04h-.02l-.3-.07h-.04l-.08-.02c-.02 0 0 0 0 0a.23.23 0 0 1 .04 0h.04l-.1-.01h-.01c-.03-.01.01 0 0 0l-.08-.01.36.1h.02l.04.01h-.05c-.07-.02-.14-.05-.23-.06l-.07-.02h-.05c-.06-.03-.08-.03-.13-.04-.02 0 0 0-.03-.02h-.06c-.02-.01.05 0 0-.01l-.02-.01h-.03l-.15-.05-.1-.02h.05l-.09-.02-.05-.01h-.04l.13.03c.02.02-.02 0 0 .01h.03l.06.01.08.03h-.05.05l.07.03h.06l.02.02.07.02v.01l.25.07c.05 0 .1.03.15.04.07.03.2.04.26.07h.05l.06.02h-.08l-.04-.02c-.03 0 0 0 .02.01l-.11-.02h.05l-.14-.03.06.02-.17-.03c-.03-.01.05 0 0 0l-.03-.01a1.32 1.32 0 0 0-.2-.05c.05 0-.02-.01-.07-.03 0 0-.02 0 0 .01-.05 0-.05-.02-.1-.03-.02 0-.01 0 0 0-.03-.02-.06-.02-.07-.02-.03 0-.09-.03-.1-.02l-.05-.02a1 1 0 0 1-.2-.05h.08l-.07-.02c-.02 0 .02.02-.01 0l.05.02-.13-.03-.16-.04h-.03c-.03-.02 0-.01 0-.01-.03-.01-.07-.01-.1-.03h.05c-.1-.02-.18-.03-.23-.06a.41.41 0 0 0-.08-.02c.02.01.02.01 0 .01l-.17-.06.06.02-.14-.05c-.04 0 .03 0 .04.02l-.09-.02.02.01h-.03l-.1-.05c.03 0 .05.02.08.03l-.05-.02-.1-.03h.03c-.02 0-.05 0-.06-.02-.02 0 .01.01 0 .01L13 29.6l.05.03-.09-.03.06.02c.03.02-.04 0 0 .01 0-.03-.05-.06-.02-.03z"/>
    <path fill="#FFF" d="M15.98 30.48l.1.02a.47.47 0 0 1-.1-.02zm2.52.27c-.03 0-.09 0-.05.01h-.14.06a.1.1 0 0 0 .04 0c.02 0 .06-.02.09 0zM34 21.2c.02-.03.01-.03.04-.05l-.04.05zm-.1-.08l.06-.08L34 21l.04-.02c.03-.03 0-.02 0-.01.04-.05.04-.03.02 0-.05.03-.08.09-.12.12-.03.02.02-.03 0-.02a.26.26 0 0 1-.05.05zm-3.63 3.53l-.06.06a.3.3 0 0 1 .06-.06zm-1.94 1.66c-.02 0-.06.04-.05.03.02 0 .06-.05.05-.03zm-1.57 1.13c.02-.01.03-.03.05-.03l-.05.03zm-10.64 2.65a.63.63 0 0 1-.1-.02l.1.02zm.64.19l-.12-.02c.04.01.08 0 .12.02zm-2.78-.66h.03c.02 0 .03 0 .04.02l-.07-.02zm3.63.9h-.17.17zm-1.56-.19l-.09-.02c.03 0 .1.01.09.02zm-.79-.18l-.05-.01h.05zm-1.99-.47h-.03c-.01-.02-.04-.02-.06-.03l.09.03zm1.1.35l-.07-.01.06.01zm1.07.32a.21.21 0 0 1-.08-.02l.08.02zm.23.06a.3.3 0 0 1-.1-.03c.04.01.07.01.1.03zm-1.5-.65l.16.05a.8.8 0 0 1-.16-.05zm2.18.86a.24.24 0 0 1-.1-.01l.1.01zm-1.01-.37l-.08-.02c.02 0 .09.01.08.02zm-1.16-.5l-.04-.02.04.01zm.06 0l.05.02.01.01-.06-.02h-.02.02zm.14.06l-.08-.02.08.02zm.94.37a.27.27 0 0 1 .05.01c-.04 0-.02.01-.07 0h.02zm-.7-.3l-.03-.01-.02-.01.06.01zm-.43-.2l-.06-.02.06.02zm1.31.54c.05.02.12.02.14.04a.28.28 0 0 1 .09.02l-.14-.02c-.03-.01-.03 0-.05-.02a.96.96 0 0 1-.13-.03.72.72 0 0 1-.05-.01c.03 0 .05 0 .06.02h.08zm.81.32l-.07-.01a.26.26 0 0 1 .07 0zm-.98-.37h.03-.05.02zm-.87-.4l-.07-.02-.04-.02c.06 0 .06.02.1.03zm.42.18l-.07-.01.07.01zm-.29-.12c-.02-.02.06 0 .1 0h-.05-.05zm1.4.52h-.05a.1.1 0 0 1-.03-.02c-.06 0-.11-.02-.17-.03l-.04-.01c-.03-.01-.03-.02.02 0-.01 0-.02 0 0 0l.15.02.04.01c.03 0 .07 0 .1.02a.51.51 0 0 1-.14-.02h-.01l.07.02c.05 0 .09 0 .13.02-.06-.02-.05 0-.07 0zm-1.05-.39c.01 0-.02-.01 0 0H15h-.07.02zm2.24.78h-.06.06zm-.36-.12h-.08.08zm-1.94-.72h-.04s-.02-.02 0-.01l.04.01zm.28.1c-.01 0-.01 0 0 0h-.04l-.06-.02.1.02zm-.26-.1c.01 0 0 0 0 0l.06.01c-.08-.01.05.02.03.02l-.1-.03zm.4.15l-.09-.02.08.02zm.06.02l.03.01h.01l.03.01H15.36c.01 0 .02 0 0-.01h-.03c-.04-.02.02-.01.03-.01zm.2.08a.28.28 0 0 1-.1-.03l.1.03zm-.55-.22l.12.03a.8.8 0 0 1-.1-.02l-.02-.01zm1.18.45h-.03a.17.17 0 0 0-.07-.02h-.02c.04 0 .09 0 .12.02zm-1-.4l-.08-.02.07.02zm2.04.7l-.14-.02a.45.45 0 0 1 .14.01zm-2.2-.77h.03l.06.01-.01.01.11.02.12.04a.92.92 0 0 1-.16-.04c.01 0 .01 0 0 0-.04 0-.06-.01-.03-.01a.75.75 0 0 1-.18-.05l.06.02zm.38.15h-.07.07zm-.28-.11l.05.02c-.02 0-.08-.02-.05-.02zm1.18.45h.04l.03.01.14.02h-.02a.4.4 0 0 0-.1 0h-.02a.7.7 0 0 1-.07-.02h.08l-.08-.01z"/>
    <path fill="#FFF" d="M16.33 30.4a.26.26 0 0 1-.08-.01l.08.02zm-1-.39c.03.01-.02 0 .01.01a.26.26 0 0 1-.06-.01h.05zm2.24.72h-.07a.2.2 0 0 1 .07 0zM15.29 30l.02.01a.17.17 0 0 1-.06-.01h.04zm.66.24l.02.01c-.04 0-.08 0-.1-.02l.08.01zm-.54-.2l.13.04-.13-.03c.02 0 0 0 0 0zm.18.07h.04l.01.02-.05-.02zm-.2-.09l-.02-.01c.04 0 0 0 .04.02h-.04l-.04-.02.06.01zm1.21.44h-.07c.02-.01.08 0 .07 0zm-.8-.3a.88.88 0 0 1-.08-.01l.08.01zm2.13.6h-.06.06zm-1.9-.53c-.03 0-.06 0-.09-.02l.09.02zm.75.26l.11.01c-.03 0-.13 0-.1-.01zm-1.07-.42h.01-.06c.03 0 .06 0 .08.02 0 0 .03.02-.02 0l-.03-.01-.1-.02a.35.35 0 0 0-.07-.03v.01c-.06-.02-.02-.02.02-.02.01 0 0 0 0 0l.04.02a.12.12 0 0 1-.02-.01h.04c.02 0 .04 0 .06.02h-.03l.08.02zm.21.09h.06l.09.02c-.04 0 .03.01.04.02l-.1-.02-.12-.01c.04 0 .1 0 .03-.01zm2.3.6s-.05.01-.02.01l.05-.01h.04l-.1.02-.12-.01h.14zm-1.24-.25a.2.2 0 0 1-.08 0h.08z"/>
    <path fill="#FFF" d="M15.53 30c-.01 0 .02.01 0 .01-.04 0-.03-.02 0 0zm.54.2l-.07-.01-.03-.01.1.01zm.97.3l.03.01h-.05.02zm-.51-.16c.04.02-.04 0-.06 0h.06zm-.76-.26c.01 0 .04.01.01.01-.01 0-.03-.01-.01-.01zm1.32.43h.04-.08.04zm-.01-.03H17h.08zm-1.53-.53h.02c.02.01 0 .01 0 .02l-.08-.02a.13.13 0 0 1 .06 0zm3.23.8h-.07a.12.12 0 0 1 .07 0zm-1.75-.34h-.06a.2.2 0 0 1 .06 0zm.68.16h-.04.04zm-.55-.14l.12.01h-.1c.01 0-.03 0-.02-.01zm2.04.3a.52.52 0 0 1-.1 0 .45.45 0 0 1 .1 0zm-2.96-.61c-.02 0-.08-.01-.06-.02l.06.02zm.63.17l.08.01h-.1l-.04-.01h.06zm1.1.25h.01-.07.07zm-1.17-.32h-.09.1zm.64.18a.14.14 0 0 1-.05 0 .14.14 0 0 1 .05 0zm-.22-.07h-.09.1zm.2.04l.13.01h-.17.04zm.67.12zm-1.1-.26a.5.5 0 0 1-.06 0l.02-.01.04.01zm-.13 0c-.01-.02-.03-.02-.06-.02h.13l-.07.01zm.13.01h-.06.09c-.02 0-.02 0 0 .01h-.08.05zm.53.13h-.06.06zm-.1-.01h.01zm.18.03h.13l-.05.01h-.08zm1.25.19H18.78h-.02a.28.28 0 0 1 .1 0zm1.03.07h.04-.04zm-2.81-.4a.5.5 0 0 1-.07-.02l.07.01zm1.61.29h-.1.1zm-1.3-.25h-.03c-.03-.01-.03-.02-.08-.01h.02a.2.2 0 0 1-.06 0 .46.46 0 0 1 .14 0zm1.07.21h.1H18.45zm-.6-.11h.04-.05zm-.36-.1l-.01.01h-.05.06zm.51.1h-.07a.36.36 0 0 1 .07 0zm.23.03h-.08a.3.3 0 0 1 .08 0z"/>
    <path fill="#FFF" d="M18.05 30.41l.1.01h-.1zm-.45-.1a.14.14 0 0 1-.06 0h.06zm.52.1h-.07c0-.01.04-.01.07 0zm.1-.02a.22.22 0 0 0-.07.02l-.03-.01H18.16a.4.4 0 0 1 .1 0h-.04z"/>
    <path fill="#FFF" d="M18.33 30.4l-.16.01a.48.48 0 0 1 .16 0zm-.74-.12a.96.96 0 0 1-.12-.01h.12zm.23.04h-.05.05zm-.05-.02c.05 0-.03 0 0 0h.05a.9.9 0 0 1-.12 0h.07zm.62.12h.09-.09zm.02-.02l-.05.01h-.01.06zm-.3-.05h-.02-.03.04zm-.14-.04c.02.01.02.02 0 .02-.05-.01-.03-.01 0-.01zm.4.08a.15.15 0 0 1 .06 0h-.06zm-.26-.07h.04-.14.1zm.22.01h-.16.16zM18.28 30.33h-.05.05zm.29-.01h.05-.06zm.7.04c-.03 0-.11.02-.09 0h.09zm.8.04h-.03.03zm-.82-.04h-.06l.04-.01h.02zm.03-.01h-.03.03zm-.32-.04h.07l-.12.01h.05zm.32.03h-.06.06zm.14 0h.08-.08zm.1 0h.03l-.06.01h.03zm.81.01l-.06.01.34-.06c-.03.01-.06 0-.1.02h.03-.06c-.04.02-.07.01-.1.03l.06-.01c-.02 0-.03 0-.05.02h-.04l-.05.01s.04-.01.03-.02zm-.9-.02h.1l-.04.01h-.09c-.03 0 0 0 .02-.01zm-.29-.03l-.08.01h.08zm.59.04l-.04.01h-.02a.14.14 0 0 1 .06 0zm.24-.06a.23.23 0 0 1 .04 0h-.12l-.04.01-.18.03a.12.12 0 0 1-.05.01s-.03.01-.07 0c.06 0 .1-.01.13-.03l.21-.03-.03.01.09-.01h-.03l.1-.01c-.03 0-.1.02-.06.02a.35.35 0 0 1 .11-.02c-.03 0-.12.01-.1.02z"/>
    <path fill="#FFF" d="M20 30.26h.06l.05-.01a.45.45 0 0 1-.1.01zm-.86.04a.96.96 0 0 1 .12 0 .56.56 0 0 1-.12 0zm.32.02h-.05.05zm.15-.01c-.02 0-.08.01-.07 0h.07zm-.28-.02h-.06.06zm1.37 0s-.05 0-.04.01l.04-.01zm.09-.02l-.07.02h-.02l.09-.02zm-.96.01c-.02 0-.08.01-.07 0h.07zm-.14-.02l-.06.01a.23.23 0 0 1 .05 0zm.47 0l.06-.02-.06.02c.01 0-.02 0 0 0zm.16-.03h.04-.01c-.05 0-.01.01-.04.02h-.05c.04 0 .04 0 .06-.02zm-.09 0h.02l-.11.02.09-.02zm2.36-.22l-.02.01h-.03l.05-.01zm-1.44.17a.3.3 0 0 1 .08-.01c-.03 0-.03.02-.07.02h-.01zm-.64.02h-.03a.7.7 0 0 1-.19.03l.2-.04H20.55l.05-.01c-.03 0 .03-.01.05-.02l-.06.02-.08.02zm-.6 0c.05 0 .08-.02.1-.03.04 0-.01.01-.03.02l-.05.01h-.01z"/>
    <path fill="#FFF" d="M20.5 30.18l.1-.01-.08.02h-.03zm-.3 0a.14.14 0 0 1-.06 0h.06zm-.04-.02h-.06c.02 0 .04 0 .02.01h-.09l.12-.01zm.52 0l.06-.01c-.02 0-.08.02-.06 0zm-.16-.02l-.1.02.1-.02zm-.29.01l-.01.01c-.02 0-.08.01-.07 0h.09zm.79-.06a2.26 2.26 0 0 1-.2.04c.02 0 .04 0 .02.01l-.08.01c.03-.01.05-.01.04-.02l.22-.04zm2.07-.26l-.07.03.07-.03zm-1.38.21l.05-.01c.03 0-.05.03-.1.04l.05-.03zm-1.32.09l-.14.02h.02l.12-.02zm.76-.03l-.11.02.1-.02zm-.08-.01l.13-.03a.72.72 0 0 1-.15.04l.02-.01zm-.62.02h.01l-.06.01a.27.27 0 0 1 .05-.01zm.16-.02a.32.32 0 0 1-.08.01.45.45 0 0 1 .08-.01zm.47-.02c.04-.02.05-.01.09-.01a.07.07 0 0 0-.03 0h-.02l-.04.01zm-.55.02l.12-.02c-.04 0-.02 0-.06.02-.04 0 0-.02-.03 0h-.03c-.02 0 0 0 0 0zm.19-.02h-.04l-.06.02h.01l.09-.02zm.63-.06c-.04 0-.14.05-.13.03l.13-.03zm.23-.04l-.06.02a.38.38 0 0 1 .06-.02zm.01-.02a.64.64 0 0 1-.16.04l.16-.03zm.27-.04a.27.27 0 0 1-.06.02.23.23 0 0 1 .06-.02zm-.05 0c.04 0 .09-.03.13-.04-.02.02-.1.04-.16.05.02 0 0 0 .03-.02z"/>
    <path fill="#FFF" d="M21.83 29.9l.1-.04-.04.02c-.03 0-.09.03-.06.01zm.26-.08a.24.24 0 0 1-.07.03l.07-.03zm-.52.06l-.08.02.08-.02zm-.01 0l-.06.01.06-.01zm.11-.02h.02a.15.15 0 0 1-.06.02l.04-.02zm0-.03l-.03.02a.2.2 0 0 1 .06-.01l-.12.04c.06-.02.01-.03.09-.05zm.7-.08l-.04.02.05-.02zm-.59.07a.15.15 0 0 1-.05.02.1.1 0 0 1 .05-.02zm.5-.07l.12-.03.09-.04h.03l-.04.02-.08.03h-.01l-.04.02c-.04 0 0-.02-.06 0z"/>
    <path fill="#FFF" d="M22.56 29.67c.05-.01-.05.03-.07.03v-.01c.05-.02.04 0 .07-.02zm.09-.04c.04 0 0 .01-.03.02l-.03.02.06-.04zm.2-.04a.38.38 0 0 1-.08.03.25.25 0 0 1 .07-.03zm2.2-.65l.06-.03a.12.12 0 0 0-.04.02h-.02zm-1.8.47c.05 0-.07.05-.07.04l.07-.03zm1.91-.53a.5.5 0 0 1 .13-.07l-.04.03h-.02l-.07.04zm.23-.13l-.06.03.06-.03zm-2.17.57a.58.58 0 0 1-.07.03.26.26 0 0 1 .07-.03zm.14-.06c.01-.02.03-.01.06-.02-.02 0 .01-.02.02-.03.04-.01-.04.03 0 .02l.02-.01.05-.01c-.04.01-.2.1-.17.06l-.1.04a.48.48 0 0 1 .12-.05z"/>
    <path fill="#FFF" d="M23.4 29.23l-.11.05a.54.54 0 0 1 .1-.05zm2.46-.76l.1-.06-.1.06zm-2.32.7h.02l-.07.03c-.02 0 .02-.01.05-.03zm.14-.05l.05-.01c-.02 0-.07.03-.05.01zm-.07 0h.02l-.03.01-.02.01.03-.02zm2.6-.86l-.01.02c-.02 0-.03.02-.05.03a.31.31 0 0 1 .07-.05zm-2.27.74h.04v-.02c.05-.02.06-.02.03 0l-.12.05.05-.03zm2.4-.8h-.02c.02-.02.06-.03.03 0zm-2.2.73a.23.23 0 0 1 .06-.03.26.26 0 0 1-.06.03zm2.51-.95c.02 0 .03-.02.05-.03l-.02.02-.02.01-.04.03.03-.03zm-2.3.83l.11-.05-.06.03.03-.01-.05.03h-.03zm2.44-.92l-.02.02.02-.02zm-2.28.85h.02a.16.16 0 0 0-.03.02c.02-.02-.03 0 0-.02zm2.34-.88a.15.15 0 0 1-.05.03l.05-.03zm-2.25.83a1 1 0 0 1-.12.06l.08-.05h.04zm.06-.02a.92.92 0 0 1-.12.06l.03-.02.09-.04zm2.36-.94l-.03.04c-.02 0-.04.03-.06.04.04-.03-.02 0 0-.01l.1-.07zm-2.31.9h.02l.01-.01c.03-.02.01 0 0 .01l-.04.01v.02h-.03l.04-.03zm.1-.04l.08-.03c-.03.02-.07.04-.08.03zm.16-.09l.06-.04-.06.04h0zm.16-.07l-.07.03.07-.04zm-.01 0a.06.06 0 0 0 .02 0c.02-.02.03-.02.02 0l-.04.01c.01 0 0 0 0 0zm.17-.08a.63.63 0 0 1-.12.06l.12-.06zm.02-.03a.39.39 0 0 1-.1.06.39.39 0 0 1 .1-.06zm.17-.08h.03a.31.31 0 0 1-.1.05.22.22 0 0 0 .08-.05zm.42-.26c-.02.02.02 0 .02 0l-.05.02c.02 0 .01-.01.03-.02zm2.73-1.92l.05-.04-.07.07-.02.02.04-.05zm.21-.16c-.03.02-.06.06-.06.04.02 0 .06-.05.06-.04zm2.58-1.79c-.06.06.05-.05 0 .02l-.04.03s0-.02.04-.05zm-.06.07l-.02.02-.02.03h-.01l.05-.06c.01 0 .03-.01 0 .01zm-1.91 1.2a.28.28 0 0 1 .06-.05l-.05.05h-.01zm2.06-1.35h.01l-.04.05c0-.03.01-.03.03-.05zm-1.93 1.24l-.05.05s.05-.06.05-.04zm1.94-1.25a.14.14 0 0 1 .04-.04.16.16 0 0 1-.02.03h-.02zm-.18-.37l-.06.06c0-.02.06-.07.06-.06zm.1-.1l-.1.1a.46.46 0 0 1 .1-.1zm.03-.04l-.02.03-.02.01.04-.04zm2-1.65l-.01.02-.11.12h-.01l.12-.14zm.15-.16h.01l-.11.12.1-.12zm-1.09.77a.47.47 0 0 1-.07.07l.07-.07zm1.26-.95c-.05.06-.09.1-.1.13l-.03.02c.03-.03.06-.09.13-.15zm-.87.51l.03-.03c.03-.02-.01.03.03 0l-.06.06c.04-.04.04-.06 0-.03zm1.3-.92c.02-.02 0 0 0 0 0 .02-.02.03-.04.04l.04-.04zm-.28.14l.03-.05c.02-.02 0 0 .01 0a.03.03 0 0 1 .02-.02l-.04.05-.02.01zm-.3.12l-.04.04.04-.04zm.17-.16a.61.61 0 0 1-.1.1l.1-.1zm.12-.11l-.05.05a.2.2 0 0 1 .05-.05zm-.03-.01l.03-.02c.02-.03-.02.03-.04.03l.01-.01zm1.08-.98l-.05.05a.24.24 0 0 1 .05-.05zM19.3 30.27s.02 0 0 0l.27-.03-.22.02h.02a.33.33 0 0 1-.07 0zm-5.6-.33l.09.02a.28.28 0 0 0-.08-.02zm1.45.37h-.03.04l.02.01-.03-.01zm-1.1-.48c-.03 0 .06.01.05.02h.01l-.05-.02zm.48.2v.01l.04.01-.04-.01zm-.07-.04v-.01h-.04.04zm1.06.44h.03c.03 0 0 0 .03.02l.13.02h.03a1.75 1.75 0 0 1-.18-.04h-.04zm-1.12-.5l.25.07h-.02l-.05-.02-.09-.03a.3.3 0 0 0-.1-.01zm1.52.63l.18.04-.18-.04zm-2.46-1.1h-.05l.07.01-.02-.01zm1.14.53l.1.02c-.04 0-.07 0-.1-.02zm1.25.5c-.02-.01 0 0 0 0h0zm-1.63-.74c.01 0 0 0 0 0h.05a.58.58 0 0 0-.1-.02c.03 0 .04 0 .05.02zm.85.3c.04 0 .03 0 .07.02h.04l-.11-.02zm1.7.6h.03-.05s-.04 0-.01.01H16.77zm.14.03l.12.01c.03 0-.02 0 0 0l-.12-.01zM17.1 30.68h-.03a1.26 1.26 0 0 1-.14-.02s.09 0 .12.02a.21.21 0 0 1 .08.01h.1-.09s.02 0-.01-.01h-.04zm-2.02-.85c-.01 0 0 0 0 0l.02.01h.04a.35.35 0 0 1-.06 0zm.74.21a.58.58 0 0 0 .14.04s-.06-.01-.04-.02c-.03 0-.07 0-.1-.02zm.4.1l.09.03c0-.01-.09-.02-.08-.03h-.01zm1.5.36h.06c.01 0 0 0 0 0h-.01-.05zm-.61-.22l.1.02.07.02-.03-.02-.1-.02h-.04zm.25.05l.13.02c.02 0-.06 0-.03-.01l-.1-.01zm-.07-.03h.02v.01l.04.01h0a.48.48 0 0 1-.06-.02zm.4.04h-.06.07zm.38-.04h-.03c.03 0-.02 0 .02.01h.02.02l-.03-.01zm.57.08c-.02 0 0 0 0 0h-.01H18.64zm.9.09c.01 0 .01 0 0 0l.08-.01h-.08v.01zm-.61-.2a.4.4 0 0 0-.1.01h.11l.12-.02-.13.01zm.1 0h.13c0-.02.12-.01.18-.02 0 0-.01 0 0 0h-.11l-.15.01h.02l-.07.01zm-.08-.02c0 .02.19 0 .23 0h-.23zm.6-.03l.1-.01h-.1zm.42-.05l.25-.03h-.08c0 .01-.06 0-.1.02h-.02-.05zm0-.02H20.01h-.06zm.27-.02l.16-.02c-.02-.01-.11.01-.16.02zm.85-.16l.08-.02h-.02l-.06.02zm.44-.13l-.04.02.08-.02h-.04zm.45-.12l.09-.02h.01c-.03 0-.06 0-.1.02zm.73-.24c-.02 0 0 0 0 0 .02 0 0 0 0 0l.08-.02.11-.05.02-.01-.13.05h-.03a.32.32 0 0 1-.05.03zm1.22-.49l.12-.05h-.02l-.1.05zm.77-.37a.4.4 0 0 0 .1-.05l-.1.05zm.72-.36l.01-.01a.69.69 0 0 0-.05.03.14.14 0 0 0 .04-.02c.01 0-.05.02 0 0zm2.6-1.74l.06-.04h-.01l-.06.04zm2.42-1.44l.1-.1.1-.08-.2.18zm1.13-1.7l.02-.04-.02.02-.01.01c.03-.02-.03.03 0 0zm.27-.25l.02-.03c0-.02-.03.01-.03.03.01-.01.02-.01 0 0z"/>
    <g fill="#FFF" fill-rule="nonzero" opacity=".8">
      <path d="M66.74 5.28a5.7 5.7 0 0 0-.43-.26c-.19-.1-.4-.24-.65-.34l-.7-.32-.58-.23-.32-.13a8.51 8.51 0 0 1-.25-.08l.09.02.2.07.28.11.65.25L64.2 4c-.16-.07-.33-.1-.5-.16l-.55-.17-.56-.14c-.18-.04-.37-.1-.55-.12l-.57-.11c-.27-.07-.88-.12-1.15-.17 1.13.1 2.24.33 3.33.66l-.09-.03-.43-.13-.43-.1c-.29-.08-.57-.16-.87-.2l-.3-.06.3.05.4.07.4.09.54.14.4.14.25.08.08.02a4.43 4.43 0 0 0-.46-.18c-.23-.1-.53-.18-.84-.26l-.46-.12-.43-.08c-.26-.05-.47-.1-.56-.1-.3-.03-.57-.01-.9-.04a1.71 1.71 0 0 0-.29-.02l-.1.01c-.21 0-.43-.04-.6-.03-.12 0-.45-.1-.48-.09-.1.08-.02.02-.3.02l-.22.03c-.23-.02-.3.02-.56.04-.39.05-.48 0-.82.1l-.57.1c-.42.06-.67.15-1 .16a7.02 7.02 0 0 1-.63.16c-.22.05-.45.08-.64.15-.38.13-.56.14-.9.23l-.23.07c-.06.01-.19.1-.28.12l.01-.02-.13.04h-.02c0-.03.02-.05-.04-.03l-.2.06-.22.08-.38.21a.07.07 0 0 1-.02.04l-.11.07c-.02.03 0 .04 0 .07.02.05-.12.17-.06.2.03 0 .25-.09.36-.1.03-.01-.02.03-.03.06.13-.06.15-.04.1 0l.06-.03-.01.04.52-.19c.18-.05.35-.11.51-.19l.25-.12.16-.05c.05-.04.04-.06.05-.09.26-.05.8-.18.76-.25l.45-.15c.28-.07.63-.17.98-.23l.57-.1.2-.04a15.62 15.62 0 0 1 1.96-.14h.93c.32.02.64.01 1 .03 1.4.06 2.87.41 4 .84.28.11.55.2.8.32l.65.3c.38.2.66.37.81.44l.2.08z"/>
      <path d="M66.74 5.28a5.7 5.7 0 0 0-.43-.26c-.19-.1-.4-.24-.65-.34l-.7-.32-.58-.23-.32-.13a8.51 8.51 0 0 1-.25-.08l.09.02.2.07.28.11.65.25L64.2 4c-.16-.07-.33-.1-.5-.16l-.55-.17-.56-.14c-.18-.04-.37-.1-.55-.12l-.57-.11c-.27-.07-.88-.12-1.15-.17 1.13.1 2.24.33 3.33.66l-.09-.03-.43-.13-.43-.1c-.29-.08-.57-.16-.87-.2l-.3-.06.3.05.4.07.4.09.54.14.4.14.25.08.08.02a4.43 4.43 0 0 0-.46-.18c-.23-.1-.53-.18-.84-.26l-.46-.12-.43-.08c-.26-.05-.47-.1-.56-.1-.3-.03-.57-.01-.9-.04a1.71 1.71 0 0 0-.29-.02l-.1.01c-.21 0-.43-.04-.6-.03-.12 0-.45-.1-.48-.09-.1.08-.02.02-.3.02l-.22.03c-.23-.02-.3.02-.56.04-.39.05-.48 0-.82.1l-.57.1c-.42.06-.67.15-1 .16a7.02 7.02 0 0 1-.63.16c-.22.05-.45.08-.64.15-.38.13-.56.14-.9.23l-.23.07c-.06.01-.19.1-.28.12l.01-.02-.13.04h-.02c0-.03.02-.05-.04-.03l-.2.06-.22.08-.38.21a.07.07 0 0 1-.02.04l-.11.07c-.02.03 0 .04 0 .07.02.05-.12.17-.06.2.03 0 .25-.09.36-.1.03-.01-.02.03-.03.06.13-.06.15-.04.1 0l.06-.03-.01.04.52-.19c.18-.05.35-.11.51-.19l.25-.12.16-.05c.05-.04.04-.06.05-.09.26-.05.8-.18.76-.25l.45-.15c.28-.07.63-.17.98-.23l.57-.1.2-.04a15.62 15.62 0 0 1 1.96-.14h.93c.32.02.64.01 1 .03 1.4.06 2.87.41 4 .84.28.11.55.2.8.32l.65.3c.38.2.66.37.81.44l.2.08z"/>
    </g>
    <path fill="#FFF" fill-rule="nonzero" d="M10.11 25.5c.11.2.42.6.78.99.36.39.78.77 1.04.99l.47.39c.1.08-.14-.1-.47-.4l-.25-.2-.29-.27.65.65.43.32a12.55 12.55 0 0 0 3.12 1.65 11.36 11.36 0 0 1-1.6-.68 11.13 11.13 0 0 1-1.48-.9l.07.06a11.6 11.6 0 0 0 1.84 1.08 3.67 3.67 0 0 1-.28-.14l-.36-.18-.37-.2-.48-.3-.35-.26-.22-.16-.07-.05c.08.09.57.49 1.13.83.27.18.57.33.81.46l.54.25.43.13.46.13.28.09.1.01c.22.06.43.13.6.16.07 0 .17.06.27.1.1.05.18.09.2.08.1-.06.03-.02.31.04h.22c.23.05.3.04.58.06.2 0 .32.02.44.03h.4l.32-.03.28-.02c.22 0 .4-.02.56-.03l.49-.02c.19-.04.42-.06.64-.1l.35-.05.32-.06.49-.1.45-.08c.1-.03.18-.06.24-.06.06-.01.2-.1.3-.12l-.02.03.13-.04h.02c0 .02-.02.04.04.03l.43-.13.4-.21a.1.1 0 0 1 .03-.04l.11-.07c.02-.03 0-.05.01-.07-.02-.05.11-.18.05-.2-.02-.01-.24.09-.36.1-.03.01.02-.03.03-.06-.13.06-.14.04-.1 0l-.06.02.02-.03c-.35.12-.74.21-1.07.35a7.04 7.04 0 0 0-.27.12l-.16.04c-.05.03-.04.05-.06.08l-.5.1c-.17.04-.3.07-.29.1-.2.05-.24.1-.46.13a11.48 11.48 0 0 1-1.62.2h-.2c-.74.02-1.37-.05-2-.14-.3-.07-.62-.1-.93-.19l-.48-.11-.5-.14a9.96 9.96 0 0 1-2-.83 10.39 10.39 0 0 1-1.67-1.14c-.95-.8-1.53-1.57-1.75-1.85l-.16-.14z" opacity=".8"/>
    <g fill="#FFF" fill-rule="nonzero" opacity=".85">
      <path d="M10.67 29.03l.14.14a.63.63 0 0 1-.06-.08.25.25 0 0 0-.08-.06zm.28.26l.02.02a.18.18 0 0 1 .02.02l-.04-.04zm.26.21l-.13-.1.13.1zm-.2-.18c.01.02.02.03-.01 0l.08.07-.07-.07zm0 0l-.04-.05.04.05zm.14-.03c.03.01 0 .04.06.07l.36.26c.06.03.13.13.19.16l.27.15c.08.04.12.06.02 0-.3-.2-.5-.33-.74-.53l-.16-.12-.15-.12-.3-.25a4.04 4.04 0 0 1-.16-.15l.2.21c.1.1.25.18.41.32zm-1.43-1.34l.07.07c.08.14.18.26.3.37l-.03-.07c-.06-.06-.08-.06-.03 0-.11-.15-.2-.3-.32-.43 0 .01-.02.01.01.06zm-.08-.14l.06.08a2.18 2.18 0 0 0-.07-.09z"/>
      <path d="M11.8 29.91c.19.14.38.25.56.37l.55.31.1.04.08.05.16.1.06.02c.03 0 .02 0 0-.01l-.05-.04.06.04.08.05.16.07a1.37 1.37 0 0 1-.16-.07l-.1-.04h-.02l.37.17.08.03c.1.04.2.07.24.11a.6.6 0 0 0 .07.03h-.01.02l.3.13.2.05.06.04a.6.6 0 0 1 .12.02l-.14-.08c-.06-.04-.16-.02-.23-.08.07.06.17.04.23.08l.14.08.3.11a.95.95 0 0 1-.3-.11.7.7 0 0 0-.12-.02l-.06-.04-.2-.06c.19.07.38.15.58.21.65.22 1.3.37 1.96.46a14.8 14.8 0 0 0 2.04.13c.77 0 1.51-.08 2.23-.2a15.15 15.15 0 0 0 4.95-1.9c.18-.1.33-.24.48-.34a6.51 6.51 0 0 0 .39-.3c.53-.5.14-.38.1-.36-.42.18-.63.46-1.43.88.27-.15.19-.07-.03.08a3.19 3.19 0 0 1-.4.23c-.16.08-.31.16-.45.2-.2.06-.42.15-.64.25l-.35.14-.35.14c-.25.1-.5.2-.75.28l-.38.12-.38.1-.81.18c-.79.12-1.54.2-2.32.22h-.58c-.2 0-.4-.02-.59-.03l-.6-.06-.6-.09c-.44-.08-.82-.14-1.18-.23a6.38 6.38 0 0 1-.4-.12 11.86 11.86 0 0 0-.34-.13c-.17-.05-.31-.12-.46-.17l-.41-.16.4.17.44.16c.23.07-.17-.01-.32-.07-.06-.02-.15-.1-.21-.1a29.55 29.55 0 0 0-.41-.17c-.07-.02-.05-.04-.08-.05-.2-.09-.36-.13-.48-.2-.1-.05-.17-.1-.25-.16l-.15-.09-.1-.05.02.06-.15-.11.15.11-.02-.06a9.6 9.6 0 0 1-.8-.47v.01a7.35 7.35 0 0 1 .47.32l.04.05a1.68 1.68 0 0 1-.38-.26l-.1-.05c-.03-.04-.02-.04-.02-.06a1.74 1.74 0 0 0-.1-.06l.23.2z"/>
      <path d="M13.4 30.84l-.08-.03.32.15a1 1 0 0 0-.24-.12zM10.67 29.03l.14.14a.63.63 0 0 1-.06-.08.25.25 0 0 0-.08-.06zm.28.26l.02.02a.18.18 0 0 1 .02.02l-.04-.04zm.26.21l-.13-.1.13.1zm-.2-.18c.01.02.02.03-.01 0l.08.07-.07-.07zm0 0l-.04-.05.04.05zm.14-.03c.03.01 0 .04.06.07l.36.26c.06.03.13.13.19.16l.27.15c.08.04.12.06.02 0-.3-.2-.5-.33-.74-.53l-.16-.12-.15-.12-.3-.25a4.04 4.04 0 0 1-.16-.15l.2.21c.1.1.25.18.41.32zm-1.43-1.34l.07.07c.08.14.18.26.3.37l-.03-.07c-.06-.06-.08-.06-.03 0-.11-.15-.2-.3-.32-.43 0 .01-.02.01.01.06zm-.08-.14l.06.08a2.18 2.18 0 0 0-.07-.09z"/>
      <path d="M11.8 29.91c.19.14.38.25.56.37l.55.31.1.04.08.05.16.1.06.02c.03 0 .02 0 0-.01l-.05-.04.06.04.08.05.16.07a1.37 1.37 0 0 1-.16-.07l-.1-.04h-.02l.37.17.08.03c.1.04.2.07.24.11a.6.6 0 0 0 .07.03h-.01.02l.3.13.2.05.06.04a.6.6 0 0 1 .12.02l-.14-.08c-.06-.04-.16-.02-.23-.08.07.06.17.04.23.08l.14.08.3.11a.95.95 0 0 1-.3-.11.7.7 0 0 0-.12-.02l-.06-.04-.2-.06c.19.07.38.15.58.21.65.22 1.3.37 1.96.46a14.8 14.8 0 0 0 2.04.13c.77 0 1.51-.08 2.23-.2a15.15 15.15 0 0 0 4.95-1.9c.18-.1.33-.24.48-.34a6.51 6.51 0 0 0 .39-.3c.53-.5.14-.38.1-.36-.42.18-.63.46-1.43.88.27-.15.19-.07-.03.08a3.19 3.19 0 0 1-.4.23c-.16.08-.31.16-.45.2-.2.06-.42.15-.64.25l-.35.14-.35.14c-.25.1-.5.2-.75.28l-.38.12-.38.1-.81.18c-.79.12-1.54.2-2.32.22h-.58c-.2 0-.4-.02-.59-.03l-.6-.06-.6-.09c-.44-.08-.82-.14-1.18-.23a6.38 6.38 0 0 1-.4-.12 11.86 11.86 0 0 0-.34-.13c-.17-.05-.31-.12-.46-.17l-.41-.16.4.17.44.16c.23.07-.17-.01-.32-.07-.06-.02-.15-.1-.21-.1a29.55 29.55 0 0 0-.41-.17c-.07-.02-.05-.04-.08-.05-.2-.09-.36-.13-.48-.2-.1-.05-.17-.1-.25-.16l-.15-.09-.1-.05.02.06-.15-.11.15.11-.02-.06a9.6 9.6 0 0 1-.8-.47v.01a7.35 7.35 0 0 1 .47.32l.04.05a1.68 1.68 0 0 1-.38-.26l-.1-.05c-.03-.04-.02-.04-.02-.06a1.74 1.74 0 0 0-.1-.06l.23.2z"/>
      <path d="M13.4 30.84l-.08-.03.32.15a1 1 0 0 0-.24-.12z"/>
      <g>
        <path d="M10.67 29.03l.14.14a.63.63 0 0 1-.06-.08.25.25 0 0 0-.08-.06zm.28.26l.02.02a.18.18 0 0 1 .02.02l-.04-.04zm.26.21l-.13-.1.13.1zm-.2-.18c.01.02.02.03-.01 0l.08.07-.07-.07zm0 0l-.04-.05.04.05zm.14-.03c.03.01 0 .04.06.07l.36.26c.06.03.13.13.19.16l.27.15c.08.04.12.06.02 0-.3-.2-.5-.33-.74-.53l-.16-.12-.15-.12-.3-.25a4.04 4.04 0 0 1-.16-.15l.2.21c.1.1.25.18.41.32zm-1.43-1.34l.07.07c.08.14.18.26.3.37l-.03-.07c-.06-.06-.08-.06-.03 0-.11-.15-.2-.3-.32-.43 0 .01-.02.01.01.06zm-.08-.14l.06.08a2.18 2.18 0 0 0-.07-.09z"/>
        <path d="M11.8 29.91c.19.14.38.25.56.37l.55.31.1.04.08.05.16.1.06.02c.03 0 .02 0 0-.01l-.05-.04.06.04.08.05.16.07a1.37 1.37 0 0 1-.16-.07l-.1-.04h-.02l.37.17.08.03c.1.04.2.07.24.11a.6.6 0 0 0 .07.03h-.01.02l.3.13.2.05.06.04a.6.6 0 0 1 .12.02l-.14-.08c-.06-.04-.16-.02-.23-.08.07.06.17.04.23.08l.14.08.3.11a.95.95 0 0 1-.3-.11.7.7 0 0 0-.12-.02l-.06-.04-.2-.06c.19.07.38.15.58.21.65.22 1.3.37 1.96.46a14.8 14.8 0 0 0 2.04.13c.77 0 1.51-.08 2.23-.2a15.15 15.15 0 0 0 4.95-1.9c.18-.1.33-.24.48-.34a6.51 6.51 0 0 0 .39-.3c.53-.5.14-.38.1-.36-.42.18-.63.46-1.43.88.27-.15.19-.07-.03.08a3.19 3.19 0 0 1-.4.23c-.16.08-.31.16-.45.2-.2.06-.42.15-.64.25l-.35.14-.35.14c-.25.1-.5.2-.75.28l-.38.12-.38.1-.81.18c-.79.12-1.54.2-2.32.22h-.58c-.2 0-.4-.02-.59-.03l-.6-.06-.6-.09c-.44-.08-.82-.14-1.18-.23a6.38 6.38 0 0 1-.4-.12 11.86 11.86 0 0 0-.34-.13c-.17-.05-.31-.12-.46-.17l-.41-.16.4.17.44.16c.23.07-.17-.01-.32-.07-.06-.02-.15-.1-.21-.1a29.55 29.55 0 0 0-.41-.17c-.07-.02-.05-.04-.08-.05-.2-.09-.36-.13-.48-.2-.1-.05-.17-.1-.25-.16l-.15-.09-.1-.05.02.06-.15-.11.15.11-.02-.06a9.6 9.6 0 0 1-.8-.47v.01a7.35 7.35 0 0 1 .47.32l.04.05a1.68 1.68 0 0 1-.38-.26l-.1-.05c-.03-.04-.02-.04-.02-.06a1.74 1.74 0 0 0-.1-.06l.23.2z"/>
        <path d="M13.4 30.84l-.08-.03.32.15a1 1 0 0 0-.24-.12z"/>
      </g>
    </g>
    <path fill="#FFF" fill-rule="nonzero" d="M10.11 25.5c.11.2.42.6.78.99.36.39.78.77 1.04.99l.47.39c.1.08-.14-.1-.47-.4l-.25-.2-.29-.27.65.65.43.32a12.55 12.55 0 0 0 3.12 1.65 11.36 11.36 0 0 1-1.6-.68 11.13 11.13 0 0 1-1.48-.9l.07.06a11.6 11.6 0 0 0 1.84 1.08 3.67 3.67 0 0 1-.28-.14l-.36-.18-.37-.2-.48-.3-.35-.26-.22-.16-.07-.05c.08.09.57.49 1.13.83.27.18.57.33.81.46l.54.25.43.13.46.13.28.09.1.01c.22.06.43.13.6.16.07 0 .17.06.27.1.1.05.18.09.2.08.1-.06.03-.02.31.04h.22c.23.05.3.04.58.06.2 0 .32.02.44.03h.4l.32-.03.28-.02c.22 0 .4-.02.56-.03l.49-.02c.19-.04.42-.06.64-.1l.35-.05.32-.06.49-.1.45-.08c.1-.03.18-.06.24-.06.06-.01.2-.1.3-.12l-.02.03.13-.04h.02c0 .02-.02.04.04.03l.43-.13.4-.21a.1.1 0 0 1 .03-.04l.11-.07c.02-.03 0-.05.01-.07-.02-.05.11-.18.05-.2-.02-.01-.24.09-.36.1-.03.01.02-.03.03-.06-.13.06-.14.04-.1 0l-.06.02.02-.03c-.35.12-.74.21-1.07.35a7.04 7.04 0 0 0-.27.12l-.16.04c-.05.03-.04.05-.06.08l-.5.1c-.17.04-.3.07-.29.1-.2.05-.24.1-.46.13a11.48 11.48 0 0 1-1.62.2h-.2c-.74.02-1.37-.05-2-.14-.3-.07-.62-.1-.93-.19l-.48-.11-.5-.14a9.96 9.96 0 0 1-2-.83 10.39 10.39 0 0 1-1.67-1.14c-.95-.8-1.53-1.57-1.75-1.85l-.16-.14z" opacity=".8"/>
    <path fill="#FFF" fill-rule="nonzero" d="M10.11 25.5c.11.2.42.6.78.99.36.39.78.77 1.04.99l.47.39c.1.08-.14-.1-.47-.4l-.25-.2-.29-.27.65.65.43.32a12.55 12.55 0 0 0 3.12 1.65 11.36 11.36 0 0 1-1.6-.68 11.13 11.13 0 0 1-1.48-.9l.07.06a11.6 11.6 0 0 0 1.84 1.08 3.67 3.67 0 0 1-.28-.14l-.36-.18-.37-.2-.48-.3-.35-.26-.22-.16-.07-.05c.08.09.57.49 1.13.83.27.18.57.33.81.46l.54.25.43.13.46.13.28.09.1.01c.22.06.43.13.6.16.07 0 .17.06.27.1.1.05.18.09.2.08.1-.06.03-.02.31.04h.22c.23.05.3.04.58.06.2 0 .32.02.44.03h.4l.32-.03.28-.02c.22 0 .4-.02.56-.03l.49-.02c.19-.04.42-.06.64-.1l.35-.05.32-.06.49-.1.45-.08c.1-.03.18-.06.24-.06.06-.01.2-.1.3-.12l-.02.03.13-.04h.02c0 .02-.02.04.04.03l.43-.13.4-.21a.1.1 0 0 1 .03-.04l.11-.07c.02-.03 0-.05.01-.07-.02-.05.11-.18.05-.2-.02-.01-.24.09-.36.1-.03.01.02-.03.03-.06-.13.06-.14.04-.1 0l-.06.02.02-.03c-.35.12-.74.21-1.07.35a7.04 7.04 0 0 0-.27.12l-.16.04c-.05.03-.04.05-.06.08l-.5.1c-.17.04-.3.07-.29.1-.2.05-.24.1-.46.13a11.48 11.48 0 0 1-1.62.2h-.2c-.74.02-1.37-.05-2-.14-.3-.07-.62-.1-.93-.19l-.48-.11-.5-.14a9.96 9.96 0 0 1-2-.83 10.39 10.39 0 0 1-1.67-1.14c-.95-.8-1.53-1.57-1.75-1.85l-.16-.14z" opacity=".8"/>
    <path fill="#288641" fill-rule="nonzero" d="M3.85 26.14c-.05-.07-.09-.2-.12-.3-.04-.1-.08-.2-.13-.22.03.13 0 .15-.07.1.05.08.09.32.15.28-.03-.3.04.08.17.14z"/>
    <g fill="#288641" fill-rule="nonzero">
      <path d="M5.34 15.31a.67.67 0 0 0 .02-.12c-.05.11-.09.24-.12.36a.93.93 0 0 0-.05.28l.11-.36.04-.16zm-.36 8.87c-.07.07.14.42.21.34.07-.07-.14-.41-.2-.34zm-.09-6.35c0 .07-.06.25-.02.25.08-.22-.01.07.02.15.01-.13.09-.38.06-.44-.03.1-.04.1-.06.04zm.08-.45c0-.08.03-.15.05-.22l.05-.2a.93.93 0 0 0 .03-.32l-.1.42a.96.96 0 0 0-.04.32zm.32 6.39c.02.02.09.4.15.52-.06-.24-.13-.66-.16-.52zm-.16-7.8c-.03.1-.08.23-.1.35-.02.11-.04.2-.02.25a1.37 1.37 0 0 1 .07-.33c.04-.12.07-.24.05-.27zM9.6 28.7c.06-.1-.04.07 0 0zm-4.07-.9c-.05.1.23.4.28.3.06-.09-.23-.38-.28-.3zM9.7 15.91c-.17.32-.28.64-.19.92.03-.15.1-.31.17-.47.07-.16.17-.32.25-.48.08-.15.16-.3.2-.45a.92.92 0 0 0 .05-.44c-.1.3-.33.6-.48.92zm-.35 1.67c.08.02.2-.2.16-.75-.27.45-.24.73-.16.75zm.15 11.88a.52.52 0 0 0-.03-.1l.03.1zm-1.63 2.46c.05 0 .36.38.53.44-.24-.2-.56-.62-.53-.44zM4.92 17.78c.02-.15.1-.34.02-.35-.04.16.05.05 0 .2-.02 0-.04.14-.02.15zm19.44-8.14c-.07.03-.2-.02-.33-.08-.14-.06-.27-.1-.33-.08.34.12.6.2.8.3.03-.04-.06-.09-.14-.14zm-3.5-.63c-.14 0-.23-.03-.43-.02-.08.06.41.04.43.02zm-.85.04l.19-.02.17.01c-.05-.08-.74 0-.8.04.17 0 .31-.02.44-.04zm3.64.38a4.6 4.6 0 0 0-.23-.08 1.85 1.85 0 0 0-.19-.04 1.48 1.48 0 0 0-.24-.03c-.08 0 .02.04.41.12.05.01.29.08.25.03zm-1.5-.32l-.5-.08-.14-.02a2.61 2.61 0 0 0-.14 0 3.13 3.13 0 0 0-.27 0l.5.05.55.05zm-4.49.37c-.25.08-.6.2-.67.28.07-.04.23-.1.38-.15.14-.04.27-.09.3-.13zm2.42-.57c-.2.02-.41.04-.45.07.26-.03.63-.03.8-.06l-.1-.02h-.25zm-1.47.32c-.3.05-.65.13-.77.21l.44-.11c.13-.04.25-.06.32-.1zM2.97 24.29c.1.33.2.76.35.9l-.15-.53a.82.82 0 0 0-.2-.37zm13.52-14.2c-.15.06-.27.13-.33.2.17-.09.33-.15.47-.21a1.35 1.35 0 0 0 .33-.2l-.47.2zM3.7 23.36c.09-.02.1-.4-.16-1.14-.07.8.09 1.16.17 1.14zm-.16 2.28c-.07-.18-.07-.45-.22-.4.03.21.12.01.15.22-.04.02.02.18.07.18zm21.93-15.48c-.1-.06-.25-.16-.42-.23a1.72 1.72 0 0 0-.43-.14l.47.21.38.16z"/>
      <path d="M21.35 12.87c.48.12 1.12.33 1.86.68a16.36 16.36 0 0 1 2.86 2.17c.64.6 1.06 1.1 1.18 1.23a70.7 70.7 0 0 0 4 3.98l.13-.13.01.06 6.83-7-.02-.02-.02-.02a6.22 6.22 0 0 0-.37-.37c-.97-.86-1.54-1.75-2.56-2.9 0 0-.62-.68-1.92-1.9C27.7 3.43 21.6 2.53 21.6 2.53A19.25 19.25 0 0 0 7.14 6.27a22.29 22.29 0 0 0-3.28 2.91s-1.64 2.16-2.81 7.18c-.14.6-.22 1.17-.22 1.17l-.08.6-.03.3-.02.3-.04.59v.6l.01.6.04.6c.08.76.23 1.68.46 2.58.22.9.54 1.79.87 2.5a22.52 22.52 0 0 1-.7-2.19 18.69 18.69 0 0 1-.45-2.38c-.1-.82-.13-1.66-.1-2.49l.04-.61.06-.61a17.97 17.97 0 0 1 .9-3.67 6.5 6.5 0 0 1 1-1.9c-.39.94-.87 2.03-1.21 3.16a11.76 11.76 0 0 0-.44 2.11l-.03.4c-.01.26-.02.52 0 .75l.03-.3.04-.28.08-.57a18.61 18.61 0 0 1 .8-3.13 14.8 14.8 0 0 1 1.8-3.54c-.37.54-.62 1.15-.88 1.66-.28.57-.69 1.13-.68 1.6-.22.44-.4.9-.36 1.14.18-.56.4-1.32.71-1.78-.42.9-.7 1.83-.9 2.68a15.78 15.78 0 0 0-.28 1.78l-.06.5c.01-.07.02-.18.06-.18-.01.18-.06.43-.1.7-.02.13-.04.26-.04.38 0 .13.02.25.05.35.03-.15 0-.3 0-.43-.01-.13-.01-.25.05-.35-.03.34 0 .63 0 .91v.42l-.03.43c-.05-.1.06-.55-.07-.65a8.16 8.16 0 0 0 .12 1.12l.1.5.13.51c.06-.05-.05-.36.02-.39.08.52.06.5 0 .58 0 .37.27.36.17.7-.02-.1-.02-.24-.07-.26a.41.41 0 0 0 .03.2c.02.06.06.11.1.17a.92.92 0 0 1 .17.5c-.11 0-.11-.4-.22-.42l.07.42c.03.1.06.2.13.33.17.04-.12-.25-.01-.33.26.77.59 1.64 1 2.45.4.81.88 1.56 1.37 2.1a13.4 13.4 0 0 1-1.5-3.93c-.32-.99-.53-2.18-.6-3.44-.07-1.26.03-2.6.3-3.9.17-.84.42-1.63.72-2.37.3-.75.63-1.44.97-2.1.03.02-.03.1 0 .14.39-.84.97-1.69 1.68-2.48a15.21 15.21 0 0 1 2.43-2.15 15.31 15.31 0 0 1 3.64-1.97c.33-.11.66-.24 1-.33l.52-.15.53-.11.26-.06.27-.04.53-.08c.36-.04.73-.08 1.1-.09.07-.07.18-.09.31-.09l.14.01-.13.04-.6.2-.32.12-.32.14c-.43.17-.84.37-1.15.51l-.51.26c.05.02.16 0 .3-.06.15-.05.32-.14.5-.23l.57-.28.47-.2c.65-.22 1.2-.37 1.71-.49.54 0 1.16.02 1.82.05a3.84 3.84 0 0 0-.44.1l-.03.02.04-.01.27-.05.25-.03.1-.02c.4.03.8.06 1.2.11l.36.04-.6.05-.82.08-.46.05h-.04c.11.02.2.05.26.11-.03-.03-.58.07-1.17.24l-.45.12-.41.14-.24.07a1.18 1.18 0 0 0-.37 0l-.2.02a4.87 4.87 0 0 0 .38-.13l.39-.14.41-.15.39-.12-.5.1a13.49 13.49 0 0 0-1.18.3l-.54.17-.29.08a16.4 16.4 0 0 0-.98.17c-.57.12-1.14.28-1.7.46-.28.1-.56.2-.83.32-.13.06-.27.1-.4.17l-.41.2a13.33 13.33 0 0 0-6.14 6.45l-.18.43-.05.1-.04.12-.09.24-.17.5a3.1 3.1 0 0 0-.08.24l-.07.26-.14.52c-.05.17-.08.34-.11.5l-.1.5-.06.47c.2-1.11.5-2.32.99-3.49a13 13 0 0 1 1.9-3.25l.63-.73.08-.1.1-.09.17-.18.37-.36c.11-.12.24-.22.36-.32.13-.1.24-.2.36-.28.23-.16.43-.3.6-.38-.3.24-.63.5-.96.8-.09.07-.18.14-.25.22l-.25.24-.25.24-.24.24c-.3.34-.62.68-.86 1.04-.12.17-.25.34-.35.51a15 15 0 0 0-.28.5c.17-.25.32-.5.51-.73l.27-.35c.08-.11.16-.23.26-.34l.55-.62.57-.58.15-.14.15-.13.3-.27c.1-.09.22-.17.33-.25l.33-.25a13.16 13.16 0 0 1 1.17-.74c-.42.24-.8.54-1.15.79l-.6.42c-.18.15-.34.3-.44.43-.3.26-.57.51-.66.67l.54-.54a3.94 3.94 0 0 1 .58-.47l-.45.38c-.14.12-.27.26-.4.39s-.26.25-.38.39l-.34.4-.17.19-.15.2-.27.37-.26.36-.21.33c.03-.05.07-.12.1-.12-.15.25-.5.64-.59.96.07-.1.11-.2.16-.3a.62.62 0 0 1 .16-.23l-.1.17c-.04.05-.06.1-.09.16l-.15.3-.16.28-.08.15a7.89 7.89 0 0 0-.09.15.89.89 0 0 1 .11-.23c.06-.1.11-.19.1-.24l-.1.2-.06.1-.04.1-.15.4-.14.38c-.05.12-.08.25-.12.38.04-.02.1-.26.14-.27-.14.4-.14.37-.2.41-.12.26 0 .33-.16.53.02-.07.07-.17.06-.2-.07.11-.07.2-.07.3 0 .1-.02.22-.09.4-.05-.03.08-.3.04-.36-.08.28-.14.37-.16.59.05.08.03-.21.1-.23-.03.15-.08.3-.1.48l-.1.5-.05.27-.02.13-.01.13-.06.53c-.08.71-.08 1.41 0 1.97v-.38c.01-.13.01-.27.03-.4l.09-.83.16-.85c.02-.14.07-.28.1-.42l.12-.42c.04-.2.1-.41.17-.62l.1-.33.1-.33.26-.68c.04-.12.1-.23.15-.34l.16-.34a14.3 14.3 0 0 1 1.66-2.67l.66-.75.7-.67c.25-.2.48-.42.73-.6l.36-.27.37-.26c0 .02-.07.06-.07.08a9.03 9.03 0 0 1 1.47-.85l-.32.3-.25.26-.24.27-.44.46a8.48 8.48 0 0 1-.48.4 18.14 18.14 0 0 0-.6.51c-.2.2-.4.42-.58.64a3.68 3.68 0 0 0-.42.73c-.09.23.02.13.2-.05.17-.18.39-.46.52-.6a17 17 0 0 1 2.74-2.56c.41-.28.57-.36.55-.33-.02.04-.22.19-.49.4-.54.43-1.3 1.15-1.65 1.5a9.06 9.06 0 0 0-.55.6l-.45.61c-.26.4-.5.77-.76 1.1.02-.03-.3-.11-.33-.1a.84.84 0 0 0-.19.14l-.2.24a5.75 5.75 0 0 0-.86 1.75c-.08.28.33.01.32.43-.01.57-.32 1.24-.63 2.03-.3.79-.64 1.69-.76 2.56a9.49 9.49 0 0 0-.05 2.28c.07.8.22 1.63.45 2.42.22.79.51 1.55.82 2.25.32.7.66 1.34.97 1.91.13.23.34.5.53.74.14.17.26.33.32.47a5.74 5.74 0 0 0-.15-.35l-.33-.7a3.28 3.28 0 0 1-.19-.45c0-.04.04.05.2.34.34.6.27.34.12-.07-.13-.42-.3-1-.24-1.01.11-.02.34.41.55.8.11.19.21.37.29.48.08.11.13.15.13.06 0-.15-.07-.37-.18-.63-.06-.13-.1-.27-.18-.42-.06-.15-.14-.3-.2-.47a18.8 18.8 0 0 1-.73-1.86 16.66 16.66 0 0 1-.83-4.32 14.04 14.04 0 0 1 .1-2.6c.12-.86.32-1.7.58-2.45a13.09 13.09 0 0 1 2.56-4.34 13.87 13.87 0 0 1 3.88-3.03c.72-.38 1.47-.7 2.23-.96a16.03 16.03 0 0 1 2.35-.57c.9.06 1.79.19 2.68.4.14-.04.36.05.54.1l1.24.34c.45.14.93.31 1.39.5l.14.06a10.6 10.6 0 0 0-1.32-.36l-.22-.05-.23-.03-.44-.07c-.3-.03-.58-.07-.87-.07a13.27 13.27 0 0 0-8.92 3c-.47.4-.92.83-1.31 1.3a11.49 11.49 0 0 0-1.93 3.05 14.07 14.07 0 0 1 3.99-4.65 13.24 13.24 0 0 1 2.8-1.6 12.84 12.84 0 0 1 6.53-.84 12.32 12.32 0 0 1 1.65.34c.27.08.54.15.8.26l.3.1c.53.26 1 .53 1.34.77.45.28.98.61 1.52 1 .54.4 1.09.86 1.57 1.37.08.06.12.06.18.1.07.08.15.2.25.3l.32.33.32.33a6.63 6.63 0 0 1 .65.78c.31.59.65 1.32.88 2.11l-.01-.02a22.66 22.66 0 0 0-1.26-1.59 21.51 21.51 0 0 0-2.99-2.84c-1.1-.86-2.33-1.6-3.68-2.14a11.02 11.02 0 0 0-2.1-.6l-.28-.05-.27-.04-.28-.03-.14-.02h-.14c-.18-.02-.37-.02-.55-.03h-.56c-.7.05-1.57.17-2.4.42a9.75 9.75 0 0 0-2.24.97 10.9 10.9 0 0 1 4.17-1.28 9.74 9.74 0 0 1 2.3.05c.76.11 1.5.3 2.18.56a13.5 13.5 0 0 1 2.13.99l.5.3.43.3c.26.2.49.38.64.54-.37-.26-.8-.53-1.23-.81-.23-.13-.45-.28-.69-.4l-.36-.2-.36-.18a8.7 8.7 0 0 0-2.9-.88c1.46.28 2.67.8 3.78 1.42 1 .58 1.95 1.26 2.87 2.1-.43-.37-.9-.7-1.3-1-.47-.34-.94-.76-1.33-.88l-.28-.18-.27-.16a2.89 2.89 0 0 0-.24-.12 1.21 1.21 0 0 0-.18-.06c.48.24 1.13.59 1.51.92a11.87 11.87 0 0 0-4.26-1.84l.08.04-.64-.15a2.82 2.82 0 0 0-.68-.07c.13.03.27.04.4.05.12 0 .23.01.32.06a1.83 1.83 0 0 0-.23-.03 28.82 28.82 0 0 1-.21-.03c-.14 0-.27-.03-.4-.03a9.98 9.98 0 0 1-.4-.02l-.19-.01-.2-.02a1.54 1.54 0 0 1 .3 0c.13.02.26.02.3 0-.37-.03-.71 0-1.04.02-.32.05-.63.08-.95.16.05.03.33-.06.36-.01-.49.07-.47.06-.54.03a.8.8 0 0 0-.2.03l-.13.06a.54.54 0 0 1-.31.07c.08-.02.21-.04.23-.07-.3.02-.36.18-.8.27 0-.07.36-.12.39-.18l-.39.1-.3.11c-.05.1.23-.1.3-.05-.72.25-1.51.62-2.22 1.08a8.48 8.48 0 0 0-1.77 1.5 9.8 9.8 0 0 1 3.38-2 8.5 8.5 0 0 1 1.5-.44l.2-.04.21-.03.43-.07.43-.03.22-.01h.22a9.11 9.11 0 0 1 1.83.14 10.51 10.51 0 0 1 3.9 1.52c.64.4 1.23.82 1.78 1.24-.02.02-.09-.05-.11-.04.7.52 1.41 1.17 2.08 1.91a23.48 23.48 0 0 1 1.83 2.3l-.53-.61c-1.58-1.78-3.31-2.72-4.1-3.15-3.65-1.98-7.28-1.9-7.3-1.82 0 .06 2.23.08 5.1 1.35 1.35.6 3.49 1.58 4.93 3.5-.57-.54-1.2-1.06-1.9-1.51-.24-.11-.55-.31-.8-.41.2.15.44.28.68.42l.7.45c.17.15.46.31.54.49a.05.05 0 0 0-.04.02 3.08 3.08 0 0 1-.4-.3l-.23-.18a.86.86 0 0 0-.26-.1l.59.45.27.22.07.07.07.09c-.06-.04-.13-.07-.18-.12-.08-.07-.11-.2-.23-.18-.05-.07-.1-.13-.18-.11.08.06.2.13.24.22-.24-.23-.54-.38-.71-.5 0 0 .02.01.01.03-.06-.03-.1-.16-.2-.14.03.04.11.02.1.08-.09-.07-.18-.08-.23-.17.02-.01.05.08.1.04-.11-.08-.23-.1-.36-.13-.01.03.05.03.03.06-.08-.04-.07-.05-.05-.08-.03-.06-.13.05-.12-.05.01.01.03.03.05.02-.02-.07-.12.04-.17-.04.04-.05.07.03.1-.01-.05-.04-.05-.07-.11-.06-.06.06.05 0 .02.06l-.43-.17a1.2 1.2 0 0 0-.46-.08c.19.1.4.27.56.46.15.1.33.2.5.34l.56.4a5.89 5.89 0 0 1 .48.4l.15.11c-.02.02-.02 0-.04.01a2 2 0 0 1 .39.34c.12.14.23.3.35.43l.23.27.24.27c.16.18.3.38.42.59.08-.01.06.05.08.1.06.14.2.31.32.49l.06.1-.64-.49c-1.87-1.48-3.85-3.71-5.06-4.6a11.15 11.15 0 0 0-1.87-1.12 10.36 10.36 0 0 0-1.37-.55 9.84 9.84 0 0 0-3.84-.4 8.78 8.78 0 0 0-3.46 1.08 8.41 8.41 0 0 0-2.65 2.34 9.3 9.3 0 0 0-1.34 3.19c-.5 2.41-.24 5.67 1.65 7.67.35.38.8.74.86.69.13-.1-1.07-1.3-1.74-3.26a9.51 9.51 0 0 1-.48-2.66c0-.24-.03-1.23.23-2.44a7.31 7.31 0 0 1 .3-1.07c.02-.03.28-.72.67-1.3 1.12-1.73 3.22-2.45 3.68-2.6.67-.23 1.2-.32 1.54-.38 1.96-.34 3.53-.01 4.2.16zM3.33 11.32c-.14.24-.3.53-.42.79-.13 0 .22-.51-.05-.11-.03-.1.09-.3.22-.5s.28-.42.31-.55c.12-.15.09.06-.02.15.08.02.22-.29.23-.34 0 .12-.12.32-.27.56zm1.18-1.69c.05-.05-.24-.01-.23.17-.1-.07.23-.36.37-.54-.18.27.44-.17-.14.37zm.5-.57c-.21.14.02-.16.14-.25-.05-.01-.14.11-.22.18-.09.01.3-.35.39-.4-.03.12-.3.35-.31.47zm5.13-.75l-.29.18-.28.2c-.07-.01.34-.26.01-.06a1 1 0 0 1 .34-.26c.17-.1.34-.18.41-.26.13-.06.03.05-.07.08.01.01.08-.02.14-.06a.96.96 0 0 0 .13-.09c-.05.06-.2.16-.39.27zm1.4-.74c.06-.02-.13-.04-.2.06-.02-.03.06-.07.16-.11l.31-.13c-.3.13.34 0-.27.18zm-5.59 12.7c-.04.03-.1-.05-.13-.13-.03-.1-.03-.2.01-.22.1-.04.2.3.12.36zm.7-2.69v0zm-.02 1.46c.11-.05-.08.03 0 0zm.16-1.93a.26.26 0 0 1 .05-.15 2.12 2.12 0 0 0-.05.15zm.08.3h-.02a76.32 76.32 0 0 1 .08-.4c.04.12.03.37-.06.4zm.91-3.92l-.29.6c-.15.3-.3.6-.38.6-.1.02-.07-.14.03-.37.1-.23.27-.52.43-.77.33-.48.63-.78.21-.06zm.32-.5c-.05 0-.07-.09-.05-.18.02-.1.06-.2.11-.2.1 0 .03.38-.06.39zm3.98-5.63c-.18.04.08-.08.19-.1-.02-.02-.13.02-.2.05-.03 0 .04-.04.14-.07a2.3 2.3 0 0 1 .25-.07c-.06.06-.32.12-.38.19zm.39 1.05c-.05-.02-.02-.11.03-.2.05-.08.13-.15.18-.13.1.04-.12.36-.21.33zm.9-.55c-.2.14-.35.08-.49.01l.41-.12c.07.05.1.1.07.11zm6.3-1.61h.01l.02.02-.02-.02zm.1-.54c-.46.07-.86.06-.14-.1.14-.04.46-.07.71-.04v-.16c.44.15-.1.25-.57.3zm1.4-.15c.07.11-.05-.06 0 0zm1.16.15l-.52-.04c-.14-.01-.25-.04-.28-.1.01.03.23.03.56.05h.1l.07.02.26.07h-.19zm2.58.92V6.6h-.01l.01.03zm7.47 6.28l-.36-.42-.36-.4a16.42 16.42 0 0 0-1.5-1.37 27.43 27.43 0 0 0-1.23-.96c-.41-.3-.83-.57-1.26-.83a21.44 21.44 0 0 0-2.65-1.33 18.56 18.56 0 0 0-1.15-.44 11.9 11.9 0 0 1 4.96 1.95 13.04 13.04 0 0 1 2.3 1.95l.24.27.13.14.06.07.05.06.4.5.78.98c.12.15 1.21 2.13 1.85 2.9a2.02 2.02 0 0 1-.32-.07 14.32 14.32 0 0 0-1.26-2.11c-.21-.31-.45-.6-.68-.89zm-4.18-1.2c0-.09.4.28.08 0 .08 0 .24.14.4.28.16.14.33.3.43.35.12.12-.04.04-.12-.06 0 .05.24.23.28.25-.17-.07-.65-.53-1.07-.83zm1.97 1.74c.04.05-.01-.16-.15-.2.05-.06.32.29.45.42-.26-.27.16.34-.3-.22zm.46.49c-.12-.18.1.06.19.16 0-.03-.1-.13-.15-.2-.02-.06.28.3.32.37-.09-.04-.27-.29-.36-.33zm-1.07 1.82l-.05-.06c.03-.02.05.05.08.06h-.03zm.05.05c.02-.02.06.05.06.07a1.4 1.4 0 0 0-.06-.07z"/>
      <path d="M29.36 12.08c-.22-.2-.51-.4-.54-.28-.02.15.56.47.55.47.3.19.2 0-.01-.2zM3.84 26.14c-.04-.07-.08-.2-.12-.3-.03-.1-.07-.2-.12-.22.03.13 0 .15-.07.1.05.08.08.32.15.28-.03-.3.04.08.16.14zm23.52-15.53c0-.1-.31-.08-.31.01 0 .1.31.09.31 0zm-.24 3.81c-.05-.03-.1-.1-.15-.07.05.05.08.1.15.07zm.21-.04c-.04-.02-.08-.08-.13-.04.04-.01.08.09.13.04zm.16.1c-.05-.04-.1-.09-.14-.07.04.04.09.07.13.06zm.21.02c.05.02.08.09.13.08.03-.02-.09-.1-.13-.08zm-11.6-4.2c-.18.06 0 .06-.19.13-.01-.02-.16.06-.16.09.16-.09.4-.15.36-.23zm-5.21 5.34c0 .04-.25.42-.29.58.13-.27.4-.68.29-.58zm14.8-1.87c-.02.02-.08-.04-.12-.02.05.02.12.08.12.02zm1.1.54c.02 0 .05.06.08.04-.01-.02 0-.04.02-.05-.02 0-.04-.05-.05-.02.01.07-.02 0-.06.03zm.1 0c.03.02.03.1.08.02-.01-.04-.03.04-.05 0 .01-.01-.01-.03-.03-.01zm1.52.79c.04.04.09.09.14.09-.01-.04-.08-.12-.14-.1zm-.03 0c.03-.04.03-.06.02-.08-.07.06-.07-.08-.13-.03.03.05.1.06.11.1zm-13.06-4.27c.13-.1.42-.21.45-.28-.11.05-.12.04-.08-.02-.07.05-.27.14-.24.17.26-.1-.07.04-.13.13zm12.3 3.74c.04.05.12.03.12.1.04-.06-.08-.12-.11-.1zm.16.06c-.05.04.03.08.05.06-.01-.02-.01-.04-.05-.06zm.25.19c-.03-.04-.08-.1-.15-.11.01.04.1.1.15.1zm.18.15s.05.02.07-.01c-.08-.1-.2-.05-.07 0z"/>
    </g>
    <g fill="#288641">
      <path d="M53.25 37.03l.16.04c.67.2 1.37.34 2.06.43.2.03.91.09.96.36.05.3-.66.22-.86.2-1.22-.1-2.5-.25-3.5-.96-.16-.13-.37-.44.01-.41.21.01.4.18.6.23.18.05.38.07.57.11z"/>
      <path d="M53.19 36.15c1.68.26 3.35.54 5.06.52a20.6 20.6 0 0 0 4.82-.64c.58-.14 1.2-.07 1.83-.06.62.01 1.24-.05 1.7-.44.15-.14.12-.64.28-.74.71-.44 1.46-.78 2.26-1.14a6.2 6.2 0 0 0 2.22-1.9c.68-.88 1.2-1.91 1.62-2.87.11-.27.4-.48.62-.7.23-.23.39-.45.27-.67-.1-.17-.27-.15-.43-.16-.16-.02-.3-.08-.33-.39-.01-.09.06-.02.17.08.1.1.23.23.35.24.36.02.2-.17-.06-.36-.16-.12-.47-.23-.58-.4-.13-.17-.01-.27.04-.44.06-.18.06-.4-.15-.3-.15.08-.27.43-.32.57-.07.23-.03.46-.1.69a.73.73 0 0 1-.2.28l-.32.25c-.2.17-.38.35-.3.67.03.12.41.5.35.61a.38.38 0 0 0-.06-.04c-.31-.16-.36.13-.52.38a15.48 15.48 0 0 1-.54.79c-.61.81-1.23 1.68-2.13 2.18-.49.27-1 .48-1.44.83-.06.04-.12.1-.19.11-.07.03-.16.02-.21-.03-.07-.06-.07-.18-.02-.25.13-.24.5-.4.71-.53.34-.2.68-.43.88-.68.09-.12.2-.24.33-.38l.44-.43c.3-.31.66-.67.99-1.06.33-.4.65-.84.92-1.28.27-.45.48-.91.64-1.32.06-.17.16-.34.26-.51l.29-.54c.07-.17.14-.33.14-.48 0-.14-.04-.25-.17-.33-.26-.15-.35-.09-.37.01-.07.3-.05.65-.12.94-.1.38-.52.63-.7.98l-.52 1.15c-.19.4-.4.81-.64 1.21a7.11 7.11 0 0 1-.83 1.1c-.37.4-.84.69-1.28 1-.2.14-.37.27-.5.47-.16.24-.28.35-.56.47l-.5.17c-1.05.32-1.91.94-3.08.78-.1 0-.23-.06-.23-.16 0-.08.08-.14.15-.18.9-.47 1.9-.38 2.74-1 .37-.28.66-.74.95-1.1.05-.07.1-.14.09-.22-.55.46-1.2.68-1.78 1.07-.37.25-.78.54-1.27.65a25.1 25.1 0 0 1-3.39.47 15.25 15.25 0 0 1-3.56-.16c-.16-.03-.85-.2-.81-.34.24-.02 1.35.25 1.41-.17.01-.1-.6-.23-1.08-.4-.46-.15-.78-.32-.17-.41.7-.11 1.6-.03 2.47.06.87.07 1.7.14 2.24.08.55-.05 1.1-.06 1.67-.1a5.7 5.7 0 0 0 1.72-.37c.15-.06.31-.1.45-.17.14-.08.24-.18.25-.36.02-.43-.32-.29-.16-.57.12-.25.48-.3.7-.44.1-.07 1.12-.84.75-.99-.14-.06-.26 0-.36.09l-.15.16-.15.17c-.23.21-.5.4-.81.55-.31.16-.65.3-1.02.4-.74.2-1.58.3-2.46.34-.87.03-1.79 0-2.7-.04l-1.39-.06c-.46-.01-.93-.03-1.4-.03a7.42 7.42 0 0 1-4.12-1.41 13.62 13.62 0 0 1-2.18-1.87c-.04-.05-.1-.09-.12-.13l-.11-.12a8.67 8.67 0 0 0-.42-.43 7.33 7.33 0 0 1-1.44-1.82c-.16-.3.02-.24.23-.09l.32.24.16.13c.5.36.97.74 1.43 1.14l.17.15.02.02.01.01.02.02.04.03.14.12.34.27c.53.43 1.28.96 2.1 1.45 1.66.97 3.67 1.79 5.6 1.8 1.49 0 2.78-.14 3.9-.35 1.13-.22 2.09-.53 2.9-.9.05-.04.2-.12.3-.22.1-.1.11-.25-.05-.3-.13-.04-.21.11-.3.19-.24.18-.48.24-.75.34-.27.1-.5.3-.78.42-.8.31-1.7.3-2.54.35-.95.06-2 .06-3.1-.06a13.74 13.74 0 0 1-3.26-.75c-.87-.33-1.49-.79-2.76-1.64a6.14 6.14 0 0 1-1.27-1.11l-.07-.06-.02-.02-.02-.02-.1-.08-.36-.34a60.37 60.37 0 0 1-2.98-2.85s-1.02-1.2-1.08-1.15l-.04.04-.1.1-.12.13-.1.1-.44.44-.57.6-.97 1-1.27 1.3-1.64 1.66a31.9 31.9 0 0 1-1.54 1.5c.83.87 1.57 1.58 2.15 2.13 2.2 2.04 2.25 1.73 2.84 2.37.03.04.22.25.3.21.13-.08-.29-1.05-.2-.96l.4.45c.58.61 1.17 1.18 1.8 1.72 1.24 1.08 2.6 2 3.92 2.51.61.24 1.01.22 1.29.15.7-.2-.6-.51-.57-.51a21.38 21.38 0 0 1-2.37-1.27 17.75 17.75 0 0 1-1.73-1.21c-.48-.38-1-.63-1.4-1.1-.04-.04-.08-.1-.09-.15-.04-.18.17-.14.27-.09.58.28 1.04.75 1.54 1.15a14.17 14.17 0 0 0 4.25 2.25c.42.13.85.2 1.29.26l.53.08zm-8.85-4.74c-.18-.01-.48-.38-.3-.36.19.01.49.37.3.36zm-.22-.25c-.06.1.1-.17 0 0zm-.2-.2c-.06.11.11-.16 0 0zm-.25-.27c-.35-.1-.63-.5-.42-.46.56.08.76.56.42.46zm21.1 4.44c.05.12-.1-.18 0 0zm8.42-7.48c.12.01-.2-.03 0 0zm-5.49 6.13c.08.1-.13-.15 0 0zm-5.31 1a.3.3 0 0 1-.12-.07c-.08-.08-.1-.22-.01-.3.09-.07.32-.14.43-.17.18-.04.4-.04.58-.05l.44-.04c.66-.12 1.3-.42 1.75-.43.27 0 .37.02.38.06 0 .05-.09.11-.23.17-.29.13-.77.26-.98.3-.69.17-1.35.45-2.05.55a.37.37 0 0 1-.2-.01zm-8.31-.27c-.24-.03-.47-.12-.73-.11-.22 0-.34.03-.56-.07-.15-.06-.86-.37-.57-.6.2-.18.75-.05.97-.02.93.14 1.84.44 2.78.51.79.06 1.59 0 2.38.03.33 0 .7 0 1.02.08.33.1.22.27-.06.42-.78.4-1.36.12-2.14.01a17.3 17.3 0 0 1-1.68-.34c-.51-.12-.95.16-1.41.09zm-2.13-.9c-.2.08-.64-.14-.53-.19.2-.08.64.13.53.18zm15.78-.5c.09.09-.13-.15 0 0zm-.18.09c.09.1-.12-.15 0 0zm-.96.35c-.13.16-.38.39-.53.28-.1-.08-.06-.3.04-.37l.22-.15a.47.47 0 0 1 .17-.08c.06-.01.13 0 .17.05.03.05.03.12 0 .17a.9.9 0 0 1-.07.1zm-5.89 1.16c.08.33-.92.2-.27 0 .03-.01.25-.1.27 0zm12.14-9c.12 0-.2 0 0 0zM61.9 34.36c.05.14-.14.45-.18.3-.05-.14.14-.45.18-.3zm-13.94-3.3c-.14.07-.52-.13-.33-.2.15-.06.52.13.33.2zm4.75 1.73c-.39-.3.1-.26.72-.13.62.14 1.39.34 1.55.48.33.27.18.31-.11.27-.29-.04-.7-.18-.87-.22-.54-.16-1.03-.2-1.28-.4zm5.74.93c-.11 0-.84.16-1.25-.15-.44-.33.52-.22.75-.2.46.04 1 .13 1.52.18a4.9 4.9 0 0 0 1.4-.03c.11-.02.21-.1.32-.14.16-.05.33-.09.5-.11a.7.7 0 0 1 .25 0c.08.01.16.06.19.14.1.24-.42.34-.58.37-.41.07-.9.04-1.06.04-.68 0-1.44-.1-2.04-.1zm-6.83-1.52a3.18 3.18 0 0 0 .55.28c.21.14-1.27-.22-.55-.28zm-3.08-.66l-.23-.12c-.1-.06-.19-.13-.1-.16 0 0 .9.07.33.28zm6.96.81c0 .16-.32.43-.32.23.01-.16.33-.43.32-.23zm-.37-.09c0 .13 0-.2 0 0zm-.47.36a.27.27 0 0 1-.15-.02 1.01 1.01 0 0 1-.26-.13c-.06-.04-.11-.1-.18-.14-.3-.2-.75-.11-1.05-.35-.13-.1 0-.29.14-.21.14.08.48.1.8.13.25.02.54.15.72.33.12.12.13.36-.02.39zm-3.58-1.72c-.03.15-.33.34-.3.19.04-.15.34-.34.3-.2zm-.29-.13c-.03.15-.33.33-.3.18.04-.14.34-.33.3-.18zm-.22-.11c-.03.14-.26.3-.25.21.04-.14.27-.29.25-.21zm.2-.56c-.1.38-.7-.22-.16-.08.02.01.18.01.16.08zm-.6-.64c-.06.19-.3.13-.45.03-.15-.1-.22-.25.05-.25-.01 0 .48 0 .4.22zm-.67-.73l-.22.1c-.1.05-.2.07-.17 0l.1-.1c.06-.05.13-.12.2-.16.12-.1.2-.12.1.16zm-.63-.45c-.08.16-.3.08-.42-.03-.12-.1-.14-.24.09-.23 0 0 .1.03.19.08.08.05.18.11.14.18zm14.46 2.63c.06.14-.05.46-.1.32s.05-.46.1-.32zm-2.22.25c.03.12-.04-.2 0 0zm2.85-.7c.17.35-.73.47-.39.1 0 0 .07-.08.16-.13s.18-.08.23.03zm.57 6.55a.55.55 0 0 1-.33.49.88.88 0 0 1-.54.06c-.31-.07-.4-.3.39-.47.11-.03.49-.25.48-.08zm-1.76.52c-.42 1.09-.55-.67 0 0zm-1.66.1c.1.3-.43.36-.83.3-.4-.07-.67-.23-.11-.29l.45-.1c.23-.03.45-.03.49.1zm-2.5-.06c.04.16-.22.43-.25.28-.02-.15.23-.43.26-.28zm6.16-.64c.06.11-.09-.18 0 0zm-2.73.37c.05.14-.17.46-.22.3-.05-.14.17-.45.22-.3zm-.47.02c.04.14-.12.39-.15.3-.04-.13.12-.37.15-.3zm-.31.02c.03.12-.06-.2 0 0zm14.35-16.1c.11-.04-.2.08 0 0zM70.6 34.08c.11.09.11.39.04.34-.12-.1-.11-.4-.04-.34zm-.75.52c.03.06.11.28.12.44 0 .16-.07.25-.3.03-.36-.33.04-.73.18-.47zm-2.69 1.36c.08.1-.11-.17 0 0zm-1.13.38c.06.1-.1-.17 0 0zm3.93-2.16c.1.08-.16-.13 0 0zm4.4-6.26c.12.01-.2-.02 0 0zm-2.11-14c.09-.1-.14.15 0 0zm.19.99c.3-.25.47.74.1.2-.03-.03-.16-.15-.1-.2zm2 6.5c.11-.04-.19.08 0 0zm.06.59c.12-.05-.19.06 0 0zm-1.7-5.54c.12-.08.4-.02.33.03-.12.08-.4.02-.33-.03zm-.56 1.03c.13-.08.48.01.35.1-.13.08-.48-.02-.35-.1zm.14.38c.13-.08.54.07.36.17-.13.08-.53-.06-.36-.17zm-.12.61l.25.09c.11.04.2.1.13.15 0 0-.9.06-.38-.24zm.16.51c.12-.07.4.01.32.05-.13.07-.4 0-.32-.05zm.12.46c.65-.24.13.45.13.52 0 .19.05.65.07 1.1.03.44.03.87-.02 1.02-.2.59-.22.43-.19.1.03-.33.08-.85.07-1-.02-.49-.26-.9 0-1.48.02-.04-.14-.24-.06-.26zm-.34-.12c.13-.07.4 0 .32.05-.12.07-.4-.01-.32-.05zm.27 3.42c.62.02.46.48.17.78a.97.97 0 0 1-.42.28c-.11.02-.14-.04-.04-.25.02-.04.15-.23.25-.42.09-.2.14-.39.04-.39zm-1.2 1.19c-.24-.14-.08-.71.06-1.23.06-.24.03-.71.18-.9l.06-.04c.07 0 .1.08.1.14 0 .12 0 2.25-.4 2.03z"/>
      <path d="M68.31 30.24a3.94 3.94 0 0 1-.3.25c-.05.04-.13.07-.17.02.02-.07.08-.12.13-.17.35-.33.65-.68.91-1.07.2-.32.43-.64.64-.98a9.6 9.6 0 0 0 1.06-2.19c0-.04.06-.15.14-.3l.1-.22.12-.25.2-.47.05-.16.03-.06c.13.05.19.15.2.29 0 .14-.05.3-.12.47l-.25.47a2.01 2.01 0 0 0-.2.37c-.14.42-.3.84-.48 1.23-.08.2-.2.38-.28.57-.11.18-.2.36-.32.53a7.34 7.34 0 0 1-.88 1.1c-.18.2-.37.39-.57.57zm1.04-13.53c.1-.08-.16.11 0 0zm1.6 7.63c.14-.01.37.13.28.14-.14 0-.37-.13-.28-.14zm-2.12 4c.11.05-.18-.09 0 0zm-.63.77c.1.06.05.2-.07.35a2.01 2.01 0 0 1-.48.44c-.37.24-.67.31-.26-.07.02-.01.05-.1.1-.19l.18-.32a.78.78 0 0 1 .1-.14.42.42 0 0 1 .13-.1c.08-.05.18-.05.3.03zm-2.53 1.07c.07.1-.11-.16 0 0zm3.8-5.94c.12 0-.2 0 0 0zm-1.18 3.3c.12.06-.18-.07 0 0zm-1.13 1.33c.1.08-.15-.13 0 0zm-.13.1c.15.13.04.27-.08.31-.11.04-.21 0-.04-.2.01-.02.04-.18.12-.1zm2.06-4.27c.17 0 .2.16.16.25-.04.09-.13.12-.18-.09-.01-.02-.08-.16.03-.16zm-.1.47c.23.13.45.8-.19.62a.34.34 0 0 1-.23-.2.43.43 0 0 1 0-.29c.05-.18.2-.27.42-.13z"/>
      <path d="M68.16 26.5l.08-.26c.02-.1.04-.2.13-.26.01 0 .03-.02.05-.01.04 0 .05.06.05.1-.04.45-.17.89-.25 1.33l-.04.21c-.03.15-.08.29-.13.43-.03.08-.07.14-.11.2a.87.87 0 0 1-.15.2c-.22.23-.57.4-1.07.41-.14 0-.2-.04-.2-.09-.01-.04.03-.11.1-.19l.1-.1.11-.1c.08-.06.13-.12.16-.15l.33-.33c.09-.12.19-.22.27-.34.2-.3.43-.68.57-1.05zm.75-2.87c.13-.02-.2.02 0 0zm-.06.75c.12 0-.2 0 0 0zm-1.73.84c.25.05.2.33.09.5-.12.19-.3.25-.29 0 0-.02-.02-.16 0-.28.01-.13.05-.25.2-.22z"/>
      <path d="M69.2 17.73l-.27-.66c-.02-.07-.02-.18.06-.17.02 0 .04.03.05.04a6.1 6.1 0 0 1 1.24 3.45 7.24 7.24 0 0 1-.8 3.58c-.08.16-.4.49-.49.18-.03-.1.28-.6.32-.71a8.74 8.74 0 0 0 .38-1.9 8.83 8.83 0 0 0-.5-3.81zm5.94 2.89a8.65 8.65 0 0 1-.96 4.51c-.2.35-.42.72-.35 1.1.45-.34.68-.88.87-1.4.4-1.15.67-2.35.68-3.56 0-.58-.06-1.16-.12-1.74-.12-1.24-.26-2.55-.92-3.64-.09-.15-.44-.62-.4-.22.01.14.29.4.35.56.24.6.37 1.29.51 1.92.18.81.3 1.64.34 2.47z"/>
    </g>
  </g>
</svg>
