<svg xmlns="http://www.w3.org/2000/svg" xmlns:xlink="http://www.w3.org/1999/xlink" width="40" height="40" viewBox="0 0 40 40">
    <defs>
        <path id="a" d="M39.536 1.887c-.806-1.312.624 4.738 0 5.006.19.394.297 1.336.464.241-.188 3.451-.445 5.185-.971 7.566.191.396.279-.738.392-.386-.041.277-.166 1.095-.052 1.455.113.35.16-.505.243-1.052-.033 3.524.127 3.882-.424 4.138.26 1.786.224 2.678-.139 3.967.181.622.37 1.66.435-.53.026 1.231.264 7.526-.177 7.651.11.386.033 1.723-.02 2.047.02 1.382.029 2.134.038 2.88l.005 1.322-.017 2.22-.073-1.048c-.189.41-.258 1.502-.273 2.04-.54-.013-1.094.018-1.779.047a34.76 34.76 0 0 1-2.238.037l.067.051c-5.364.36-2.315-.172-7.607.238l.287-.31c-.077-.104-.245-.166-.485-.198l-.773.058.075-.08c-1.576.044-4.368.542-6.576.358l1.108-.177c-1.677-.228-4.688.232-6.373.314-.367.058.58.093 1.093.137-3.387.302-1.908-.1-2.529-.345-.626.016-.76-.043-.786-.13-.155-.012-.334-.02-.543-.027-.606.22.78.559-1.43.6-.468.074-1.69-.041-3.173-.169l-1.152-.094-.599-.044-.303-.02-.471-.017a74.09 74.09 0 0 0-3.694-.057 35.33 35.33 0 0 0-.01-.456c-.322-.001-.642 0-.96.004A24.751 24.751 0 0 0 0 36.948c.18.948.36 1.617.496-.465.01-.388.004-.809-.009-1.25l-.06-.993c-.058-.687-.118-1.422-.177-2.148-.108-1.452-.151-2.879.134-3.867-.05-.28-.098-.383-.142-.396.146-1.672.243-5.438.552-6.446-1.145-1.546.558-10.402-.5-10.364l.057-5.147-.107.134C.174 2.716.427 1.554.68.397.609-.363.51.191.454.254c3.289.024 5.573.072 6.851.143 1.882.106 3.657.462 4.603.5 2.668.108 4.378-.206 5.509 0 2.97.544 5.14-.52 6.358-.5.982.017 2.061-.021 2.664 0 .616.022 1.385.943 1.875.96.619.02 1.202-.983 1.77-.96 2.132.09 5.282.586 9.452 1.49z"/>
    </defs>
    <g fill="none" fill-rule="evenodd" transform="rotate(90 20 20)">
        <mask id="b" fill="#fff">
            <use xlink:href="#a"/>
        </mask>
        <use fill="#F15060" xlink:href="#a"/>
        <path fill="#D04351" d="M33.804-.855h5.787v39.949h-4.406c-.216-1.938-.822-3.399-2.75-.739 6-12 1.643-35.176 1.37-39.21z" mask="url(#b)" style="mix-blend-mode:multiply"/>
    </g>
</svg>
