<svg xmlns="http://www.w3.org/2000/svg" xmlns:xlink="http://www.w3.org/1999/xlink" viewBox="0 0 40 40">
  <defs>
    <path id="a" d="M39.54 2.74c-.81-1.3.62 4.74 0 5 .19.4.3 1.34.46.25a40.83 40.83 0 0 1-.97 7.57c.19.4.28-.74.4-.4-.05.29-.17 1.1-.06 1.46.11.36.16-.5.24-1.05-.03 3.53.13 3.88-.42 4.14a8.26 8.26 0 0 1-.14 3.97c.18.62.37 1.66.43-.53.03 1.23.27 7.52-.17 7.65.1.38.03 1.72-.02 2.05l.04 2.88v1.32l-.02 2.22-.07-1.05c-.19.41-.26 1.5-.27 2.04-.54-.01-1.1.02-1.78.05a34.76 34.76 0 0 1-2.24.03l.07.05c-5.37.36-2.32-.17-7.61.24l.29-.3c-.08-.11-.25-.17-.49-.2l-.77.05.07-.08c-1.57.05-4.36.54-6.57.36l1.1-.18c-1.67-.23-4.68.24-6.37.32-.36.06.58.1 1.1.13-3.4.3-1.91-.1-2.53-.34-.63.02-.76-.04-.79-.13l-.54-.03c-.6.22.78.56-1.43.6-.47.08-1.7-.04-3.17-.17l-1.16-.1-.6-.03-.3-.02-.47-.02a74.09 74.09 0 0 0-3.7-.06 35.33 35.33 0 0 0 0-.45H.12A24.75 24.75 0 0 0 0 37.8c.18.95.36 1.62.5-.46a23 23 0 0 0-.01-1.25l-.06-1-.18-2.14a12.2 12.2 0 0 1 .13-3.87c-.05-.28-.1-.38-.14-.4.15-1.67.25-5.43.55-6.44-1.14-1.55.56-10.4-.5-10.37l.06-5.14-.1.13c-.08-3.29.18-4.45.43-5.6C.61.48.51 1.04.45 1.1c3.3.02 5.58.07 6.86.14 1.88.1 3.65.46 4.6.5 2.67.11 4.38-.2 5.5 0 2.98.55 5.15-.52 6.37-.5.98.02 2.06-.02 2.66 0 .62.02 1.38.94 1.87.96.62.02 1.2-.98 1.77-.96 2.14.1 5.29.59 9.46 1.5z"/>
  </defs>
  <g fill="none" fill-rule="evenodd" transform="rotate(90 20.43 20.43)">
    <mask id="b" fill="#fff">
      <use xlink:href="#a"/>
    </mask>
    <use fill="#EEE" xlink:href="#a"/>
    <path fill="#EEE" d="M33.8 0h5.8v39.95h-4.42c-.21-1.94-.82-3.4-2.74-.74 6-12 1.64-35.18 1.37-39.21z" mask="url(#b)" style="mix-blend-mode:multiply"/>
  </g>
</svg>
