<svg xmlns="http://www.w3.org/2000/svg" viewBox="0 0 56 6" height="6px" width="100%" preserveAspectRatio="none">
  <path fill="#00B752" d="M53.232 1.967c.59.252 1.168.52 1.769.757 1.937.767.75 2.805-.955 2.22-1.099.12-2.287.164-3.404.279-4.907.498-10.148.182-15.077.503-2.01.13-17.37.189-19.392.162-1.097-.014-2.188-.42-3.285-.457-1.56-.056-3.047.342-4.698.185C6.01 5.41 1.405 5.327.227 3.513-1.007 1.613 3.109.924 4.919.819c.218-.013.44-.02.66-.018C12.217.873 31.969.525 38.52.093c3.233-.214 6.603-.029 9.9.243 1.67.137 3.311.866 4.966 1.327l-.154.304z"/>
</svg>