<svg xmlns="http://www.w3.org/2000/svg" xmlns:xlink="http://www.w3.org/1999/xlink" viewBox="0 0 112 112">
  <defs>
    <path id="a" d="M58.04 37.31a4 4 0 1 1 5.92 5.38l-20 22a4 4 0 0 1-5.52.38l-12-10a4 4 0 0 1 5.12-6.14l9.06 7.54 17.42-19.16z"/>
  </defs>
  <g fill="none" fill-rule="evenodd">
    <g transform="translate(11 3)">
      <path fill="#00B752" d="M0 18.82V52.7c0 36.1 41.83 51.83 43.63 52.47a3.7 3.7 0 0 0 2.54 0c1.8-.64 43.63-16.37 43.63-52.47V18.82a3.76 3.76 0 0 0-2.47-3.54L46.17.23a3.7 3.7 0 0 0-2.54 0L2.47 15.28A3.76 3.76 0 0 0 0 18.82z"/>
      <path fill="#FFF" d="M6.9 23.77V52.7c0 30.82 35.4 44.26 36.93 44.8a3.1 3.1 0 0 0 2.15 0c1.52-.54 36.92-13.98 36.92-44.8V23.77a3.2 3.2 0 0 0-2.09-3.02L45.98 7.89a3.1 3.1 0 0 0-2.15 0L8.99 20.75a3.21 3.21 0 0 0-2.09 3.02z"/>
      <path fill="#00B752" d="M12 28.57V53c0 26.03 30.75 37.38 32.06 37.84a2.77 2.77 0 0 0 1.87 0C47.26 90.38 78 79.03 78 53V28.57a2.72 2.72 0 0 0-1.81-2.55L45.94 15.16a2.77 2.77 0 0 0-1.87 0L13.8 26.02a2.72 2.72 0 0 0-1.8 2.55H12z"/>
      <use fill="#FFF" fill-rule="nonzero" xlink:href="#a"/>
    </g>
  </g>
</svg>
