<svg xmlns="http://www.w3.org/2000/svg" xmlns:xlink="http://www.w3.org/1999/xlink" viewBox="0 0 112 112">
  <defs>
    <path id="a" d="M40.14 26.59L26.1 3.13a6.58 6.58 0 0 0-11.2 0L.85 26.6C-1.6 30.77 1.5 36 6.46 36H34.5c5.01 0 8.1-5.24 5.65-9.41zm-19.64-18c1.82 0 2.69 1.67 2.69 4.45 0 2.77-1.5 8.14-1.5 8.14-.05.22-.37.92-1.24.92a1.24 1.24 0 0 1-1.23-.92s-1.5-5.37-1.5-8.14c0-2.78.96-4.45 2.78-4.45zm-.05 21.82a2.87 2.87 0 0 1-2.87-2.77 2.88 2.88 0 0 1 2.87-2.81c1.6 0 2.92 1.27 2.92 2.81 0 1.5-1.32 2.77-2.92 2.77z"/>
  </defs>
  <g fill="none" fill-rule="evenodd">
    <path fill="#F15060" d="M11 21.82V55.7c0 36.1 41.83 51.83 43.63 52.47a3.7 3.7 0 0 0 2.54 0c1.8-.64 43.63-16.37 43.63-52.47V21.82a3.76 3.76 0 0 0-2.47-3.54L57.17 3.23a3.7 3.7 0 0 0-2.54 0L13.47 18.28A3.76 3.76 0 0 0 11 21.82z"/>
    <path fill="#FFF" d="M17.9 26.77V55.7c0 30.82 35.4 44.26 36.93 44.8a3.1 3.1 0 0 0 2.15 0c1.52-.54 36.92-13.98 36.92-44.8V26.77a3.2 3.2 0 0 0-2.09-3.02L56.98 10.89a3.1 3.1 0 0 0-2.15 0L19.99 23.75a3.21 3.21 0 0 0-2.09 3.02z"/>
    <path fill="#F15060" d="M23 31.57V56c0 26.03 30.75 37.38 32.06 37.84a2.77 2.77 0 0 0 1.87 0C58.26 93.38 89 82.03 89 56V31.57a2.72 2.72 0 0 0-1.81-2.55L56.94 18.16a2.77 2.77 0 0 0-1.87 0L24.82 29.02A2.72 2.72 0 0 0 23 31.57z"/>
    <use fill="#FFF" transform="translate(35 33)" xlink:href="#a"/>
  </g>
</svg>
