<svg xmlns="http://www.w3.org/2000/svg" viewBox="0 0 320 14">
  <g fill="none" fill-rule="evenodd">
    <path fill="#F6F6F6" d="M320 14H0V0c3.14.15 9.17.87 12.29 1.11 21.39 1.64 42.86.96 64.17 2.9 12.58 1.15 25.35-.95 39.25 2.2-9.37 2.73-17.6.12-25.54 1.92 10.35-1.4 21.07 3.57 31.22-2.02 1.14-.62 2.93-.39 4.36-.19 7.3 1 14.84-1.28 22.04 2.4 2.7 1.36 6.72-.6 10.4.28-.99-2.48-3.63.03-4.35-2.13.4-.22.77-.59 1.2-.66 4.54-.81 9.5.46 13.13 1.6 4.37 1.36 6.8-3.03 9.67-1.19 3.56 2.29 6.63.87 9.87.02 2.98-.77 6.3-1.1 8.73.13 7.6 3.88 15.67 2.31 23.52 2.44 6.76.1 13.56-.78 20.36-.02 1.38.16 3.34 0 4.13-.82.86-.88-3.18-1.36-1.59-1.91 2.36-.83 5.7-1.74 8.1.94 1.9 2.14 3.2 2.1 5.42-.32 1.7-1.84 5.17-2.66 6.12 1.64.21 1 1.04 1.59 1.89 1.38 8.58-2.13 16.36 2.81 24.72 2.53 1.17-.04 1.22.02 2.35-3.04.32-.9.79-1.6 1.72-1.5 4.02.47 8.13-1.31 12.04.2.37 4.19-4.18 1.32-5 3.72 4.62 1.62 11.2 1.08 19.78-1.61v4z"/>
  </g>
</svg>
